%TF.GenerationSoftware,KiCad,Pcbnew,10.0.4*%
%TF.CreationDate,2026-07-20T13:22:45+02:00*%
%TF.ProjectId,platform-board,706c6174-666f-4726-9d2d-626f6172642e,rev?*%
%TF.SameCoordinates,Original*%
%TF.FileFunction,Copper,L2,Bot*%
%TF.FilePolarity,Positive*%
%FSLAX46Y46*%
G04 Gerber Fmt 4.6, Leading zero omitted, Abs format (unit mm)*
G04 Created by KiCad (PCBNEW 10.0.4) date 2026-07-20 13:22:45*
%MOMM*%
%LPD*%
G01*
G04 APERTURE LIST*
%TA.AperFunction,ComponentPad*%
%ADD10C,7.000000*%
%TD*%
%TA.AperFunction,ComponentPad*%
%ADD11R,1.700000X2.000000*%
%TD*%
%TA.AperFunction,ComponentPad*%
%ADD12C,2.000000*%
%TD*%
%TA.AperFunction,ComponentPad*%
%ADD13R,1.800000X1.800000*%
%TD*%
%TA.AperFunction,ComponentPad*%
%ADD14C,1.800000*%
%TD*%
%TA.AperFunction,ViaPad*%
%ADD15C,0.600000*%
%TD*%
%TA.AperFunction,Conductor*%
%ADD16C,1.270000*%
%TD*%
G04 APERTURE END LIST*
D10*
%TO.P,H3,1,1_1*%
%TO.N,GND*%
X129540000Y-119380000D03*
%TD*%
D11*
%TO.P,J2,1,Pin_1_1*%
%TO.N,GND*%
X124460000Y-76200000D03*
D12*
%TO.P,J2,2,Pin_2_2*%
%TO.N,Net-(J1-Pin_2)*%
X127000000Y-76200000D03*
%TO.P,J2,3,Pin_3_3*%
%TO.N,Net-(J1-Pin_3)*%
X129540000Y-76200000D03*
%TO.P,J2,4,Pin_4_4*%
%TO.N,Net-(J1-Pin_4)*%
X132080000Y-76200000D03*
%TO.P,J2,5,Pin_5_5*%
%TO.N,Net-(J1-Pin_5)*%
X134620000Y-76200000D03*
%TD*%
D13*
%TO.P,J1,1,Pin_1_1*%
%TO.N,GND*%
X144526000Y-91694000D03*
D14*
%TO.P,J1,2,Pin_2_2*%
%TO.N,Net-(J1-Pin_2)*%
X145796000Y-94234000D03*
%TO.P,J1,3,Pin_3_3*%
%TO.N,Net-(J1-Pin_3)*%
X147066000Y-91694000D03*
%TO.P,J1,4,Pin_4_4*%
%TO.N,Net-(J1-Pin_4)*%
X148336000Y-94234000D03*
%TO.P,J1,5,Pin_5_5*%
%TO.N,Net-(J1-Pin_5)*%
X149606000Y-91694000D03*
%TO.P,J1,6,Pin_6_6*%
%TO.N,Net-(J1-Pin_6)*%
X150876000Y-94234000D03*
%TO.P,J1,7,Pin_7_7*%
%TO.N,Net-(J1-Pin_7)*%
X152146000Y-91694000D03*
%TO.P,J1,8,Pin_8_8*%
%TO.N,Net-(J1-Pin_8)*%
X153416000Y-94234000D03*
%TO.P,J1,9,Pin_9_9*%
%TO.N,Net-(J1-Pin_9)*%
X154686000Y-91694000D03*
%TO.P,J1,10*%
%TO.N,N/C*%
X155956000Y-94234000D03*
%TD*%
D11*
%TO.P,J4,1,Pin_1_1*%
%TO.N,GND*%
X165100000Y-76200000D03*
D12*
%TO.P,J4,2,Pin_2_2*%
%TO.N,Net-(J1-Pin_6)*%
X167640000Y-76200000D03*
%TO.P,J4,3,Pin_3_3*%
%TO.N,Net-(J1-Pin_7)*%
X170180000Y-76200000D03*
%TO.P,J4,4,Pin_4_4*%
%TO.N,Net-(J1-Pin_8)*%
X172720000Y-76200000D03*
%TO.P,J4,5,Pin_5_5*%
%TO.N,Net-(J1-Pin_9)*%
X175260000Y-76200000D03*
%TD*%
D11*
%TO.P,J5,1,Pin_1_1*%
%TO.N,GND*%
X165100000Y-111760000D03*
D12*
%TO.P,J5,2,Pin_2_2*%
%TO.N,Net-(J1-Pin_6)*%
X167640000Y-111760000D03*
%TO.P,J5,3,Pin_3_3*%
%TO.N,Net-(J1-Pin_7)*%
X170180000Y-111760000D03*
%TO.P,J5,4,Pin_4_4*%
%TO.N,Net-(J1-Pin_8)*%
X172720000Y-111760000D03*
%TO.P,J5,5,Pin_5_5*%
%TO.N,Net-(J1-Pin_9)*%
X175260000Y-111760000D03*
%TD*%
D10*
%TO.P,H1,1,1_1*%
%TO.N,GND*%
X129540000Y-68580000D03*
%TD*%
%TO.P,H2,1,1_1*%
%TO.N,GND*%
X170180000Y-68580000D03*
%TD*%
D11*
%TO.P,J3,1,Pin_1_1*%
%TO.N,GND*%
X124460000Y-111760000D03*
D12*
%TO.P,J3,2,Pin_2_2*%
%TO.N,Net-(J1-Pin_2)*%
X127000000Y-111760000D03*
%TO.P,J3,3,Pin_3_3*%
%TO.N,Net-(J1-Pin_3)*%
X129540000Y-111760000D03*
%TO.P,J3,4,Pin_4_4*%
%TO.N,Net-(J1-Pin_4)*%
X132080000Y-111760000D03*
%TO.P,J3,5,Pin_5_5*%
%TO.N,Net-(J1-Pin_5)*%
X134620000Y-111760000D03*
%TD*%
D10*
%TO.P,H4,1,1_1*%
%TO.N,GND*%
X170180000Y-119380000D03*
%TD*%
D15*
%TO.N,GND*%
X124460000Y-91694000D03*
%TO.N,Net-(J1-Pin_2)*%
X127000000Y-94234000D03*
X127508000Y-94234000D03*
X127000000Y-94742000D03*
X127000000Y-93726000D03*
%TO.N,Net-(J1-Pin_3)*%
X129540000Y-89154000D03*
%TO.N,Net-(J1-Pin_4)*%
X132080000Y-96774000D03*
%TO.N,Net-(J1-Pin_5)*%
X134620000Y-87376000D03*
%TO.N,Net-(J1-Pin_6)*%
X167640000Y-98552000D03*
%TO.N,Net-(J1-Pin_7)*%
X170180000Y-87376000D03*
%TO.N,Net-(J1-Pin_8)*%
X172720000Y-96774000D03*
%TO.N,Net-(J1-Pin_9)*%
X175260000Y-89154000D03*
%TD*%
%TO.N,GND*%
D16*
X124460000Y-76200000D02*
X124460000Y-91694000D01*
X165100000Y-76200000D02*
X165100000Y-111760000D01*
X124460000Y-91694000D02*
X124460000Y-111760000D01*
%TO.N,Net-(J1-Pin_2)*%
X127000000Y-81280000D02*
X127000000Y-76200000D01*
X127000000Y-93726000D02*
X127000000Y-81280000D01*
X127000000Y-94742000D02*
X127000000Y-94234000D01*
X127000000Y-94234000D02*
X127000000Y-93726000D01*
X127000000Y-111760000D02*
X127000000Y-94742000D01*
%TO.N,Net-(J1-Pin_3)*%
X129540000Y-89154000D02*
X129540000Y-111760000D01*
X129540000Y-89154000D02*
X129540000Y-76200000D01*
%TO.N,Net-(J1-Pin_4)*%
X132080000Y-96774000D02*
X132080000Y-111760000D01*
X132080000Y-96774000D02*
X132080000Y-76200000D01*
%TO.N,Net-(J1-Pin_5)*%
X134620000Y-87376000D02*
X134620000Y-76200000D01*
X134620000Y-87376000D02*
X134620000Y-111760000D01*
%TO.N,Net-(J1-Pin_6)*%
X167640000Y-98552000D02*
X167640000Y-111760000D01*
X167640000Y-88900000D02*
X167640000Y-98552000D01*
X167640000Y-88900000D02*
X167640000Y-76200000D01*
%TO.N,Net-(J1-Pin_7)*%
X170180000Y-87376000D02*
X170180000Y-111760000D01*
X170180000Y-87376000D02*
X170180000Y-76200000D01*
%TO.N,Net-(J1-Pin_8)*%
X172720000Y-83820000D02*
X172720000Y-96774000D01*
X172720000Y-76200000D02*
X172720000Y-83820000D01*
X172720000Y-96774000D02*
X172720000Y-111760000D01*
%TO.N,Net-(J1-Pin_9)*%
X175260000Y-89154000D02*
X175260000Y-76200000D01*
X175260000Y-89154000D02*
X175260000Y-111760000D01*
%TD*%
%TA.AperFunction,Conductor*%
%TO.N,GND*%
G36*
X176802539Y-62000185D02*
G01*
X176848294Y-62052989D01*
X176859500Y-62104500D01*
X176859500Y-75517562D01*
X176839815Y-75584601D01*
X176787011Y-75630356D01*
X176717853Y-75640300D01*
X176654297Y-75611275D01*
X176625015Y-75573857D01*
X176543342Y-75413566D01*
X176529999Y-75395201D01*
X176404517Y-75222490D01*
X176237510Y-75055483D01*
X176046433Y-74916657D01*
X175835996Y-74809433D01*
X175611368Y-74736446D01*
X175378097Y-74699500D01*
X175378092Y-74699500D01*
X175141908Y-74699500D01*
X175141903Y-74699500D01*
X174908631Y-74736446D01*
X174684003Y-74809433D01*
X174473566Y-74916657D01*
X174364550Y-74995862D01*
X174282490Y-75055483D01*
X174282488Y-75055485D01*
X174282487Y-75055485D01*
X174115484Y-75222488D01*
X174090318Y-75257127D01*
X174034987Y-75299792D01*
X173965374Y-75305771D01*
X173903579Y-75273165D01*
X173889682Y-75257127D01*
X173864517Y-75222490D01*
X173697510Y-75055483D01*
X173506433Y-74916657D01*
X173295996Y-74809433D01*
X173071368Y-74736446D01*
X172838097Y-74699500D01*
X172838092Y-74699500D01*
X172601908Y-74699500D01*
X172601903Y-74699500D01*
X172368631Y-74736446D01*
X172144003Y-74809433D01*
X171933566Y-74916657D01*
X171824550Y-74995862D01*
X171742490Y-75055483D01*
X171742488Y-75055485D01*
X171742487Y-75055485D01*
X171575484Y-75222488D01*
X171550318Y-75257127D01*
X171494987Y-75299792D01*
X171425374Y-75305771D01*
X171363579Y-75273165D01*
X171349682Y-75257127D01*
X171324517Y-75222490D01*
X171157510Y-75055483D01*
X170966433Y-74916657D01*
X170755996Y-74809433D01*
X170531368Y-74736446D01*
X170298097Y-74699500D01*
X170298092Y-74699500D01*
X170061908Y-74699500D01*
X170061903Y-74699500D01*
X169828631Y-74736446D01*
X169604003Y-74809433D01*
X169393566Y-74916657D01*
X169284550Y-74995862D01*
X169202490Y-75055483D01*
X169202488Y-75055485D01*
X169202487Y-75055485D01*
X169035484Y-75222488D01*
X169010318Y-75257127D01*
X168954987Y-75299792D01*
X168885374Y-75305771D01*
X168823579Y-75273165D01*
X168809682Y-75257127D01*
X168784517Y-75222490D01*
X168617510Y-75055483D01*
X168426433Y-74916657D01*
X168215996Y-74809433D01*
X167991368Y-74736446D01*
X167758097Y-74699500D01*
X167758092Y-74699500D01*
X167521908Y-74699500D01*
X167521903Y-74699500D01*
X167288631Y-74736446D01*
X167064003Y-74809433D01*
X166853566Y-74916657D01*
X166744550Y-74995862D01*
X166662490Y-75055483D01*
X166662488Y-75055485D01*
X166662487Y-75055485D01*
X166495485Y-75222487D01*
X166495485Y-75222488D01*
X166495483Y-75222490D01*
X166439320Y-75299792D01*
X166356657Y-75413566D01*
X166249433Y-75624003D01*
X166176446Y-75848631D01*
X166139500Y-76081902D01*
X166139500Y-76318097D01*
X166176446Y-76551368D01*
X166249433Y-76775996D01*
X166303668Y-76882437D01*
X166356657Y-76986433D01*
X166480818Y-77157325D01*
X166504298Y-77223130D01*
X166504500Y-77230210D01*
X166504500Y-110729789D01*
X166484815Y-110796828D01*
X166480822Y-110802667D01*
X166458665Y-110833165D01*
X166356657Y-110973566D01*
X166249433Y-111184003D01*
X166176446Y-111408631D01*
X166139500Y-111641902D01*
X166139500Y-111878097D01*
X166176446Y-112111368D01*
X166249433Y-112335996D01*
X166303668Y-112442437D01*
X166356657Y-112546433D01*
X166495483Y-112737510D01*
X166662490Y-112904517D01*
X166853567Y-113043343D01*
X166952991Y-113094002D01*
X167064003Y-113150566D01*
X167064005Y-113150566D01*
X167064008Y-113150568D01*
X167184412Y-113189689D01*
X167288631Y-113223553D01*
X167521903Y-113260500D01*
X167521908Y-113260500D01*
X167758097Y-113260500D01*
X167991368Y-113223553D01*
X168215992Y-113150568D01*
X168426433Y-113043343D01*
X168617510Y-112904517D01*
X168784517Y-112737510D01*
X168809682Y-112702872D01*
X168865011Y-112660207D01*
X168934625Y-112654228D01*
X168996420Y-112686833D01*
X169010315Y-112702870D01*
X169035483Y-112737510D01*
X169202490Y-112904517D01*
X169393567Y-113043343D01*
X169492991Y-113094002D01*
X169604003Y-113150566D01*
X169604005Y-113150566D01*
X169604008Y-113150568D01*
X169724412Y-113189689D01*
X169828631Y-113223553D01*
X170061903Y-113260500D01*
X170061908Y-113260500D01*
X170298097Y-113260500D01*
X170531368Y-113223553D01*
X170755992Y-113150568D01*
X170966433Y-113043343D01*
X171157510Y-112904517D01*
X171324517Y-112737510D01*
X171349682Y-112702872D01*
X171405011Y-112660207D01*
X171474625Y-112654228D01*
X171536420Y-112686833D01*
X171550315Y-112702870D01*
X171575483Y-112737510D01*
X171742490Y-112904517D01*
X171933567Y-113043343D01*
X172032991Y-113094002D01*
X172144003Y-113150566D01*
X172144005Y-113150566D01*
X172144008Y-113150568D01*
X172264412Y-113189689D01*
X172368631Y-113223553D01*
X172601903Y-113260500D01*
X172601908Y-113260500D01*
X172838097Y-113260500D01*
X173071368Y-113223553D01*
X173295992Y-113150568D01*
X173506433Y-113043343D01*
X173697510Y-112904517D01*
X173864517Y-112737510D01*
X173889682Y-112702872D01*
X173945011Y-112660207D01*
X174014625Y-112654228D01*
X174076420Y-112686833D01*
X174090315Y-112702870D01*
X174115483Y-112737510D01*
X174282490Y-112904517D01*
X174473567Y-113043343D01*
X174572991Y-113094002D01*
X174684003Y-113150566D01*
X174684005Y-113150566D01*
X174684008Y-113150568D01*
X174804412Y-113189689D01*
X174908631Y-113223553D01*
X175141903Y-113260500D01*
X175141908Y-113260500D01*
X175378097Y-113260500D01*
X175611368Y-113223553D01*
X175835992Y-113150568D01*
X176046433Y-113043343D01*
X176237510Y-112904517D01*
X176404517Y-112737510D01*
X176543343Y-112546433D01*
X176625015Y-112386141D01*
X176672989Y-112335346D01*
X176740810Y-112318551D01*
X176806945Y-112341088D01*
X176850397Y-112395803D01*
X176859500Y-112442437D01*
X176859500Y-125855500D01*
X176839815Y-125922539D01*
X176787011Y-125968294D01*
X176735500Y-125979500D01*
X122984500Y-125979500D01*
X122917461Y-125959815D01*
X122871706Y-125907011D01*
X122860500Y-125855500D01*
X122860500Y-76081902D01*
X125499500Y-76081902D01*
X125499500Y-76318097D01*
X125536446Y-76551368D01*
X125609433Y-76775996D01*
X125663668Y-76882437D01*
X125716657Y-76986433D01*
X125840818Y-77157325D01*
X125864298Y-77223130D01*
X125864500Y-77230210D01*
X125864500Y-110729789D01*
X125844815Y-110796828D01*
X125840822Y-110802667D01*
X125818665Y-110833165D01*
X125716657Y-110973566D01*
X125609433Y-111184003D01*
X125536446Y-111408631D01*
X125499500Y-111641902D01*
X125499500Y-111878097D01*
X125536446Y-112111368D01*
X125609433Y-112335996D01*
X125663668Y-112442437D01*
X125716657Y-112546433D01*
X125855483Y-112737510D01*
X126022490Y-112904517D01*
X126213567Y-113043343D01*
X126312991Y-113094002D01*
X126424003Y-113150566D01*
X126424005Y-113150566D01*
X126424008Y-113150568D01*
X126544412Y-113189689D01*
X126648631Y-113223553D01*
X126881903Y-113260500D01*
X126881908Y-113260500D01*
X127118097Y-113260500D01*
X127351368Y-113223553D01*
X127575992Y-113150568D01*
X127786433Y-113043343D01*
X127977510Y-112904517D01*
X128144517Y-112737510D01*
X128169682Y-112702872D01*
X128225011Y-112660207D01*
X128294625Y-112654228D01*
X128356420Y-112686833D01*
X128370315Y-112702870D01*
X128395483Y-112737510D01*
X128562490Y-112904517D01*
X128753567Y-113043343D01*
X128852991Y-113094002D01*
X128964003Y-113150566D01*
X128964005Y-113150566D01*
X128964008Y-113150568D01*
X129084412Y-113189689D01*
X129188631Y-113223553D01*
X129421903Y-113260500D01*
X129421908Y-113260500D01*
X129658097Y-113260500D01*
X129891368Y-113223553D01*
X130115992Y-113150568D01*
X130326433Y-113043343D01*
X130517510Y-112904517D01*
X130684517Y-112737510D01*
X130709682Y-112702872D01*
X130765011Y-112660207D01*
X130834625Y-112654228D01*
X130896420Y-112686833D01*
X130910315Y-112702870D01*
X130935483Y-112737510D01*
X131102490Y-112904517D01*
X131293567Y-113043343D01*
X131392991Y-113094002D01*
X131504003Y-113150566D01*
X131504005Y-113150566D01*
X131504008Y-113150568D01*
X131624412Y-113189689D01*
X131728631Y-113223553D01*
X131961903Y-113260500D01*
X131961908Y-113260500D01*
X132198097Y-113260500D01*
X132431368Y-113223553D01*
X132655992Y-113150568D01*
X132866433Y-113043343D01*
X133057510Y-112904517D01*
X133224517Y-112737510D01*
X133249682Y-112702872D01*
X133305011Y-112660207D01*
X133374625Y-112654228D01*
X133436420Y-112686833D01*
X133450315Y-112702870D01*
X133475483Y-112737510D01*
X133642490Y-112904517D01*
X133833567Y-113043343D01*
X133932991Y-113094002D01*
X134044003Y-113150566D01*
X134044005Y-113150566D01*
X134044008Y-113150568D01*
X134164412Y-113189689D01*
X134268631Y-113223553D01*
X134501903Y-113260500D01*
X134501908Y-113260500D01*
X134738097Y-113260500D01*
X134971368Y-113223553D01*
X135195992Y-113150568D01*
X135406433Y-113043343D01*
X135597510Y-112904517D01*
X135764517Y-112737510D01*
X135903343Y-112546433D01*
X136010568Y-112335992D01*
X136083553Y-112111368D01*
X136120500Y-111878097D01*
X136120500Y-111641902D01*
X136083553Y-111408631D01*
X136049689Y-111304412D01*
X136010568Y-111184008D01*
X136010566Y-111184005D01*
X136010566Y-111184003D01*
X135903342Y-110973566D01*
X135820680Y-110859792D01*
X135779181Y-110802674D01*
X135755702Y-110736868D01*
X135755500Y-110729789D01*
X135755500Y-94123778D01*
X144395500Y-94123778D01*
X144395500Y-94344221D01*
X144429985Y-94561952D01*
X144498103Y-94771603D01*
X144498104Y-94771606D01*
X144566122Y-94905096D01*
X144593129Y-94958100D01*
X144598187Y-94968025D01*
X144727752Y-95146358D01*
X144727756Y-95146363D01*
X144883636Y-95302243D01*
X144883641Y-95302247D01*
X145039192Y-95415260D01*
X145061978Y-95431815D01*
X145190375Y-95497237D01*
X145258393Y-95531895D01*
X145258396Y-95531896D01*
X145363221Y-95565955D01*
X145468049Y-95600015D01*
X145685778Y-95634500D01*
X145685779Y-95634500D01*
X145906221Y-95634500D01*
X145906222Y-95634500D01*
X146123951Y-95600015D01*
X146333606Y-95531895D01*
X146530022Y-95431815D01*
X146708365Y-95302242D01*
X146864242Y-95146365D01*
X146874804Y-95131826D01*
X146965682Y-95006745D01*
X147021011Y-94964079D01*
X147090625Y-94958100D01*
X147152420Y-94990705D01*
X147166318Y-95006745D01*
X147267752Y-95146358D01*
X147267756Y-95146363D01*
X147423636Y-95302243D01*
X147423641Y-95302247D01*
X147579192Y-95415260D01*
X147601978Y-95431815D01*
X147730375Y-95497237D01*
X147798393Y-95531895D01*
X147798396Y-95531896D01*
X147903221Y-95565955D01*
X148008049Y-95600015D01*
X148225778Y-95634500D01*
X148225779Y-95634500D01*
X148446221Y-95634500D01*
X148446222Y-95634500D01*
X148663951Y-95600015D01*
X148873606Y-95531895D01*
X149070022Y-95431815D01*
X149248365Y-95302242D01*
X149404242Y-95146365D01*
X149414804Y-95131826D01*
X149505682Y-95006745D01*
X149561011Y-94964079D01*
X149630625Y-94958100D01*
X149692420Y-94990705D01*
X149706318Y-95006745D01*
X149807752Y-95146358D01*
X149807756Y-95146363D01*
X149963636Y-95302243D01*
X149963641Y-95302247D01*
X150119192Y-95415260D01*
X150141978Y-95431815D01*
X150270375Y-95497237D01*
X150338393Y-95531895D01*
X150338396Y-95531896D01*
X150443221Y-95565955D01*
X150548049Y-95600015D01*
X150765778Y-95634500D01*
X150765779Y-95634500D01*
X150986221Y-95634500D01*
X150986222Y-95634500D01*
X151203951Y-95600015D01*
X151413606Y-95531895D01*
X151610022Y-95431815D01*
X151788365Y-95302242D01*
X151944242Y-95146365D01*
X151954804Y-95131826D01*
X152045682Y-95006745D01*
X152101011Y-94964079D01*
X152170625Y-94958100D01*
X152232420Y-94990705D01*
X152246318Y-95006745D01*
X152347752Y-95146358D01*
X152347756Y-95146363D01*
X152503636Y-95302243D01*
X152503641Y-95302247D01*
X152659192Y-95415260D01*
X152681978Y-95431815D01*
X152810375Y-95497237D01*
X152878393Y-95531895D01*
X152878396Y-95531896D01*
X152983221Y-95565955D01*
X153088049Y-95600015D01*
X153305778Y-95634500D01*
X153305779Y-95634500D01*
X153526221Y-95634500D01*
X153526222Y-95634500D01*
X153743951Y-95600015D01*
X153953606Y-95531895D01*
X154150022Y-95431815D01*
X154328365Y-95302242D01*
X154484242Y-95146365D01*
X154494804Y-95131826D01*
X154585682Y-95006745D01*
X154641011Y-94964079D01*
X154710625Y-94958100D01*
X154772420Y-94990705D01*
X154786318Y-95006745D01*
X154887752Y-95146358D01*
X154887756Y-95146363D01*
X155043636Y-95302243D01*
X155043641Y-95302247D01*
X155199192Y-95415260D01*
X155221978Y-95431815D01*
X155350375Y-95497237D01*
X155418393Y-95531895D01*
X155418396Y-95531896D01*
X155523221Y-95565955D01*
X155628049Y-95600015D01*
X155845778Y-95634500D01*
X155845779Y-95634500D01*
X156066221Y-95634500D01*
X156066222Y-95634500D01*
X156283951Y-95600015D01*
X156493606Y-95531895D01*
X156690022Y-95431815D01*
X156868365Y-95302242D01*
X157024242Y-95146365D01*
X157153815Y-94968022D01*
X157253895Y-94771606D01*
X157322015Y-94561951D01*
X157356500Y-94344222D01*
X157356500Y-94123778D01*
X157322015Y-93906049D01*
X157322014Y-93906045D01*
X157270279Y-93746817D01*
X157268284Y-93676976D01*
X157304365Y-93617144D01*
X157367066Y-93586316D01*
X157388210Y-93584500D01*
X157396551Y-93584500D01*
X157483259Y-93570765D01*
X157575409Y-93556171D01*
X157747639Y-93500211D01*
X157908994Y-93417996D01*
X158055501Y-93311553D01*
X158183553Y-93183501D01*
X158289996Y-93036994D01*
X158372211Y-92875639D01*
X158428171Y-92703409D01*
X158443542Y-92606358D01*
X158456500Y-92524551D01*
X158456500Y-92343448D01*
X158438785Y-92231603D01*
X158428171Y-92164591D01*
X158372211Y-91992361D01*
X158372211Y-91992360D01*
X158343740Y-91936484D01*
X158289996Y-91831006D01*
X158250549Y-91776711D01*
X158183558Y-91684505D01*
X158183554Y-91684500D01*
X158055499Y-91556445D01*
X158055494Y-91556441D01*
X157908997Y-91450006D01*
X157908996Y-91450005D01*
X157908994Y-91450004D01*
X157857300Y-91423664D01*
X157747639Y-91367788D01*
X157747636Y-91367787D01*
X157575410Y-91311829D01*
X157396551Y-91283500D01*
X157396546Y-91283500D01*
X157215454Y-91283500D01*
X157215449Y-91283500D01*
X157036589Y-91311829D01*
X156864363Y-91367787D01*
X156864360Y-91367788D01*
X156703002Y-91450006D01*
X156556505Y-91556441D01*
X156556500Y-91556445D01*
X156428445Y-91684500D01*
X156428441Y-91684505D01*
X156322004Y-91831004D01*
X156320984Y-91833007D01*
X156320394Y-91833630D01*
X156319459Y-91835158D01*
X156319138Y-91834961D01*
X156273009Y-91883803D01*
X156205188Y-91900597D01*
X156139053Y-91878059D01*
X156095602Y-91823343D01*
X156086500Y-91776711D01*
X156086500Y-91583778D01*
X156082170Y-91556441D01*
X156052015Y-91366049D01*
X155983895Y-91156394D01*
X155983895Y-91156393D01*
X155949237Y-91088375D01*
X155883815Y-90959978D01*
X155855681Y-90921254D01*
X155754247Y-90781641D01*
X155754243Y-90781636D01*
X155598363Y-90625756D01*
X155598358Y-90625752D01*
X155420025Y-90496187D01*
X155420024Y-90496186D01*
X155420022Y-90496185D01*
X155357096Y-90464122D01*
X155223606Y-90396104D01*
X155223603Y-90396103D01*
X155013952Y-90327985D01*
X154905086Y-90310742D01*
X154796222Y-90293500D01*
X154575778Y-90293500D01*
X154503201Y-90304995D01*
X154358047Y-90327985D01*
X154148396Y-90396103D01*
X154148393Y-90396104D01*
X153951974Y-90496187D01*
X153773641Y-90625752D01*
X153773636Y-90625756D01*
X153617756Y-90781636D01*
X153617752Y-90781641D01*
X153516318Y-90921254D01*
X153460988Y-90963920D01*
X153391375Y-90969899D01*
X153329580Y-90937293D01*
X153315682Y-90921254D01*
X153214247Y-90781641D01*
X153214243Y-90781636D01*
X153058363Y-90625756D01*
X153058358Y-90625752D01*
X152880025Y-90496187D01*
X152880024Y-90496186D01*
X152880022Y-90496185D01*
X152817096Y-90464122D01*
X152683606Y-90396104D01*
X152683603Y-90396103D01*
X152473952Y-90327985D01*
X152365086Y-90310742D01*
X152256222Y-90293500D01*
X152035778Y-90293500D01*
X151963201Y-90304995D01*
X151818047Y-90327985D01*
X151608396Y-90396103D01*
X151608393Y-90396104D01*
X151411974Y-90496187D01*
X151233641Y-90625752D01*
X151233636Y-90625756D01*
X151077756Y-90781636D01*
X151077752Y-90781641D01*
X150976318Y-90921254D01*
X150920988Y-90963920D01*
X150851375Y-90969899D01*
X150789580Y-90937293D01*
X150775682Y-90921254D01*
X150674247Y-90781641D01*
X150674243Y-90781636D01*
X150518363Y-90625756D01*
X150518358Y-90625752D01*
X150340025Y-90496187D01*
X150340024Y-90496186D01*
X150340022Y-90496185D01*
X150277096Y-90464122D01*
X150143606Y-90396104D01*
X150143603Y-90396103D01*
X149933952Y-90327985D01*
X149825086Y-90310742D01*
X149716222Y-90293500D01*
X149495778Y-90293500D01*
X149423201Y-90304995D01*
X149278047Y-90327985D01*
X149068396Y-90396103D01*
X149068393Y-90396104D01*
X148871974Y-90496187D01*
X148693641Y-90625752D01*
X148693636Y-90625756D01*
X148537756Y-90781636D01*
X148537752Y-90781641D01*
X148436318Y-90921254D01*
X148380988Y-90963920D01*
X148311375Y-90969899D01*
X148249580Y-90937293D01*
X148235682Y-90921254D01*
X148134247Y-90781641D01*
X148134243Y-90781636D01*
X147978363Y-90625756D01*
X147978358Y-90625752D01*
X147800025Y-90496187D01*
X147800024Y-90496186D01*
X147800022Y-90496185D01*
X147737096Y-90464122D01*
X147603606Y-90396104D01*
X147603603Y-90396103D01*
X147393952Y-90327985D01*
X147285086Y-90310742D01*
X147176222Y-90293500D01*
X146955778Y-90293500D01*
X146883201Y-90304995D01*
X146738047Y-90327985D01*
X146528396Y-90396103D01*
X146528393Y-90396104D01*
X146331974Y-90496187D01*
X146153641Y-90625752D01*
X146153636Y-90625756D01*
X145997756Y-90781636D01*
X145997752Y-90781641D01*
X145868187Y-90959974D01*
X145768104Y-91156393D01*
X145768103Y-91156396D01*
X145699985Y-91366047D01*
X145699709Y-91367789D01*
X145665500Y-91583778D01*
X145665500Y-91804222D01*
X145669742Y-91831002D01*
X145699985Y-92021952D01*
X145768103Y-92231603D01*
X145768104Y-92231606D01*
X145825092Y-92343448D01*
X145863129Y-92418100D01*
X145868187Y-92428025D01*
X145997752Y-92606358D01*
X145997756Y-92606363D01*
X146015009Y-92623616D01*
X146048494Y-92684939D01*
X146043510Y-92754631D01*
X146001638Y-92810564D01*
X145936174Y-92834981D01*
X145907942Y-92833772D01*
X145906224Y-92833500D01*
X145906222Y-92833500D01*
X145685778Y-92833500D01*
X145613201Y-92844995D01*
X145468047Y-92867985D01*
X145258396Y-92936103D01*
X145258393Y-92936104D01*
X145061974Y-93036187D01*
X144883641Y-93165752D01*
X144883636Y-93165756D01*
X144727756Y-93321636D01*
X144727752Y-93321641D01*
X144598187Y-93499974D01*
X144498104Y-93696393D01*
X144498103Y-93696396D01*
X144429985Y-93906047D01*
X144395500Y-94123778D01*
X135755500Y-94123778D01*
X135755500Y-77230210D01*
X135775185Y-77163171D01*
X135779165Y-77157348D01*
X135903343Y-76986433D01*
X136010568Y-76775992D01*
X136083553Y-76551368D01*
X136120500Y-76318097D01*
X136120500Y-76081902D01*
X136083553Y-75848631D01*
X136049689Y-75744412D01*
X136010568Y-75624008D01*
X136010566Y-75624005D01*
X136010566Y-75624003D01*
X135903342Y-75413566D01*
X135889999Y-75395201D01*
X135764517Y-75222490D01*
X135597510Y-75055483D01*
X135406433Y-74916657D01*
X135195996Y-74809433D01*
X134971368Y-74736446D01*
X134738097Y-74699500D01*
X134738092Y-74699500D01*
X134501908Y-74699500D01*
X134501903Y-74699500D01*
X134268631Y-74736446D01*
X134044003Y-74809433D01*
X133833566Y-74916657D01*
X133724550Y-74995862D01*
X133642490Y-75055483D01*
X133642488Y-75055485D01*
X133642487Y-75055485D01*
X133475484Y-75222488D01*
X133450318Y-75257127D01*
X133394987Y-75299792D01*
X133325374Y-75305771D01*
X133263579Y-75273165D01*
X133249682Y-75257127D01*
X133224517Y-75222490D01*
X133057510Y-75055483D01*
X132866433Y-74916657D01*
X132655996Y-74809433D01*
X132431368Y-74736446D01*
X132198097Y-74699500D01*
X132198092Y-74699500D01*
X131961908Y-74699500D01*
X131961903Y-74699500D01*
X131728631Y-74736446D01*
X131504003Y-74809433D01*
X131293566Y-74916657D01*
X131184550Y-74995862D01*
X131102490Y-75055483D01*
X131102488Y-75055485D01*
X131102487Y-75055485D01*
X130935484Y-75222488D01*
X130910318Y-75257127D01*
X130854987Y-75299792D01*
X130785374Y-75305771D01*
X130723579Y-75273165D01*
X130709682Y-75257127D01*
X130684517Y-75222490D01*
X130517510Y-75055483D01*
X130326433Y-74916657D01*
X130115996Y-74809433D01*
X129891368Y-74736446D01*
X129658097Y-74699500D01*
X129658092Y-74699500D01*
X129421908Y-74699500D01*
X129421903Y-74699500D01*
X129188631Y-74736446D01*
X128964003Y-74809433D01*
X128753566Y-74916657D01*
X128644550Y-74995862D01*
X128562490Y-75055483D01*
X128562488Y-75055485D01*
X128562487Y-75055485D01*
X128395484Y-75222488D01*
X128370318Y-75257127D01*
X128314987Y-75299792D01*
X128245374Y-75305771D01*
X128183579Y-75273165D01*
X128169682Y-75257127D01*
X128144517Y-75222490D01*
X127977510Y-75055483D01*
X127786433Y-74916657D01*
X127575996Y-74809433D01*
X127351368Y-74736446D01*
X127118097Y-74699500D01*
X127118092Y-74699500D01*
X126881908Y-74699500D01*
X126881903Y-74699500D01*
X126648631Y-74736446D01*
X126424003Y-74809433D01*
X126213566Y-74916657D01*
X126104550Y-74995862D01*
X126022490Y-75055483D01*
X126022488Y-75055485D01*
X126022487Y-75055485D01*
X125855485Y-75222487D01*
X125855485Y-75222488D01*
X125855483Y-75222490D01*
X125799320Y-75299792D01*
X125716657Y-75413566D01*
X125609433Y-75624003D01*
X125536446Y-75848631D01*
X125499500Y-76081902D01*
X122860500Y-76081902D01*
X122860500Y-62104500D01*
X122880185Y-62037461D01*
X122932989Y-61991706D01*
X122984500Y-61980500D01*
X176735500Y-61980500D01*
X176802539Y-62000185D01*
G37*
%TD.AperFunction*%
%TD*%
M02*
