%TF.GenerationSoftware,KiCad,Pcbnew,10.0.4*%
%TF.CreationDate,2026-07-20T13:22:45+02:00*%
%TF.ProjectId,platform-board,706c6174-666f-4726-9d2d-626f6172642e,rev?*%
%TF.SameCoordinates,Original*%
%TF.FileFunction,Copper,L1,Top*%
%TF.FilePolarity,Positive*%
%FSLAX46Y46*%
G04 Gerber Fmt 4.6, Leading zero omitted, Abs format (unit mm)*
G04 Created by KiCad (PCBNEW 10.0.4) date 2026-07-20 13:22:45*
%MOMM*%
%LPD*%
G01*
G04 APERTURE LIST*
%TA.AperFunction,ComponentPad*%
%ADD10C,7.000000*%
%TD*%
%TA.AperFunction,ComponentPad*%
%ADD11R,1.700000X2.000000*%
%TD*%
%TA.AperFunction,ComponentPad*%
%ADD12C,2.000000*%
%TD*%
%TA.AperFunction,ComponentPad*%
%ADD13R,1.800000X1.800000*%
%TD*%
%TA.AperFunction,ComponentPad*%
%ADD14C,1.800000*%
%TD*%
%TA.AperFunction,ViaPad*%
%ADD15C,0.600000*%
%TD*%
%TA.AperFunction,Conductor*%
%ADD16C,1.270000*%
%TD*%
%TA.AperFunction,Conductor*%
%ADD17C,0.508000*%
%TD*%
G04 APERTURE END LIST*
D10*
%TO.P,H3,1,1_1*%
%TO.N,GND*%
X129540000Y-119380000D03*
%TD*%
D11*
%TO.P,J2,1,Pin_1_1*%
%TO.N,GND*%
X124460000Y-76200000D03*
D12*
%TO.P,J2,2,Pin_2_2*%
%TO.N,Net-(J1-Pin_2)*%
X127000000Y-76200000D03*
%TO.P,J2,3,Pin_3_3*%
%TO.N,Net-(J1-Pin_3)*%
X129540000Y-76200000D03*
%TO.P,J2,4,Pin_4_4*%
%TO.N,Net-(J1-Pin_4)*%
X132080000Y-76200000D03*
%TO.P,J2,5,Pin_5_5*%
%TO.N,Net-(J1-Pin_5)*%
X134620000Y-76200000D03*
%TD*%
D13*
%TO.P,J1,1,Pin_1_1*%
%TO.N,GND*%
X144526000Y-91694000D03*
D14*
%TO.P,J1,2,Pin_2_2*%
%TO.N,Net-(J1-Pin_2)*%
X145796000Y-94234000D03*
%TO.P,J1,3,Pin_3_3*%
%TO.N,Net-(J1-Pin_3)*%
X147066000Y-91694000D03*
%TO.P,J1,4,Pin_4_4*%
%TO.N,Net-(J1-Pin_4)*%
X148336000Y-94234000D03*
%TO.P,J1,5,Pin_5_5*%
%TO.N,Net-(J1-Pin_5)*%
X149606000Y-91694000D03*
%TO.P,J1,6,Pin_6_6*%
%TO.N,Net-(J1-Pin_6)*%
X150876000Y-94234000D03*
%TO.P,J1,7,Pin_7_7*%
%TO.N,Net-(J1-Pin_7)*%
X152146000Y-91694000D03*
%TO.P,J1,8,Pin_8_8*%
%TO.N,Net-(J1-Pin_8)*%
X153416000Y-94234000D03*
%TO.P,J1,9,Pin_9_9*%
%TO.N,Net-(J1-Pin_9)*%
X154686000Y-91694000D03*
%TO.P,J1,10*%
%TO.N,N/C*%
X155956000Y-94234000D03*
%TD*%
D11*
%TO.P,J4,1,Pin_1_1*%
%TO.N,GND*%
X165100000Y-76200000D03*
D12*
%TO.P,J4,2,Pin_2_2*%
%TO.N,Net-(J1-Pin_6)*%
X167640000Y-76200000D03*
%TO.P,J4,3,Pin_3_3*%
%TO.N,Net-(J1-Pin_7)*%
X170180000Y-76200000D03*
%TO.P,J4,4,Pin_4_4*%
%TO.N,Net-(J1-Pin_8)*%
X172720000Y-76200000D03*
%TO.P,J4,5,Pin_5_5*%
%TO.N,Net-(J1-Pin_9)*%
X175260000Y-76200000D03*
%TD*%
D11*
%TO.P,J5,1,Pin_1_1*%
%TO.N,GND*%
X165100000Y-111760000D03*
D12*
%TO.P,J5,2,Pin_2_2*%
%TO.N,Net-(J1-Pin_6)*%
X167640000Y-111760000D03*
%TO.P,J5,3,Pin_3_3*%
%TO.N,Net-(J1-Pin_7)*%
X170180000Y-111760000D03*
%TO.P,J5,4,Pin_4_4*%
%TO.N,Net-(J1-Pin_8)*%
X172720000Y-111760000D03*
%TO.P,J5,5,Pin_5_5*%
%TO.N,Net-(J1-Pin_9)*%
X175260000Y-111760000D03*
%TD*%
D10*
%TO.P,H1,1,1_1*%
%TO.N,GND*%
X129540000Y-68580000D03*
%TD*%
%TO.P,H2,1,1_1*%
%TO.N,GND*%
X170180000Y-68580000D03*
%TD*%
D11*
%TO.P,J3,1,Pin_1_1*%
%TO.N,GND*%
X124460000Y-111760000D03*
D12*
%TO.P,J3,2,Pin_2_2*%
%TO.N,Net-(J1-Pin_2)*%
X127000000Y-111760000D03*
%TO.P,J3,3,Pin_3_3*%
%TO.N,Net-(J1-Pin_3)*%
X129540000Y-111760000D03*
%TO.P,J3,4,Pin_4_4*%
%TO.N,Net-(J1-Pin_4)*%
X132080000Y-111760000D03*
%TO.P,J3,5,Pin_5_5*%
%TO.N,Net-(J1-Pin_5)*%
X134620000Y-111760000D03*
%TD*%
D10*
%TO.P,H4,1,1_1*%
%TO.N,GND*%
X170180000Y-119380000D03*
%TD*%
D15*
%TO.N,GND*%
X124460000Y-91694000D03*
%TO.N,Net-(J1-Pin_2)*%
X127000000Y-94234000D03*
X127508000Y-94234000D03*
X127000000Y-94742000D03*
X127000000Y-93726000D03*
%TO.N,Net-(J1-Pin_3)*%
X129540000Y-89154000D03*
%TO.N,Net-(J1-Pin_4)*%
X132080000Y-96774000D03*
%TO.N,Net-(J1-Pin_5)*%
X134620000Y-87376000D03*
%TO.N,Net-(J1-Pin_6)*%
X167640000Y-98552000D03*
%TO.N,Net-(J1-Pin_7)*%
X170180000Y-87376000D03*
%TO.N,Net-(J1-Pin_8)*%
X172720000Y-96774000D03*
%TO.N,Net-(J1-Pin_9)*%
X175260000Y-89154000D03*
%TD*%
%TO.N,GND*%
D16*
X144526000Y-91694000D02*
X124460000Y-91694000D01*
%TO.N,Net-(J1-Pin_2)*%
X145796000Y-94234000D02*
X127508000Y-94234000D01*
X127508000Y-94234000D02*
X127000000Y-94234000D01*
%TO.N,Net-(J1-Pin_3)*%
D17*
X146050000Y-89154000D02*
X147066000Y-90170000D01*
X147066000Y-90170000D02*
X147066000Y-91694000D01*
X129540000Y-89154000D02*
X146050000Y-89154000D01*
%TO.N,Net-(J1-Pin_4)*%
X132080000Y-96774000D02*
X147320000Y-96774000D01*
X147320000Y-96774000D02*
X148336000Y-95758000D01*
X148336000Y-95758000D02*
X148336000Y-94234000D01*
%TO.N,Net-(J1-Pin_5)*%
X147828000Y-87376000D02*
X149606000Y-89154000D01*
X134620000Y-87376000D02*
X147828000Y-87376000D01*
X149606000Y-89154000D02*
X149606000Y-91694000D01*
%TO.N,Net-(J1-Pin_6)*%
X152654000Y-98552000D02*
X167640000Y-98552000D01*
X150876000Y-94234000D02*
X150876000Y-96774000D01*
X150876000Y-96774000D02*
X152654000Y-98552000D01*
%TO.N,Net-(J1-Pin_7)*%
X170180000Y-87376000D02*
X153924000Y-87376000D01*
X153924000Y-87376000D02*
X152146000Y-89154000D01*
X152146000Y-89154000D02*
X152146000Y-91694000D01*
%TO.N,Net-(J1-Pin_8)*%
X153416000Y-94234000D02*
X153416000Y-95758000D01*
X154432000Y-96774000D02*
X172720000Y-96774000D01*
X153416000Y-95758000D02*
X154432000Y-96774000D01*
%TO.N,Net-(J1-Pin_9)*%
X155702000Y-89154000D02*
X154686000Y-90170000D01*
X154686000Y-90170000D02*
X154686000Y-91694000D01*
X175260000Y-89154000D02*
X155702000Y-89154000D01*
%TD*%
%TA.AperFunction,Conductor*%
%TO.N,GND*%
G36*
X176802539Y-62000185D02*
G01*
X176848294Y-62052989D01*
X176859500Y-62104500D01*
X176859500Y-75517562D01*
X176839815Y-75584601D01*
X176787011Y-75630356D01*
X176717853Y-75640300D01*
X176654297Y-75611275D01*
X176625015Y-75573857D01*
X176543342Y-75413566D01*
X176529999Y-75395201D01*
X176404517Y-75222490D01*
X176237510Y-75055483D01*
X176046433Y-74916657D01*
X175835996Y-74809433D01*
X175611368Y-74736446D01*
X175378097Y-74699500D01*
X175378092Y-74699500D01*
X175141908Y-74699500D01*
X175141903Y-74699500D01*
X174908631Y-74736446D01*
X174684003Y-74809433D01*
X174473566Y-74916657D01*
X174364550Y-74995862D01*
X174282490Y-75055483D01*
X174282488Y-75055485D01*
X174282487Y-75055485D01*
X174115484Y-75222488D01*
X174090318Y-75257127D01*
X174034987Y-75299792D01*
X173965374Y-75305771D01*
X173903579Y-75273165D01*
X173889682Y-75257127D01*
X173864517Y-75222490D01*
X173697510Y-75055483D01*
X173506433Y-74916657D01*
X173295996Y-74809433D01*
X173071368Y-74736446D01*
X172838097Y-74699500D01*
X172838092Y-74699500D01*
X172601908Y-74699500D01*
X172601903Y-74699500D01*
X172368631Y-74736446D01*
X172144003Y-74809433D01*
X171933566Y-74916657D01*
X171824550Y-74995862D01*
X171742490Y-75055483D01*
X171742488Y-75055485D01*
X171742487Y-75055485D01*
X171575484Y-75222488D01*
X171550318Y-75257127D01*
X171494987Y-75299792D01*
X171425374Y-75305771D01*
X171363579Y-75273165D01*
X171349682Y-75257127D01*
X171324517Y-75222490D01*
X171157510Y-75055483D01*
X170966433Y-74916657D01*
X170755996Y-74809433D01*
X170531368Y-74736446D01*
X170298097Y-74699500D01*
X170298092Y-74699500D01*
X170061908Y-74699500D01*
X170061903Y-74699500D01*
X169828631Y-74736446D01*
X169604003Y-74809433D01*
X169393566Y-74916657D01*
X169284550Y-74995862D01*
X169202490Y-75055483D01*
X169202488Y-75055485D01*
X169202487Y-75055485D01*
X169035484Y-75222488D01*
X169010318Y-75257127D01*
X168954987Y-75299792D01*
X168885374Y-75305771D01*
X168823579Y-75273165D01*
X168809682Y-75257127D01*
X168784517Y-75222490D01*
X168617510Y-75055483D01*
X168426433Y-74916657D01*
X168215996Y-74809433D01*
X167991368Y-74736446D01*
X167758097Y-74699500D01*
X167758092Y-74699500D01*
X167521908Y-74699500D01*
X167521903Y-74699500D01*
X167288631Y-74736446D01*
X167064003Y-74809433D01*
X166853566Y-74916657D01*
X166744550Y-74995862D01*
X166662490Y-75055483D01*
X166662488Y-75055485D01*
X166662487Y-75055485D01*
X166495485Y-75222487D01*
X166495485Y-75222488D01*
X166495483Y-75222490D01*
X166439320Y-75299792D01*
X166356657Y-75413566D01*
X166249433Y-75624003D01*
X166176446Y-75848631D01*
X166139500Y-76081902D01*
X166139500Y-76318097D01*
X166176446Y-76551368D01*
X166249433Y-76775996D01*
X166303668Y-76882437D01*
X166356657Y-76986433D01*
X166495483Y-77177510D01*
X166662490Y-77344517D01*
X166853567Y-77483343D01*
X166952991Y-77534002D01*
X167064003Y-77590566D01*
X167064005Y-77590566D01*
X167064008Y-77590568D01*
X167184412Y-77629689D01*
X167288631Y-77663553D01*
X167521903Y-77700500D01*
X167521908Y-77700500D01*
X167758097Y-77700500D01*
X167991368Y-77663553D01*
X168215992Y-77590568D01*
X168426433Y-77483343D01*
X168617510Y-77344517D01*
X168784517Y-77177510D01*
X168809682Y-77142872D01*
X168865011Y-77100207D01*
X168934625Y-77094228D01*
X168996420Y-77126833D01*
X169010315Y-77142870D01*
X169035483Y-77177510D01*
X169202490Y-77344517D01*
X169393567Y-77483343D01*
X169492991Y-77534002D01*
X169604003Y-77590566D01*
X169604005Y-77590566D01*
X169604008Y-77590568D01*
X169724412Y-77629689D01*
X169828631Y-77663553D01*
X170061903Y-77700500D01*
X170061908Y-77700500D01*
X170298097Y-77700500D01*
X170531368Y-77663553D01*
X170755992Y-77590568D01*
X170966433Y-77483343D01*
X171157510Y-77344517D01*
X171324517Y-77177510D01*
X171349682Y-77142872D01*
X171405011Y-77100207D01*
X171474625Y-77094228D01*
X171536420Y-77126833D01*
X171550315Y-77142870D01*
X171575483Y-77177510D01*
X171742490Y-77344517D01*
X171933567Y-77483343D01*
X172032991Y-77534002D01*
X172144003Y-77590566D01*
X172144005Y-77590566D01*
X172144008Y-77590568D01*
X172264412Y-77629689D01*
X172368631Y-77663553D01*
X172601903Y-77700500D01*
X172601908Y-77700500D01*
X172838097Y-77700500D01*
X173071368Y-77663553D01*
X173295992Y-77590568D01*
X173506433Y-77483343D01*
X173697510Y-77344517D01*
X173864517Y-77177510D01*
X173889682Y-77142872D01*
X173945011Y-77100207D01*
X174014625Y-77094228D01*
X174076420Y-77126833D01*
X174090315Y-77142870D01*
X174115483Y-77177510D01*
X174282490Y-77344517D01*
X174473567Y-77483343D01*
X174572991Y-77534002D01*
X174684003Y-77590566D01*
X174684005Y-77590566D01*
X174684008Y-77590568D01*
X174804412Y-77629689D01*
X174908631Y-77663553D01*
X175141903Y-77700500D01*
X175141908Y-77700500D01*
X175378097Y-77700500D01*
X175611368Y-77663553D01*
X175835992Y-77590568D01*
X176046433Y-77483343D01*
X176237510Y-77344517D01*
X176404517Y-77177510D01*
X176543343Y-76986433D01*
X176625015Y-76826141D01*
X176672989Y-76775346D01*
X176740810Y-76758551D01*
X176806945Y-76781088D01*
X176850397Y-76835803D01*
X176859500Y-76882437D01*
X176859500Y-111077562D01*
X176839815Y-111144601D01*
X176787011Y-111190356D01*
X176717853Y-111200300D01*
X176654297Y-111171275D01*
X176625015Y-111133857D01*
X176543342Y-110973566D01*
X176529999Y-110955201D01*
X176404517Y-110782490D01*
X176237510Y-110615483D01*
X176046433Y-110476657D01*
X175835996Y-110369433D01*
X175611368Y-110296446D01*
X175378097Y-110259500D01*
X175378092Y-110259500D01*
X175141908Y-110259500D01*
X175141903Y-110259500D01*
X174908631Y-110296446D01*
X174684003Y-110369433D01*
X174473566Y-110476657D01*
X174364550Y-110555862D01*
X174282490Y-110615483D01*
X174282488Y-110615485D01*
X174282487Y-110615485D01*
X174115484Y-110782488D01*
X174090318Y-110817127D01*
X174034987Y-110859792D01*
X173965374Y-110865771D01*
X173903579Y-110833165D01*
X173889682Y-110817127D01*
X173864517Y-110782490D01*
X173697510Y-110615483D01*
X173506433Y-110476657D01*
X173295996Y-110369433D01*
X173071368Y-110296446D01*
X172838097Y-110259500D01*
X172838092Y-110259500D01*
X172601908Y-110259500D01*
X172601903Y-110259500D01*
X172368631Y-110296446D01*
X172144003Y-110369433D01*
X171933566Y-110476657D01*
X171824550Y-110555862D01*
X171742490Y-110615483D01*
X171742488Y-110615485D01*
X171742487Y-110615485D01*
X171575484Y-110782488D01*
X171550318Y-110817127D01*
X171494987Y-110859792D01*
X171425374Y-110865771D01*
X171363579Y-110833165D01*
X171349682Y-110817127D01*
X171324517Y-110782490D01*
X171157510Y-110615483D01*
X170966433Y-110476657D01*
X170755996Y-110369433D01*
X170531368Y-110296446D01*
X170298097Y-110259500D01*
X170298092Y-110259500D01*
X170061908Y-110259500D01*
X170061903Y-110259500D01*
X169828631Y-110296446D01*
X169604003Y-110369433D01*
X169393566Y-110476657D01*
X169284550Y-110555862D01*
X169202490Y-110615483D01*
X169202488Y-110615485D01*
X169202487Y-110615485D01*
X169035484Y-110782488D01*
X169010318Y-110817127D01*
X168954987Y-110859792D01*
X168885374Y-110865771D01*
X168823579Y-110833165D01*
X168809682Y-110817127D01*
X168784517Y-110782490D01*
X168617510Y-110615483D01*
X168426433Y-110476657D01*
X168215996Y-110369433D01*
X167991368Y-110296446D01*
X167758097Y-110259500D01*
X167758092Y-110259500D01*
X167521908Y-110259500D01*
X167521903Y-110259500D01*
X167288631Y-110296446D01*
X167064003Y-110369433D01*
X166853566Y-110476657D01*
X166744550Y-110555862D01*
X166662490Y-110615483D01*
X166662488Y-110615485D01*
X166662487Y-110615485D01*
X166495485Y-110782487D01*
X166495485Y-110782488D01*
X166495483Y-110782490D01*
X166439320Y-110859792D01*
X166356657Y-110973566D01*
X166249433Y-111184003D01*
X166176446Y-111408631D01*
X166139500Y-111641902D01*
X166139500Y-111878097D01*
X166176446Y-112111368D01*
X166249433Y-112335996D01*
X166303668Y-112442437D01*
X166356657Y-112546433D01*
X166495483Y-112737510D01*
X166662490Y-112904517D01*
X166853567Y-113043343D01*
X166952991Y-113094002D01*
X167064003Y-113150566D01*
X167064005Y-113150566D01*
X167064008Y-113150568D01*
X167184412Y-113189689D01*
X167288631Y-113223553D01*
X167521903Y-113260500D01*
X167521908Y-113260500D01*
X167758097Y-113260500D01*
X167991368Y-113223553D01*
X168215992Y-113150568D01*
X168426433Y-113043343D01*
X168617510Y-112904517D01*
X168784517Y-112737510D01*
X168809682Y-112702872D01*
X168865011Y-112660207D01*
X168934625Y-112654228D01*
X168996420Y-112686833D01*
X169010315Y-112702870D01*
X169035483Y-112737510D01*
X169202490Y-112904517D01*
X169393567Y-113043343D01*
X169492991Y-113094002D01*
X169604003Y-113150566D01*
X169604005Y-113150566D01*
X169604008Y-113150568D01*
X169724412Y-113189689D01*
X169828631Y-113223553D01*
X170061903Y-113260500D01*
X170061908Y-113260500D01*
X170298097Y-113260500D01*
X170531368Y-113223553D01*
X170755992Y-113150568D01*
X170966433Y-113043343D01*
X171157510Y-112904517D01*
X171324517Y-112737510D01*
X171349682Y-112702872D01*
X171405011Y-112660207D01*
X171474625Y-112654228D01*
X171536420Y-112686833D01*
X171550315Y-112702870D01*
X171575483Y-112737510D01*
X171742490Y-112904517D01*
X171933567Y-113043343D01*
X172032991Y-113094002D01*
X172144003Y-113150566D01*
X172144005Y-113150566D01*
X172144008Y-113150568D01*
X172264412Y-113189689D01*
X172368631Y-113223553D01*
X172601903Y-113260500D01*
X172601908Y-113260500D01*
X172838097Y-113260500D01*
X173071368Y-113223553D01*
X173295992Y-113150568D01*
X173506433Y-113043343D01*
X173697510Y-112904517D01*
X173864517Y-112737510D01*
X173889682Y-112702872D01*
X173945011Y-112660207D01*
X174014625Y-112654228D01*
X174076420Y-112686833D01*
X174090315Y-112702870D01*
X174115483Y-112737510D01*
X174282490Y-112904517D01*
X174473567Y-113043343D01*
X174572991Y-113094002D01*
X174684003Y-113150566D01*
X174684005Y-113150566D01*
X174684008Y-113150568D01*
X174804412Y-113189689D01*
X174908631Y-113223553D01*
X175141903Y-113260500D01*
X175141908Y-113260500D01*
X175378097Y-113260500D01*
X175611368Y-113223553D01*
X175835992Y-113150568D01*
X176046433Y-113043343D01*
X176237510Y-112904517D01*
X176404517Y-112737510D01*
X176543343Y-112546433D01*
X176625015Y-112386141D01*
X176672989Y-112335346D01*
X176740810Y-112318551D01*
X176806945Y-112341088D01*
X176850397Y-112395803D01*
X176859500Y-112442437D01*
X176859500Y-125855500D01*
X176839815Y-125922539D01*
X176787011Y-125968294D01*
X176735500Y-125979500D01*
X122984500Y-125979500D01*
X122917461Y-125959815D01*
X122871706Y-125907011D01*
X122860500Y-125855500D01*
X122860500Y-111641902D01*
X125499500Y-111641902D01*
X125499500Y-111878097D01*
X125536446Y-112111368D01*
X125609433Y-112335996D01*
X125663668Y-112442437D01*
X125716657Y-112546433D01*
X125855483Y-112737510D01*
X126022490Y-112904517D01*
X126213567Y-113043343D01*
X126312991Y-113094002D01*
X126424003Y-113150566D01*
X126424005Y-113150566D01*
X126424008Y-113150568D01*
X126544412Y-113189689D01*
X126648631Y-113223553D01*
X126881903Y-113260500D01*
X126881908Y-113260500D01*
X127118097Y-113260500D01*
X127351368Y-113223553D01*
X127575992Y-113150568D01*
X127786433Y-113043343D01*
X127977510Y-112904517D01*
X128144517Y-112737510D01*
X128169682Y-112702872D01*
X128225011Y-112660207D01*
X128294625Y-112654228D01*
X128356420Y-112686833D01*
X128370315Y-112702870D01*
X128395483Y-112737510D01*
X128562490Y-112904517D01*
X128753567Y-113043343D01*
X128852991Y-113094002D01*
X128964003Y-113150566D01*
X128964005Y-113150566D01*
X128964008Y-113150568D01*
X129084412Y-113189689D01*
X129188631Y-113223553D01*
X129421903Y-113260500D01*
X129421908Y-113260500D01*
X129658097Y-113260500D01*
X129891368Y-113223553D01*
X130115992Y-113150568D01*
X130326433Y-113043343D01*
X130517510Y-112904517D01*
X130684517Y-112737510D01*
X130709682Y-112702872D01*
X130765011Y-112660207D01*
X130834625Y-112654228D01*
X130896420Y-112686833D01*
X130910315Y-112702870D01*
X130935483Y-112737510D01*
X131102490Y-112904517D01*
X131293567Y-113043343D01*
X131392991Y-113094002D01*
X131504003Y-113150566D01*
X131504005Y-113150566D01*
X131504008Y-113150568D01*
X131624412Y-113189689D01*
X131728631Y-113223553D01*
X131961903Y-113260500D01*
X131961908Y-113260500D01*
X132198097Y-113260500D01*
X132431368Y-113223553D01*
X132655992Y-113150568D01*
X132866433Y-113043343D01*
X133057510Y-112904517D01*
X133224517Y-112737510D01*
X133249682Y-112702872D01*
X133305011Y-112660207D01*
X133374625Y-112654228D01*
X133436420Y-112686833D01*
X133450315Y-112702870D01*
X133475483Y-112737510D01*
X133642490Y-112904517D01*
X133833567Y-113043343D01*
X133932991Y-113094002D01*
X134044003Y-113150566D01*
X134044005Y-113150566D01*
X134044008Y-113150568D01*
X134164412Y-113189689D01*
X134268631Y-113223553D01*
X134501903Y-113260500D01*
X134501908Y-113260500D01*
X134738097Y-113260500D01*
X134971368Y-113223553D01*
X135195992Y-113150568D01*
X135406433Y-113043343D01*
X135597510Y-112904517D01*
X135764517Y-112737510D01*
X135903343Y-112546433D01*
X136010568Y-112335992D01*
X136083553Y-112111368D01*
X136120500Y-111878097D01*
X136120500Y-111641902D01*
X136083553Y-111408631D01*
X136049689Y-111304412D01*
X136010568Y-111184008D01*
X136010566Y-111184005D01*
X136010566Y-111184003D01*
X135903342Y-110973566D01*
X135889999Y-110955201D01*
X135764517Y-110782490D01*
X135597510Y-110615483D01*
X135406433Y-110476657D01*
X135195996Y-110369433D01*
X134971368Y-110296446D01*
X134738097Y-110259500D01*
X134738092Y-110259500D01*
X134501908Y-110259500D01*
X134501903Y-110259500D01*
X134268631Y-110296446D01*
X134044003Y-110369433D01*
X133833566Y-110476657D01*
X133724550Y-110555862D01*
X133642490Y-110615483D01*
X133642488Y-110615485D01*
X133642487Y-110615485D01*
X133475484Y-110782488D01*
X133450318Y-110817127D01*
X133394987Y-110859792D01*
X133325374Y-110865771D01*
X133263579Y-110833165D01*
X133249682Y-110817127D01*
X133224517Y-110782490D01*
X133057510Y-110615483D01*
X132866433Y-110476657D01*
X132655996Y-110369433D01*
X132431368Y-110296446D01*
X132198097Y-110259500D01*
X132198092Y-110259500D01*
X131961908Y-110259500D01*
X131961903Y-110259500D01*
X131728631Y-110296446D01*
X131504003Y-110369433D01*
X131293566Y-110476657D01*
X131184550Y-110555862D01*
X131102490Y-110615483D01*
X131102488Y-110615485D01*
X131102487Y-110615485D01*
X130935484Y-110782488D01*
X130910318Y-110817127D01*
X130854987Y-110859792D01*
X130785374Y-110865771D01*
X130723579Y-110833165D01*
X130709682Y-110817127D01*
X130684517Y-110782490D01*
X130517510Y-110615483D01*
X130326433Y-110476657D01*
X130115996Y-110369433D01*
X129891368Y-110296446D01*
X129658097Y-110259500D01*
X129658092Y-110259500D01*
X129421908Y-110259500D01*
X129421903Y-110259500D01*
X129188631Y-110296446D01*
X128964003Y-110369433D01*
X128753566Y-110476657D01*
X128644550Y-110555862D01*
X128562490Y-110615483D01*
X128562488Y-110615485D01*
X128562487Y-110615485D01*
X128395484Y-110782488D01*
X128370318Y-110817127D01*
X128314987Y-110859792D01*
X128245374Y-110865771D01*
X128183579Y-110833165D01*
X128169682Y-110817127D01*
X128144517Y-110782490D01*
X127977510Y-110615483D01*
X127786433Y-110476657D01*
X127575996Y-110369433D01*
X127351368Y-110296446D01*
X127118097Y-110259500D01*
X127118092Y-110259500D01*
X126881908Y-110259500D01*
X126881903Y-110259500D01*
X126648631Y-110296446D01*
X126424003Y-110369433D01*
X126213566Y-110476657D01*
X126104550Y-110555862D01*
X126022490Y-110615483D01*
X126022488Y-110615485D01*
X126022487Y-110615485D01*
X125855485Y-110782487D01*
X125855485Y-110782488D01*
X125855483Y-110782490D01*
X125799320Y-110859792D01*
X125716657Y-110973566D01*
X125609433Y-111184003D01*
X125536446Y-111408631D01*
X125499500Y-111641902D01*
X122860500Y-111641902D01*
X122860500Y-94144634D01*
X125864500Y-94144634D01*
X125864500Y-94323365D01*
X125892460Y-94499898D01*
X125892460Y-94499901D01*
X125947689Y-94669878D01*
X125947691Y-94669881D01*
X126028833Y-94829132D01*
X126129745Y-94968025D01*
X126133890Y-94973729D01*
X126260275Y-95100114D01*
X126273948Y-95110047D01*
X126304169Y-95141478D01*
X126378207Y-95252284D01*
X126378213Y-95252292D01*
X126489707Y-95363786D01*
X126489711Y-95363789D01*
X126620814Y-95451390D01*
X126620827Y-95451397D01*
X126690167Y-95480118D01*
X126766503Y-95511737D01*
X126921153Y-95542499D01*
X126921156Y-95542500D01*
X126921158Y-95542500D01*
X127078844Y-95542500D01*
X127078845Y-95542499D01*
X127233497Y-95511737D01*
X127379179Y-95451394D01*
X127470466Y-95390398D01*
X127537143Y-95369520D01*
X127539357Y-95369500D01*
X144935918Y-95369500D01*
X145002957Y-95389185D01*
X145008803Y-95393182D01*
X145054298Y-95426235D01*
X145061978Y-95431815D01*
X145156777Y-95480118D01*
X145258393Y-95531895D01*
X145258396Y-95531896D01*
X145291030Y-95542499D01*
X145468049Y-95600015D01*
X145685778Y-95634500D01*
X145685779Y-95634500D01*
X145906221Y-95634500D01*
X145906222Y-95634500D01*
X146123951Y-95600015D01*
X146333606Y-95531895D01*
X146530022Y-95431815D01*
X146708365Y-95302242D01*
X146864242Y-95146365D01*
X146881170Y-95123066D01*
X146965682Y-95006745D01*
X147021011Y-94964079D01*
X147090625Y-94958100D01*
X147152420Y-94990705D01*
X147166318Y-95006745D01*
X147267752Y-95146358D01*
X147267756Y-95146363D01*
X147267758Y-95146365D01*
X147423635Y-95302242D01*
X147480572Y-95343608D01*
X147523237Y-95398937D01*
X147529216Y-95468550D01*
X147496611Y-95530346D01*
X147495367Y-95531607D01*
X147043794Y-95983181D01*
X146982471Y-96016666D01*
X146956113Y-96019500D01*
X132374947Y-96019500D01*
X132327498Y-96010062D01*
X132313497Y-96004263D01*
X132313493Y-96004262D01*
X132313488Y-96004260D01*
X132158845Y-95973500D01*
X132158842Y-95973500D01*
X132001158Y-95973500D01*
X132001155Y-95973500D01*
X131846510Y-96004261D01*
X131846498Y-96004264D01*
X131700827Y-96064602D01*
X131700814Y-96064609D01*
X131569711Y-96152210D01*
X131569707Y-96152213D01*
X131458213Y-96263707D01*
X131458210Y-96263711D01*
X131370609Y-96394814D01*
X131370602Y-96394827D01*
X131310264Y-96540498D01*
X131310261Y-96540510D01*
X131279500Y-96695153D01*
X131279500Y-96852846D01*
X131310261Y-97007489D01*
X131310264Y-97007501D01*
X131370602Y-97153172D01*
X131370609Y-97153185D01*
X131458210Y-97284288D01*
X131458213Y-97284292D01*
X131569707Y-97395786D01*
X131569711Y-97395789D01*
X131700814Y-97483390D01*
X131700827Y-97483397D01*
X131810910Y-97528994D01*
X131846503Y-97543737D01*
X131996131Y-97573500D01*
X132001153Y-97574499D01*
X132001156Y-97574500D01*
X132001158Y-97574500D01*
X132158844Y-97574500D01*
X132158845Y-97574499D01*
X132291136Y-97548185D01*
X132313488Y-97543739D01*
X132313489Y-97543738D01*
X132313497Y-97543737D01*
X132327498Y-97537937D01*
X132374947Y-97528500D01*
X147239554Y-97528500D01*
X147239574Y-97528501D01*
X147245688Y-97528501D01*
X147394314Y-97528501D01*
X147431009Y-97521200D01*
X147515894Y-97504315D01*
X147540080Y-97499505D01*
X147596955Y-97475946D01*
X147677389Y-97442630D01*
X147800966Y-97360059D01*
X148922059Y-96238966D01*
X149004630Y-96115389D01*
X149044348Y-96019500D01*
X149061505Y-95978080D01*
X149066315Y-95953894D01*
X149090501Y-95832312D01*
X149090501Y-95683688D01*
X149090501Y-95678578D01*
X149090500Y-95678552D01*
X149090500Y-95480118D01*
X149110185Y-95413079D01*
X149141615Y-95379800D01*
X149248361Y-95302245D01*
X149248361Y-95302244D01*
X149248365Y-95302242D01*
X149404242Y-95146365D01*
X149421170Y-95123066D01*
X149505682Y-95006745D01*
X149561011Y-94964079D01*
X149630625Y-94958100D01*
X149692420Y-94990705D01*
X149706318Y-95006745D01*
X149807752Y-95146358D01*
X149807756Y-95146363D01*
X149963638Y-95302245D01*
X150070385Y-95379800D01*
X150113051Y-95435129D01*
X150121500Y-95480118D01*
X150121500Y-96694552D01*
X150121499Y-96694578D01*
X150121499Y-96699688D01*
X150121499Y-96848312D01*
X150121499Y-96848314D01*
X150121498Y-96848314D01*
X150150493Y-96994073D01*
X150150496Y-96994083D01*
X150207366Y-97131381D01*
X150207372Y-97131392D01*
X150289942Y-97254968D01*
X150289943Y-97254969D01*
X152063600Y-99028624D01*
X152063621Y-99028647D01*
X152173031Y-99138057D01*
X152232065Y-99177502D01*
X152232064Y-99177502D01*
X152296600Y-99220623D01*
X152296604Y-99220625D01*
X152296611Y-99220630D01*
X152377045Y-99253946D01*
X152433920Y-99277505D01*
X152458105Y-99282315D01*
X152506994Y-99292040D01*
X152579686Y-99306501D01*
X152579688Y-99306501D01*
X152734426Y-99306501D01*
X152734446Y-99306500D01*
X167345053Y-99306500D01*
X167392501Y-99315937D01*
X167406503Y-99321737D01*
X167406508Y-99321738D01*
X167406511Y-99321739D01*
X167561153Y-99352499D01*
X167561156Y-99352500D01*
X167561158Y-99352500D01*
X167718844Y-99352500D01*
X167718845Y-99352499D01*
X167873497Y-99321737D01*
X168019179Y-99261394D01*
X168150289Y-99173789D01*
X168261789Y-99062289D01*
X168349394Y-98931179D01*
X168409737Y-98785497D01*
X168440500Y-98630842D01*
X168440500Y-98473158D01*
X168440500Y-98473155D01*
X168440499Y-98473153D01*
X168409738Y-98318510D01*
X168409737Y-98318503D01*
X168409735Y-98318498D01*
X168349397Y-98172827D01*
X168349390Y-98172814D01*
X168261789Y-98041711D01*
X168261786Y-98041707D01*
X168150292Y-97930213D01*
X168150288Y-97930210D01*
X168019185Y-97842609D01*
X168019172Y-97842602D01*
X167873501Y-97782264D01*
X167873489Y-97782261D01*
X167832547Y-97774117D01*
X167770636Y-97741732D01*
X167736062Y-97681017D01*
X167739801Y-97611247D01*
X167780668Y-97554575D01*
X167845686Y-97528994D01*
X167856738Y-97528500D01*
X172425053Y-97528500D01*
X172472501Y-97537937D01*
X172486503Y-97543737D01*
X172486508Y-97543738D01*
X172486511Y-97543739D01*
X172641153Y-97574499D01*
X172641156Y-97574500D01*
X172641158Y-97574500D01*
X172798844Y-97574500D01*
X172798845Y-97574499D01*
X172953497Y-97543737D01*
X173099179Y-97483394D01*
X173230289Y-97395789D01*
X173341789Y-97284289D01*
X173429394Y-97153179D01*
X173489737Y-97007497D01*
X173520500Y-96852842D01*
X173520500Y-96695158D01*
X173520500Y-96695155D01*
X173520499Y-96695153D01*
X173489738Y-96540510D01*
X173489737Y-96540503D01*
X173489735Y-96540498D01*
X173429397Y-96394827D01*
X173429390Y-96394814D01*
X173341789Y-96263711D01*
X173341786Y-96263707D01*
X173230292Y-96152213D01*
X173230288Y-96152210D01*
X173099185Y-96064609D01*
X173099172Y-96064602D01*
X172953501Y-96004264D01*
X172953489Y-96004261D01*
X172798845Y-95973500D01*
X172798842Y-95973500D01*
X172641158Y-95973500D01*
X172641155Y-95973500D01*
X172486511Y-96004260D01*
X172486506Y-96004262D01*
X172486504Y-96004262D01*
X172486503Y-96004263D01*
X172472501Y-96010062D01*
X172425053Y-96019500D01*
X154795887Y-96019500D01*
X154728848Y-95999815D01*
X154708206Y-95983181D01*
X154256632Y-95531607D01*
X154223147Y-95470284D01*
X154228131Y-95400592D01*
X154270003Y-95344659D01*
X154271354Y-95343662D01*
X154328365Y-95302242D01*
X154484242Y-95146365D01*
X154501170Y-95123066D01*
X154585682Y-95006745D01*
X154641011Y-94964079D01*
X154710625Y-94958100D01*
X154772420Y-94990705D01*
X154786318Y-95006745D01*
X154887752Y-95146358D01*
X154887756Y-95146363D01*
X155043636Y-95302243D01*
X155043641Y-95302247D01*
X155150385Y-95379800D01*
X155221978Y-95431815D01*
X155316777Y-95480118D01*
X155418393Y-95531895D01*
X155418396Y-95531896D01*
X155451030Y-95542499D01*
X155628049Y-95600015D01*
X155845778Y-95634500D01*
X155845779Y-95634500D01*
X156066221Y-95634500D01*
X156066222Y-95634500D01*
X156283951Y-95600015D01*
X156493606Y-95531895D01*
X156690022Y-95431815D01*
X156868365Y-95302242D01*
X157024242Y-95146365D01*
X157153815Y-94968022D01*
X157253895Y-94771606D01*
X157322015Y-94561951D01*
X157356500Y-94344222D01*
X157356500Y-94123778D01*
X157322015Y-93906049D01*
X157286948Y-93798121D01*
X157270279Y-93746817D01*
X157268284Y-93676976D01*
X157304365Y-93617144D01*
X157367066Y-93586316D01*
X157388210Y-93584500D01*
X157396551Y-93584500D01*
X157483259Y-93570765D01*
X157575409Y-93556171D01*
X157747639Y-93500211D01*
X157908994Y-93417996D01*
X158055501Y-93311553D01*
X158183553Y-93183501D01*
X158289996Y-93036994D01*
X158372211Y-92875639D01*
X158428171Y-92703409D01*
X158443542Y-92606358D01*
X158456500Y-92524551D01*
X158456500Y-92343448D01*
X158438785Y-92231603D01*
X158428171Y-92164591D01*
X158372211Y-91992361D01*
X158372211Y-91992360D01*
X158343740Y-91936484D01*
X158289996Y-91831006D01*
X158250549Y-91776711D01*
X158183558Y-91684505D01*
X158183554Y-91684500D01*
X158055499Y-91556445D01*
X158055494Y-91556441D01*
X157908997Y-91450006D01*
X157908996Y-91450005D01*
X157908994Y-91450004D01*
X157857300Y-91423664D01*
X157747639Y-91367788D01*
X157747636Y-91367787D01*
X157575410Y-91311829D01*
X157396551Y-91283500D01*
X157396546Y-91283500D01*
X157215454Y-91283500D01*
X157215449Y-91283500D01*
X157036589Y-91311829D01*
X156864363Y-91367787D01*
X156864360Y-91367788D01*
X156703002Y-91450006D01*
X156556505Y-91556441D01*
X156556500Y-91556445D01*
X156428445Y-91684500D01*
X156428441Y-91684505D01*
X156322004Y-91831004D01*
X156320984Y-91833007D01*
X156320394Y-91833630D01*
X156319459Y-91835158D01*
X156319138Y-91834961D01*
X156273009Y-91883803D01*
X156205188Y-91900597D01*
X156139053Y-91878059D01*
X156095602Y-91823343D01*
X156086500Y-91776711D01*
X156086500Y-91583778D01*
X156082170Y-91556441D01*
X156052015Y-91366049D01*
X155983895Y-91156394D01*
X155983895Y-91156393D01*
X155949237Y-91088375D01*
X155883815Y-90959978D01*
X155855681Y-90921254D01*
X155754247Y-90781641D01*
X155754243Y-90781636D01*
X155598361Y-90625754D01*
X155541429Y-90584392D01*
X155498762Y-90529063D01*
X155492782Y-90459449D01*
X155525388Y-90397654D01*
X155526562Y-90396462D01*
X155978206Y-89944819D01*
X156039529Y-89911334D01*
X156065887Y-89908500D01*
X174965053Y-89908500D01*
X175012501Y-89917937D01*
X175026503Y-89923737D01*
X175026508Y-89923738D01*
X175026511Y-89923739D01*
X175181153Y-89954499D01*
X175181156Y-89954500D01*
X175181158Y-89954500D01*
X175338844Y-89954500D01*
X175338845Y-89954499D01*
X175493497Y-89923737D01*
X175639179Y-89863394D01*
X175770289Y-89775789D01*
X175881789Y-89664289D01*
X175969394Y-89533179D01*
X176029737Y-89387497D01*
X176060500Y-89232842D01*
X176060500Y-89075158D01*
X176060500Y-89075155D01*
X176060499Y-89075153D01*
X176029738Y-88920510D01*
X176029737Y-88920503D01*
X175978418Y-88796607D01*
X175969397Y-88774827D01*
X175969390Y-88774814D01*
X175881789Y-88643711D01*
X175881786Y-88643707D01*
X175770292Y-88532213D01*
X175770288Y-88532210D01*
X175639185Y-88444609D01*
X175639172Y-88444602D01*
X175493501Y-88384264D01*
X175493489Y-88384261D01*
X175338845Y-88353500D01*
X175338842Y-88353500D01*
X175181158Y-88353500D01*
X175181155Y-88353500D01*
X175026511Y-88384260D01*
X175026506Y-88384262D01*
X175026504Y-88384262D01*
X175026503Y-88384263D01*
X175012501Y-88390062D01*
X174965053Y-88399500D01*
X170396738Y-88399500D01*
X170329699Y-88379815D01*
X170283944Y-88327011D01*
X170274000Y-88257853D01*
X170303025Y-88194297D01*
X170361803Y-88156523D01*
X170372547Y-88153883D01*
X170391136Y-88150185D01*
X170413497Y-88145737D01*
X170559179Y-88085394D01*
X170690289Y-87997789D01*
X170801789Y-87886289D01*
X170889394Y-87755179D01*
X170949737Y-87609497D01*
X170980500Y-87454842D01*
X170980500Y-87297158D01*
X170980500Y-87297155D01*
X170980499Y-87297153D01*
X170949738Y-87142510D01*
X170949737Y-87142503D01*
X170949735Y-87142498D01*
X170889397Y-86996827D01*
X170889390Y-86996814D01*
X170801789Y-86865711D01*
X170801786Y-86865707D01*
X170690292Y-86754213D01*
X170690288Y-86754210D01*
X170559185Y-86666609D01*
X170559172Y-86666602D01*
X170413501Y-86606264D01*
X170413489Y-86606261D01*
X170258845Y-86575500D01*
X170258842Y-86575500D01*
X170101158Y-86575500D01*
X170101155Y-86575500D01*
X169946511Y-86606260D01*
X169946506Y-86606262D01*
X169946504Y-86606262D01*
X169946503Y-86606263D01*
X169932501Y-86612062D01*
X169885053Y-86621500D01*
X154004446Y-86621500D01*
X154004426Y-86621499D01*
X153998312Y-86621499D01*
X153849688Y-86621499D01*
X153849686Y-86621499D01*
X153735225Y-86644267D01*
X153735219Y-86644268D01*
X153728105Y-86645684D01*
X153703920Y-86650495D01*
X153665025Y-86666606D01*
X153660490Y-86668484D01*
X153660479Y-86668488D01*
X153566613Y-86707368D01*
X153566611Y-86707370D01*
X153443033Y-86789941D01*
X153390487Y-86842487D01*
X153337941Y-86895034D01*
X153337939Y-86895036D01*
X151559943Y-88673030D01*
X151559942Y-88673031D01*
X151477372Y-88796607D01*
X151477366Y-88796618D01*
X151420496Y-88933916D01*
X151420493Y-88933926D01*
X151391499Y-89079685D01*
X151391499Y-89234425D01*
X151391500Y-89234446D01*
X151391500Y-90447881D01*
X151371815Y-90514920D01*
X151340385Y-90548199D01*
X151233641Y-90625752D01*
X151233636Y-90625756D01*
X151077756Y-90781636D01*
X151077752Y-90781641D01*
X150976318Y-90921254D01*
X150920988Y-90963920D01*
X150851375Y-90969899D01*
X150789580Y-90937293D01*
X150775682Y-90921254D01*
X150674247Y-90781641D01*
X150674243Y-90781636D01*
X150518363Y-90625756D01*
X150518358Y-90625752D01*
X150411615Y-90548199D01*
X150368949Y-90492869D01*
X150360500Y-90447881D01*
X150360500Y-89234446D01*
X150360501Y-89234425D01*
X150360501Y-89079685D01*
X150331506Y-88933926D01*
X150331505Y-88933925D01*
X150331505Y-88933921D01*
X150274630Y-88796611D01*
X150236357Y-88739331D01*
X150192059Y-88673034D01*
X150192056Y-88673030D01*
X150082647Y-88563621D01*
X150082624Y-88563600D01*
X148308969Y-86789943D01*
X148308968Y-86789942D01*
X148185392Y-86707372D01*
X148185391Y-86707371D01*
X148185389Y-86707370D01*
X148185386Y-86707368D01*
X148185381Y-86707366D01*
X148091519Y-86668488D01*
X148091517Y-86668487D01*
X148086975Y-86666606D01*
X148048080Y-86650495D01*
X148023894Y-86645684D01*
X148016776Y-86644268D01*
X148016773Y-86644267D01*
X147902314Y-86621499D01*
X147902312Y-86621499D01*
X147753688Y-86621499D01*
X147747574Y-86621499D01*
X147747554Y-86621500D01*
X134914947Y-86621500D01*
X134867498Y-86612062D01*
X134853497Y-86606263D01*
X134853493Y-86606262D01*
X134853488Y-86606260D01*
X134698845Y-86575500D01*
X134698842Y-86575500D01*
X134541158Y-86575500D01*
X134541155Y-86575500D01*
X134386510Y-86606261D01*
X134386498Y-86606264D01*
X134240827Y-86666602D01*
X134240814Y-86666609D01*
X134109711Y-86754210D01*
X134109707Y-86754213D01*
X133998213Y-86865707D01*
X133998210Y-86865711D01*
X133910609Y-86996814D01*
X133910602Y-86996827D01*
X133850264Y-87142498D01*
X133850261Y-87142510D01*
X133819500Y-87297153D01*
X133819500Y-87454846D01*
X133850261Y-87609489D01*
X133850264Y-87609501D01*
X133910602Y-87755172D01*
X133910609Y-87755185D01*
X133998210Y-87886288D01*
X133998213Y-87886292D01*
X134109707Y-87997786D01*
X134109711Y-87997789D01*
X134240814Y-88085390D01*
X134240827Y-88085397D01*
X134386498Y-88145735D01*
X134386503Y-88145737D01*
X134404851Y-88149386D01*
X134427453Y-88153883D01*
X134489364Y-88186268D01*
X134523938Y-88246983D01*
X134520199Y-88316753D01*
X134479332Y-88373425D01*
X134414314Y-88399006D01*
X134403262Y-88399500D01*
X129834947Y-88399500D01*
X129787498Y-88390062D01*
X129773497Y-88384263D01*
X129773493Y-88384262D01*
X129773488Y-88384260D01*
X129618845Y-88353500D01*
X129618842Y-88353500D01*
X129461158Y-88353500D01*
X129461155Y-88353500D01*
X129306510Y-88384261D01*
X129306498Y-88384264D01*
X129160827Y-88444602D01*
X129160814Y-88444609D01*
X129029711Y-88532210D01*
X129029707Y-88532213D01*
X128918213Y-88643707D01*
X128918210Y-88643711D01*
X128830609Y-88774814D01*
X128830602Y-88774827D01*
X128770264Y-88920498D01*
X128770261Y-88920510D01*
X128739500Y-89075153D01*
X128739500Y-89232846D01*
X128770261Y-89387489D01*
X128770264Y-89387501D01*
X128830602Y-89533172D01*
X128830609Y-89533185D01*
X128918210Y-89664288D01*
X128918213Y-89664292D01*
X129029707Y-89775786D01*
X129029711Y-89775789D01*
X129160814Y-89863390D01*
X129160827Y-89863397D01*
X129269717Y-89908500D01*
X129306503Y-89923737D01*
X129412489Y-89944819D01*
X129461153Y-89954499D01*
X129461156Y-89954500D01*
X129461158Y-89954500D01*
X129618844Y-89954500D01*
X129618845Y-89954499D01*
X129751136Y-89928185D01*
X129773488Y-89923739D01*
X129773489Y-89923738D01*
X129773497Y-89923737D01*
X129787498Y-89917937D01*
X129834947Y-89908500D01*
X145686113Y-89908500D01*
X145753152Y-89928185D01*
X145773794Y-89944819D01*
X146225367Y-90396392D01*
X146258852Y-90457715D01*
X146253868Y-90527407D01*
X146211996Y-90583340D01*
X146210571Y-90584391D01*
X146153640Y-90625752D01*
X145997756Y-90781636D01*
X145997752Y-90781641D01*
X145868187Y-90959974D01*
X145768104Y-91156393D01*
X145768103Y-91156396D01*
X145699985Y-91366047D01*
X145699709Y-91367789D01*
X145665500Y-91583778D01*
X145665500Y-91804222D01*
X145669742Y-91831002D01*
X145699985Y-92021952D01*
X145768103Y-92231603D01*
X145768104Y-92231606D01*
X145825092Y-92343448D01*
X145863129Y-92418100D01*
X145868187Y-92428025D01*
X145997752Y-92606358D01*
X145997756Y-92606363D01*
X146015009Y-92623616D01*
X146048494Y-92684939D01*
X146043510Y-92754631D01*
X146001638Y-92810564D01*
X145936174Y-92834981D01*
X145907942Y-92833772D01*
X145906224Y-92833500D01*
X145906222Y-92833500D01*
X145685778Y-92833500D01*
X145613201Y-92844995D01*
X145468047Y-92867985D01*
X145258396Y-92936103D01*
X145258393Y-92936104D01*
X145061974Y-93036187D01*
X145008803Y-93074818D01*
X144942997Y-93098298D01*
X144935918Y-93098500D01*
X127539357Y-93098500D01*
X127472318Y-93078815D01*
X127470466Y-93077602D01*
X127379185Y-93016609D01*
X127379172Y-93016602D01*
X127233501Y-92956264D01*
X127233489Y-92956261D01*
X127078845Y-92925500D01*
X127078842Y-92925500D01*
X126921158Y-92925500D01*
X126921155Y-92925500D01*
X126766510Y-92956261D01*
X126766498Y-92956264D01*
X126620827Y-93016602D01*
X126620814Y-93016609D01*
X126489711Y-93104210D01*
X126489707Y-93104213D01*
X126378213Y-93215707D01*
X126378210Y-93215711D01*
X126304168Y-93326522D01*
X126273958Y-93357944D01*
X126260273Y-93367887D01*
X126260271Y-93367889D01*
X126133888Y-93494273D01*
X126028833Y-93638867D01*
X125947691Y-93798118D01*
X125947689Y-93798121D01*
X125892460Y-93968098D01*
X125892460Y-93968101D01*
X125864500Y-94144634D01*
X122860500Y-94144634D01*
X122860500Y-76081902D01*
X125499500Y-76081902D01*
X125499500Y-76318097D01*
X125536446Y-76551368D01*
X125609433Y-76775996D01*
X125663668Y-76882437D01*
X125716657Y-76986433D01*
X125855483Y-77177510D01*
X126022490Y-77344517D01*
X126213567Y-77483343D01*
X126312991Y-77534002D01*
X126424003Y-77590566D01*
X126424005Y-77590566D01*
X126424008Y-77590568D01*
X126544412Y-77629689D01*
X126648631Y-77663553D01*
X126881903Y-77700500D01*
X126881908Y-77700500D01*
X127118097Y-77700500D01*
X127351368Y-77663553D01*
X127575992Y-77590568D01*
X127786433Y-77483343D01*
X127977510Y-77344517D01*
X128144517Y-77177510D01*
X128169682Y-77142872D01*
X128225011Y-77100207D01*
X128294625Y-77094228D01*
X128356420Y-77126833D01*
X128370315Y-77142870D01*
X128395483Y-77177510D01*
X128562490Y-77344517D01*
X128753567Y-77483343D01*
X128852991Y-77534002D01*
X128964003Y-77590566D01*
X128964005Y-77590566D01*
X128964008Y-77590568D01*
X129084412Y-77629689D01*
X129188631Y-77663553D01*
X129421903Y-77700500D01*
X129421908Y-77700500D01*
X129658097Y-77700500D01*
X129891368Y-77663553D01*
X130115992Y-77590568D01*
X130326433Y-77483343D01*
X130517510Y-77344517D01*
X130684517Y-77177510D01*
X130709682Y-77142872D01*
X130765011Y-77100207D01*
X130834625Y-77094228D01*
X130896420Y-77126833D01*
X130910315Y-77142870D01*
X130935483Y-77177510D01*
X131102490Y-77344517D01*
X131293567Y-77483343D01*
X131392991Y-77534002D01*
X131504003Y-77590566D01*
X131504005Y-77590566D01*
X131504008Y-77590568D01*
X131624412Y-77629689D01*
X131728631Y-77663553D01*
X131961903Y-77700500D01*
X131961908Y-77700500D01*
X132198097Y-77700500D01*
X132431368Y-77663553D01*
X132655992Y-77590568D01*
X132866433Y-77483343D01*
X133057510Y-77344517D01*
X133224517Y-77177510D01*
X133249682Y-77142872D01*
X133305011Y-77100207D01*
X133374625Y-77094228D01*
X133436420Y-77126833D01*
X133450315Y-77142870D01*
X133475483Y-77177510D01*
X133642490Y-77344517D01*
X133833567Y-77483343D01*
X133932991Y-77534002D01*
X134044003Y-77590566D01*
X134044005Y-77590566D01*
X134044008Y-77590568D01*
X134164412Y-77629689D01*
X134268631Y-77663553D01*
X134501903Y-77700500D01*
X134501908Y-77700500D01*
X134738097Y-77700500D01*
X134971368Y-77663553D01*
X135195992Y-77590568D01*
X135406433Y-77483343D01*
X135597510Y-77344517D01*
X135764517Y-77177510D01*
X135903343Y-76986433D01*
X136010568Y-76775992D01*
X136083553Y-76551368D01*
X136120500Y-76318097D01*
X136120500Y-76081902D01*
X136083553Y-75848631D01*
X136049689Y-75744412D01*
X136010568Y-75624008D01*
X136010566Y-75624005D01*
X136010566Y-75624003D01*
X135903342Y-75413566D01*
X135889999Y-75395201D01*
X135764517Y-75222490D01*
X135597510Y-75055483D01*
X135406433Y-74916657D01*
X135195996Y-74809433D01*
X134971368Y-74736446D01*
X134738097Y-74699500D01*
X134738092Y-74699500D01*
X134501908Y-74699500D01*
X134501903Y-74699500D01*
X134268631Y-74736446D01*
X134044003Y-74809433D01*
X133833566Y-74916657D01*
X133724550Y-74995862D01*
X133642490Y-75055483D01*
X133642488Y-75055485D01*
X133642487Y-75055485D01*
X133475484Y-75222488D01*
X133450318Y-75257127D01*
X133394987Y-75299792D01*
X133325374Y-75305771D01*
X133263579Y-75273165D01*
X133249682Y-75257127D01*
X133224517Y-75222490D01*
X133057510Y-75055483D01*
X132866433Y-74916657D01*
X132655996Y-74809433D01*
X132431368Y-74736446D01*
X132198097Y-74699500D01*
X132198092Y-74699500D01*
X131961908Y-74699500D01*
X131961903Y-74699500D01*
X131728631Y-74736446D01*
X131504003Y-74809433D01*
X131293566Y-74916657D01*
X131184550Y-74995862D01*
X131102490Y-75055483D01*
X131102488Y-75055485D01*
X131102487Y-75055485D01*
X130935484Y-75222488D01*
X130910318Y-75257127D01*
X130854987Y-75299792D01*
X130785374Y-75305771D01*
X130723579Y-75273165D01*
X130709682Y-75257127D01*
X130684517Y-75222490D01*
X130517510Y-75055483D01*
X130326433Y-74916657D01*
X130115996Y-74809433D01*
X129891368Y-74736446D01*
X129658097Y-74699500D01*
X129658092Y-74699500D01*
X129421908Y-74699500D01*
X129421903Y-74699500D01*
X129188631Y-74736446D01*
X128964003Y-74809433D01*
X128753566Y-74916657D01*
X128644550Y-74995862D01*
X128562490Y-75055483D01*
X128562488Y-75055485D01*
X128562487Y-75055485D01*
X128395484Y-75222488D01*
X128370318Y-75257127D01*
X128314987Y-75299792D01*
X128245374Y-75305771D01*
X128183579Y-75273165D01*
X128169682Y-75257127D01*
X128144517Y-75222490D01*
X127977510Y-75055483D01*
X127786433Y-74916657D01*
X127575996Y-74809433D01*
X127351368Y-74736446D01*
X127118097Y-74699500D01*
X127118092Y-74699500D01*
X126881908Y-74699500D01*
X126881903Y-74699500D01*
X126648631Y-74736446D01*
X126424003Y-74809433D01*
X126213566Y-74916657D01*
X126104550Y-74995862D01*
X126022490Y-75055483D01*
X126022488Y-75055485D01*
X126022487Y-75055485D01*
X125855485Y-75222487D01*
X125855485Y-75222488D01*
X125855483Y-75222490D01*
X125799320Y-75299792D01*
X125716657Y-75413566D01*
X125609433Y-75624003D01*
X125536446Y-75848631D01*
X125499500Y-76081902D01*
X122860500Y-76081902D01*
X122860500Y-62104500D01*
X122880185Y-62037461D01*
X122932989Y-61991706D01*
X122984500Y-61980500D01*
X176735500Y-61980500D01*
X176802539Y-62000185D01*
G37*
%TD.AperFunction*%
%TD*%
M02*
