%TF.GenerationSoftware,KiCad,Pcbnew,10.0.4*%
%TF.CreationDate,2026-07-20T13:22:46+02:00*%
%TF.ProjectId,platform-board,706c6174-666f-4726-9d2d-626f6172642e,rev?*%
%TF.SameCoordinates,Original*%
%TF.FileFunction,Legend,Top*%
%TF.FilePolarity,Positive*%
%FSLAX46Y46*%
G04 Gerber Fmt 4.6, Leading zero omitted, Abs format (unit mm)*
G04 Created by KiCad (PCBNEW 10.0.4) date 2026-07-20 13:22:46*
%MOMM*%
%LPD*%
G01*
G04 APERTURE LIST*
%ADD10C,0.100000*%
%ADD11C,0.300000*%
%ADD12C,0.150000*%
%ADD13C,0.254000*%
%ADD14C,0.120000*%
%ADD15C,0.200000*%
G04 APERTURE END LIST*
D10*
X123080000Y-68580000D02*
X176640000Y-68580000D01*
X176640000Y-119380000D01*
X123080000Y-119380000D01*
X123080000Y-68580000D01*
D11*
X136364000Y-122861912D02*
X136364000Y-121361912D01*
X136364000Y-121361912D02*
X136935429Y-121361912D01*
X136935429Y-121361912D02*
X137078286Y-121433341D01*
X137078286Y-121433341D02*
X137149715Y-121504769D01*
X137149715Y-121504769D02*
X137221143Y-121647626D01*
X137221143Y-121647626D02*
X137221143Y-121861912D01*
X137221143Y-121861912D02*
X137149715Y-122004769D01*
X137149715Y-122004769D02*
X137078286Y-122076198D01*
X137078286Y-122076198D02*
X136935429Y-122147626D01*
X136935429Y-122147626D02*
X136364000Y-122147626D01*
X138078286Y-122861912D02*
X137935429Y-122790484D01*
X137935429Y-122790484D02*
X137864000Y-122647626D01*
X137864000Y-122647626D02*
X137864000Y-121361912D01*
X139292572Y-122861912D02*
X139292572Y-122076198D01*
X139292572Y-122076198D02*
X139221143Y-121933341D01*
X139221143Y-121933341D02*
X139078286Y-121861912D01*
X139078286Y-121861912D02*
X138792572Y-121861912D01*
X138792572Y-121861912D02*
X138649714Y-121933341D01*
X139292572Y-122790484D02*
X139149714Y-122861912D01*
X139149714Y-122861912D02*
X138792572Y-122861912D01*
X138792572Y-122861912D02*
X138649714Y-122790484D01*
X138649714Y-122790484D02*
X138578286Y-122647626D01*
X138578286Y-122647626D02*
X138578286Y-122504769D01*
X138578286Y-122504769D02*
X138649714Y-122361912D01*
X138649714Y-122361912D02*
X138792572Y-122290484D01*
X138792572Y-122290484D02*
X139149714Y-122290484D01*
X139149714Y-122290484D02*
X139292572Y-122219055D01*
X139792572Y-121861912D02*
X140364000Y-121861912D01*
X140006857Y-121361912D02*
X140006857Y-122647626D01*
X140006857Y-122647626D02*
X140078286Y-122790484D01*
X140078286Y-122790484D02*
X140221143Y-122861912D01*
X140221143Y-122861912D02*
X140364000Y-122861912D01*
X140649715Y-121861912D02*
X141221143Y-121861912D01*
X140864000Y-122861912D02*
X140864000Y-121576198D01*
X140864000Y-121576198D02*
X140935429Y-121433341D01*
X140935429Y-121433341D02*
X141078286Y-121361912D01*
X141078286Y-121361912D02*
X141221143Y-121361912D01*
X141935429Y-122861912D02*
X141792572Y-122790484D01*
X141792572Y-122790484D02*
X141721143Y-122719055D01*
X141721143Y-122719055D02*
X141649715Y-122576198D01*
X141649715Y-122576198D02*
X141649715Y-122147626D01*
X141649715Y-122147626D02*
X141721143Y-122004769D01*
X141721143Y-122004769D02*
X141792572Y-121933341D01*
X141792572Y-121933341D02*
X141935429Y-121861912D01*
X141935429Y-121861912D02*
X142149715Y-121861912D01*
X142149715Y-121861912D02*
X142292572Y-121933341D01*
X142292572Y-121933341D02*
X142364001Y-122004769D01*
X142364001Y-122004769D02*
X142435429Y-122147626D01*
X142435429Y-122147626D02*
X142435429Y-122576198D01*
X142435429Y-122576198D02*
X142364001Y-122719055D01*
X142364001Y-122719055D02*
X142292572Y-122790484D01*
X142292572Y-122790484D02*
X142149715Y-122861912D01*
X142149715Y-122861912D02*
X141935429Y-122861912D01*
X143078286Y-122861912D02*
X143078286Y-121861912D01*
X143078286Y-122147626D02*
X143149715Y-122004769D01*
X143149715Y-122004769D02*
X143221144Y-121933341D01*
X143221144Y-121933341D02*
X143364001Y-121861912D01*
X143364001Y-121861912D02*
X143506858Y-121861912D01*
X144006857Y-122861912D02*
X144006857Y-121861912D01*
X144006857Y-122004769D02*
X144078286Y-121933341D01*
X144078286Y-121933341D02*
X144221143Y-121861912D01*
X144221143Y-121861912D02*
X144435429Y-121861912D01*
X144435429Y-121861912D02*
X144578286Y-121933341D01*
X144578286Y-121933341D02*
X144649715Y-122076198D01*
X144649715Y-122076198D02*
X144649715Y-122861912D01*
X144649715Y-122076198D02*
X144721143Y-121933341D01*
X144721143Y-121933341D02*
X144864000Y-121861912D01*
X144864000Y-121861912D02*
X145078286Y-121861912D01*
X145078286Y-121861912D02*
X145221143Y-121933341D01*
X145221143Y-121933341D02*
X145292572Y-122076198D01*
X145292572Y-122076198D02*
X145292572Y-122861912D01*
X147149714Y-122861912D02*
X147149714Y-121361912D01*
X147149714Y-121933341D02*
X147292572Y-121861912D01*
X147292572Y-121861912D02*
X147578286Y-121861912D01*
X147578286Y-121861912D02*
X147721143Y-121933341D01*
X147721143Y-121933341D02*
X147792572Y-122004769D01*
X147792572Y-122004769D02*
X147864000Y-122147626D01*
X147864000Y-122147626D02*
X147864000Y-122576198D01*
X147864000Y-122576198D02*
X147792572Y-122719055D01*
X147792572Y-122719055D02*
X147721143Y-122790484D01*
X147721143Y-122790484D02*
X147578286Y-122861912D01*
X147578286Y-122861912D02*
X147292572Y-122861912D01*
X147292572Y-122861912D02*
X147149714Y-122790484D01*
X149149715Y-122861912D02*
X149149715Y-122076198D01*
X149149715Y-122076198D02*
X149078286Y-121933341D01*
X149078286Y-121933341D02*
X148935429Y-121861912D01*
X148935429Y-121861912D02*
X148649715Y-121861912D01*
X148649715Y-121861912D02*
X148506857Y-121933341D01*
X149149715Y-122790484D02*
X149006857Y-122861912D01*
X149006857Y-122861912D02*
X148649715Y-122861912D01*
X148649715Y-122861912D02*
X148506857Y-122790484D01*
X148506857Y-122790484D02*
X148435429Y-122647626D01*
X148435429Y-122647626D02*
X148435429Y-122504769D01*
X148435429Y-122504769D02*
X148506857Y-122361912D01*
X148506857Y-122361912D02*
X148649715Y-122290484D01*
X148649715Y-122290484D02*
X149006857Y-122290484D01*
X149006857Y-122290484D02*
X149149715Y-122219055D01*
X149792572Y-122790484D02*
X149935429Y-122861912D01*
X149935429Y-122861912D02*
X150221143Y-122861912D01*
X150221143Y-122861912D02*
X150364000Y-122790484D01*
X150364000Y-122790484D02*
X150435429Y-122647626D01*
X150435429Y-122647626D02*
X150435429Y-122576198D01*
X150435429Y-122576198D02*
X150364000Y-122433341D01*
X150364000Y-122433341D02*
X150221143Y-122361912D01*
X150221143Y-122361912D02*
X150006858Y-122361912D01*
X150006858Y-122361912D02*
X149864000Y-122290484D01*
X149864000Y-122290484D02*
X149792572Y-122147626D01*
X149792572Y-122147626D02*
X149792572Y-122076198D01*
X149792572Y-122076198D02*
X149864000Y-121933341D01*
X149864000Y-121933341D02*
X150006858Y-121861912D01*
X150006858Y-121861912D02*
X150221143Y-121861912D01*
X150221143Y-121861912D02*
X150364000Y-121933341D01*
X151649715Y-122790484D02*
X151506858Y-122861912D01*
X151506858Y-122861912D02*
X151221144Y-122861912D01*
X151221144Y-122861912D02*
X151078286Y-122790484D01*
X151078286Y-122790484D02*
X151006858Y-122647626D01*
X151006858Y-122647626D02*
X151006858Y-122076198D01*
X151006858Y-122076198D02*
X151078286Y-121933341D01*
X151078286Y-121933341D02*
X151221144Y-121861912D01*
X151221144Y-121861912D02*
X151506858Y-121861912D01*
X151506858Y-121861912D02*
X151649715Y-121933341D01*
X151649715Y-121933341D02*
X151721144Y-122076198D01*
X151721144Y-122076198D02*
X151721144Y-122219055D01*
X151721144Y-122219055D02*
X151006858Y-122361912D01*
X152364000Y-122861912D02*
X152364000Y-121361912D01*
X152364000Y-121933341D02*
X152506858Y-121861912D01*
X152506858Y-121861912D02*
X152792572Y-121861912D01*
X152792572Y-121861912D02*
X152935429Y-121933341D01*
X152935429Y-121933341D02*
X153006858Y-122004769D01*
X153006858Y-122004769D02*
X153078286Y-122147626D01*
X153078286Y-122147626D02*
X153078286Y-122576198D01*
X153078286Y-122576198D02*
X153006858Y-122719055D01*
X153006858Y-122719055D02*
X152935429Y-122790484D01*
X152935429Y-122790484D02*
X152792572Y-122861912D01*
X152792572Y-122861912D02*
X152506858Y-122861912D01*
X152506858Y-122861912D02*
X152364000Y-122790484D01*
X153935429Y-122861912D02*
X153792572Y-122790484D01*
X153792572Y-122790484D02*
X153721143Y-122719055D01*
X153721143Y-122719055D02*
X153649715Y-122576198D01*
X153649715Y-122576198D02*
X153649715Y-122147626D01*
X153649715Y-122147626D02*
X153721143Y-122004769D01*
X153721143Y-122004769D02*
X153792572Y-121933341D01*
X153792572Y-121933341D02*
X153935429Y-121861912D01*
X153935429Y-121861912D02*
X154149715Y-121861912D01*
X154149715Y-121861912D02*
X154292572Y-121933341D01*
X154292572Y-121933341D02*
X154364001Y-122004769D01*
X154364001Y-122004769D02*
X154435429Y-122147626D01*
X154435429Y-122147626D02*
X154435429Y-122576198D01*
X154435429Y-122576198D02*
X154364001Y-122719055D01*
X154364001Y-122719055D02*
X154292572Y-122790484D01*
X154292572Y-122790484D02*
X154149715Y-122861912D01*
X154149715Y-122861912D02*
X153935429Y-122861912D01*
X155721144Y-122861912D02*
X155721144Y-122076198D01*
X155721144Y-122076198D02*
X155649715Y-121933341D01*
X155649715Y-121933341D02*
X155506858Y-121861912D01*
X155506858Y-121861912D02*
X155221144Y-121861912D01*
X155221144Y-121861912D02*
X155078286Y-121933341D01*
X155721144Y-122790484D02*
X155578286Y-122861912D01*
X155578286Y-122861912D02*
X155221144Y-122861912D01*
X155221144Y-122861912D02*
X155078286Y-122790484D01*
X155078286Y-122790484D02*
X155006858Y-122647626D01*
X155006858Y-122647626D02*
X155006858Y-122504769D01*
X155006858Y-122504769D02*
X155078286Y-122361912D01*
X155078286Y-122361912D02*
X155221144Y-122290484D01*
X155221144Y-122290484D02*
X155578286Y-122290484D01*
X155578286Y-122290484D02*
X155721144Y-122219055D01*
X156435429Y-122861912D02*
X156435429Y-121861912D01*
X156435429Y-122147626D02*
X156506858Y-122004769D01*
X156506858Y-122004769D02*
X156578287Y-121933341D01*
X156578287Y-121933341D02*
X156721144Y-121861912D01*
X156721144Y-121861912D02*
X156864001Y-121861912D01*
X158006858Y-122861912D02*
X158006858Y-121361912D01*
X158006858Y-122790484D02*
X157864000Y-122861912D01*
X157864000Y-122861912D02*
X157578286Y-122861912D01*
X157578286Y-122861912D02*
X157435429Y-122790484D01*
X157435429Y-122790484D02*
X157364000Y-122719055D01*
X157364000Y-122719055D02*
X157292572Y-122576198D01*
X157292572Y-122576198D02*
X157292572Y-122147626D01*
X157292572Y-122147626D02*
X157364000Y-122004769D01*
X157364000Y-122004769D02*
X157435429Y-121933341D01*
X157435429Y-121933341D02*
X157578286Y-121861912D01*
X157578286Y-121861912D02*
X157864000Y-121861912D01*
X157864000Y-121861912D02*
X158006858Y-121933341D01*
X159721143Y-121861912D02*
X160078286Y-122861912D01*
X160078286Y-122861912D02*
X160435429Y-121861912D01*
X161792572Y-122861912D02*
X160935429Y-122861912D01*
X161364000Y-122861912D02*
X161364000Y-121361912D01*
X161364000Y-121361912D02*
X161221143Y-121576198D01*
X161221143Y-121576198D02*
X161078286Y-121719055D01*
X161078286Y-121719055D02*
X160935429Y-121790484D01*
X162435428Y-122719055D02*
X162506857Y-122790484D01*
X162506857Y-122790484D02*
X162435428Y-122861912D01*
X162435428Y-122861912D02*
X162364000Y-122790484D01*
X162364000Y-122790484D02*
X162435428Y-122719055D01*
X162435428Y-122719055D02*
X162435428Y-122861912D01*
X163435429Y-121361912D02*
X163578286Y-121361912D01*
X163578286Y-121361912D02*
X163721143Y-121433341D01*
X163721143Y-121433341D02*
X163792572Y-121504769D01*
X163792572Y-121504769D02*
X163864000Y-121647626D01*
X163864000Y-121647626D02*
X163935429Y-121933341D01*
X163935429Y-121933341D02*
X163935429Y-122290484D01*
X163935429Y-122290484D02*
X163864000Y-122576198D01*
X163864000Y-122576198D02*
X163792572Y-122719055D01*
X163792572Y-122719055D02*
X163721143Y-122790484D01*
X163721143Y-122790484D02*
X163578286Y-122861912D01*
X163578286Y-122861912D02*
X163435429Y-122861912D01*
X163435429Y-122861912D02*
X163292572Y-122790484D01*
X163292572Y-122790484D02*
X163221143Y-122719055D01*
X163221143Y-122719055D02*
X163149714Y-122576198D01*
X163149714Y-122576198D02*
X163078286Y-122290484D01*
X163078286Y-122290484D02*
X163078286Y-121933341D01*
X163078286Y-121933341D02*
X163149714Y-121647626D01*
X163149714Y-121647626D02*
X163221143Y-121504769D01*
X163221143Y-121504769D02*
X163292572Y-121433341D01*
X163292572Y-121433341D02*
X163435429Y-121361912D01*
X134721143Y-123776828D02*
X135578286Y-123776828D01*
X135149714Y-125276828D02*
X135149714Y-123776828D01*
X135935428Y-124276828D02*
X136221143Y-125276828D01*
X136221143Y-125276828D02*
X136506857Y-124562542D01*
X136506857Y-124562542D02*
X136792571Y-125276828D01*
X136792571Y-125276828D02*
X137078285Y-124276828D01*
X137649714Y-125276828D02*
X137649714Y-124276828D01*
X137649714Y-123776828D02*
X137578286Y-123848257D01*
X137578286Y-123848257D02*
X137649714Y-123919685D01*
X137649714Y-123919685D02*
X137721143Y-123848257D01*
X137721143Y-123848257D02*
X137649714Y-123776828D01*
X137649714Y-123776828D02*
X137649714Y-123919685D01*
X138364000Y-124276828D02*
X138364000Y-125276828D01*
X138364000Y-124419685D02*
X138435429Y-124348257D01*
X138435429Y-124348257D02*
X138578286Y-124276828D01*
X138578286Y-124276828D02*
X138792572Y-124276828D01*
X138792572Y-124276828D02*
X138935429Y-124348257D01*
X138935429Y-124348257D02*
X139006858Y-124491114D01*
X139006858Y-124491114D02*
X139006858Y-125276828D01*
X140006858Y-123776828D02*
X140292572Y-123776828D01*
X140292572Y-123776828D02*
X140435429Y-123848257D01*
X140435429Y-123848257D02*
X140578286Y-123991114D01*
X140578286Y-123991114D02*
X140649715Y-124276828D01*
X140649715Y-124276828D02*
X140649715Y-124776828D01*
X140649715Y-124776828D02*
X140578286Y-125062542D01*
X140578286Y-125062542D02*
X140435429Y-125205400D01*
X140435429Y-125205400D02*
X140292572Y-125276828D01*
X140292572Y-125276828D02*
X140006858Y-125276828D01*
X140006858Y-125276828D02*
X139864001Y-125205400D01*
X139864001Y-125205400D02*
X139721143Y-125062542D01*
X139721143Y-125062542D02*
X139649715Y-124776828D01*
X139649715Y-124776828D02*
X139649715Y-124276828D01*
X139649715Y-124276828D02*
X139721143Y-123991114D01*
X139721143Y-123991114D02*
X139864001Y-123848257D01*
X139864001Y-123848257D02*
X140006858Y-123776828D01*
X141935430Y-125276828D02*
X141935430Y-124491114D01*
X141935430Y-124491114D02*
X141864001Y-124348257D01*
X141864001Y-124348257D02*
X141721144Y-124276828D01*
X141721144Y-124276828D02*
X141435430Y-124276828D01*
X141435430Y-124276828D02*
X141292572Y-124348257D01*
X141935430Y-125205400D02*
X141792572Y-125276828D01*
X141792572Y-125276828D02*
X141435430Y-125276828D01*
X141435430Y-125276828D02*
X141292572Y-125205400D01*
X141292572Y-125205400D02*
X141221144Y-125062542D01*
X141221144Y-125062542D02*
X141221144Y-124919685D01*
X141221144Y-124919685D02*
X141292572Y-124776828D01*
X141292572Y-124776828D02*
X141435430Y-124705400D01*
X141435430Y-124705400D02*
X141792572Y-124705400D01*
X141792572Y-124705400D02*
X141935430Y-124633971D01*
X142649715Y-125276828D02*
X142649715Y-123776828D01*
X142792573Y-124705400D02*
X143221144Y-125276828D01*
X143221144Y-124276828D02*
X142649715Y-124848257D01*
X144935430Y-125205400D02*
X145149716Y-125276828D01*
X145149716Y-125276828D02*
X145506858Y-125276828D01*
X145506858Y-125276828D02*
X145649716Y-125205400D01*
X145649716Y-125205400D02*
X145721144Y-125133971D01*
X145721144Y-125133971D02*
X145792573Y-124991114D01*
X145792573Y-124991114D02*
X145792573Y-124848257D01*
X145792573Y-124848257D02*
X145721144Y-124705400D01*
X145721144Y-124705400D02*
X145649716Y-124633971D01*
X145649716Y-124633971D02*
X145506858Y-124562542D01*
X145506858Y-124562542D02*
X145221144Y-124491114D01*
X145221144Y-124491114D02*
X145078287Y-124419685D01*
X145078287Y-124419685D02*
X145006858Y-124348257D01*
X145006858Y-124348257D02*
X144935430Y-124205400D01*
X144935430Y-124205400D02*
X144935430Y-124062542D01*
X144935430Y-124062542D02*
X145006858Y-123919685D01*
X145006858Y-123919685D02*
X145078287Y-123848257D01*
X145078287Y-123848257D02*
X145221144Y-123776828D01*
X145221144Y-123776828D02*
X145578287Y-123776828D01*
X145578287Y-123776828D02*
X145792573Y-123848257D01*
X146221144Y-124276828D02*
X146792572Y-124276828D01*
X146435429Y-123776828D02*
X146435429Y-125062542D01*
X146435429Y-125062542D02*
X146506858Y-125205400D01*
X146506858Y-125205400D02*
X146649715Y-125276828D01*
X146649715Y-125276828D02*
X146792572Y-125276828D01*
X147935430Y-125276828D02*
X147935430Y-124491114D01*
X147935430Y-124491114D02*
X147864001Y-124348257D01*
X147864001Y-124348257D02*
X147721144Y-124276828D01*
X147721144Y-124276828D02*
X147435430Y-124276828D01*
X147435430Y-124276828D02*
X147292572Y-124348257D01*
X147935430Y-125205400D02*
X147792572Y-125276828D01*
X147792572Y-125276828D02*
X147435430Y-125276828D01*
X147435430Y-125276828D02*
X147292572Y-125205400D01*
X147292572Y-125205400D02*
X147221144Y-125062542D01*
X147221144Y-125062542D02*
X147221144Y-124919685D01*
X147221144Y-124919685D02*
X147292572Y-124776828D01*
X147292572Y-124776828D02*
X147435430Y-124705400D01*
X147435430Y-124705400D02*
X147792572Y-124705400D01*
X147792572Y-124705400D02*
X147935430Y-124633971D01*
X148649715Y-124276828D02*
X148649715Y-125276828D01*
X148649715Y-124419685D02*
X148721144Y-124348257D01*
X148721144Y-124348257D02*
X148864001Y-124276828D01*
X148864001Y-124276828D02*
X149078287Y-124276828D01*
X149078287Y-124276828D02*
X149221144Y-124348257D01*
X149221144Y-124348257D02*
X149292573Y-124491114D01*
X149292573Y-124491114D02*
X149292573Y-125276828D01*
X150649716Y-125276828D02*
X150649716Y-123776828D01*
X150649716Y-125205400D02*
X150506858Y-125276828D01*
X150506858Y-125276828D02*
X150221144Y-125276828D01*
X150221144Y-125276828D02*
X150078287Y-125205400D01*
X150078287Y-125205400D02*
X150006858Y-125133971D01*
X150006858Y-125133971D02*
X149935430Y-124991114D01*
X149935430Y-124991114D02*
X149935430Y-124562542D01*
X149935430Y-124562542D02*
X150006858Y-124419685D01*
X150006858Y-124419685D02*
X150078287Y-124348257D01*
X150078287Y-124348257D02*
X150221144Y-124276828D01*
X150221144Y-124276828D02*
X150506858Y-124276828D01*
X150506858Y-124276828D02*
X150649716Y-124348257D01*
X152006859Y-125276828D02*
X152006859Y-124491114D01*
X152006859Y-124491114D02*
X151935430Y-124348257D01*
X151935430Y-124348257D02*
X151792573Y-124276828D01*
X151792573Y-124276828D02*
X151506859Y-124276828D01*
X151506859Y-124276828D02*
X151364001Y-124348257D01*
X152006859Y-125205400D02*
X151864001Y-125276828D01*
X151864001Y-125276828D02*
X151506859Y-125276828D01*
X151506859Y-125276828D02*
X151364001Y-125205400D01*
X151364001Y-125205400D02*
X151292573Y-125062542D01*
X151292573Y-125062542D02*
X151292573Y-124919685D01*
X151292573Y-124919685D02*
X151364001Y-124776828D01*
X151364001Y-124776828D02*
X151506859Y-124705400D01*
X151506859Y-124705400D02*
X151864001Y-124705400D01*
X151864001Y-124705400D02*
X152006859Y-124633971D01*
X152721144Y-125276828D02*
X152721144Y-124276828D01*
X152721144Y-124562542D02*
X152792573Y-124419685D01*
X152792573Y-124419685D02*
X152864002Y-124348257D01*
X152864002Y-124348257D02*
X153006859Y-124276828D01*
X153006859Y-124276828D02*
X153149716Y-124276828D01*
X154292573Y-125276828D02*
X154292573Y-123776828D01*
X154292573Y-125205400D02*
X154149715Y-125276828D01*
X154149715Y-125276828D02*
X153864001Y-125276828D01*
X153864001Y-125276828D02*
X153721144Y-125205400D01*
X153721144Y-125205400D02*
X153649715Y-125133971D01*
X153649715Y-125133971D02*
X153578287Y-124991114D01*
X153578287Y-124991114D02*
X153578287Y-124562542D01*
X153578287Y-124562542D02*
X153649715Y-124419685D01*
X153649715Y-124419685D02*
X153721144Y-124348257D01*
X153721144Y-124348257D02*
X153864001Y-124276828D01*
X153864001Y-124276828D02*
X154149715Y-124276828D01*
X154149715Y-124276828D02*
X154292573Y-124348257D01*
X157006858Y-125276828D02*
X156506858Y-124562542D01*
X156149715Y-125276828D02*
X156149715Y-123776828D01*
X156149715Y-123776828D02*
X156721144Y-123776828D01*
X156721144Y-123776828D02*
X156864001Y-123848257D01*
X156864001Y-123848257D02*
X156935430Y-123919685D01*
X156935430Y-123919685D02*
X157006858Y-124062542D01*
X157006858Y-124062542D02*
X157006858Y-124276828D01*
X157006858Y-124276828D02*
X156935430Y-124419685D01*
X156935430Y-124419685D02*
X156864001Y-124491114D01*
X156864001Y-124491114D02*
X156721144Y-124562542D01*
X156721144Y-124562542D02*
X156149715Y-124562542D01*
X158221144Y-125205400D02*
X158078287Y-125276828D01*
X158078287Y-125276828D02*
X157792573Y-125276828D01*
X157792573Y-125276828D02*
X157649715Y-125205400D01*
X157649715Y-125205400D02*
X157578287Y-125062542D01*
X157578287Y-125062542D02*
X157578287Y-124491114D01*
X157578287Y-124491114D02*
X157649715Y-124348257D01*
X157649715Y-124348257D02*
X157792573Y-124276828D01*
X157792573Y-124276828D02*
X158078287Y-124276828D01*
X158078287Y-124276828D02*
X158221144Y-124348257D01*
X158221144Y-124348257D02*
X158292573Y-124491114D01*
X158292573Y-124491114D02*
X158292573Y-124633971D01*
X158292573Y-124633971D02*
X157578287Y-124776828D01*
X158935429Y-124276828D02*
X158935429Y-125776828D01*
X158935429Y-124348257D02*
X159078287Y-124276828D01*
X159078287Y-124276828D02*
X159364001Y-124276828D01*
X159364001Y-124276828D02*
X159506858Y-124348257D01*
X159506858Y-124348257D02*
X159578287Y-124419685D01*
X159578287Y-124419685D02*
X159649715Y-124562542D01*
X159649715Y-124562542D02*
X159649715Y-124991114D01*
X159649715Y-124991114D02*
X159578287Y-125133971D01*
X159578287Y-125133971D02*
X159506858Y-125205400D01*
X159506858Y-125205400D02*
X159364001Y-125276828D01*
X159364001Y-125276828D02*
X159078287Y-125276828D01*
X159078287Y-125276828D02*
X158935429Y-125205400D01*
X160864001Y-125205400D02*
X160721144Y-125276828D01*
X160721144Y-125276828D02*
X160435430Y-125276828D01*
X160435430Y-125276828D02*
X160292572Y-125205400D01*
X160292572Y-125205400D02*
X160221144Y-125062542D01*
X160221144Y-125062542D02*
X160221144Y-124491114D01*
X160221144Y-124491114D02*
X160292572Y-124348257D01*
X160292572Y-124348257D02*
X160435430Y-124276828D01*
X160435430Y-124276828D02*
X160721144Y-124276828D01*
X160721144Y-124276828D02*
X160864001Y-124348257D01*
X160864001Y-124348257D02*
X160935430Y-124491114D01*
X160935430Y-124491114D02*
X160935430Y-124633971D01*
X160935430Y-124633971D02*
X160221144Y-124776828D01*
X162221144Y-125276828D02*
X162221144Y-124491114D01*
X162221144Y-124491114D02*
X162149715Y-124348257D01*
X162149715Y-124348257D02*
X162006858Y-124276828D01*
X162006858Y-124276828D02*
X161721144Y-124276828D01*
X161721144Y-124276828D02*
X161578286Y-124348257D01*
X162221144Y-125205400D02*
X162078286Y-125276828D01*
X162078286Y-125276828D02*
X161721144Y-125276828D01*
X161721144Y-125276828D02*
X161578286Y-125205400D01*
X161578286Y-125205400D02*
X161506858Y-125062542D01*
X161506858Y-125062542D02*
X161506858Y-124919685D01*
X161506858Y-124919685D02*
X161578286Y-124776828D01*
X161578286Y-124776828D02*
X161721144Y-124705400D01*
X161721144Y-124705400D02*
X162078286Y-124705400D01*
X162078286Y-124705400D02*
X162221144Y-124633971D01*
X162721144Y-124276828D02*
X163292572Y-124276828D01*
X162935429Y-123776828D02*
X162935429Y-125062542D01*
X162935429Y-125062542D02*
X163006858Y-125205400D01*
X163006858Y-125205400D02*
X163149715Y-125276828D01*
X163149715Y-125276828D02*
X163292572Y-125276828D01*
X164364001Y-125205400D02*
X164221144Y-125276828D01*
X164221144Y-125276828D02*
X163935430Y-125276828D01*
X163935430Y-125276828D02*
X163792572Y-125205400D01*
X163792572Y-125205400D02*
X163721144Y-125062542D01*
X163721144Y-125062542D02*
X163721144Y-124491114D01*
X163721144Y-124491114D02*
X163792572Y-124348257D01*
X163792572Y-124348257D02*
X163935430Y-124276828D01*
X163935430Y-124276828D02*
X164221144Y-124276828D01*
X164221144Y-124276828D02*
X164364001Y-124348257D01*
X164364001Y-124348257D02*
X164435430Y-124491114D01*
X164435430Y-124491114D02*
X164435430Y-124633971D01*
X164435430Y-124633971D02*
X163721144Y-124776828D01*
X165078286Y-125276828D02*
X165078286Y-124276828D01*
X165078286Y-124562542D02*
X165149715Y-124419685D01*
X165149715Y-124419685D02*
X165221144Y-124348257D01*
X165221144Y-124348257D02*
X165364001Y-124276828D01*
X165364001Y-124276828D02*
X165506858Y-124276828D01*
D12*
X128778095Y-115384819D02*
X128778095Y-114384819D01*
X128778095Y-114861009D02*
X129349523Y-114861009D01*
X129349523Y-115384819D02*
X129349523Y-114384819D01*
X129730476Y-114384819D02*
X130349523Y-114384819D01*
X130349523Y-114384819D02*
X130016190Y-114765771D01*
X130016190Y-114765771D02*
X130159047Y-114765771D01*
X130159047Y-114765771D02*
X130254285Y-114813390D01*
X130254285Y-114813390D02*
X130301904Y-114861009D01*
X130301904Y-114861009D02*
X130349523Y-114956247D01*
X130349523Y-114956247D02*
X130349523Y-115194342D01*
X130349523Y-115194342D02*
X130301904Y-115289580D01*
X130301904Y-115289580D02*
X130254285Y-115337200D01*
X130254285Y-115337200D02*
X130159047Y-115384819D01*
X130159047Y-115384819D02*
X129873333Y-115384819D01*
X129873333Y-115384819D02*
X129778095Y-115337200D01*
X129778095Y-115337200D02*
X129730476Y-115289580D01*
X121534819Y-76533333D02*
X122249104Y-76533333D01*
X122249104Y-76533333D02*
X122391961Y-76580952D01*
X122391961Y-76580952D02*
X122487200Y-76676190D01*
X122487200Y-76676190D02*
X122534819Y-76819047D01*
X122534819Y-76819047D02*
X122534819Y-76914285D01*
X121630057Y-76104761D02*
X121582438Y-76057142D01*
X121582438Y-76057142D02*
X121534819Y-75961904D01*
X121534819Y-75961904D02*
X121534819Y-75723809D01*
X121534819Y-75723809D02*
X121582438Y-75628571D01*
X121582438Y-75628571D02*
X121630057Y-75580952D01*
X121630057Y-75580952D02*
X121725295Y-75533333D01*
X121725295Y-75533333D02*
X121820533Y-75533333D01*
X121820533Y-75533333D02*
X121963390Y-75580952D01*
X121963390Y-75580952D02*
X122534819Y-76152380D01*
X122534819Y-76152380D02*
X122534819Y-75533333D01*
D13*
X149817667Y-92268318D02*
X149817667Y-93175461D01*
X149817667Y-93175461D02*
X149757190Y-93356889D01*
X149757190Y-93356889D02*
X149636238Y-93477842D01*
X149636238Y-93477842D02*
X149454809Y-93538318D01*
X149454809Y-93538318D02*
X149333857Y-93538318D01*
X151087667Y-93538318D02*
X150361952Y-93538318D01*
X150724809Y-93538318D02*
X150724809Y-92268318D01*
X150724809Y-92268318D02*
X150603857Y-92449746D01*
X150603857Y-92449746D02*
X150482905Y-92570699D01*
X150482905Y-92570699D02*
X150361952Y-92631175D01*
D12*
X162174819Y-76533333D02*
X162889104Y-76533333D01*
X162889104Y-76533333D02*
X163031961Y-76580952D01*
X163031961Y-76580952D02*
X163127200Y-76676190D01*
X163127200Y-76676190D02*
X163174819Y-76819047D01*
X163174819Y-76819047D02*
X163174819Y-76914285D01*
X162508152Y-75628571D02*
X163174819Y-75628571D01*
X162127200Y-75866666D02*
X162841485Y-76104761D01*
X162841485Y-76104761D02*
X162841485Y-75485714D01*
X162174819Y-112093333D02*
X162889104Y-112093333D01*
X162889104Y-112093333D02*
X163031961Y-112140952D01*
X163031961Y-112140952D02*
X163127200Y-112236190D01*
X163127200Y-112236190D02*
X163174819Y-112379047D01*
X163174819Y-112379047D02*
X163174819Y-112474285D01*
X162174819Y-111140952D02*
X162174819Y-111617142D01*
X162174819Y-111617142D02*
X162651009Y-111664761D01*
X162651009Y-111664761D02*
X162603390Y-111617142D01*
X162603390Y-111617142D02*
X162555771Y-111521904D01*
X162555771Y-111521904D02*
X162555771Y-111283809D01*
X162555771Y-111283809D02*
X162603390Y-111188571D01*
X162603390Y-111188571D02*
X162651009Y-111140952D01*
X162651009Y-111140952D02*
X162746247Y-111093333D01*
X162746247Y-111093333D02*
X162984342Y-111093333D01*
X162984342Y-111093333D02*
X163079580Y-111140952D01*
X163079580Y-111140952D02*
X163127200Y-111188571D01*
X163127200Y-111188571D02*
X163174819Y-111283809D01*
X163174819Y-111283809D02*
X163174819Y-111521904D01*
X163174819Y-111521904D02*
X163127200Y-111617142D01*
X163127200Y-111617142D02*
X163079580Y-111664761D01*
X128778095Y-64584819D02*
X128778095Y-63584819D01*
X128778095Y-64061009D02*
X129349523Y-64061009D01*
X129349523Y-64584819D02*
X129349523Y-63584819D01*
X130349523Y-64584819D02*
X129778095Y-64584819D01*
X130063809Y-64584819D02*
X130063809Y-63584819D01*
X130063809Y-63584819D02*
X129968571Y-63727676D01*
X129968571Y-63727676D02*
X129873333Y-63822914D01*
X129873333Y-63822914D02*
X129778095Y-63870533D01*
X169418095Y-64584819D02*
X169418095Y-63584819D01*
X169418095Y-64061009D02*
X169989523Y-64061009D01*
X169989523Y-64584819D02*
X169989523Y-63584819D01*
X170418095Y-63680057D02*
X170465714Y-63632438D01*
X170465714Y-63632438D02*
X170560952Y-63584819D01*
X170560952Y-63584819D02*
X170799047Y-63584819D01*
X170799047Y-63584819D02*
X170894285Y-63632438D01*
X170894285Y-63632438D02*
X170941904Y-63680057D01*
X170941904Y-63680057D02*
X170989523Y-63775295D01*
X170989523Y-63775295D02*
X170989523Y-63870533D01*
X170989523Y-63870533D02*
X170941904Y-64013390D01*
X170941904Y-64013390D02*
X170370476Y-64584819D01*
X170370476Y-64584819D02*
X170989523Y-64584819D01*
X121534819Y-112093333D02*
X122249104Y-112093333D01*
X122249104Y-112093333D02*
X122391961Y-112140952D01*
X122391961Y-112140952D02*
X122487200Y-112236190D01*
X122487200Y-112236190D02*
X122534819Y-112379047D01*
X122534819Y-112379047D02*
X122534819Y-112474285D01*
X121534819Y-111712380D02*
X121534819Y-111093333D01*
X121534819Y-111093333D02*
X121915771Y-111426666D01*
X121915771Y-111426666D02*
X121915771Y-111283809D01*
X121915771Y-111283809D02*
X121963390Y-111188571D01*
X121963390Y-111188571D02*
X122011009Y-111140952D01*
X122011009Y-111140952D02*
X122106247Y-111093333D01*
X122106247Y-111093333D02*
X122344342Y-111093333D01*
X122344342Y-111093333D02*
X122439580Y-111140952D01*
X122439580Y-111140952D02*
X122487200Y-111188571D01*
X122487200Y-111188571D02*
X122534819Y-111283809D01*
X122534819Y-111283809D02*
X122534819Y-111569523D01*
X122534819Y-111569523D02*
X122487200Y-111664761D01*
X122487200Y-111664761D02*
X122439580Y-111712380D01*
X169418095Y-115384819D02*
X169418095Y-114384819D01*
X169418095Y-114861009D02*
X169989523Y-114861009D01*
X169989523Y-115384819D02*
X169989523Y-114384819D01*
X170894285Y-114718152D02*
X170894285Y-115384819D01*
X170656190Y-114337200D02*
X170418095Y-115051485D01*
X170418095Y-115051485D02*
X171037142Y-115051485D01*
%TO.C,J2*%
D14*
X123080000Y-77580000D02*
X123080000Y-76200000D01*
X124460000Y-77580000D02*
X123080000Y-77580000D01*
X125730000Y-74820000D02*
X136000000Y-74820000D01*
X125730000Y-77580000D02*
X125730000Y-74820000D01*
X125730000Y-77580000D02*
X136000000Y-77580000D01*
X136000000Y-77580000D02*
X136000000Y-74820000D01*
%TO.C,J1*%
D15*
X142141000Y-90414000D02*
X158341000Y-90414000D01*
X142141000Y-95494000D02*
X142141000Y-90414000D01*
D10*
X144526000Y-89894000D02*
X144526000Y-89894000D01*
X144526000Y-89994000D02*
X144526000Y-89994000D01*
D15*
X158326000Y-95514000D02*
X142141000Y-95494000D01*
X158341000Y-90414000D02*
X158341000Y-91894000D01*
X158341000Y-92894000D02*
X158341000Y-95494000D01*
X158341000Y-95494000D02*
X158326000Y-95514000D01*
D10*
X144526000Y-89894000D02*
G75*
G02*
X144526000Y-89994000I0J-50000D01*
G01*
X144526000Y-89994000D02*
G75*
G02*
X144526000Y-89894000I0J50000D01*
G01*
%TO.C,J4*%
D14*
X163720000Y-77580000D02*
X163720000Y-76200000D01*
X165100000Y-77580000D02*
X163720000Y-77580000D01*
X166370000Y-74820000D02*
X176640000Y-74820000D01*
X166370000Y-77580000D02*
X166370000Y-74820000D01*
X166370000Y-77580000D02*
X176640000Y-77580000D01*
X176640000Y-77580000D02*
X176640000Y-74820000D01*
%TO.C,J5*%
X163720000Y-113140000D02*
X163720000Y-111760000D01*
X165100000Y-113140000D02*
X163720000Y-113140000D01*
X166370000Y-110380000D02*
X176640000Y-110380000D01*
X166370000Y-113140000D02*
X166370000Y-110380000D01*
X166370000Y-113140000D02*
X176640000Y-113140000D01*
X176640000Y-113140000D02*
X176640000Y-110380000D01*
%TO.C,J3*%
X123080000Y-113140000D02*
X123080000Y-111760000D01*
X124460000Y-113140000D02*
X123080000Y-113140000D01*
X125730000Y-110380000D02*
X136000000Y-110380000D01*
X125730000Y-113140000D02*
X125730000Y-110380000D01*
X125730000Y-113140000D02*
X136000000Y-113140000D01*
X136000000Y-113140000D02*
X136000000Y-110380000D01*
%TD*%
M02*
