M48
; DRILL file KiCad 10.0.4 date 2026-07-20T13:22:52
; FORMAT={-:-/ absolute / metric / decimal}
; #@! TF.CreationDate,2026-07-20T13:22:52+02:00
; #@! TF.GenerationSoftware,Kicad,Pcbnew,10.0.4
; #@! TF.FileFunction,Plated,1,2,PTH
FMAT,2
METRIC
; #@! TA.AperFunction,Plated,PTH,ViaDrill
T1C0.300
; #@! TA.AperFunction,Plated,PTH,ComponentDrill
T2C0.800
; #@! TA.AperFunction,Plated,PTH,ComponentDrill
T3C3.500
%
G90
G05
T1
X124.46Y-91.694
X127.0Y-93.726
X127.0Y-94.234
X127.0Y-94.742
X127.508Y-94.234
X129.54Y-89.154
X132.08Y-96.774
X134.62Y-87.376
X167.64Y-98.552
X170.18Y-87.376
X172.72Y-96.774
X175.26Y-89.154
T2
X124.46Y-76.2
X124.46Y-111.76
X127.0Y-76.2
X127.0Y-111.76
X129.54Y-76.2
X129.54Y-111.76
X132.08Y-76.2
X132.08Y-111.76
X134.62Y-76.2
X134.62Y-111.76
X144.526Y-91.694
X145.796Y-94.234
X147.066Y-91.694
X148.336Y-94.234
X149.606Y-91.694
X150.876Y-94.234
X152.146Y-91.694
X153.416Y-94.234
X154.686Y-91.694
X155.956Y-94.234
X165.1Y-76.2
X165.1Y-111.76
X167.64Y-76.2
X167.64Y-111.76
X170.18Y-76.2
X170.18Y-111.76
X172.72Y-76.2
X172.72Y-111.76
X175.26Y-76.2
X175.26Y-111.76
T3
X129.54Y-68.58
X129.54Y-119.38
X170.18Y-68.58
X170.18Y-119.38
M30
