M48
; DRILL file KiCad 10.0.4 date 2026-07-20T13:25:28
; FORMAT={-:-/ absolute / metric / decimal}
; #@! TF.CreationDate,2026-07-20T13:25:28+02:00
; #@! TF.GenerationSoftware,Kicad,Pcbnew,10.0.4
; #@! TF.FileFunction,Plated,1,2,PTH
FMAT,2
METRIC
; #@! TA.AperFunction,Plated,PTH,ViaDrill
T1C0.300
; #@! TA.AperFunction,Plated,PTH,ComponentDrill
T2C0.800
; #@! TA.AperFunction,Plated,PTH,ComponentDrill
T3C1.000
; #@! TA.AperFunction,Plated,PTH,ComponentDrill
T4C1.300
; #@! TA.AperFunction,Plated,PTH,ComponentDrill
T5C3.200
%
G90
G05
T1
X162.56Y-61.468
X162.56Y-78.994
X163.322Y-64.262
X163.36Y-78.994
X164.114Y-67.056
X164.16Y-78.994
T2
X153.67Y-96.774
X154.94Y-99.314
X156.21Y-96.774
X157.48Y-99.314
X158.75Y-96.774
X160.02Y-99.314
X161.29Y-96.774
X162.56Y-99.314
X163.83Y-96.774
X165.1Y-99.314
T3
X149.606Y-62.778
X149.606Y-65.278
X157.838Y-62.847
X157.838Y-65.617
X157.838Y-68.387
X157.838Y-71.157
X160.678Y-61.462
X160.678Y-64.232
X160.678Y-67.002
X160.678Y-69.772
X160.678Y-72.542
T4
X164.084Y-85.932
X164.084Y-90.932
T5
X159.258Y-54.502
X159.258Y-79.502
M30
