%TF.GenerationSoftware,KiCad,Pcbnew,10.0.4*%
%TF.CreationDate,2026-07-20T13:25:25+02:00*%
%TF.ProjectId,connector-board-b,636f6e6e-6563-4746-9f72-2d626f617264,rev?*%
%TF.SameCoordinates,Original*%
%TF.FileFunction,Copper,L1,Top*%
%TF.FilePolarity,Positive*%
%FSLAX46Y46*%
G04 Gerber Fmt 4.6, Leading zero omitted, Abs format (unit mm)*
G04 Created by KiCad (PCBNEW 10.0.4) date 2026-07-20 13:25:25*
%MOMM*%
%LPD*%
G01*
G04 APERTURE LIST*
G04 Aperture macros list*
%AMRoundRect*
0 Rectangle with rounded corners*
0 $1 Rounding radius*
0 $2 $3 $4 $5 $6 $7 $8 $9 X,Y pos of 4 corners*
0 Add a 4 corners polygon primitive as box body*
4,1,4,$2,$3,$4,$5,$6,$7,$8,$9,$2,$3,0*
0 Add four circle primitives for the rounded corners*
1,1,$1+$1,$2,$3*
1,1,$1+$1,$4,$5*
1,1,$1+$1,$6,$7*
1,1,$1+$1,$8,$9*
0 Add four rect primitives between the rounded corners*
20,1,$1+$1,$2,$3,$4,$5,0*
20,1,$1+$1,$4,$5,$6,$7,0*
20,1,$1+$1,$6,$7,$8,$9,0*
20,1,$1+$1,$8,$9,$2,$3,0*%
G04 Aperture macros list end*
%TA.AperFunction,ComponentPad*%
%ADD10RoundRect,0.250001X1.149999X-1.149999X1.149999X1.149999X-1.149999X1.149999X-1.149999X-1.149999X0*%
%TD*%
%TA.AperFunction,ComponentPad*%
%ADD11C,2.800000*%
%TD*%
%TA.AperFunction,ComponentPad*%
%ADD12RoundRect,0.250000X0.750000X-0.600000X0.750000X0.600000X-0.750000X0.600000X-0.750000X-0.600000X0*%
%TD*%
%TA.AperFunction,ComponentPad*%
%ADD13O,2.000000X1.700000*%
%TD*%
%TA.AperFunction,ComponentPad*%
%ADD14R,1.500000X1.500000*%
%TD*%
%TA.AperFunction,ComponentPad*%
%ADD15C,1.500000*%
%TD*%
%TA.AperFunction,ComponentPad*%
%ADD16R,2.000000X2.000000*%
%TD*%
%TA.AperFunction,ComponentPad*%
%ADD17C,2.000000*%
%TD*%
%TA.AperFunction,ComponentPad*%
%ADD18C,4.000000*%
%TD*%
%TA.AperFunction,ViaPad*%
%ADD19C,0.600000*%
%TD*%
%TA.AperFunction,Conductor*%
%ADD20C,1.270000*%
%TD*%
%TA.AperFunction,Conductor*%
%ADD21C,0.508000*%
%TD*%
G04 APERTURE END LIST*
D10*
%TO.P,J3,1,Pin_1_1*%
%TO.N,GND*%
X164084000Y-90932000D03*
D11*
%TO.P,J3,2,Pin_2_2*%
%TO.N,VCC*%
X164084000Y-85932000D03*
%TD*%
D12*
%TO.P,J4,1,Pin_1_1*%
%TO.N,GND*%
X149606000Y-65278000D03*
D13*
%TO.P,J4,2,Pin_2_2*%
%TO.N,VCC*%
X149606000Y-62778000D03*
%TD*%
D14*
%TO.P,J5,1,1_1*%
%TO.N,GND*%
X165100000Y-99314000D03*
D15*
%TO.P,J5,2,2_2*%
%TO.N,VCC*%
X163830000Y-96774000D03*
%TO.P,J5,3,3_3*%
%TO.N,Net-(J1-Pad3)*%
X162560000Y-99314000D03*
%TO.P,J5,4,4_4*%
%TO.N,Net-(J1-Pad4)*%
X161290000Y-96774000D03*
%TO.P,J5,5,5_5*%
%TO.N,Net-(J1-Pad5)*%
X160020000Y-99314000D03*
%TO.P,J5,6,6_6*%
%TO.N,Net-(J1-Pad6)*%
X158750000Y-96774000D03*
%TO.P,J5,7,7_7*%
%TO.N,Net-(J1-Pad7)*%
X157480000Y-99314000D03*
%TO.P,J5,8,8_8*%
%TO.N,Net-(J1-Pad8)*%
X156210000Y-96774000D03*
%TO.P,J5,9,9_9*%
%TO.N,Net-(J1-Pad9)*%
X154940000Y-99314000D03*
%TO.P,J5,10,10_10*%
%TO.N,unconnected-(J5-Pad10)*%
X153670000Y-96774000D03*
%TD*%
D16*
%TO.P,J1,1,1_1*%
%TO.N,GND*%
X160678000Y-72542000D03*
D17*
%TO.P,J1,2,2_2*%
%TO.N,VCC*%
X160678000Y-69772000D03*
%TO.P,J1,3,3_3*%
%TO.N,Net-(J1-Pad3)*%
X160678000Y-67002000D03*
%TO.P,J1,4,4_4*%
%TO.N,Net-(J1-Pad4)*%
X160678000Y-64232000D03*
%TO.P,J1,5,5_5*%
%TO.N,Net-(J1-Pad5)*%
X160678000Y-61462000D03*
%TO.P,J1,6,6_6*%
%TO.N,Net-(J1-Pad6)*%
X157838000Y-71157000D03*
%TO.P,J1,7,7_7*%
%TO.N,Net-(J1-Pad7)*%
X157838000Y-68387000D03*
%TO.P,J1,8,8_8*%
%TO.N,Net-(J1-Pad8)*%
X157838000Y-65617000D03*
%TO.P,J1,9,9_9*%
%TO.N,Net-(J1-Pad9)*%
X157838000Y-62847000D03*
D18*
%TO.P,J1,SH*%
%TO.N,N/C*%
X159258000Y-79502000D03*
X159258000Y-54502000D03*
%TD*%
D19*
%TO.N,Net-(J1-Pad3)*%
X164160006Y-78994000D03*
X164114003Y-67056000D03*
%TO.N,Net-(J1-Pad4)*%
X163322000Y-64262000D03*
X163360003Y-78994000D03*
%TO.N,Net-(J1-Pad5)*%
X162560000Y-61468000D03*
X162560000Y-78994000D03*
%TD*%
%TO.N,VCC*%
D20*
X155448000Y-58674000D02*
X164084000Y-58674000D01*
X149606000Y-62778000D02*
X151344000Y-62778000D01*
X166624000Y-83392000D02*
X166624000Y-70866000D01*
X165530000Y-69772000D02*
X163757082Y-69772000D01*
X151344000Y-62778000D02*
X155448000Y-58674000D01*
X164084000Y-85932000D02*
X166624000Y-83392000D01*
X166624000Y-88472000D02*
X164084000Y-85932000D01*
X166624000Y-70866000D02*
X165530000Y-69772000D01*
X166624000Y-61214000D02*
X166624000Y-68580000D01*
X164084000Y-58674000D02*
X166624000Y-61214000D01*
X166624000Y-68580000D02*
X165432000Y-69772000D01*
X166624000Y-95250000D02*
X166624000Y-88472000D01*
X163830000Y-96774000D02*
X165100000Y-96774000D01*
X165432000Y-69772000D02*
X163757082Y-69772000D01*
X165100000Y-96774000D02*
X166624000Y-95250000D01*
X163757082Y-69772000D02*
X160678000Y-69772000D01*
%TO.N,Net-(J1-Pad3)*%
D21*
X164114003Y-67056000D02*
X160732000Y-67056000D01*
X161036000Y-84074000D02*
X164160006Y-80949994D01*
X161036000Y-93488079D02*
X161036000Y-84074000D01*
X160732000Y-67056000D02*
X160678000Y-67002000D01*
X162560000Y-99314000D02*
X162560000Y-95012079D01*
X162560000Y-95012079D02*
X161036000Y-93488079D01*
X164160006Y-80949994D02*
X164160006Y-78994000D01*
%TO.N,Net-(J1-Pad4)*%
X163360003Y-80479997D02*
X163360003Y-78994000D01*
X163322000Y-64262000D02*
X160708000Y-64262000D01*
X160274000Y-93980000D02*
X160274000Y-83566000D01*
X160274000Y-83566000D02*
X163360003Y-80479997D01*
X161290000Y-94996000D02*
X160274000Y-93980000D01*
X161290000Y-96774000D02*
X161290000Y-94996000D01*
X160708000Y-64262000D02*
X160678000Y-64232000D01*
%TO.N,Net-(J1-Pad5)*%
X160020000Y-99314000D02*
X160020000Y-94981264D01*
X162560000Y-61468000D02*
X160684000Y-61468000D01*
X160020000Y-94981264D02*
X159512000Y-94473264D01*
X159512000Y-94473264D02*
X159512000Y-83015240D01*
X160684000Y-61468000D02*
X160678000Y-61462000D01*
X159512000Y-83015240D02*
X162560000Y-79967240D01*
X162560000Y-79967240D02*
X162560000Y-78994000D01*
%TO.N,Net-(J1-Pad6)*%
X158750000Y-96774000D02*
X158750000Y-94234000D01*
X156210000Y-91694000D02*
X156210000Y-72785000D01*
X158750000Y-94234000D02*
X156210000Y-91694000D01*
X156210000Y-72785000D02*
X157838000Y-71157000D01*
%TO.N,Net-(J1-Pad7)*%
X157480000Y-94234000D02*
X157480000Y-99314000D01*
X156403000Y-68387000D02*
X155448000Y-69342000D01*
X155448000Y-92202000D02*
X157480000Y-94234000D01*
X155448000Y-69342000D02*
X155448000Y-92202000D01*
X157838000Y-68387000D02*
X156403000Y-68387000D01*
%TO.N,Net-(J1-Pad8)*%
X154686000Y-66802000D02*
X155871000Y-65617000D01*
X154686000Y-92710000D02*
X154686000Y-66802000D01*
X156210000Y-94234000D02*
X154686000Y-92710000D01*
X155871000Y-65617000D02*
X157838000Y-65617000D01*
X156210000Y-96774000D02*
X156210000Y-94234000D01*
%TO.N,Net-(J1-Pad9)*%
X153924000Y-93218000D02*
X153924000Y-64008000D01*
X155085000Y-62847000D02*
X157838000Y-62847000D01*
X154940000Y-94234000D02*
X153924000Y-93218000D01*
X154940000Y-99314000D02*
X154940000Y-94234000D01*
X153924000Y-64008000D02*
X155085000Y-62847000D01*
%TD*%
%TA.AperFunction,Conductor*%
%TO.N,GND*%
G36*
X159494345Y-70711128D02*
G01*
X159529118Y-70743502D01*
X159533483Y-70749510D01*
X159700490Y-70916517D01*
X159891567Y-71055343D01*
X159990991Y-71106002D01*
X160102003Y-71162566D01*
X160102005Y-71162566D01*
X160102008Y-71162568D01*
X160222412Y-71201689D01*
X160326631Y-71235553D01*
X160559903Y-71272500D01*
X160559908Y-71272500D01*
X160796097Y-71272500D01*
X161029368Y-71235553D01*
X161253992Y-71162568D01*
X161464433Y-71055343D01*
X161635325Y-70931181D01*
X161701132Y-70907702D01*
X161708211Y-70907500D01*
X163667716Y-70907500D01*
X165008299Y-70907500D01*
X165075338Y-70927185D01*
X165095980Y-70943819D01*
X165452181Y-71300020D01*
X165485666Y-71361343D01*
X165488500Y-71387701D01*
X165488500Y-82870298D01*
X165468815Y-82937337D01*
X165452181Y-82957979D01*
X164402111Y-84008048D01*
X164340788Y-84041533D01*
X164298245Y-84043306D01*
X164208566Y-84031500D01*
X164208565Y-84031500D01*
X163959435Y-84031500D01*
X163959429Y-84031500D01*
X163959424Y-84031501D01*
X163712438Y-84064017D01*
X163471792Y-84128498D01*
X163241638Y-84223830D01*
X163241623Y-84223837D01*
X163025873Y-84348400D01*
X162828225Y-84500060D01*
X162828218Y-84500066D01*
X162652066Y-84676218D01*
X162652060Y-84676225D01*
X162500400Y-84873873D01*
X162375837Y-85089623D01*
X162375830Y-85089638D01*
X162280498Y-85319792D01*
X162216017Y-85560438D01*
X162183501Y-85807424D01*
X162183500Y-85807441D01*
X162183500Y-86056558D01*
X162183501Y-86056575D01*
X162216017Y-86303561D01*
X162280498Y-86544207D01*
X162375830Y-86774361D01*
X162375837Y-86774376D01*
X162500400Y-86990126D01*
X162652060Y-87187774D01*
X162652066Y-87187781D01*
X162828218Y-87363933D01*
X162828225Y-87363939D01*
X163025873Y-87515599D01*
X163241623Y-87640162D01*
X163241638Y-87640169D01*
X163340825Y-87681253D01*
X163471793Y-87735502D01*
X163712435Y-87799982D01*
X163959435Y-87832500D01*
X163959442Y-87832500D01*
X164208558Y-87832500D01*
X164208565Y-87832500D01*
X164298245Y-87820693D01*
X164367280Y-87831458D01*
X164402112Y-87855951D01*
X165452181Y-88906020D01*
X165485666Y-88967343D01*
X165488500Y-88993701D01*
X165488500Y-94728298D01*
X165468815Y-94795337D01*
X165452181Y-94815979D01*
X164665980Y-95602181D01*
X164639052Y-95616884D01*
X164613234Y-95633477D01*
X164607033Y-95634368D01*
X164604657Y-95635666D01*
X164578299Y-95638500D01*
X164385689Y-95638500D01*
X164329394Y-95624985D01*
X164310028Y-95615117D01*
X164122826Y-95554290D01*
X163928422Y-95523500D01*
X163928417Y-95523500D01*
X163731583Y-95523500D01*
X163731578Y-95523500D01*
X163537172Y-95554291D01*
X163537169Y-95554291D01*
X163476818Y-95573901D01*
X163406977Y-95575896D01*
X163347144Y-95539815D01*
X163316316Y-95477114D01*
X163314500Y-95455970D01*
X163314500Y-94937766D01*
X163314499Y-94937762D01*
X163285506Y-94792006D01*
X163285505Y-94791999D01*
X163228629Y-94654689D01*
X163146059Y-94531113D01*
X163146054Y-94531107D01*
X163036647Y-94421700D01*
X163036624Y-94421679D01*
X161826819Y-93211873D01*
X161793334Y-93150550D01*
X161790500Y-93124192D01*
X161790500Y-84437885D01*
X161810185Y-84370846D01*
X161826814Y-84350209D01*
X164640969Y-81536054D01*
X164640972Y-81536053D01*
X164746065Y-81430960D01*
X164828635Y-81307384D01*
X164828636Y-81307383D01*
X164828639Y-81307379D01*
X164873936Y-81198017D01*
X164885511Y-81170073D01*
X164914507Y-81024306D01*
X164914507Y-80875682D01*
X164914507Y-80870572D01*
X164914506Y-80870546D01*
X164914506Y-79288947D01*
X164923945Y-79241494D01*
X164929743Y-79227497D01*
X164960506Y-79072842D01*
X164960506Y-78915158D01*
X164960506Y-78915155D01*
X164960505Y-78915153D01*
X164929744Y-78760510D01*
X164929743Y-78760503D01*
X164914383Y-78723420D01*
X164869403Y-78614827D01*
X164869396Y-78614814D01*
X164781795Y-78483711D01*
X164781792Y-78483707D01*
X164670298Y-78372213D01*
X164670294Y-78372210D01*
X164539191Y-78284609D01*
X164539178Y-78284602D01*
X164393507Y-78224264D01*
X164393495Y-78224261D01*
X164238851Y-78193500D01*
X164238848Y-78193500D01*
X164081164Y-78193500D01*
X164081161Y-78193500D01*
X163926516Y-78224261D01*
X163926504Y-78224264D01*
X163807456Y-78273575D01*
X163737986Y-78281044D01*
X163712552Y-78273575D01*
X163593504Y-78224264D01*
X163593492Y-78224261D01*
X163438848Y-78193500D01*
X163438845Y-78193500D01*
X163281161Y-78193500D01*
X163281158Y-78193500D01*
X163126513Y-78224261D01*
X163126501Y-78224264D01*
X163007453Y-78273575D01*
X162937983Y-78281044D01*
X162912549Y-78273575D01*
X162793501Y-78224264D01*
X162793489Y-78224261D01*
X162638845Y-78193500D01*
X162638842Y-78193500D01*
X162481158Y-78193500D01*
X162481155Y-78193500D01*
X162326510Y-78224261D01*
X162326498Y-78224264D01*
X162180827Y-78284602D01*
X162180814Y-78284609D01*
X162049711Y-78372210D01*
X162049707Y-78372213D01*
X161938213Y-78483707D01*
X161938210Y-78483711D01*
X161850609Y-78614814D01*
X161850603Y-78614826D01*
X161837295Y-78646954D01*
X161793453Y-78701356D01*
X161727159Y-78723420D01*
X161659460Y-78706140D01*
X161611850Y-78655002D01*
X161605699Y-78640468D01*
X161571801Y-78543592D01*
X161489268Y-78372211D01*
X161449946Y-78290557D01*
X161443969Y-78281044D01*
X161300523Y-78052752D01*
X161125416Y-77833175D01*
X160926825Y-77634584D01*
X160707248Y-77459477D01*
X160469445Y-77310055D01*
X160469442Y-77310053D01*
X160216411Y-77188200D01*
X159951329Y-77095443D01*
X159951317Y-77095439D01*
X159677512Y-77032945D01*
X159677494Y-77032942D01*
X159398431Y-77001500D01*
X159398425Y-77001500D01*
X159117575Y-77001500D01*
X159117568Y-77001500D01*
X158838505Y-77032942D01*
X158838487Y-77032945D01*
X158564682Y-77095439D01*
X158564670Y-77095443D01*
X158299588Y-77188200D01*
X158046557Y-77310053D01*
X157808753Y-77459476D01*
X157589175Y-77634583D01*
X157390583Y-77833175D01*
X157215474Y-78052755D01*
X157193493Y-78087738D01*
X157141158Y-78134028D01*
X157072105Y-78144676D01*
X157008257Y-78116301D01*
X156969885Y-78057911D01*
X156964500Y-78021765D01*
X156964500Y-73148885D01*
X156984185Y-73081846D01*
X157000815Y-73061208D01*
X157402971Y-72659051D01*
X157464292Y-72625568D01*
X157510044Y-72624261D01*
X157630854Y-72643395D01*
X157719904Y-72657500D01*
X157719908Y-72657500D01*
X157956097Y-72657500D01*
X158189368Y-72620553D01*
X158223456Y-72609477D01*
X158413992Y-72547568D01*
X158624433Y-72440343D01*
X158815510Y-72301517D01*
X158982517Y-72134510D01*
X159121343Y-71943433D01*
X159228568Y-71732992D01*
X159301553Y-71508368D01*
X159320665Y-71387701D01*
X159338500Y-71275097D01*
X159338500Y-71038902D01*
X159306329Y-70835788D01*
X159315283Y-70766495D01*
X159360279Y-70713043D01*
X159427031Y-70692403D01*
X159494345Y-70711128D01*
G37*
%TD.AperFunction*%
%TA.AperFunction,Conductor*%
G36*
X168098539Y-51574185D02*
G01*
X168144294Y-51626989D01*
X168155500Y-51678500D01*
X168155500Y-100975500D01*
X168135815Y-101042539D01*
X168083011Y-101088294D01*
X168031500Y-101099500D01*
X147944500Y-101099500D01*
X147877461Y-101079815D01*
X147831706Y-101027011D01*
X147820500Y-100975500D01*
X147820500Y-62671713D01*
X148105500Y-62671713D01*
X148105500Y-62884286D01*
X148137683Y-63087485D01*
X148138754Y-63094243D01*
X148192774Y-63260500D01*
X148204444Y-63296414D01*
X148300951Y-63485820D01*
X148425890Y-63657786D01*
X148576213Y-63808109D01*
X148748179Y-63933048D01*
X148748181Y-63933049D01*
X148748184Y-63933051D01*
X148937588Y-64029557D01*
X149139757Y-64095246D01*
X149349713Y-64128500D01*
X149349714Y-64128500D01*
X149862286Y-64128500D01*
X149862287Y-64128500D01*
X150072243Y-64095246D01*
X150274412Y-64029557D01*
X150463816Y-63933051D01*
X150463820Y-63933047D01*
X150463824Y-63933046D01*
X150465901Y-63931774D01*
X150466843Y-63931508D01*
X150468157Y-63930839D01*
X150468290Y-63931100D01*
X150530692Y-63913500D01*
X151433370Y-63913500D01*
X151511824Y-63901073D01*
X151609897Y-63885541D01*
X151738193Y-63843853D01*
X151779881Y-63830309D01*
X151939132Y-63749167D01*
X152083728Y-63644111D01*
X152210111Y-63517728D01*
X152268670Y-63459169D01*
X152268683Y-63459154D01*
X155882021Y-59845819D01*
X155943344Y-59812334D01*
X155969702Y-59809500D01*
X160125247Y-59809500D01*
X160192286Y-59829185D01*
X160238041Y-59881989D01*
X160247985Y-59951147D01*
X160218960Y-60014703D01*
X160163565Y-60051431D01*
X160102005Y-60071433D01*
X159891566Y-60178657D01*
X159782550Y-60257862D01*
X159700490Y-60317483D01*
X159700488Y-60317485D01*
X159700487Y-60317485D01*
X159533485Y-60484487D01*
X159533485Y-60484488D01*
X159533483Y-60484490D01*
X159473862Y-60566550D01*
X159394657Y-60675566D01*
X159287433Y-60886003D01*
X159214446Y-61110631D01*
X159177500Y-61343902D01*
X159177500Y-61580097D01*
X159209670Y-61783211D01*
X159200715Y-61852505D01*
X159155719Y-61905957D01*
X159088968Y-61926596D01*
X159021654Y-61907871D01*
X158986878Y-61875493D01*
X158982517Y-61869490D01*
X158815512Y-61702485D01*
X158815510Y-61702483D01*
X158624433Y-61563657D01*
X158591432Y-61546842D01*
X158413996Y-61456433D01*
X158189368Y-61383446D01*
X157956097Y-61346500D01*
X157956092Y-61346500D01*
X157719908Y-61346500D01*
X157719903Y-61346500D01*
X157486631Y-61383446D01*
X157262003Y-61456433D01*
X157051566Y-61563657D01*
X156969959Y-61622949D01*
X156860490Y-61702483D01*
X156860488Y-61702485D01*
X156860487Y-61702485D01*
X156693485Y-61869487D01*
X156693485Y-61869488D01*
X156693483Y-61869490D01*
X156571059Y-62037992D01*
X156568593Y-62041386D01*
X156513263Y-62084051D01*
X156468275Y-62092500D01*
X155165446Y-62092500D01*
X155165426Y-62092499D01*
X155159312Y-62092499D01*
X155010688Y-62092499D01*
X155010686Y-62092499D01*
X154896089Y-62115294D01*
X154896082Y-62115295D01*
X154889105Y-62116684D01*
X154864920Y-62121495D01*
X154828384Y-62136629D01*
X154823720Y-62138560D01*
X154823704Y-62138566D01*
X154727615Y-62178368D01*
X154727607Y-62178372D01*
X154604031Y-62260942D01*
X153337942Y-63527031D01*
X153255368Y-63650614D01*
X153222053Y-63731045D01*
X153201347Y-63781035D01*
X153201346Y-63781037D01*
X153198495Y-63787917D01*
X153198493Y-63787926D01*
X153169499Y-63933685D01*
X153169499Y-64088425D01*
X153169500Y-64088446D01*
X153169500Y-93138552D01*
X153169499Y-93138578D01*
X153169499Y-93143688D01*
X153169499Y-93292312D01*
X153169499Y-93292314D01*
X153169498Y-93292314D01*
X153198493Y-93438073D01*
X153198496Y-93438083D01*
X153255366Y-93575381D01*
X153255372Y-93575392D01*
X153337942Y-93698968D01*
X153337943Y-93698969D01*
X154149181Y-94510206D01*
X154182666Y-94571529D01*
X154185500Y-94597887D01*
X154185500Y-95455970D01*
X154165815Y-95523009D01*
X154113011Y-95568764D01*
X154043853Y-95578708D01*
X154023182Y-95573901D01*
X153962829Y-95554291D01*
X153768422Y-95523500D01*
X153768417Y-95523500D01*
X153571583Y-95523500D01*
X153571578Y-95523500D01*
X153377173Y-95554290D01*
X153189970Y-95615117D01*
X153014594Y-95704476D01*
X152923741Y-95770485D01*
X152855354Y-95820172D01*
X152855352Y-95820174D01*
X152855351Y-95820174D01*
X152716174Y-95959351D01*
X152716174Y-95959352D01*
X152716172Y-95959354D01*
X152694103Y-95989729D01*
X152600476Y-96118594D01*
X152511117Y-96293970D01*
X152450290Y-96481173D01*
X152419500Y-96675577D01*
X152419500Y-96872422D01*
X152450290Y-97066826D01*
X152488339Y-97183925D01*
X152511116Y-97254025D01*
X152511117Y-97254028D01*
X152512622Y-97258658D01*
X152511062Y-97259164D01*
X152517765Y-97321519D01*
X152486489Y-97383998D01*
X152426400Y-97419649D01*
X152395736Y-97423500D01*
X152229449Y-97423500D01*
X152050589Y-97451829D01*
X151878363Y-97507787D01*
X151878360Y-97507788D01*
X151717002Y-97590006D01*
X151570505Y-97696441D01*
X151570500Y-97696445D01*
X151442445Y-97824500D01*
X151442441Y-97824505D01*
X151336006Y-97971002D01*
X151253788Y-98132360D01*
X151253787Y-98132363D01*
X151197829Y-98304589D01*
X151169500Y-98483448D01*
X151169500Y-98664551D01*
X151197829Y-98843410D01*
X151253787Y-99015636D01*
X151253788Y-99015639D01*
X151336006Y-99176997D01*
X151442441Y-99323494D01*
X151442445Y-99323499D01*
X151570500Y-99451554D01*
X151570505Y-99451558D01*
X151698287Y-99544396D01*
X151717006Y-99557996D01*
X151812840Y-99606826D01*
X151878360Y-99640211D01*
X151878363Y-99640212D01*
X151964476Y-99668191D01*
X152050591Y-99696171D01*
X152133429Y-99709291D01*
X152229449Y-99724500D01*
X152229454Y-99724500D01*
X152410551Y-99724500D01*
X152497259Y-99710765D01*
X152589409Y-99696171D01*
X152761639Y-99640211D01*
X152922994Y-99557996D01*
X153069501Y-99451553D01*
X153197553Y-99323501D01*
X153303996Y-99176994D01*
X153386211Y-99015639D01*
X153442171Y-98843409D01*
X153456765Y-98751259D01*
X153470500Y-98664551D01*
X153470500Y-98483448D01*
X153442171Y-98304590D01*
X153401735Y-98180141D01*
X153399740Y-98110300D01*
X153435820Y-98050467D01*
X153498521Y-98019639D01*
X153539065Y-98019350D01*
X153571579Y-98024500D01*
X153571583Y-98024500D01*
X153768422Y-98024500D01*
X153962826Y-97993709D01*
X154023182Y-97974097D01*
X154051305Y-97973294D01*
X154079147Y-97969291D01*
X154085756Y-97972309D01*
X154093022Y-97972102D01*
X154117115Y-97986630D01*
X154142703Y-97998316D01*
X154146631Y-98004429D01*
X154152855Y-98008182D01*
X154165268Y-98033428D01*
X154180477Y-98057094D01*
X154181953Y-98067363D01*
X154183684Y-98070883D01*
X154185500Y-98092029D01*
X154185500Y-98253292D01*
X154165815Y-98320331D01*
X154134388Y-98353608D01*
X154125357Y-98360169D01*
X154125351Y-98360174D01*
X153986174Y-98499351D01*
X153986174Y-98499352D01*
X153986172Y-98499354D01*
X153936485Y-98567741D01*
X153870476Y-98658594D01*
X153781117Y-98833970D01*
X153720290Y-99021173D01*
X153689500Y-99215577D01*
X153689500Y-99412422D01*
X153720290Y-99606826D01*
X153781117Y-99794029D01*
X153870475Y-99969403D01*
X153870476Y-99969405D01*
X153986172Y-100128646D01*
X154125354Y-100267828D01*
X154284595Y-100383524D01*
X154367455Y-100425743D01*
X154459970Y-100472882D01*
X154459972Y-100472882D01*
X154459975Y-100472884D01*
X154560317Y-100505487D01*
X154647173Y-100533709D01*
X154841578Y-100564500D01*
X154841583Y-100564500D01*
X155038422Y-100564500D01*
X155232826Y-100533709D01*
X155420025Y-100472884D01*
X155595405Y-100383524D01*
X155754646Y-100267828D01*
X155893828Y-100128646D01*
X156009524Y-99969405D01*
X156098884Y-99794025D01*
X156099515Y-99792787D01*
X156147489Y-99741990D01*
X156215310Y-99725195D01*
X156281445Y-99747732D01*
X156320485Y-99792787D01*
X156410474Y-99969403D01*
X156445234Y-100017246D01*
X156526172Y-100128646D01*
X156665354Y-100267828D01*
X156824595Y-100383524D01*
X156907455Y-100425743D01*
X156999970Y-100472882D01*
X156999972Y-100472882D01*
X156999975Y-100472884D01*
X157100317Y-100505487D01*
X157187173Y-100533709D01*
X157381578Y-100564500D01*
X157381583Y-100564500D01*
X157578422Y-100564500D01*
X157772826Y-100533709D01*
X157960025Y-100472884D01*
X158135405Y-100383524D01*
X158294646Y-100267828D01*
X158433828Y-100128646D01*
X158549524Y-99969405D01*
X158638884Y-99794025D01*
X158639515Y-99792787D01*
X158687489Y-99741990D01*
X158755310Y-99725195D01*
X158821445Y-99747732D01*
X158860485Y-99792787D01*
X158950474Y-99969403D01*
X158985234Y-100017246D01*
X159066172Y-100128646D01*
X159205354Y-100267828D01*
X159364595Y-100383524D01*
X159447455Y-100425743D01*
X159539970Y-100472882D01*
X159539972Y-100472882D01*
X159539975Y-100472884D01*
X159640317Y-100505487D01*
X159727173Y-100533709D01*
X159921578Y-100564500D01*
X159921583Y-100564500D01*
X160118422Y-100564500D01*
X160312826Y-100533709D01*
X160500025Y-100472884D01*
X160675405Y-100383524D01*
X160834646Y-100267828D01*
X160973828Y-100128646D01*
X161089524Y-99969405D01*
X161178884Y-99794025D01*
X161179515Y-99792787D01*
X161227489Y-99741990D01*
X161295310Y-99725195D01*
X161361445Y-99747732D01*
X161400485Y-99792787D01*
X161490474Y-99969403D01*
X161525234Y-100017246D01*
X161606172Y-100128646D01*
X161745354Y-100267828D01*
X161904595Y-100383524D01*
X161987455Y-100425743D01*
X162079970Y-100472882D01*
X162079972Y-100472882D01*
X162079975Y-100472884D01*
X162180317Y-100505487D01*
X162267173Y-100533709D01*
X162461578Y-100564500D01*
X162461583Y-100564500D01*
X162658422Y-100564500D01*
X162852826Y-100533709D01*
X163040025Y-100472884D01*
X163215405Y-100383524D01*
X163374646Y-100267828D01*
X163513828Y-100128646D01*
X163629524Y-99969405D01*
X163718884Y-99794025D01*
X163779709Y-99606826D01*
X163804301Y-99451558D01*
X163810500Y-99412422D01*
X163810500Y-99215577D01*
X163779709Y-99021173D01*
X163733925Y-98880267D01*
X163718884Y-98833975D01*
X163718882Y-98833972D01*
X163718882Y-98833970D01*
X163671743Y-98741455D01*
X163629524Y-98658595D01*
X163513828Y-98499354D01*
X163374646Y-98360172D01*
X163365612Y-98353608D01*
X163362272Y-98349277D01*
X163357297Y-98347005D01*
X163341164Y-98321901D01*
X163322948Y-98298277D01*
X163321695Y-98291607D01*
X163319523Y-98288227D01*
X163314500Y-98253292D01*
X163314500Y-98092029D01*
X163334185Y-98024990D01*
X163386989Y-97979235D01*
X163456147Y-97969291D01*
X163476815Y-97974097D01*
X163492628Y-97979235D01*
X163537173Y-97993709D01*
X163731578Y-98024500D01*
X163731583Y-98024500D01*
X163928422Y-98024500D01*
X164122826Y-97993709D01*
X164310025Y-97932884D01*
X164329394Y-97923014D01*
X164385689Y-97909500D01*
X165189370Y-97909500D01*
X165267824Y-97897073D01*
X165365897Y-97881541D01*
X165494193Y-97839853D01*
X165535881Y-97826309D01*
X165695132Y-97745167D01*
X165839728Y-97640111D01*
X165966111Y-97513728D01*
X166024670Y-97455169D01*
X166024682Y-97455155D01*
X167490111Y-95989729D01*
X167574556Y-95873500D01*
X167595167Y-95845132D01*
X167676309Y-95685881D01*
X167696095Y-95624985D01*
X167731539Y-95515901D01*
X167731539Y-95515900D01*
X167731540Y-95515897D01*
X167759500Y-95339366D01*
X167759500Y-88382634D01*
X167731540Y-88206103D01*
X167731539Y-88206099D01*
X167731539Y-88206098D01*
X167676310Y-88036121D01*
X167676308Y-88036118D01*
X167595166Y-87876867D01*
X167562931Y-87832500D01*
X167492458Y-87735502D01*
X167490111Y-87732271D01*
X166747966Y-86990126D01*
X166007951Y-86250111D01*
X165974466Y-86188788D01*
X165972693Y-86146244D01*
X165984499Y-86056572D01*
X165984500Y-86056565D01*
X165984500Y-85807435D01*
X165972692Y-85717751D01*
X165983457Y-85648720D01*
X166007947Y-85613890D01*
X167490111Y-84131729D01*
X167539306Y-84064018D01*
X167595167Y-83987132D01*
X167676309Y-83827881D01*
X167731540Y-83657897D01*
X167759500Y-83481366D01*
X167759500Y-70776634D01*
X167754199Y-70743167D01*
X167731541Y-70600103D01*
X167677815Y-70434754D01*
X167676754Y-70430993D01*
X167595166Y-70270867D01*
X167490111Y-70126272D01*
X167363728Y-69999889D01*
X167174520Y-69810681D01*
X167141035Y-69749358D01*
X167146019Y-69679666D01*
X167174520Y-69635319D01*
X167278325Y-69531514D01*
X167490111Y-69319728D01*
X167523602Y-69273632D01*
X167595167Y-69175132D01*
X167636511Y-69093989D01*
X167676310Y-69015880D01*
X167731541Y-68845897D01*
X167753348Y-68708211D01*
X167759500Y-68669370D01*
X167759500Y-61124634D01*
X167753828Y-61088821D01*
X167731540Y-60948103D01*
X167731539Y-60948099D01*
X167731539Y-60948098D01*
X167676310Y-60778121D01*
X167676308Y-60778118D01*
X167666367Y-60758606D01*
X167595167Y-60618868D01*
X167497535Y-60484490D01*
X167497535Y-60484489D01*
X167493298Y-60478658D01*
X167490111Y-60474271D01*
X164823728Y-57807889D01*
X164679132Y-57702833D01*
X164519881Y-57621691D01*
X164519875Y-57621688D01*
X164478194Y-57608146D01*
X164411453Y-57586460D01*
X164349897Y-57566459D01*
X164349895Y-57566458D01*
X164349894Y-57566458D01*
X164173370Y-57538500D01*
X164173366Y-57538500D01*
X155358634Y-57538500D01*
X155299790Y-57547820D01*
X155182101Y-57566460D01*
X155182098Y-57566460D01*
X155012121Y-57621689D01*
X155012118Y-57621690D01*
X154852866Y-57702834D01*
X154769116Y-57763681D01*
X154769115Y-57763680D01*
X154708279Y-57807881D01*
X154708271Y-57807888D01*
X150909980Y-61606181D01*
X150848657Y-61639666D01*
X150822299Y-61642500D01*
X150530692Y-61642500D01*
X150468290Y-61624899D01*
X150468157Y-61625161D01*
X150466843Y-61624491D01*
X150465901Y-61624226D01*
X150463824Y-61622953D01*
X150274414Y-61526444D01*
X150274413Y-61526443D01*
X150274412Y-61526443D01*
X150072243Y-61460754D01*
X150072241Y-61460753D01*
X150072240Y-61460753D01*
X149910957Y-61435208D01*
X149862287Y-61427500D01*
X149349713Y-61427500D01*
X149301042Y-61435208D01*
X149139760Y-61460753D01*
X148937585Y-61526444D01*
X148748179Y-61622951D01*
X148576213Y-61747890D01*
X148425890Y-61898213D01*
X148300951Y-62070179D01*
X148204444Y-62259585D01*
X148138753Y-62461760D01*
X148105500Y-62671713D01*
X147820500Y-62671713D01*
X147820500Y-54361568D01*
X156757500Y-54361568D01*
X156757500Y-54642431D01*
X156788942Y-54921494D01*
X156788945Y-54921512D01*
X156851439Y-55195317D01*
X156851443Y-55195329D01*
X156944200Y-55460411D01*
X157066053Y-55713442D01*
X157066055Y-55713445D01*
X157215477Y-55951248D01*
X157390584Y-56170825D01*
X157589175Y-56369416D01*
X157808752Y-56544523D01*
X158046555Y-56693945D01*
X158299592Y-56815801D01*
X158498680Y-56885465D01*
X158564670Y-56908556D01*
X158564682Y-56908560D01*
X158838491Y-56971055D01*
X158838497Y-56971055D01*
X158838505Y-56971057D01*
X159024547Y-56992018D01*
X159117569Y-57002499D01*
X159117572Y-57002500D01*
X159117575Y-57002500D01*
X159398428Y-57002500D01*
X159398429Y-57002499D01*
X159541055Y-56986429D01*
X159677494Y-56971057D01*
X159677499Y-56971056D01*
X159677509Y-56971055D01*
X159951318Y-56908560D01*
X160216408Y-56815801D01*
X160469445Y-56693945D01*
X160707248Y-56544523D01*
X160926825Y-56369416D01*
X161125416Y-56170825D01*
X161300523Y-55951248D01*
X161449945Y-55713445D01*
X161571801Y-55460408D01*
X161664560Y-55195318D01*
X161727055Y-54921509D01*
X161758500Y-54642425D01*
X161758500Y-54361575D01*
X161727055Y-54082491D01*
X161664560Y-53808682D01*
X161571801Y-53543592D01*
X161449945Y-53290555D01*
X161300523Y-53052752D01*
X161125416Y-52833175D01*
X160926825Y-52634584D01*
X160707248Y-52459477D01*
X160469445Y-52310055D01*
X160469442Y-52310053D01*
X160216411Y-52188200D01*
X159951329Y-52095443D01*
X159951317Y-52095439D01*
X159677512Y-52032945D01*
X159677494Y-52032942D01*
X159398431Y-52001500D01*
X159398425Y-52001500D01*
X159117575Y-52001500D01*
X159117568Y-52001500D01*
X158838505Y-52032942D01*
X158838487Y-52032945D01*
X158564682Y-52095439D01*
X158564670Y-52095443D01*
X158299588Y-52188200D01*
X158046557Y-52310053D01*
X157808753Y-52459476D01*
X157589175Y-52634583D01*
X157390583Y-52833175D01*
X157215476Y-53052753D01*
X157066053Y-53290557D01*
X156944200Y-53543588D01*
X156851443Y-53808670D01*
X156851439Y-53808682D01*
X156788945Y-54082487D01*
X156788942Y-54082505D01*
X156757500Y-54361568D01*
X147820500Y-54361568D01*
X147820500Y-51678500D01*
X147840185Y-51611461D01*
X147892989Y-51565706D01*
X147944500Y-51554500D01*
X168031500Y-51554500D01*
X168098539Y-51574185D01*
G37*
%TD.AperFunction*%
%TD*%
M02*
