%TF.GenerationSoftware,KiCad,Pcbnew,10.0.4*%
%TF.CreationDate,2026-07-20T13:25:25+02:00*%
%TF.ProjectId,connector-board-b,636f6e6e-6563-4746-9f72-2d626f617264,rev?*%
%TF.SameCoordinates,Original*%
%TF.FileFunction,Copper,L2,Bot*%
%TF.FilePolarity,Positive*%
%FSLAX46Y46*%
G04 Gerber Fmt 4.6, Leading zero omitted, Abs format (unit mm)*
G04 Created by KiCad (PCBNEW 10.0.4) date 2026-07-20 13:25:25*
%MOMM*%
%LPD*%
G01*
G04 APERTURE LIST*
G04 Aperture macros list*
%AMRoundRect*
0 Rectangle with rounded corners*
0 $1 Rounding radius*
0 $2 $3 $4 $5 $6 $7 $8 $9 X,Y pos of 4 corners*
0 Add a 4 corners polygon primitive as box body*
4,1,4,$2,$3,$4,$5,$6,$7,$8,$9,$2,$3,0*
0 Add four circle primitives for the rounded corners*
1,1,$1+$1,$2,$3*
1,1,$1+$1,$4,$5*
1,1,$1+$1,$6,$7*
1,1,$1+$1,$8,$9*
0 Add four rect primitives between the rounded corners*
20,1,$1+$1,$2,$3,$4,$5,0*
20,1,$1+$1,$4,$5,$6,$7,0*
20,1,$1+$1,$6,$7,$8,$9,0*
20,1,$1+$1,$8,$9,$2,$3,0*%
G04 Aperture macros list end*
%TA.AperFunction,ComponentPad*%
%ADD10RoundRect,0.250001X1.149999X-1.149999X1.149999X1.149999X-1.149999X1.149999X-1.149999X-1.149999X0*%
%TD*%
%TA.AperFunction,ComponentPad*%
%ADD11C,2.800000*%
%TD*%
%TA.AperFunction,ComponentPad*%
%ADD12RoundRect,0.250000X0.750000X-0.600000X0.750000X0.600000X-0.750000X0.600000X-0.750000X-0.600000X0*%
%TD*%
%TA.AperFunction,ComponentPad*%
%ADD13O,2.000000X1.700000*%
%TD*%
%TA.AperFunction,ComponentPad*%
%ADD14R,1.500000X1.500000*%
%TD*%
%TA.AperFunction,ComponentPad*%
%ADD15C,1.500000*%
%TD*%
%TA.AperFunction,ComponentPad*%
%ADD16R,2.000000X2.000000*%
%TD*%
%TA.AperFunction,ComponentPad*%
%ADD17C,2.000000*%
%TD*%
%TA.AperFunction,ComponentPad*%
%ADD18C,4.000000*%
%TD*%
%TA.AperFunction,ViaPad*%
%ADD19C,0.600000*%
%TD*%
%TA.AperFunction,Conductor*%
%ADD20C,1.270000*%
%TD*%
%TA.AperFunction,Conductor*%
%ADD21C,0.508000*%
%TD*%
G04 APERTURE END LIST*
D10*
%TO.P,J3,1,Pin_1_1*%
%TO.N,GND*%
X164084000Y-90932000D03*
D11*
%TO.P,J3,2,Pin_2_2*%
%TO.N,VCC*%
X164084000Y-85932000D03*
%TD*%
D12*
%TO.P,J4,1,Pin_1_1*%
%TO.N,GND*%
X149606000Y-65278000D03*
D13*
%TO.P,J4,2,Pin_2_2*%
%TO.N,VCC*%
X149606000Y-62778000D03*
%TD*%
D14*
%TO.P,J5,1,1_1*%
%TO.N,GND*%
X165100000Y-99314000D03*
D15*
%TO.P,J5,2,2_2*%
%TO.N,VCC*%
X163830000Y-96774000D03*
%TO.P,J5,3,3_3*%
%TO.N,Net-(J1-Pad3)*%
X162560000Y-99314000D03*
%TO.P,J5,4,4_4*%
%TO.N,Net-(J1-Pad4)*%
X161290000Y-96774000D03*
%TO.P,J5,5,5_5*%
%TO.N,Net-(J1-Pad5)*%
X160020000Y-99314000D03*
%TO.P,J5,6,6_6*%
%TO.N,Net-(J1-Pad6)*%
X158750000Y-96774000D03*
%TO.P,J5,7,7_7*%
%TO.N,Net-(J1-Pad7)*%
X157480000Y-99314000D03*
%TO.P,J5,8,8_8*%
%TO.N,Net-(J1-Pad8)*%
X156210000Y-96774000D03*
%TO.P,J5,9,9_9*%
%TO.N,Net-(J1-Pad9)*%
X154940000Y-99314000D03*
%TO.P,J5,10,10_10*%
%TO.N,unconnected-(J5-Pad10)*%
X153670000Y-96774000D03*
%TD*%
D16*
%TO.P,J1,1,1_1*%
%TO.N,GND*%
X160678000Y-72542000D03*
D17*
%TO.P,J1,2,2_2*%
%TO.N,VCC*%
X160678000Y-69772000D03*
%TO.P,J1,3,3_3*%
%TO.N,Net-(J1-Pad3)*%
X160678000Y-67002000D03*
%TO.P,J1,4,4_4*%
%TO.N,Net-(J1-Pad4)*%
X160678000Y-64232000D03*
%TO.P,J1,5,5_5*%
%TO.N,Net-(J1-Pad5)*%
X160678000Y-61462000D03*
%TO.P,J1,6,6_6*%
%TO.N,Net-(J1-Pad6)*%
X157838000Y-71157000D03*
%TO.P,J1,7,7_7*%
%TO.N,Net-(J1-Pad7)*%
X157838000Y-68387000D03*
%TO.P,J1,8,8_8*%
%TO.N,Net-(J1-Pad8)*%
X157838000Y-65617000D03*
%TO.P,J1,9,9_9*%
%TO.N,Net-(J1-Pad9)*%
X157838000Y-62847000D03*
D18*
%TO.P,J1,SH*%
%TO.N,N/C*%
X159258000Y-79502000D03*
X159258000Y-54502000D03*
%TD*%
D19*
%TO.N,Net-(J1-Pad3)*%
X164160006Y-78994000D03*
X164114003Y-67056000D03*
%TO.N,Net-(J1-Pad4)*%
X163322000Y-64262000D03*
X163360003Y-78994000D03*
%TO.N,Net-(J1-Pad5)*%
X162560000Y-61468000D03*
X162560000Y-78994000D03*
%TD*%
%TO.N,GND*%
D20*
X160678000Y-74272000D02*
X160678000Y-72542000D01*
X166116000Y-99314000D02*
X165100000Y-99314000D01*
X153416000Y-75184000D02*
X156464000Y-75184000D01*
X166116000Y-90932000D02*
X166624000Y-91440000D01*
X159766000Y-75184000D02*
X160678000Y-74272000D01*
X166624000Y-98806000D02*
X166116000Y-99314000D01*
X156464000Y-75184000D02*
X159766000Y-75184000D01*
X156423000Y-75225000D02*
X156423000Y-88351000D01*
X156423000Y-88351000D02*
X159004000Y-90932000D01*
X156464000Y-75184000D02*
X156423000Y-75225000D01*
X149606000Y-71374000D02*
X153416000Y-75184000D01*
X159004000Y-90932000D02*
X166116000Y-90932000D01*
X166624000Y-91440000D02*
X166624000Y-98806000D01*
X149606000Y-65278000D02*
X149606000Y-71374000D01*
%TO.N,Net-(J1-Pad3)*%
D21*
X164160006Y-67102003D02*
X164114003Y-67056000D01*
X164160006Y-78994000D02*
X164160006Y-67102003D01*
%TO.N,Net-(J1-Pad4)*%
X163360003Y-64300003D02*
X163322000Y-64262000D01*
X163360003Y-78994000D02*
X163360003Y-64300003D01*
%TO.N,Net-(J1-Pad5)*%
X162560000Y-78994000D02*
X162560000Y-61468000D01*
%TD*%
M02*
