%TF.GenerationSoftware,KiCad,Pcbnew,10.0.4*%
%TF.CreationDate,2026-07-20T13:25:25+02:00*%
%TF.ProjectId,connector-board-b,636f6e6e-6563-4746-9f72-2d626f617264,rev?*%
%TF.SameCoordinates,Original*%
%TF.FileFunction,Legend,Bot*%
%TF.FilePolarity,Positive*%
%FSLAX46Y46*%
G04 Gerber Fmt 4.6, Leading zero omitted, Abs format (unit mm)*
G04 Created by KiCad (PCBNEW 10.0.4) date 2026-07-20 13:25:25*
%MOMM*%
%LPD*%
G01*
G04 APERTURE LIST*
%ADD10C,0.150000*%
%ADD11C,0.120000*%
G04 APERTURE END LIST*
D10*
X166022819Y-66668666D02*
X166737104Y-66668666D01*
X166737104Y-66668666D02*
X166879961Y-66621047D01*
X166879961Y-66621047D02*
X166975200Y-66525809D01*
X166975200Y-66525809D02*
X167022819Y-66382952D01*
X167022819Y-66382952D02*
X167022819Y-66287714D01*
X167022819Y-67668666D02*
X167022819Y-67097238D01*
X167022819Y-67382952D02*
X166022819Y-67382952D01*
X166022819Y-67382952D02*
X166165676Y-67287714D01*
X166165676Y-67287714D02*
X166260914Y-67192476D01*
X166260914Y-67192476D02*
X166308533Y-67097238D01*
%TO.C,J1*%
D11*
X152948000Y-52577000D02*
X152948000Y-81427000D01*
X154008000Y-82487000D02*
X164508000Y-82487000D01*
X155048000Y-61669579D02*
X155048000Y-72334421D01*
X156419744Y-73969202D02*
X161519744Y-74868470D01*
X161519744Y-59135530D02*
X156419744Y-60034798D01*
X163468000Y-73233689D02*
X163468000Y-60770311D01*
X164508000Y-51517000D02*
X154008000Y-51517000D01*
X165568000Y-81427000D02*
X165568000Y-52577000D01*
X166029325Y-72542000D02*
X166462338Y-72792000D01*
X166462338Y-72292000D02*
X166029325Y-72542000D01*
X166462338Y-72792000D02*
X166462338Y-72292000D01*
X152948000Y-52577000D02*
G75*
G02*
X154008000Y-51517000I1060000J0D01*
G01*
X154008000Y-82487000D02*
G75*
G02*
X152948000Y-81427000I1J1060001D01*
G01*
X155048000Y-61669579D02*
G75*
G02*
X156419748Y-60034818I1660000J-21D01*
G01*
X156419744Y-73969202D02*
G75*
G02*
X155048000Y-72334421I288255J1634780D01*
G01*
X161519744Y-59135530D02*
G75*
G02*
X163467989Y-60770311I288256J-1634770D01*
G01*
X163468000Y-73233689D02*
G75*
G02*
X161519744Y-74868470I-1660000J0D01*
G01*
X164508000Y-51517000D02*
G75*
G02*
X165568000Y-52577000I0J-1060000D01*
G01*
X165568000Y-81427000D02*
G75*
G02*
X164508000Y-82487000I-1060001J1D01*
G01*
%TD*%
M02*
