%TF.GenerationSoftware,KiCad,Pcbnew,10.0.4*%
%TF.CreationDate,2026-07-20T13:25:25+02:00*%
%TF.ProjectId,connector-board-b,636f6e6e-6563-4746-9f72-2d626f617264,rev?*%
%TF.SameCoordinates,Original*%
%TF.FileFunction,Legend,Top*%
%TF.FilePolarity,Positive*%
%FSLAX46Y46*%
G04 Gerber Fmt 4.6, Leading zero omitted, Abs format (unit mm)*
G04 Created by KiCad (PCBNEW 10.0.4) date 2026-07-20 13:25:25*
%MOMM*%
%LPD*%
G01*
G04 APERTURE LIST*
%ADD10C,0.300000*%
%ADD11C,0.150000*%
%ADD12C,0.254000*%
%ADD13C,0.120000*%
%ADD14C,0.200000*%
%ADD15C,0.100000*%
G04 APERTURE END LIST*
D10*
X153961055Y-93076346D02*
X154032484Y-93147774D01*
X154032484Y-93147774D02*
X154103912Y-93362060D01*
X154103912Y-93362060D02*
X154103912Y-93504917D01*
X154103912Y-93504917D02*
X154032484Y-93719203D01*
X154032484Y-93719203D02*
X153889626Y-93862060D01*
X153889626Y-93862060D02*
X153746769Y-93933489D01*
X153746769Y-93933489D02*
X153461055Y-94004917D01*
X153461055Y-94004917D02*
X153246769Y-94004917D01*
X153246769Y-94004917D02*
X152961055Y-93933489D01*
X152961055Y-93933489D02*
X152818198Y-93862060D01*
X152818198Y-93862060D02*
X152675341Y-93719203D01*
X152675341Y-93719203D02*
X152603912Y-93504917D01*
X152603912Y-93504917D02*
X152603912Y-93362060D01*
X152603912Y-93362060D02*
X152675341Y-93147774D01*
X152675341Y-93147774D02*
X152746769Y-93076346D01*
X154103912Y-92219203D02*
X154032484Y-92362060D01*
X154032484Y-92362060D02*
X153961055Y-92433489D01*
X153961055Y-92433489D02*
X153818198Y-92504917D01*
X153818198Y-92504917D02*
X153389626Y-92504917D01*
X153389626Y-92504917D02*
X153246769Y-92433489D01*
X153246769Y-92433489D02*
X153175341Y-92362060D01*
X153175341Y-92362060D02*
X153103912Y-92219203D01*
X153103912Y-92219203D02*
X153103912Y-92004917D01*
X153103912Y-92004917D02*
X153175341Y-91862060D01*
X153175341Y-91862060D02*
X153246769Y-91790632D01*
X153246769Y-91790632D02*
X153389626Y-91719203D01*
X153389626Y-91719203D02*
X153818198Y-91719203D01*
X153818198Y-91719203D02*
X153961055Y-91790632D01*
X153961055Y-91790632D02*
X154032484Y-91862060D01*
X154032484Y-91862060D02*
X154103912Y-92004917D01*
X154103912Y-92004917D02*
X154103912Y-92219203D01*
X153103912Y-91076346D02*
X154103912Y-91076346D01*
X153246769Y-91076346D02*
X153175341Y-91004917D01*
X153175341Y-91004917D02*
X153103912Y-90862060D01*
X153103912Y-90862060D02*
X153103912Y-90647774D01*
X153103912Y-90647774D02*
X153175341Y-90504917D01*
X153175341Y-90504917D02*
X153318198Y-90433489D01*
X153318198Y-90433489D02*
X154103912Y-90433489D01*
X153103912Y-89719203D02*
X154103912Y-89719203D01*
X153246769Y-89719203D02*
X153175341Y-89647774D01*
X153175341Y-89647774D02*
X153103912Y-89504917D01*
X153103912Y-89504917D02*
X153103912Y-89290631D01*
X153103912Y-89290631D02*
X153175341Y-89147774D01*
X153175341Y-89147774D02*
X153318198Y-89076346D01*
X153318198Y-89076346D02*
X154103912Y-89076346D01*
X154032484Y-87790631D02*
X154103912Y-87933488D01*
X154103912Y-87933488D02*
X154103912Y-88219203D01*
X154103912Y-88219203D02*
X154032484Y-88362060D01*
X154032484Y-88362060D02*
X153889626Y-88433488D01*
X153889626Y-88433488D02*
X153318198Y-88433488D01*
X153318198Y-88433488D02*
X153175341Y-88362060D01*
X153175341Y-88362060D02*
X153103912Y-88219203D01*
X153103912Y-88219203D02*
X153103912Y-87933488D01*
X153103912Y-87933488D02*
X153175341Y-87790631D01*
X153175341Y-87790631D02*
X153318198Y-87719203D01*
X153318198Y-87719203D02*
X153461055Y-87719203D01*
X153461055Y-87719203D02*
X153603912Y-88433488D01*
X154032484Y-86433489D02*
X154103912Y-86576346D01*
X154103912Y-86576346D02*
X154103912Y-86862060D01*
X154103912Y-86862060D02*
X154032484Y-87004917D01*
X154032484Y-87004917D02*
X153961055Y-87076346D01*
X153961055Y-87076346D02*
X153818198Y-87147774D01*
X153818198Y-87147774D02*
X153389626Y-87147774D01*
X153389626Y-87147774D02*
X153246769Y-87076346D01*
X153246769Y-87076346D02*
X153175341Y-87004917D01*
X153175341Y-87004917D02*
X153103912Y-86862060D01*
X153103912Y-86862060D02*
X153103912Y-86576346D01*
X153103912Y-86576346D02*
X153175341Y-86433489D01*
X153103912Y-86004917D02*
X153103912Y-85433489D01*
X152603912Y-85790632D02*
X153889626Y-85790632D01*
X153889626Y-85790632D02*
X154032484Y-85719203D01*
X154032484Y-85719203D02*
X154103912Y-85576346D01*
X154103912Y-85576346D02*
X154103912Y-85433489D01*
X154103912Y-84719203D02*
X154032484Y-84862060D01*
X154032484Y-84862060D02*
X153961055Y-84933489D01*
X153961055Y-84933489D02*
X153818198Y-85004917D01*
X153818198Y-85004917D02*
X153389626Y-85004917D01*
X153389626Y-85004917D02*
X153246769Y-84933489D01*
X153246769Y-84933489D02*
X153175341Y-84862060D01*
X153175341Y-84862060D02*
X153103912Y-84719203D01*
X153103912Y-84719203D02*
X153103912Y-84504917D01*
X153103912Y-84504917D02*
X153175341Y-84362060D01*
X153175341Y-84362060D02*
X153246769Y-84290632D01*
X153246769Y-84290632D02*
X153389626Y-84219203D01*
X153389626Y-84219203D02*
X153818198Y-84219203D01*
X153818198Y-84219203D02*
X153961055Y-84290632D01*
X153961055Y-84290632D02*
X154032484Y-84362060D01*
X154032484Y-84362060D02*
X154103912Y-84504917D01*
X154103912Y-84504917D02*
X154103912Y-84719203D01*
X154103912Y-83576346D02*
X153103912Y-83576346D01*
X153389626Y-83576346D02*
X153246769Y-83504917D01*
X153246769Y-83504917D02*
X153175341Y-83433489D01*
X153175341Y-83433489D02*
X153103912Y-83290631D01*
X153103912Y-83290631D02*
X153103912Y-83147774D01*
X154103912Y-81504918D02*
X152603912Y-81504918D01*
X153175341Y-81504918D02*
X153103912Y-81362061D01*
X153103912Y-81362061D02*
X153103912Y-81076346D01*
X153103912Y-81076346D02*
X153175341Y-80933489D01*
X153175341Y-80933489D02*
X153246769Y-80862061D01*
X153246769Y-80862061D02*
X153389626Y-80790632D01*
X153389626Y-80790632D02*
X153818198Y-80790632D01*
X153818198Y-80790632D02*
X153961055Y-80862061D01*
X153961055Y-80862061D02*
X154032484Y-80933489D01*
X154032484Y-80933489D02*
X154103912Y-81076346D01*
X154103912Y-81076346D02*
X154103912Y-81362061D01*
X154103912Y-81362061D02*
X154032484Y-81504918D01*
X154103912Y-79933489D02*
X154032484Y-80076346D01*
X154032484Y-80076346D02*
X153961055Y-80147775D01*
X153961055Y-80147775D02*
X153818198Y-80219203D01*
X153818198Y-80219203D02*
X153389626Y-80219203D01*
X153389626Y-80219203D02*
X153246769Y-80147775D01*
X153246769Y-80147775D02*
X153175341Y-80076346D01*
X153175341Y-80076346D02*
X153103912Y-79933489D01*
X153103912Y-79933489D02*
X153103912Y-79719203D01*
X153103912Y-79719203D02*
X153175341Y-79576346D01*
X153175341Y-79576346D02*
X153246769Y-79504918D01*
X153246769Y-79504918D02*
X153389626Y-79433489D01*
X153389626Y-79433489D02*
X153818198Y-79433489D01*
X153818198Y-79433489D02*
X153961055Y-79504918D01*
X153961055Y-79504918D02*
X154032484Y-79576346D01*
X154032484Y-79576346D02*
X154103912Y-79719203D01*
X154103912Y-79719203D02*
X154103912Y-79933489D01*
X154103912Y-78147775D02*
X153318198Y-78147775D01*
X153318198Y-78147775D02*
X153175341Y-78219203D01*
X153175341Y-78219203D02*
X153103912Y-78362060D01*
X153103912Y-78362060D02*
X153103912Y-78647775D01*
X153103912Y-78647775D02*
X153175341Y-78790632D01*
X154032484Y-78147775D02*
X154103912Y-78290632D01*
X154103912Y-78290632D02*
X154103912Y-78647775D01*
X154103912Y-78647775D02*
X154032484Y-78790632D01*
X154032484Y-78790632D02*
X153889626Y-78862060D01*
X153889626Y-78862060D02*
X153746769Y-78862060D01*
X153746769Y-78862060D02*
X153603912Y-78790632D01*
X153603912Y-78790632D02*
X153532484Y-78647775D01*
X153532484Y-78647775D02*
X153532484Y-78290632D01*
X153532484Y-78290632D02*
X153461055Y-78147775D01*
X154103912Y-77433489D02*
X153103912Y-77433489D01*
X153389626Y-77433489D02*
X153246769Y-77362060D01*
X153246769Y-77362060D02*
X153175341Y-77290632D01*
X153175341Y-77290632D02*
X153103912Y-77147774D01*
X153103912Y-77147774D02*
X153103912Y-77004917D01*
X154103912Y-75862061D02*
X152603912Y-75862061D01*
X154032484Y-75862061D02*
X154103912Y-76004918D01*
X154103912Y-76004918D02*
X154103912Y-76290632D01*
X154103912Y-76290632D02*
X154032484Y-76433489D01*
X154032484Y-76433489D02*
X153961055Y-76504918D01*
X153961055Y-76504918D02*
X153818198Y-76576346D01*
X153818198Y-76576346D02*
X153389626Y-76576346D01*
X153389626Y-76576346D02*
X153246769Y-76504918D01*
X153246769Y-76504918D02*
X153175341Y-76433489D01*
X153175341Y-76433489D02*
X153103912Y-76290632D01*
X153103912Y-76290632D02*
X153103912Y-76004918D01*
X153103912Y-76004918D02*
X153175341Y-75862061D01*
X153318198Y-73504918D02*
X153389626Y-73290632D01*
X153389626Y-73290632D02*
X153461055Y-73219203D01*
X153461055Y-73219203D02*
X153603912Y-73147775D01*
X153603912Y-73147775D02*
X153818198Y-73147775D01*
X153818198Y-73147775D02*
X153961055Y-73219203D01*
X153961055Y-73219203D02*
X154032484Y-73290632D01*
X154032484Y-73290632D02*
X154103912Y-73433489D01*
X154103912Y-73433489D02*
X154103912Y-74004918D01*
X154103912Y-74004918D02*
X152603912Y-74004918D01*
X152603912Y-74004918D02*
X152603912Y-73504918D01*
X152603912Y-73504918D02*
X152675341Y-73362061D01*
X152675341Y-73362061D02*
X152746769Y-73290632D01*
X152746769Y-73290632D02*
X152889626Y-73219203D01*
X152889626Y-73219203D02*
X153032484Y-73219203D01*
X153032484Y-73219203D02*
X153175341Y-73290632D01*
X153175341Y-73290632D02*
X153246769Y-73362061D01*
X153246769Y-73362061D02*
X153318198Y-73504918D01*
X153318198Y-73504918D02*
X153318198Y-74004918D01*
X153103912Y-71504918D02*
X154103912Y-71147775D01*
X154103912Y-71147775D02*
X153103912Y-70790632D01*
X154103912Y-69433489D02*
X154103912Y-70290632D01*
X154103912Y-69862061D02*
X152603912Y-69862061D01*
X152603912Y-69862061D02*
X152818198Y-70004918D01*
X152818198Y-70004918D02*
X152961055Y-70147775D01*
X152961055Y-70147775D02*
X153032484Y-70290632D01*
X153961055Y-68790633D02*
X154032484Y-68719204D01*
X154032484Y-68719204D02*
X154103912Y-68790633D01*
X154103912Y-68790633D02*
X154032484Y-68862061D01*
X154032484Y-68862061D02*
X153961055Y-68790633D01*
X153961055Y-68790633D02*
X154103912Y-68790633D01*
X152603912Y-67790632D02*
X152603912Y-67647775D01*
X152603912Y-67647775D02*
X152675341Y-67504918D01*
X152675341Y-67504918D02*
X152746769Y-67433490D01*
X152746769Y-67433490D02*
X152889626Y-67362061D01*
X152889626Y-67362061D02*
X153175341Y-67290632D01*
X153175341Y-67290632D02*
X153532484Y-67290632D01*
X153532484Y-67290632D02*
X153818198Y-67362061D01*
X153818198Y-67362061D02*
X153961055Y-67433490D01*
X153961055Y-67433490D02*
X154032484Y-67504918D01*
X154032484Y-67504918D02*
X154103912Y-67647775D01*
X154103912Y-67647775D02*
X154103912Y-67790632D01*
X154103912Y-67790632D02*
X154032484Y-67933490D01*
X154032484Y-67933490D02*
X153961055Y-68004918D01*
X153961055Y-68004918D02*
X153818198Y-68076347D01*
X153818198Y-68076347D02*
X153532484Y-68147775D01*
X153532484Y-68147775D02*
X153175341Y-68147775D01*
X153175341Y-68147775D02*
X152889626Y-68076347D01*
X152889626Y-68076347D02*
X152746769Y-68004918D01*
X152746769Y-68004918D02*
X152675341Y-67933490D01*
X152675341Y-67933490D02*
X152603912Y-67790632D01*
X155018828Y-94147774D02*
X155018828Y-93290632D01*
X156518828Y-93719203D02*
X155018828Y-93719203D01*
X155518828Y-92933489D02*
X156518828Y-92647775D01*
X156518828Y-92647775D02*
X155804542Y-92362060D01*
X155804542Y-92362060D02*
X156518828Y-92076346D01*
X156518828Y-92076346D02*
X155518828Y-91790632D01*
X156518828Y-91219203D02*
X155518828Y-91219203D01*
X155018828Y-91219203D02*
X155090257Y-91290631D01*
X155090257Y-91290631D02*
X155161685Y-91219203D01*
X155161685Y-91219203D02*
X155090257Y-91147774D01*
X155090257Y-91147774D02*
X155018828Y-91219203D01*
X155018828Y-91219203D02*
X155161685Y-91219203D01*
X155518828Y-90504917D02*
X156518828Y-90504917D01*
X155661685Y-90504917D02*
X155590257Y-90433488D01*
X155590257Y-90433488D02*
X155518828Y-90290631D01*
X155518828Y-90290631D02*
X155518828Y-90076345D01*
X155518828Y-90076345D02*
X155590257Y-89933488D01*
X155590257Y-89933488D02*
X155733114Y-89862060D01*
X155733114Y-89862060D02*
X156518828Y-89862060D01*
X155018828Y-88862059D02*
X155018828Y-88576345D01*
X155018828Y-88576345D02*
X155090257Y-88433488D01*
X155090257Y-88433488D02*
X155233114Y-88290631D01*
X155233114Y-88290631D02*
X155518828Y-88219202D01*
X155518828Y-88219202D02*
X156018828Y-88219202D01*
X156018828Y-88219202D02*
X156304542Y-88290631D01*
X156304542Y-88290631D02*
X156447400Y-88433488D01*
X156447400Y-88433488D02*
X156518828Y-88576345D01*
X156518828Y-88576345D02*
X156518828Y-88862059D01*
X156518828Y-88862059D02*
X156447400Y-89004917D01*
X156447400Y-89004917D02*
X156304542Y-89147774D01*
X156304542Y-89147774D02*
X156018828Y-89219202D01*
X156018828Y-89219202D02*
X155518828Y-89219202D01*
X155518828Y-89219202D02*
X155233114Y-89147774D01*
X155233114Y-89147774D02*
X155090257Y-89004917D01*
X155090257Y-89004917D02*
X155018828Y-88862059D01*
X156518828Y-86933488D02*
X155733114Y-86933488D01*
X155733114Y-86933488D02*
X155590257Y-87004916D01*
X155590257Y-87004916D02*
X155518828Y-87147773D01*
X155518828Y-87147773D02*
X155518828Y-87433488D01*
X155518828Y-87433488D02*
X155590257Y-87576345D01*
X156447400Y-86933488D02*
X156518828Y-87076345D01*
X156518828Y-87076345D02*
X156518828Y-87433488D01*
X156518828Y-87433488D02*
X156447400Y-87576345D01*
X156447400Y-87576345D02*
X156304542Y-87647773D01*
X156304542Y-87647773D02*
X156161685Y-87647773D01*
X156161685Y-87647773D02*
X156018828Y-87576345D01*
X156018828Y-87576345D02*
X155947400Y-87433488D01*
X155947400Y-87433488D02*
X155947400Y-87076345D01*
X155947400Y-87076345D02*
X155875971Y-86933488D01*
X156518828Y-86219202D02*
X155018828Y-86219202D01*
X155947400Y-86076345D02*
X156518828Y-85647773D01*
X155518828Y-85647773D02*
X156090257Y-86219202D01*
X156447400Y-83933487D02*
X156518828Y-83719202D01*
X156518828Y-83719202D02*
X156518828Y-83362059D01*
X156518828Y-83362059D02*
X156447400Y-83219202D01*
X156447400Y-83219202D02*
X156375971Y-83147773D01*
X156375971Y-83147773D02*
X156233114Y-83076344D01*
X156233114Y-83076344D02*
X156090257Y-83076344D01*
X156090257Y-83076344D02*
X155947400Y-83147773D01*
X155947400Y-83147773D02*
X155875971Y-83219202D01*
X155875971Y-83219202D02*
X155804542Y-83362059D01*
X155804542Y-83362059D02*
X155733114Y-83647773D01*
X155733114Y-83647773D02*
X155661685Y-83790630D01*
X155661685Y-83790630D02*
X155590257Y-83862059D01*
X155590257Y-83862059D02*
X155447400Y-83933487D01*
X155447400Y-83933487D02*
X155304542Y-83933487D01*
X155304542Y-83933487D02*
X155161685Y-83862059D01*
X155161685Y-83862059D02*
X155090257Y-83790630D01*
X155090257Y-83790630D02*
X155018828Y-83647773D01*
X155018828Y-83647773D02*
X155018828Y-83290630D01*
X155018828Y-83290630D02*
X155090257Y-83076344D01*
X155518828Y-82647773D02*
X155518828Y-82076345D01*
X155018828Y-82433488D02*
X156304542Y-82433488D01*
X156304542Y-82433488D02*
X156447400Y-82362059D01*
X156447400Y-82362059D02*
X156518828Y-82219202D01*
X156518828Y-82219202D02*
X156518828Y-82076345D01*
X156518828Y-80933488D02*
X155733114Y-80933488D01*
X155733114Y-80933488D02*
X155590257Y-81004916D01*
X155590257Y-81004916D02*
X155518828Y-81147773D01*
X155518828Y-81147773D02*
X155518828Y-81433488D01*
X155518828Y-81433488D02*
X155590257Y-81576345D01*
X156447400Y-80933488D02*
X156518828Y-81076345D01*
X156518828Y-81076345D02*
X156518828Y-81433488D01*
X156518828Y-81433488D02*
X156447400Y-81576345D01*
X156447400Y-81576345D02*
X156304542Y-81647773D01*
X156304542Y-81647773D02*
X156161685Y-81647773D01*
X156161685Y-81647773D02*
X156018828Y-81576345D01*
X156018828Y-81576345D02*
X155947400Y-81433488D01*
X155947400Y-81433488D02*
X155947400Y-81076345D01*
X155947400Y-81076345D02*
X155875971Y-80933488D01*
X155518828Y-80219202D02*
X156518828Y-80219202D01*
X155661685Y-80219202D02*
X155590257Y-80147773D01*
X155590257Y-80147773D02*
X155518828Y-80004916D01*
X155518828Y-80004916D02*
X155518828Y-79790630D01*
X155518828Y-79790630D02*
X155590257Y-79647773D01*
X155590257Y-79647773D02*
X155733114Y-79576345D01*
X155733114Y-79576345D02*
X156518828Y-79576345D01*
X156518828Y-78219202D02*
X155018828Y-78219202D01*
X156447400Y-78219202D02*
X156518828Y-78362059D01*
X156518828Y-78362059D02*
X156518828Y-78647773D01*
X156518828Y-78647773D02*
X156447400Y-78790630D01*
X156447400Y-78790630D02*
X156375971Y-78862059D01*
X156375971Y-78862059D02*
X156233114Y-78933487D01*
X156233114Y-78933487D02*
X155804542Y-78933487D01*
X155804542Y-78933487D02*
X155661685Y-78862059D01*
X155661685Y-78862059D02*
X155590257Y-78790630D01*
X155590257Y-78790630D02*
X155518828Y-78647773D01*
X155518828Y-78647773D02*
X155518828Y-78362059D01*
X155518828Y-78362059D02*
X155590257Y-78219202D01*
X156518828Y-76862059D02*
X155733114Y-76862059D01*
X155733114Y-76862059D02*
X155590257Y-76933487D01*
X155590257Y-76933487D02*
X155518828Y-77076344D01*
X155518828Y-77076344D02*
X155518828Y-77362059D01*
X155518828Y-77362059D02*
X155590257Y-77504916D01*
X156447400Y-76862059D02*
X156518828Y-77004916D01*
X156518828Y-77004916D02*
X156518828Y-77362059D01*
X156518828Y-77362059D02*
X156447400Y-77504916D01*
X156447400Y-77504916D02*
X156304542Y-77576344D01*
X156304542Y-77576344D02*
X156161685Y-77576344D01*
X156161685Y-77576344D02*
X156018828Y-77504916D01*
X156018828Y-77504916D02*
X155947400Y-77362059D01*
X155947400Y-77362059D02*
X155947400Y-77004916D01*
X155947400Y-77004916D02*
X155875971Y-76862059D01*
X156518828Y-76147773D02*
X155518828Y-76147773D01*
X155804542Y-76147773D02*
X155661685Y-76076344D01*
X155661685Y-76076344D02*
X155590257Y-76004916D01*
X155590257Y-76004916D02*
X155518828Y-75862058D01*
X155518828Y-75862058D02*
X155518828Y-75719201D01*
X156518828Y-74576345D02*
X155018828Y-74576345D01*
X156447400Y-74576345D02*
X156518828Y-74719202D01*
X156518828Y-74719202D02*
X156518828Y-75004916D01*
X156518828Y-75004916D02*
X156447400Y-75147773D01*
X156447400Y-75147773D02*
X156375971Y-75219202D01*
X156375971Y-75219202D02*
X156233114Y-75290630D01*
X156233114Y-75290630D02*
X155804542Y-75290630D01*
X155804542Y-75290630D02*
X155661685Y-75219202D01*
X155661685Y-75219202D02*
X155590257Y-75147773D01*
X155590257Y-75147773D02*
X155518828Y-75004916D01*
X155518828Y-75004916D02*
X155518828Y-74719202D01*
X155518828Y-74719202D02*
X155590257Y-74576345D01*
X156518828Y-71862059D02*
X155804542Y-72362059D01*
X156518828Y-72719202D02*
X155018828Y-72719202D01*
X155018828Y-72719202D02*
X155018828Y-72147773D01*
X155018828Y-72147773D02*
X155090257Y-72004916D01*
X155090257Y-72004916D02*
X155161685Y-71933487D01*
X155161685Y-71933487D02*
X155304542Y-71862059D01*
X155304542Y-71862059D02*
X155518828Y-71862059D01*
X155518828Y-71862059D02*
X155661685Y-71933487D01*
X155661685Y-71933487D02*
X155733114Y-72004916D01*
X155733114Y-72004916D02*
X155804542Y-72147773D01*
X155804542Y-72147773D02*
X155804542Y-72719202D01*
X156447400Y-70647773D02*
X156518828Y-70790630D01*
X156518828Y-70790630D02*
X156518828Y-71076345D01*
X156518828Y-71076345D02*
X156447400Y-71219202D01*
X156447400Y-71219202D02*
X156304542Y-71290630D01*
X156304542Y-71290630D02*
X155733114Y-71290630D01*
X155733114Y-71290630D02*
X155590257Y-71219202D01*
X155590257Y-71219202D02*
X155518828Y-71076345D01*
X155518828Y-71076345D02*
X155518828Y-70790630D01*
X155518828Y-70790630D02*
X155590257Y-70647773D01*
X155590257Y-70647773D02*
X155733114Y-70576345D01*
X155733114Y-70576345D02*
X155875971Y-70576345D01*
X155875971Y-70576345D02*
X156018828Y-71290630D01*
X155518828Y-69933488D02*
X157018828Y-69933488D01*
X155590257Y-69933488D02*
X155518828Y-69790631D01*
X155518828Y-69790631D02*
X155518828Y-69504916D01*
X155518828Y-69504916D02*
X155590257Y-69362059D01*
X155590257Y-69362059D02*
X155661685Y-69290631D01*
X155661685Y-69290631D02*
X155804542Y-69219202D01*
X155804542Y-69219202D02*
X156233114Y-69219202D01*
X156233114Y-69219202D02*
X156375971Y-69290631D01*
X156375971Y-69290631D02*
X156447400Y-69362059D01*
X156447400Y-69362059D02*
X156518828Y-69504916D01*
X156518828Y-69504916D02*
X156518828Y-69790631D01*
X156518828Y-69790631D02*
X156447400Y-69933488D01*
X156447400Y-68004916D02*
X156518828Y-68147773D01*
X156518828Y-68147773D02*
X156518828Y-68433488D01*
X156518828Y-68433488D02*
X156447400Y-68576345D01*
X156447400Y-68576345D02*
X156304542Y-68647773D01*
X156304542Y-68647773D02*
X155733114Y-68647773D01*
X155733114Y-68647773D02*
X155590257Y-68576345D01*
X155590257Y-68576345D02*
X155518828Y-68433488D01*
X155518828Y-68433488D02*
X155518828Y-68147773D01*
X155518828Y-68147773D02*
X155590257Y-68004916D01*
X155590257Y-68004916D02*
X155733114Y-67933488D01*
X155733114Y-67933488D02*
X155875971Y-67933488D01*
X155875971Y-67933488D02*
X156018828Y-68647773D01*
X156518828Y-66647774D02*
X155733114Y-66647774D01*
X155733114Y-66647774D02*
X155590257Y-66719202D01*
X155590257Y-66719202D02*
X155518828Y-66862059D01*
X155518828Y-66862059D02*
X155518828Y-67147774D01*
X155518828Y-67147774D02*
X155590257Y-67290631D01*
X156447400Y-66647774D02*
X156518828Y-66790631D01*
X156518828Y-66790631D02*
X156518828Y-67147774D01*
X156518828Y-67147774D02*
X156447400Y-67290631D01*
X156447400Y-67290631D02*
X156304542Y-67362059D01*
X156304542Y-67362059D02*
X156161685Y-67362059D01*
X156161685Y-67362059D02*
X156018828Y-67290631D01*
X156018828Y-67290631D02*
X155947400Y-67147774D01*
X155947400Y-67147774D02*
X155947400Y-66790631D01*
X155947400Y-66790631D02*
X155875971Y-66647774D01*
X155518828Y-66147773D02*
X155518828Y-65576345D01*
X155018828Y-65933488D02*
X156304542Y-65933488D01*
X156304542Y-65933488D02*
X156447400Y-65862059D01*
X156447400Y-65862059D02*
X156518828Y-65719202D01*
X156518828Y-65719202D02*
X156518828Y-65576345D01*
X156447400Y-64504916D02*
X156518828Y-64647773D01*
X156518828Y-64647773D02*
X156518828Y-64933488D01*
X156518828Y-64933488D02*
X156447400Y-65076345D01*
X156447400Y-65076345D02*
X156304542Y-65147773D01*
X156304542Y-65147773D02*
X155733114Y-65147773D01*
X155733114Y-65147773D02*
X155590257Y-65076345D01*
X155590257Y-65076345D02*
X155518828Y-64933488D01*
X155518828Y-64933488D02*
X155518828Y-64647773D01*
X155518828Y-64647773D02*
X155590257Y-64504916D01*
X155590257Y-64504916D02*
X155733114Y-64433488D01*
X155733114Y-64433488D02*
X155875971Y-64433488D01*
X155875971Y-64433488D02*
X156018828Y-65147773D01*
X156518828Y-63790631D02*
X155518828Y-63790631D01*
X155804542Y-63790631D02*
X155661685Y-63719202D01*
X155661685Y-63719202D02*
X155590257Y-63647774D01*
X155590257Y-63647774D02*
X155518828Y-63504916D01*
X155518828Y-63504916D02*
X155518828Y-63362059D01*
D11*
X158418819Y-89015333D02*
X159133104Y-89015333D01*
X159133104Y-89015333D02*
X159275961Y-89062952D01*
X159275961Y-89062952D02*
X159371200Y-89158190D01*
X159371200Y-89158190D02*
X159418819Y-89301047D01*
X159418819Y-89301047D02*
X159418819Y-89396285D01*
X158418819Y-88634380D02*
X158418819Y-88015333D01*
X158418819Y-88015333D02*
X158799771Y-88348666D01*
X158799771Y-88348666D02*
X158799771Y-88205809D01*
X158799771Y-88205809D02*
X158847390Y-88110571D01*
X158847390Y-88110571D02*
X158895009Y-88062952D01*
X158895009Y-88062952D02*
X158990247Y-88015333D01*
X158990247Y-88015333D02*
X159228342Y-88015333D01*
X159228342Y-88015333D02*
X159323580Y-88062952D01*
X159323580Y-88062952D02*
X159371200Y-88110571D01*
X159371200Y-88110571D02*
X159418819Y-88205809D01*
X159418819Y-88205809D02*
X159418819Y-88491523D01*
X159418819Y-88491523D02*
X159371200Y-88586761D01*
X159371200Y-88586761D02*
X159323580Y-88634380D01*
X146260819Y-64361333D02*
X146975104Y-64361333D01*
X146975104Y-64361333D02*
X147117961Y-64408952D01*
X147117961Y-64408952D02*
X147213200Y-64504190D01*
X147213200Y-64504190D02*
X147260819Y-64647047D01*
X147260819Y-64647047D02*
X147260819Y-64742285D01*
X146594152Y-63456571D02*
X147260819Y-63456571D01*
X146213200Y-63694666D02*
X146927485Y-63932761D01*
X146927485Y-63932761D02*
X146927485Y-63313714D01*
D12*
X158961667Y-97348318D02*
X158961667Y-98255461D01*
X158961667Y-98255461D02*
X158901190Y-98436889D01*
X158901190Y-98436889D02*
X158780238Y-98557842D01*
X158780238Y-98557842D02*
X158598809Y-98618318D01*
X158598809Y-98618318D02*
X158477857Y-98618318D01*
X160171190Y-97348318D02*
X159566428Y-97348318D01*
X159566428Y-97348318D02*
X159505952Y-97953080D01*
X159505952Y-97953080D02*
X159566428Y-97892603D01*
X159566428Y-97892603D02*
X159687381Y-97832127D01*
X159687381Y-97832127D02*
X159989762Y-97832127D01*
X159989762Y-97832127D02*
X160110714Y-97892603D01*
X160110714Y-97892603D02*
X160171190Y-97953080D01*
X160171190Y-97953080D02*
X160231667Y-98074032D01*
X160231667Y-98074032D02*
X160231667Y-98376413D01*
X160231667Y-98376413D02*
X160171190Y-98497365D01*
X160171190Y-98497365D02*
X160110714Y-98557842D01*
X160110714Y-98557842D02*
X159989762Y-98618318D01*
X159989762Y-98618318D02*
X159687381Y-98618318D01*
X159687381Y-98618318D02*
X159566428Y-98557842D01*
X159566428Y-98557842D02*
X159505952Y-98497365D01*
%TO.C,J3*%
D13*
X159964000Y-83312000D02*
X168004000Y-83312000D01*
X159964000Y-94052000D02*
X159964000Y-83312000D01*
X163584000Y-84120000D02*
X163584000Y-83312000D01*
X163584000Y-89052000D02*
X163584000Y-87744000D01*
X163584000Y-94052000D02*
X163584000Y-92812000D01*
X164584000Y-84120000D02*
X164584000Y-83312000D01*
X164584000Y-89052000D02*
X164584000Y-87744000D01*
X164584000Y-94052000D02*
X164584000Y-92812000D01*
X165884000Y-85389000D02*
X165884000Y-83312000D01*
X165884000Y-89052000D02*
X165884000Y-86475000D01*
X165884000Y-94052000D02*
X165884000Y-92812000D01*
X168004000Y-83312000D02*
X168004000Y-90632000D01*
X168004000Y-91232000D02*
X168004000Y-94052000D01*
X168004000Y-94052000D02*
X159964000Y-94052000D01*
X168004000Y-90932000D02*
X168614000Y-90492000D01*
X168614000Y-91372000D01*
X168004000Y-90932000D01*
G36*
X168614000Y-91372000D02*
G01*
X168004000Y-90932000D01*
X168614000Y-90492000D01*
X168614000Y-91372000D01*
G37*
%TO.C,J4*%
X148396000Y-60668000D02*
X149606000Y-60668000D01*
X148396000Y-67388000D02*
X148396000Y-60668000D01*
X149606000Y-60668000D02*
X149606000Y-60168000D01*
X149606000Y-67388000D02*
X148396000Y-67388000D01*
X149606000Y-67888000D02*
X149606000Y-67388000D01*
X149716000Y-68188000D02*
X152216000Y-68188000D01*
X150416000Y-60168000D02*
X150416000Y-61168000D01*
X150416000Y-61168000D02*
X151916000Y-61168000D01*
X150416000Y-66888000D02*
X151916000Y-66888000D01*
X150416000Y-67888000D02*
X150416000Y-66888000D01*
X152216000Y-68188000D02*
X152216000Y-65688000D01*
X147896000Y-60168000D02*
X151916000Y-60168000D01*
X151916000Y-67888000D01*
X147896000Y-67888000D01*
X147896000Y-60168000D01*
%TO.C,J5*%
D14*
X151285000Y-95514000D02*
X151300000Y-95494000D01*
X151285000Y-98114000D02*
X151285000Y-95514000D01*
X151285000Y-100594000D02*
X151285000Y-99114000D01*
X151300000Y-95494000D02*
X167485000Y-95514000D01*
D15*
X165100000Y-101014000D02*
X165100000Y-101014000D01*
X165100000Y-101114000D02*
X165100000Y-101114000D01*
D14*
X167485000Y-95514000D02*
X167485000Y-100594000D01*
X167485000Y-100594000D02*
X151285000Y-100594000D01*
D15*
X165100000Y-101014000D02*
G75*
G02*
X165100000Y-101114000I0J-50000D01*
G01*
X165100000Y-101114000D02*
G75*
G02*
X165100000Y-101014000I0J50000D01*
G01*
%TD*%
M02*
