%TF.GenerationSoftware,KiCad,Pcbnew,10.0.4*%
%TF.CreationDate,2026-07-20T13:45:10+02:00*%
%TF.ProjectId,connector-board-a,636f6e6e-6563-4746-9f72-2d626f617264,rev?*%
%TF.SameCoordinates,Original*%
%TF.FileFunction,Legend,Bot*%
%TF.FilePolarity,Positive*%
%FSLAX46Y46*%
G04 Gerber Fmt 4.6, Leading zero omitted, Abs format (unit mm)*
G04 Created by KiCad (PCBNEW 10.0.4) date 2026-07-20 13:45:10*
%MOMM*%
%LPD*%
G01*
G04 APERTURE LIST*
%ADD10C,0.150000*%
%ADD11C,0.120000*%
G04 APERTURE END LIST*
D10*
X150528819Y-94354666D02*
X151243104Y-94354666D01*
X151243104Y-94354666D02*
X151385961Y-94307047D01*
X151385961Y-94307047D02*
X151481200Y-94211809D01*
X151481200Y-94211809D02*
X151528819Y-94068952D01*
X151528819Y-94068952D02*
X151528819Y-93973714D01*
X151528819Y-95354666D02*
X151528819Y-94783238D01*
X151528819Y-95068952D02*
X150528819Y-95068952D01*
X150528819Y-95068952D02*
X150671676Y-94973714D01*
X150671676Y-94973714D02*
X150766914Y-94878476D01*
X150766914Y-94878476D02*
X150814533Y-94783238D01*
%TO.C,J1*%
D11*
X137454000Y-80263000D02*
X137454000Y-109113000D01*
X138514000Y-110173000D02*
X149014000Y-110173000D01*
X139554000Y-89355579D02*
X139554000Y-100020421D01*
X140925744Y-101655202D02*
X146025744Y-102554470D01*
X146025744Y-86821530D02*
X140925744Y-87720798D01*
X147974000Y-100919689D02*
X147974000Y-88456311D01*
X149014000Y-79203000D02*
X138514000Y-79203000D01*
X150074000Y-109113000D02*
X150074000Y-80263000D01*
X150535325Y-100228000D02*
X150968338Y-100478000D01*
X150968338Y-99978000D02*
X150535325Y-100228000D01*
X150968338Y-100478000D02*
X150968338Y-99978000D01*
X137454000Y-80263000D02*
G75*
G02*
X138514000Y-79203000I1060000J0D01*
G01*
X138514000Y-110173000D02*
G75*
G02*
X137454000Y-109113000I1J1060001D01*
G01*
X139554000Y-89355579D02*
G75*
G02*
X140925748Y-87720818I1660000J-21D01*
G01*
X140925744Y-101655202D02*
G75*
G02*
X139554000Y-100020421I288255J1634780D01*
G01*
X146025744Y-86821530D02*
G75*
G02*
X147973989Y-88456311I288256J-1634770D01*
G01*
X147974000Y-100919689D02*
G75*
G02*
X146025744Y-102554470I-1660000J0D01*
G01*
X149014000Y-79203000D02*
G75*
G02*
X150074000Y-80263000I0J-1060000D01*
G01*
X150074000Y-109113000D02*
G75*
G02*
X149014000Y-110173000I-1060001J1D01*
G01*
%TD*%
M02*
