M48
; DRILL file KiCad 10.0.4 date 2026-07-20T13:45:13
; FORMAT={-:-/ absolute / metric / decimal}
; #@! TF.CreationDate,2026-07-20T13:45:13+02:00
; #@! TF.GenerationSoftware,Kicad,Pcbnew,10.0.4
; #@! TF.FileFunction,Plated,1,2,PTH
FMAT,2
METRIC
; #@! TA.AperFunction,Plated,PTH,ViaDrill
T1C0.300
; #@! TA.AperFunction,Plated,PTH,ComponentDrill
T2C0.800
; #@! TA.AperFunction,Plated,PTH,ComponentDrill
T3C3.200
%
G90
G05
T1
X137.676Y-90.533
X138.43Y-93.218
X139.192Y-96.012
T2
X138.176Y-73.914
X139.446Y-76.454
X140.716Y-73.914
X141.986Y-76.454
X142.344Y-90.533
X142.344Y-93.303
X142.344Y-96.073
X142.344Y-98.843
X143.256Y-73.914
X144.526Y-76.454
X145.184Y-89.148
X145.184Y-91.918
X145.184Y-94.688
X145.184Y-97.458
X145.184Y-100.228
X145.796Y-73.914
X147.066Y-76.454
X148.336Y-73.914
X149.606Y-76.454
T3
X143.764Y-82.188
X143.764Y-107.188
M30
