%TF.GenerationSoftware,KiCad,Pcbnew,10.0.4*%
%TF.CreationDate,2026-07-20T13:45:10+02:00*%
%TF.ProjectId,connector-board-a,636f6e6e-6563-4746-9f72-2d626f617264,rev?*%
%TF.SameCoordinates,Original*%
%TF.FileFunction,Copper,L2,Bot*%
%TF.FilePolarity,Positive*%
%FSLAX46Y46*%
G04 Gerber Fmt 4.6, Leading zero omitted, Abs format (unit mm)*
G04 Created by KiCad (PCBNEW 10.0.4) date 2026-07-20 13:45:10*
%MOMM*%
%LPD*%
G01*
G04 APERTURE LIST*
%TA.AperFunction,ComponentPad*%
%ADD10R,1.500000X1.500000*%
%TD*%
%TA.AperFunction,ComponentPad*%
%ADD11C,1.500000*%
%TD*%
%TA.AperFunction,ComponentPad*%
%ADD12R,2.000000X2.000000*%
%TD*%
%TA.AperFunction,ComponentPad*%
%ADD13C,2.000000*%
%TD*%
%TA.AperFunction,ComponentPad*%
%ADD14C,4.000000*%
%TD*%
%TA.AperFunction,ViaPad*%
%ADD15C,0.600000*%
%TD*%
%TA.AperFunction,Conductor*%
%ADD16C,0.508000*%
%TD*%
%TA.AperFunction,Conductor*%
%ADD17C,1.270000*%
%TD*%
G04 APERTURE END LIST*
D10*
%TO.P,J2,1,Pin_1_1*%
%TO.N,Net-(J2-Pin_1)*%
X149606000Y-76454000D03*
D11*
%TO.P,J2,2,Pin_2_2*%
%TO.N,Net-(J2-Pin_2)*%
X148336000Y-73914000D03*
%TO.P,J2,3,Pin_3_3*%
%TO.N,Net-(J2-Pin_3)*%
X147066000Y-76454000D03*
%TO.P,J2,4,Pin_4_4*%
%TO.N,Net-(J2-Pin_4)*%
X145796000Y-73914000D03*
%TO.P,J2,5,Pin_5_5*%
%TO.N,Net-(J2-Pin_5)*%
X144526000Y-76454000D03*
%TO.P,J2,6,Pin_6_6*%
%TO.N,Net-(J2-Pin_6)*%
X143256000Y-73914000D03*
%TO.P,J2,7,Pin_7_7*%
%TO.N,Net-(J2-Pin_7)*%
X141986000Y-76454000D03*
%TO.P,J2,8,Pin_8_8*%
%TO.N,Net-(J2-Pin_8)*%
X140716000Y-73914000D03*
%TO.P,J2,9,Pin_9_9*%
%TO.N,Net-(J2-Pin_9)*%
X139446000Y-76454000D03*
%TO.P,J2,10*%
%TO.N,N/C*%
X138176000Y-73914000D03*
%TD*%
D12*
%TO.P,J1,1,1_1*%
%TO.N,Net-(J2-Pin_1)*%
X145184000Y-100228000D03*
D13*
%TO.P,J1,2,2_2*%
%TO.N,Net-(J2-Pin_2)*%
X145184000Y-97458000D03*
%TO.P,J1,3,3_3*%
%TO.N,Net-(J2-Pin_3)*%
X145184000Y-94688000D03*
%TO.P,J1,4,4_4*%
%TO.N,Net-(J2-Pin_4)*%
X145184000Y-91918000D03*
%TO.P,J1,5,5_5*%
%TO.N,Net-(J2-Pin_5)*%
X145184000Y-89148000D03*
%TO.P,J1,6,6_6*%
%TO.N,Net-(J2-Pin_6)*%
X142344000Y-98843000D03*
%TO.P,J1,7,7_7*%
%TO.N,Net-(J2-Pin_7)*%
X142344000Y-96073000D03*
%TO.P,J1,8,8_8*%
%TO.N,Net-(J2-Pin_8)*%
X142344000Y-93303000D03*
%TO.P,J1,9,9_9*%
%TO.N,Net-(J2-Pin_9)*%
X142344000Y-90533000D03*
D14*
%TO.P,J1,SH*%
%TO.N,N/C*%
X143764000Y-107188000D03*
X143764000Y-82188000D03*
%TD*%
D15*
%TO.N,Net-(J2-Pin_9)*%
X137676000Y-90533000D03*
%TO.N,Net-(J2-Pin_8)*%
X138430000Y-93218000D03*
%TO.N,Net-(J2-Pin_7)*%
X139192000Y-96012000D03*
%TD*%
%TO.N,Net-(J2-Pin_4)*%
D16*
X146588000Y-91918000D02*
X145184000Y-91918000D01*
X147574000Y-90932000D02*
X146588000Y-91918000D01*
X147574000Y-80264000D02*
X147574000Y-90932000D01*
X145796000Y-78486000D02*
X147574000Y-80264000D01*
X145796000Y-73914000D02*
X145796000Y-78486000D01*
%TO.N,Net-(J2-Pin_3)*%
X147120000Y-94688000D02*
X145184000Y-94688000D01*
X148336000Y-80010000D02*
X148336000Y-93472000D01*
X147066000Y-78740000D02*
X148336000Y-80010000D01*
X148336000Y-93472000D02*
X147120000Y-94688000D01*
X147066000Y-76454000D02*
X147066000Y-78740000D01*
%TO.N,Net-(J2-Pin_5)*%
X146812000Y-87520000D02*
X145184000Y-89148000D01*
X146812000Y-80645000D02*
X146812000Y-87520000D01*
X144526000Y-78359000D02*
X146812000Y-80645000D01*
X144526000Y-76454000D02*
X144526000Y-78359000D01*
%TO.N,Net-(J2-Pin_9)*%
X139446000Y-78740000D02*
X139446000Y-76454000D01*
X137668000Y-90525000D02*
X137668000Y-80518000D01*
X137668000Y-80518000D02*
X139446000Y-78740000D01*
X137676000Y-90533000D02*
X137668000Y-90525000D01*
%TO.N,Net-(J2-Pin_6)*%
X139954000Y-98044000D02*
X140753000Y-98843000D01*
X139954000Y-81280000D02*
X139954000Y-98044000D01*
X143256000Y-73914000D02*
X143256000Y-77978000D01*
X143256000Y-77978000D02*
X139954000Y-81280000D01*
X140753000Y-98843000D02*
X142344000Y-98843000D01*
%TO.N,Net-(J2-Pin_7)*%
X141986000Y-78232000D02*
X141986000Y-76454000D01*
X139192000Y-81026000D02*
X141986000Y-78232000D01*
X139192000Y-96012000D02*
X139192000Y-81026000D01*
%TO.N,Net-(J2-Pin_8)*%
X140716000Y-78486000D02*
X140716000Y-73914000D01*
X138430000Y-80772000D02*
X140716000Y-78486000D01*
X138430000Y-93218000D02*
X138430000Y-80772000D01*
%TO.N,Net-(J2-Pin_1)*%
D17*
X147574000Y-100330000D02*
X145286000Y-100330000D01*
X149606000Y-98298000D02*
X147574000Y-100330000D01*
X149606000Y-76454000D02*
X149606000Y-98298000D01*
X145286000Y-100330000D02*
X145184000Y-100228000D01*
%TD*%
M02*
