%TF.GenerationSoftware,KiCad,Pcbnew,10.0.4*%
%TF.CreationDate,2026-07-20T13:45:10+02:00*%
%TF.ProjectId,connector-board-a,636f6e6e-6563-4746-9f72-2d626f617264,rev?*%
%TF.SameCoordinates,Original*%
%TF.FileFunction,Legend,Top*%
%TF.FilePolarity,Positive*%
%FSLAX46Y46*%
G04 Gerber Fmt 4.6, Leading zero omitted, Abs format (unit mm)*
G04 Created by KiCad (PCBNEW 10.0.4) date 2026-07-20 13:45:10*
%MOMM*%
%LPD*%
G01*
G04 APERTURE LIST*
%ADD10C,0.300000*%
%ADD11C,0.254000*%
%ADD12C,0.200000*%
%ADD13C,0.100000*%
G04 APERTURE END LIST*
D10*
X132879055Y-108824346D02*
X132950484Y-108895774D01*
X132950484Y-108895774D02*
X133021912Y-109110060D01*
X133021912Y-109110060D02*
X133021912Y-109252917D01*
X133021912Y-109252917D02*
X132950484Y-109467203D01*
X132950484Y-109467203D02*
X132807626Y-109610060D01*
X132807626Y-109610060D02*
X132664769Y-109681489D01*
X132664769Y-109681489D02*
X132379055Y-109752917D01*
X132379055Y-109752917D02*
X132164769Y-109752917D01*
X132164769Y-109752917D02*
X131879055Y-109681489D01*
X131879055Y-109681489D02*
X131736198Y-109610060D01*
X131736198Y-109610060D02*
X131593341Y-109467203D01*
X131593341Y-109467203D02*
X131521912Y-109252917D01*
X131521912Y-109252917D02*
X131521912Y-109110060D01*
X131521912Y-109110060D02*
X131593341Y-108895774D01*
X131593341Y-108895774D02*
X131664769Y-108824346D01*
X133021912Y-107967203D02*
X132950484Y-108110060D01*
X132950484Y-108110060D02*
X132879055Y-108181489D01*
X132879055Y-108181489D02*
X132736198Y-108252917D01*
X132736198Y-108252917D02*
X132307626Y-108252917D01*
X132307626Y-108252917D02*
X132164769Y-108181489D01*
X132164769Y-108181489D02*
X132093341Y-108110060D01*
X132093341Y-108110060D02*
X132021912Y-107967203D01*
X132021912Y-107967203D02*
X132021912Y-107752917D01*
X132021912Y-107752917D02*
X132093341Y-107610060D01*
X132093341Y-107610060D02*
X132164769Y-107538632D01*
X132164769Y-107538632D02*
X132307626Y-107467203D01*
X132307626Y-107467203D02*
X132736198Y-107467203D01*
X132736198Y-107467203D02*
X132879055Y-107538632D01*
X132879055Y-107538632D02*
X132950484Y-107610060D01*
X132950484Y-107610060D02*
X133021912Y-107752917D01*
X133021912Y-107752917D02*
X133021912Y-107967203D01*
X132021912Y-106824346D02*
X133021912Y-106824346D01*
X132164769Y-106824346D02*
X132093341Y-106752917D01*
X132093341Y-106752917D02*
X132021912Y-106610060D01*
X132021912Y-106610060D02*
X132021912Y-106395774D01*
X132021912Y-106395774D02*
X132093341Y-106252917D01*
X132093341Y-106252917D02*
X132236198Y-106181489D01*
X132236198Y-106181489D02*
X133021912Y-106181489D01*
X132021912Y-105467203D02*
X133021912Y-105467203D01*
X132164769Y-105467203D02*
X132093341Y-105395774D01*
X132093341Y-105395774D02*
X132021912Y-105252917D01*
X132021912Y-105252917D02*
X132021912Y-105038631D01*
X132021912Y-105038631D02*
X132093341Y-104895774D01*
X132093341Y-104895774D02*
X132236198Y-104824346D01*
X132236198Y-104824346D02*
X133021912Y-104824346D01*
X132950484Y-103538631D02*
X133021912Y-103681488D01*
X133021912Y-103681488D02*
X133021912Y-103967203D01*
X133021912Y-103967203D02*
X132950484Y-104110060D01*
X132950484Y-104110060D02*
X132807626Y-104181488D01*
X132807626Y-104181488D02*
X132236198Y-104181488D01*
X132236198Y-104181488D02*
X132093341Y-104110060D01*
X132093341Y-104110060D02*
X132021912Y-103967203D01*
X132021912Y-103967203D02*
X132021912Y-103681488D01*
X132021912Y-103681488D02*
X132093341Y-103538631D01*
X132093341Y-103538631D02*
X132236198Y-103467203D01*
X132236198Y-103467203D02*
X132379055Y-103467203D01*
X132379055Y-103467203D02*
X132521912Y-104181488D01*
X132950484Y-102181489D02*
X133021912Y-102324346D01*
X133021912Y-102324346D02*
X133021912Y-102610060D01*
X133021912Y-102610060D02*
X132950484Y-102752917D01*
X132950484Y-102752917D02*
X132879055Y-102824346D01*
X132879055Y-102824346D02*
X132736198Y-102895774D01*
X132736198Y-102895774D02*
X132307626Y-102895774D01*
X132307626Y-102895774D02*
X132164769Y-102824346D01*
X132164769Y-102824346D02*
X132093341Y-102752917D01*
X132093341Y-102752917D02*
X132021912Y-102610060D01*
X132021912Y-102610060D02*
X132021912Y-102324346D01*
X132021912Y-102324346D02*
X132093341Y-102181489D01*
X132021912Y-101752917D02*
X132021912Y-101181489D01*
X131521912Y-101538632D02*
X132807626Y-101538632D01*
X132807626Y-101538632D02*
X132950484Y-101467203D01*
X132950484Y-101467203D02*
X133021912Y-101324346D01*
X133021912Y-101324346D02*
X133021912Y-101181489D01*
X133021912Y-100467203D02*
X132950484Y-100610060D01*
X132950484Y-100610060D02*
X132879055Y-100681489D01*
X132879055Y-100681489D02*
X132736198Y-100752917D01*
X132736198Y-100752917D02*
X132307626Y-100752917D01*
X132307626Y-100752917D02*
X132164769Y-100681489D01*
X132164769Y-100681489D02*
X132093341Y-100610060D01*
X132093341Y-100610060D02*
X132021912Y-100467203D01*
X132021912Y-100467203D02*
X132021912Y-100252917D01*
X132021912Y-100252917D02*
X132093341Y-100110060D01*
X132093341Y-100110060D02*
X132164769Y-100038632D01*
X132164769Y-100038632D02*
X132307626Y-99967203D01*
X132307626Y-99967203D02*
X132736198Y-99967203D01*
X132736198Y-99967203D02*
X132879055Y-100038632D01*
X132879055Y-100038632D02*
X132950484Y-100110060D01*
X132950484Y-100110060D02*
X133021912Y-100252917D01*
X133021912Y-100252917D02*
X133021912Y-100467203D01*
X133021912Y-99324346D02*
X132021912Y-99324346D01*
X132307626Y-99324346D02*
X132164769Y-99252917D01*
X132164769Y-99252917D02*
X132093341Y-99181489D01*
X132093341Y-99181489D02*
X132021912Y-99038631D01*
X132021912Y-99038631D02*
X132021912Y-98895774D01*
X133021912Y-97252918D02*
X131521912Y-97252918D01*
X132093341Y-97252918D02*
X132021912Y-97110061D01*
X132021912Y-97110061D02*
X132021912Y-96824346D01*
X132021912Y-96824346D02*
X132093341Y-96681489D01*
X132093341Y-96681489D02*
X132164769Y-96610061D01*
X132164769Y-96610061D02*
X132307626Y-96538632D01*
X132307626Y-96538632D02*
X132736198Y-96538632D01*
X132736198Y-96538632D02*
X132879055Y-96610061D01*
X132879055Y-96610061D02*
X132950484Y-96681489D01*
X132950484Y-96681489D02*
X133021912Y-96824346D01*
X133021912Y-96824346D02*
X133021912Y-97110061D01*
X133021912Y-97110061D02*
X132950484Y-97252918D01*
X133021912Y-95681489D02*
X132950484Y-95824346D01*
X132950484Y-95824346D02*
X132879055Y-95895775D01*
X132879055Y-95895775D02*
X132736198Y-95967203D01*
X132736198Y-95967203D02*
X132307626Y-95967203D01*
X132307626Y-95967203D02*
X132164769Y-95895775D01*
X132164769Y-95895775D02*
X132093341Y-95824346D01*
X132093341Y-95824346D02*
X132021912Y-95681489D01*
X132021912Y-95681489D02*
X132021912Y-95467203D01*
X132021912Y-95467203D02*
X132093341Y-95324346D01*
X132093341Y-95324346D02*
X132164769Y-95252918D01*
X132164769Y-95252918D02*
X132307626Y-95181489D01*
X132307626Y-95181489D02*
X132736198Y-95181489D01*
X132736198Y-95181489D02*
X132879055Y-95252918D01*
X132879055Y-95252918D02*
X132950484Y-95324346D01*
X132950484Y-95324346D02*
X133021912Y-95467203D01*
X133021912Y-95467203D02*
X133021912Y-95681489D01*
X133021912Y-93895775D02*
X132236198Y-93895775D01*
X132236198Y-93895775D02*
X132093341Y-93967203D01*
X132093341Y-93967203D02*
X132021912Y-94110060D01*
X132021912Y-94110060D02*
X132021912Y-94395775D01*
X132021912Y-94395775D02*
X132093341Y-94538632D01*
X132950484Y-93895775D02*
X133021912Y-94038632D01*
X133021912Y-94038632D02*
X133021912Y-94395775D01*
X133021912Y-94395775D02*
X132950484Y-94538632D01*
X132950484Y-94538632D02*
X132807626Y-94610060D01*
X132807626Y-94610060D02*
X132664769Y-94610060D01*
X132664769Y-94610060D02*
X132521912Y-94538632D01*
X132521912Y-94538632D02*
X132450484Y-94395775D01*
X132450484Y-94395775D02*
X132450484Y-94038632D01*
X132450484Y-94038632D02*
X132379055Y-93895775D01*
X133021912Y-93181489D02*
X132021912Y-93181489D01*
X132307626Y-93181489D02*
X132164769Y-93110060D01*
X132164769Y-93110060D02*
X132093341Y-93038632D01*
X132093341Y-93038632D02*
X132021912Y-92895774D01*
X132021912Y-92895774D02*
X132021912Y-92752917D01*
X133021912Y-91610061D02*
X131521912Y-91610061D01*
X132950484Y-91610061D02*
X133021912Y-91752918D01*
X133021912Y-91752918D02*
X133021912Y-92038632D01*
X133021912Y-92038632D02*
X132950484Y-92181489D01*
X132950484Y-92181489D02*
X132879055Y-92252918D01*
X132879055Y-92252918D02*
X132736198Y-92324346D01*
X132736198Y-92324346D02*
X132307626Y-92324346D01*
X132307626Y-92324346D02*
X132164769Y-92252918D01*
X132164769Y-92252918D02*
X132093341Y-92181489D01*
X132093341Y-92181489D02*
X132021912Y-92038632D01*
X132021912Y-92038632D02*
X132021912Y-91752918D01*
X132021912Y-91752918D02*
X132093341Y-91610061D01*
X132593341Y-89824346D02*
X132593341Y-89110061D01*
X133021912Y-89967203D02*
X131521912Y-89467203D01*
X131521912Y-89467203D02*
X133021912Y-88967203D01*
X132021912Y-87467204D02*
X133021912Y-87110061D01*
X133021912Y-87110061D02*
X132021912Y-86752918D01*
X133021912Y-85395775D02*
X133021912Y-86252918D01*
X133021912Y-85824347D02*
X131521912Y-85824347D01*
X131521912Y-85824347D02*
X131736198Y-85967204D01*
X131736198Y-85967204D02*
X131879055Y-86110061D01*
X131879055Y-86110061D02*
X131950484Y-86252918D01*
X132879055Y-84752919D02*
X132950484Y-84681490D01*
X132950484Y-84681490D02*
X133021912Y-84752919D01*
X133021912Y-84752919D02*
X132950484Y-84824347D01*
X132950484Y-84824347D02*
X132879055Y-84752919D01*
X132879055Y-84752919D02*
X133021912Y-84752919D01*
X131521912Y-83752918D02*
X131521912Y-83610061D01*
X131521912Y-83610061D02*
X131593341Y-83467204D01*
X131593341Y-83467204D02*
X131664769Y-83395776D01*
X131664769Y-83395776D02*
X131807626Y-83324347D01*
X131807626Y-83324347D02*
X132093341Y-83252918D01*
X132093341Y-83252918D02*
X132450484Y-83252918D01*
X132450484Y-83252918D02*
X132736198Y-83324347D01*
X132736198Y-83324347D02*
X132879055Y-83395776D01*
X132879055Y-83395776D02*
X132950484Y-83467204D01*
X132950484Y-83467204D02*
X133021912Y-83610061D01*
X133021912Y-83610061D02*
X133021912Y-83752918D01*
X133021912Y-83752918D02*
X132950484Y-83895776D01*
X132950484Y-83895776D02*
X132879055Y-83967204D01*
X132879055Y-83967204D02*
X132736198Y-84038633D01*
X132736198Y-84038633D02*
X132450484Y-84110061D01*
X132450484Y-84110061D02*
X132093341Y-84110061D01*
X132093341Y-84110061D02*
X131807626Y-84038633D01*
X131807626Y-84038633D02*
X131664769Y-83967204D01*
X131664769Y-83967204D02*
X131593341Y-83895776D01*
X131593341Y-83895776D02*
X131521912Y-83752918D01*
X133936828Y-109895774D02*
X133936828Y-109038632D01*
X135436828Y-109467203D02*
X133936828Y-109467203D01*
X134436828Y-108681489D02*
X135436828Y-108395775D01*
X135436828Y-108395775D02*
X134722542Y-108110060D01*
X134722542Y-108110060D02*
X135436828Y-107824346D01*
X135436828Y-107824346D02*
X134436828Y-107538632D01*
X135436828Y-106967203D02*
X134436828Y-106967203D01*
X133936828Y-106967203D02*
X134008257Y-107038631D01*
X134008257Y-107038631D02*
X134079685Y-106967203D01*
X134079685Y-106967203D02*
X134008257Y-106895774D01*
X134008257Y-106895774D02*
X133936828Y-106967203D01*
X133936828Y-106967203D02*
X134079685Y-106967203D01*
X134436828Y-106252917D02*
X135436828Y-106252917D01*
X134579685Y-106252917D02*
X134508257Y-106181488D01*
X134508257Y-106181488D02*
X134436828Y-106038631D01*
X134436828Y-106038631D02*
X134436828Y-105824345D01*
X134436828Y-105824345D02*
X134508257Y-105681488D01*
X134508257Y-105681488D02*
X134651114Y-105610060D01*
X134651114Y-105610060D02*
X135436828Y-105610060D01*
X133936828Y-104610059D02*
X133936828Y-104324345D01*
X133936828Y-104324345D02*
X134008257Y-104181488D01*
X134008257Y-104181488D02*
X134151114Y-104038631D01*
X134151114Y-104038631D02*
X134436828Y-103967202D01*
X134436828Y-103967202D02*
X134936828Y-103967202D01*
X134936828Y-103967202D02*
X135222542Y-104038631D01*
X135222542Y-104038631D02*
X135365400Y-104181488D01*
X135365400Y-104181488D02*
X135436828Y-104324345D01*
X135436828Y-104324345D02*
X135436828Y-104610059D01*
X135436828Y-104610059D02*
X135365400Y-104752917D01*
X135365400Y-104752917D02*
X135222542Y-104895774D01*
X135222542Y-104895774D02*
X134936828Y-104967202D01*
X134936828Y-104967202D02*
X134436828Y-104967202D01*
X134436828Y-104967202D02*
X134151114Y-104895774D01*
X134151114Y-104895774D02*
X134008257Y-104752917D01*
X134008257Y-104752917D02*
X133936828Y-104610059D01*
X135436828Y-102681488D02*
X134651114Y-102681488D01*
X134651114Y-102681488D02*
X134508257Y-102752916D01*
X134508257Y-102752916D02*
X134436828Y-102895773D01*
X134436828Y-102895773D02*
X134436828Y-103181488D01*
X134436828Y-103181488D02*
X134508257Y-103324345D01*
X135365400Y-102681488D02*
X135436828Y-102824345D01*
X135436828Y-102824345D02*
X135436828Y-103181488D01*
X135436828Y-103181488D02*
X135365400Y-103324345D01*
X135365400Y-103324345D02*
X135222542Y-103395773D01*
X135222542Y-103395773D02*
X135079685Y-103395773D01*
X135079685Y-103395773D02*
X134936828Y-103324345D01*
X134936828Y-103324345D02*
X134865400Y-103181488D01*
X134865400Y-103181488D02*
X134865400Y-102824345D01*
X134865400Y-102824345D02*
X134793971Y-102681488D01*
X135436828Y-101967202D02*
X133936828Y-101967202D01*
X134865400Y-101824345D02*
X135436828Y-101395773D01*
X134436828Y-101395773D02*
X135008257Y-101967202D01*
X135365400Y-99681487D02*
X135436828Y-99467202D01*
X135436828Y-99467202D02*
X135436828Y-99110059D01*
X135436828Y-99110059D02*
X135365400Y-98967202D01*
X135365400Y-98967202D02*
X135293971Y-98895773D01*
X135293971Y-98895773D02*
X135151114Y-98824344D01*
X135151114Y-98824344D02*
X135008257Y-98824344D01*
X135008257Y-98824344D02*
X134865400Y-98895773D01*
X134865400Y-98895773D02*
X134793971Y-98967202D01*
X134793971Y-98967202D02*
X134722542Y-99110059D01*
X134722542Y-99110059D02*
X134651114Y-99395773D01*
X134651114Y-99395773D02*
X134579685Y-99538630D01*
X134579685Y-99538630D02*
X134508257Y-99610059D01*
X134508257Y-99610059D02*
X134365400Y-99681487D01*
X134365400Y-99681487D02*
X134222542Y-99681487D01*
X134222542Y-99681487D02*
X134079685Y-99610059D01*
X134079685Y-99610059D02*
X134008257Y-99538630D01*
X134008257Y-99538630D02*
X133936828Y-99395773D01*
X133936828Y-99395773D02*
X133936828Y-99038630D01*
X133936828Y-99038630D02*
X134008257Y-98824344D01*
X134436828Y-98395773D02*
X134436828Y-97824345D01*
X133936828Y-98181488D02*
X135222542Y-98181488D01*
X135222542Y-98181488D02*
X135365400Y-98110059D01*
X135365400Y-98110059D02*
X135436828Y-97967202D01*
X135436828Y-97967202D02*
X135436828Y-97824345D01*
X135436828Y-96681488D02*
X134651114Y-96681488D01*
X134651114Y-96681488D02*
X134508257Y-96752916D01*
X134508257Y-96752916D02*
X134436828Y-96895773D01*
X134436828Y-96895773D02*
X134436828Y-97181488D01*
X134436828Y-97181488D02*
X134508257Y-97324345D01*
X135365400Y-96681488D02*
X135436828Y-96824345D01*
X135436828Y-96824345D02*
X135436828Y-97181488D01*
X135436828Y-97181488D02*
X135365400Y-97324345D01*
X135365400Y-97324345D02*
X135222542Y-97395773D01*
X135222542Y-97395773D02*
X135079685Y-97395773D01*
X135079685Y-97395773D02*
X134936828Y-97324345D01*
X134936828Y-97324345D02*
X134865400Y-97181488D01*
X134865400Y-97181488D02*
X134865400Y-96824345D01*
X134865400Y-96824345D02*
X134793971Y-96681488D01*
X134436828Y-95967202D02*
X135436828Y-95967202D01*
X134579685Y-95967202D02*
X134508257Y-95895773D01*
X134508257Y-95895773D02*
X134436828Y-95752916D01*
X134436828Y-95752916D02*
X134436828Y-95538630D01*
X134436828Y-95538630D02*
X134508257Y-95395773D01*
X134508257Y-95395773D02*
X134651114Y-95324345D01*
X134651114Y-95324345D02*
X135436828Y-95324345D01*
X135436828Y-93967202D02*
X133936828Y-93967202D01*
X135365400Y-93967202D02*
X135436828Y-94110059D01*
X135436828Y-94110059D02*
X135436828Y-94395773D01*
X135436828Y-94395773D02*
X135365400Y-94538630D01*
X135365400Y-94538630D02*
X135293971Y-94610059D01*
X135293971Y-94610059D02*
X135151114Y-94681487D01*
X135151114Y-94681487D02*
X134722542Y-94681487D01*
X134722542Y-94681487D02*
X134579685Y-94610059D01*
X134579685Y-94610059D02*
X134508257Y-94538630D01*
X134508257Y-94538630D02*
X134436828Y-94395773D01*
X134436828Y-94395773D02*
X134436828Y-94110059D01*
X134436828Y-94110059D02*
X134508257Y-93967202D01*
X135436828Y-92610059D02*
X134651114Y-92610059D01*
X134651114Y-92610059D02*
X134508257Y-92681487D01*
X134508257Y-92681487D02*
X134436828Y-92824344D01*
X134436828Y-92824344D02*
X134436828Y-93110059D01*
X134436828Y-93110059D02*
X134508257Y-93252916D01*
X135365400Y-92610059D02*
X135436828Y-92752916D01*
X135436828Y-92752916D02*
X135436828Y-93110059D01*
X135436828Y-93110059D02*
X135365400Y-93252916D01*
X135365400Y-93252916D02*
X135222542Y-93324344D01*
X135222542Y-93324344D02*
X135079685Y-93324344D01*
X135079685Y-93324344D02*
X134936828Y-93252916D01*
X134936828Y-93252916D02*
X134865400Y-93110059D01*
X134865400Y-93110059D02*
X134865400Y-92752916D01*
X134865400Y-92752916D02*
X134793971Y-92610059D01*
X135436828Y-91895773D02*
X134436828Y-91895773D01*
X134722542Y-91895773D02*
X134579685Y-91824344D01*
X134579685Y-91824344D02*
X134508257Y-91752916D01*
X134508257Y-91752916D02*
X134436828Y-91610058D01*
X134436828Y-91610058D02*
X134436828Y-91467201D01*
X135436828Y-90324345D02*
X133936828Y-90324345D01*
X135365400Y-90324345D02*
X135436828Y-90467202D01*
X135436828Y-90467202D02*
X135436828Y-90752916D01*
X135436828Y-90752916D02*
X135365400Y-90895773D01*
X135365400Y-90895773D02*
X135293971Y-90967202D01*
X135293971Y-90967202D02*
X135151114Y-91038630D01*
X135151114Y-91038630D02*
X134722542Y-91038630D01*
X134722542Y-91038630D02*
X134579685Y-90967202D01*
X134579685Y-90967202D02*
X134508257Y-90895773D01*
X134508257Y-90895773D02*
X134436828Y-90752916D01*
X134436828Y-90752916D02*
X134436828Y-90467202D01*
X134436828Y-90467202D02*
X134508257Y-90324345D01*
X135436828Y-87610059D02*
X134722542Y-88110059D01*
X135436828Y-88467202D02*
X133936828Y-88467202D01*
X133936828Y-88467202D02*
X133936828Y-87895773D01*
X133936828Y-87895773D02*
X134008257Y-87752916D01*
X134008257Y-87752916D02*
X134079685Y-87681487D01*
X134079685Y-87681487D02*
X134222542Y-87610059D01*
X134222542Y-87610059D02*
X134436828Y-87610059D01*
X134436828Y-87610059D02*
X134579685Y-87681487D01*
X134579685Y-87681487D02*
X134651114Y-87752916D01*
X134651114Y-87752916D02*
X134722542Y-87895773D01*
X134722542Y-87895773D02*
X134722542Y-88467202D01*
X135365400Y-86395773D02*
X135436828Y-86538630D01*
X135436828Y-86538630D02*
X135436828Y-86824345D01*
X135436828Y-86824345D02*
X135365400Y-86967202D01*
X135365400Y-86967202D02*
X135222542Y-87038630D01*
X135222542Y-87038630D02*
X134651114Y-87038630D01*
X134651114Y-87038630D02*
X134508257Y-86967202D01*
X134508257Y-86967202D02*
X134436828Y-86824345D01*
X134436828Y-86824345D02*
X134436828Y-86538630D01*
X134436828Y-86538630D02*
X134508257Y-86395773D01*
X134508257Y-86395773D02*
X134651114Y-86324345D01*
X134651114Y-86324345D02*
X134793971Y-86324345D01*
X134793971Y-86324345D02*
X134936828Y-87038630D01*
X134436828Y-85681488D02*
X135936828Y-85681488D01*
X134508257Y-85681488D02*
X134436828Y-85538631D01*
X134436828Y-85538631D02*
X134436828Y-85252916D01*
X134436828Y-85252916D02*
X134508257Y-85110059D01*
X134508257Y-85110059D02*
X134579685Y-85038631D01*
X134579685Y-85038631D02*
X134722542Y-84967202D01*
X134722542Y-84967202D02*
X135151114Y-84967202D01*
X135151114Y-84967202D02*
X135293971Y-85038631D01*
X135293971Y-85038631D02*
X135365400Y-85110059D01*
X135365400Y-85110059D02*
X135436828Y-85252916D01*
X135436828Y-85252916D02*
X135436828Y-85538631D01*
X135436828Y-85538631D02*
X135365400Y-85681488D01*
X135365400Y-83752916D02*
X135436828Y-83895773D01*
X135436828Y-83895773D02*
X135436828Y-84181488D01*
X135436828Y-84181488D02*
X135365400Y-84324345D01*
X135365400Y-84324345D02*
X135222542Y-84395773D01*
X135222542Y-84395773D02*
X134651114Y-84395773D01*
X134651114Y-84395773D02*
X134508257Y-84324345D01*
X134508257Y-84324345D02*
X134436828Y-84181488D01*
X134436828Y-84181488D02*
X134436828Y-83895773D01*
X134436828Y-83895773D02*
X134508257Y-83752916D01*
X134508257Y-83752916D02*
X134651114Y-83681488D01*
X134651114Y-83681488D02*
X134793971Y-83681488D01*
X134793971Y-83681488D02*
X134936828Y-84395773D01*
X135436828Y-82395774D02*
X134651114Y-82395774D01*
X134651114Y-82395774D02*
X134508257Y-82467202D01*
X134508257Y-82467202D02*
X134436828Y-82610059D01*
X134436828Y-82610059D02*
X134436828Y-82895774D01*
X134436828Y-82895774D02*
X134508257Y-83038631D01*
X135365400Y-82395774D02*
X135436828Y-82538631D01*
X135436828Y-82538631D02*
X135436828Y-82895774D01*
X135436828Y-82895774D02*
X135365400Y-83038631D01*
X135365400Y-83038631D02*
X135222542Y-83110059D01*
X135222542Y-83110059D02*
X135079685Y-83110059D01*
X135079685Y-83110059D02*
X134936828Y-83038631D01*
X134936828Y-83038631D02*
X134865400Y-82895774D01*
X134865400Y-82895774D02*
X134865400Y-82538631D01*
X134865400Y-82538631D02*
X134793971Y-82395774D01*
X134436828Y-81895773D02*
X134436828Y-81324345D01*
X133936828Y-81681488D02*
X135222542Y-81681488D01*
X135222542Y-81681488D02*
X135365400Y-81610059D01*
X135365400Y-81610059D02*
X135436828Y-81467202D01*
X135436828Y-81467202D02*
X135436828Y-81324345D01*
X135365400Y-80252916D02*
X135436828Y-80395773D01*
X135436828Y-80395773D02*
X135436828Y-80681488D01*
X135436828Y-80681488D02*
X135365400Y-80824345D01*
X135365400Y-80824345D02*
X135222542Y-80895773D01*
X135222542Y-80895773D02*
X134651114Y-80895773D01*
X134651114Y-80895773D02*
X134508257Y-80824345D01*
X134508257Y-80824345D02*
X134436828Y-80681488D01*
X134436828Y-80681488D02*
X134436828Y-80395773D01*
X134436828Y-80395773D02*
X134508257Y-80252916D01*
X134508257Y-80252916D02*
X134651114Y-80181488D01*
X134651114Y-80181488D02*
X134793971Y-80181488D01*
X134793971Y-80181488D02*
X134936828Y-80895773D01*
X135436828Y-79538631D02*
X134436828Y-79538631D01*
X134722542Y-79538631D02*
X134579685Y-79467202D01*
X134579685Y-79467202D02*
X134508257Y-79395774D01*
X134508257Y-79395774D02*
X134436828Y-79252916D01*
X134436828Y-79252916D02*
X134436828Y-79110059D01*
D11*
X143467667Y-74488318D02*
X143467667Y-75395461D01*
X143467667Y-75395461D02*
X143407190Y-75576889D01*
X143407190Y-75576889D02*
X143286238Y-75697842D01*
X143286238Y-75697842D02*
X143104809Y-75758318D01*
X143104809Y-75758318D02*
X142983857Y-75758318D01*
X144011952Y-74609270D02*
X144072428Y-74548794D01*
X144072428Y-74548794D02*
X144193381Y-74488318D01*
X144193381Y-74488318D02*
X144495762Y-74488318D01*
X144495762Y-74488318D02*
X144616714Y-74548794D01*
X144616714Y-74548794D02*
X144677190Y-74609270D01*
X144677190Y-74609270D02*
X144737667Y-74730222D01*
X144737667Y-74730222D02*
X144737667Y-74851175D01*
X144737667Y-74851175D02*
X144677190Y-75032603D01*
X144677190Y-75032603D02*
X143951476Y-75758318D01*
X143951476Y-75758318D02*
X144737667Y-75758318D01*
%TO.C,J2*%
D12*
X135791000Y-77734000D02*
X135791000Y-76254000D01*
X135791000Y-75254000D02*
X135791000Y-72654000D01*
X135791000Y-72654000D02*
X135806000Y-72634000D01*
X135806000Y-72634000D02*
X151991000Y-72654000D01*
D13*
X149606000Y-78254000D02*
X149606000Y-78254000D01*
X149606000Y-78154000D02*
X149606000Y-78154000D01*
D12*
X151991000Y-77734000D02*
X135791000Y-77734000D01*
X151991000Y-72654000D02*
X151991000Y-77734000D01*
D13*
X149606000Y-78154000D02*
G75*
G02*
X149606000Y-78254000I0J-50000D01*
G01*
X149606000Y-78254000D02*
G75*
G02*
X149606000Y-78154000I0J50000D01*
G01*
%TD*%
M02*
