%TF.GenerationSoftware,KiCad,Pcbnew,10.0.4*%
%TF.CreationDate,2026-07-20T13:45:10+02:00*%
%TF.ProjectId,connector-board-a,636f6e6e-6563-4746-9f72-2d626f617264,rev?*%
%TF.SameCoordinates,Original*%
%TF.FileFunction,Copper,L1,Top*%
%TF.FilePolarity,Positive*%
%FSLAX46Y46*%
G04 Gerber Fmt 4.6, Leading zero omitted, Abs format (unit mm)*
G04 Created by KiCad (PCBNEW 10.0.4) date 2026-07-20 13:45:10*
%MOMM*%
%LPD*%
G01*
G04 APERTURE LIST*
%TA.AperFunction,ComponentPad*%
%ADD10R,1.500000X1.500000*%
%TD*%
%TA.AperFunction,ComponentPad*%
%ADD11C,1.500000*%
%TD*%
%TA.AperFunction,ComponentPad*%
%ADD12R,2.000000X2.000000*%
%TD*%
%TA.AperFunction,ComponentPad*%
%ADD13C,2.000000*%
%TD*%
%TA.AperFunction,ComponentPad*%
%ADD14C,4.000000*%
%TD*%
%TA.AperFunction,ViaPad*%
%ADD15C,0.600000*%
%TD*%
%TA.AperFunction,Conductor*%
%ADD16C,0.508000*%
%TD*%
%TA.AperFunction,Conductor*%
%ADD17C,1.270000*%
%TD*%
G04 APERTURE END LIST*
D10*
%TO.P,J2,1,Pin_1_1*%
%TO.N,Net-(J2-Pin_1)*%
X149606000Y-76454000D03*
D11*
%TO.P,J2,2,Pin_2_2*%
%TO.N,Net-(J2-Pin_2)*%
X148336000Y-73914000D03*
%TO.P,J2,3,Pin_3_3*%
%TO.N,Net-(J2-Pin_3)*%
X147066000Y-76454000D03*
%TO.P,J2,4,Pin_4_4*%
%TO.N,Net-(J2-Pin_4)*%
X145796000Y-73914000D03*
%TO.P,J2,5,Pin_5_5*%
%TO.N,Net-(J2-Pin_5)*%
X144526000Y-76454000D03*
%TO.P,J2,6,Pin_6_6*%
%TO.N,Net-(J2-Pin_6)*%
X143256000Y-73914000D03*
%TO.P,J2,7,Pin_7_7*%
%TO.N,Net-(J2-Pin_7)*%
X141986000Y-76454000D03*
%TO.P,J2,8,Pin_8_8*%
%TO.N,Net-(J2-Pin_8)*%
X140716000Y-73914000D03*
%TO.P,J2,9,Pin_9_9*%
%TO.N,Net-(J2-Pin_9)*%
X139446000Y-76454000D03*
%TO.P,J2,10*%
%TO.N,N/C*%
X138176000Y-73914000D03*
%TD*%
D12*
%TO.P,J1,1,1_1*%
%TO.N,Net-(J2-Pin_1)*%
X145184000Y-100228000D03*
D13*
%TO.P,J1,2,2_2*%
%TO.N,Net-(J2-Pin_2)*%
X145184000Y-97458000D03*
%TO.P,J1,3,3_3*%
%TO.N,Net-(J2-Pin_3)*%
X145184000Y-94688000D03*
%TO.P,J1,4,4_4*%
%TO.N,Net-(J2-Pin_4)*%
X145184000Y-91918000D03*
%TO.P,J1,5,5_5*%
%TO.N,Net-(J2-Pin_5)*%
X145184000Y-89148000D03*
%TO.P,J1,6,6_6*%
%TO.N,Net-(J2-Pin_6)*%
X142344000Y-98843000D03*
%TO.P,J1,7,7_7*%
%TO.N,Net-(J2-Pin_7)*%
X142344000Y-96073000D03*
%TO.P,J1,8,8_8*%
%TO.N,Net-(J2-Pin_8)*%
X142344000Y-93303000D03*
%TO.P,J1,9,9_9*%
%TO.N,Net-(J2-Pin_9)*%
X142344000Y-90533000D03*
D14*
%TO.P,J1,SH*%
%TO.N,N/C*%
X143764000Y-107188000D03*
X143764000Y-82188000D03*
%TD*%
D15*
%TO.N,Net-(J2-Pin_9)*%
X137676000Y-90533000D03*
%TO.N,Net-(J2-Pin_8)*%
X138430000Y-93218000D03*
%TO.N,Net-(J2-Pin_7)*%
X139192000Y-96012000D03*
%TD*%
%TO.N,Net-(J2-Pin_9)*%
D16*
X137676000Y-90533000D02*
X142344000Y-90533000D01*
%TO.N,Net-(J2-Pin_8)*%
X142259000Y-93218000D02*
X142344000Y-93303000D01*
X138430000Y-93218000D02*
X142259000Y-93218000D01*
%TO.N,Net-(J2-Pin_7)*%
X142283000Y-96012000D02*
X142344000Y-96073000D01*
X139192000Y-96012000D02*
X142283000Y-96012000D01*
%TO.N,Net-(J2-Pin_2)*%
D17*
X148922000Y-97458000D02*
X145184000Y-97458000D01*
X151191000Y-74869000D02*
X151191000Y-95189000D01*
X150236000Y-73914000D02*
X151191000Y-74869000D01*
X148336000Y-73914000D02*
X150236000Y-73914000D01*
X151191000Y-95189000D02*
X148922000Y-97458000D01*
%TD*%
%TA.AperFunction,Conductor*%
%TO.N,Net-(J2-Pin_1)*%
G36*
X152604539Y-72148185D02*
G01*
X152650294Y-72200989D01*
X152661500Y-72252500D01*
X152661500Y-110119500D01*
X152641815Y-110186539D01*
X152589011Y-110232294D01*
X152537500Y-110243500D01*
X130672500Y-110243500D01*
X130605461Y-110223815D01*
X130559706Y-110171011D01*
X130548500Y-110119500D01*
X130548500Y-107047568D01*
X141263500Y-107047568D01*
X141263500Y-107328431D01*
X141294942Y-107607494D01*
X141294945Y-107607512D01*
X141357439Y-107881317D01*
X141357443Y-107881329D01*
X141450200Y-108146411D01*
X141572053Y-108399442D01*
X141572055Y-108399445D01*
X141721477Y-108637248D01*
X141896584Y-108856825D01*
X142095175Y-109055416D01*
X142314752Y-109230523D01*
X142552555Y-109379945D01*
X142805592Y-109501801D01*
X143004680Y-109571465D01*
X143070670Y-109594556D01*
X143070682Y-109594560D01*
X143344491Y-109657055D01*
X143344497Y-109657055D01*
X143344505Y-109657057D01*
X143530547Y-109678018D01*
X143623569Y-109688499D01*
X143623572Y-109688500D01*
X143623575Y-109688500D01*
X143904428Y-109688500D01*
X143904429Y-109688499D01*
X144047055Y-109672429D01*
X144183494Y-109657057D01*
X144183499Y-109657056D01*
X144183509Y-109657055D01*
X144457318Y-109594560D01*
X144722408Y-109501801D01*
X144975445Y-109379945D01*
X145213248Y-109230523D01*
X145432825Y-109055416D01*
X145631416Y-108856825D01*
X145806523Y-108637248D01*
X145955945Y-108399445D01*
X146077801Y-108146408D01*
X146170560Y-107881318D01*
X146233055Y-107607509D01*
X146264500Y-107328425D01*
X146264500Y-107047575D01*
X146233055Y-106768491D01*
X146170560Y-106494682D01*
X146077801Y-106229592D01*
X145955945Y-105976555D01*
X145806523Y-105738752D01*
X145631416Y-105519175D01*
X145432825Y-105320584D01*
X145213248Y-105145477D01*
X144975445Y-104996055D01*
X144975442Y-104996053D01*
X144722411Y-104874200D01*
X144457329Y-104781443D01*
X144457317Y-104781439D01*
X144183512Y-104718945D01*
X144183494Y-104718942D01*
X143904431Y-104687500D01*
X143904425Y-104687500D01*
X143623575Y-104687500D01*
X143623568Y-104687500D01*
X143344505Y-104718942D01*
X143344487Y-104718945D01*
X143070682Y-104781439D01*
X143070670Y-104781443D01*
X142805588Y-104874200D01*
X142552557Y-104996053D01*
X142314753Y-105145476D01*
X142095175Y-105320583D01*
X141896583Y-105519175D01*
X141721476Y-105738753D01*
X141572053Y-105976557D01*
X141450200Y-106229588D01*
X141357443Y-106494670D01*
X141357439Y-106494682D01*
X141294945Y-106768487D01*
X141294942Y-106768505D01*
X141263500Y-107047568D01*
X130548500Y-107047568D01*
X130548500Y-82047568D01*
X141263500Y-82047568D01*
X141263500Y-82328431D01*
X141294942Y-82607494D01*
X141294945Y-82607512D01*
X141357439Y-82881317D01*
X141357443Y-82881329D01*
X141450200Y-83146411D01*
X141572053Y-83399442D01*
X141572055Y-83399445D01*
X141721477Y-83637248D01*
X141896584Y-83856825D01*
X142095175Y-84055416D01*
X142314752Y-84230523D01*
X142552555Y-84379945D01*
X142805592Y-84501801D01*
X143004680Y-84571465D01*
X143070670Y-84594556D01*
X143070682Y-84594560D01*
X143344491Y-84657055D01*
X143344497Y-84657055D01*
X143344505Y-84657057D01*
X143530547Y-84678018D01*
X143623569Y-84688499D01*
X143623572Y-84688500D01*
X143623575Y-84688500D01*
X143904428Y-84688500D01*
X143904429Y-84688499D01*
X144047055Y-84672429D01*
X144183494Y-84657057D01*
X144183499Y-84657056D01*
X144183509Y-84657055D01*
X144457318Y-84594560D01*
X144722408Y-84501801D01*
X144975445Y-84379945D01*
X145213248Y-84230523D01*
X145432825Y-84055416D01*
X145631416Y-83856825D01*
X145806523Y-83637248D01*
X145955945Y-83399445D01*
X146077801Y-83146408D01*
X146170560Y-82881318D01*
X146233055Y-82607509D01*
X146264500Y-82328425D01*
X146264500Y-82047575D01*
X146233055Y-81768491D01*
X146170560Y-81494682D01*
X146077801Y-81229592D01*
X145955945Y-80976555D01*
X145806523Y-80738752D01*
X145631416Y-80519175D01*
X145432825Y-80320584D01*
X145213248Y-80145477D01*
X144975445Y-79996055D01*
X144975442Y-79996053D01*
X144722411Y-79874200D01*
X144457329Y-79781443D01*
X144457317Y-79781439D01*
X144183512Y-79718945D01*
X144183494Y-79718942D01*
X143904431Y-79687500D01*
X143904425Y-79687500D01*
X143623575Y-79687500D01*
X143623568Y-79687500D01*
X143344505Y-79718942D01*
X143344487Y-79718945D01*
X143070682Y-79781439D01*
X143070670Y-79781443D01*
X142805588Y-79874200D01*
X142552557Y-79996053D01*
X142314753Y-80145476D01*
X142095175Y-80320583D01*
X141896583Y-80519175D01*
X141721476Y-80738753D01*
X141572053Y-80976557D01*
X141450200Y-81229588D01*
X141357443Y-81494670D01*
X141357439Y-81494682D01*
X141294945Y-81768487D01*
X141294942Y-81768505D01*
X141263500Y-82047568D01*
X130548500Y-82047568D01*
X130548500Y-75623448D01*
X135675500Y-75623448D01*
X135675500Y-75804551D01*
X135703829Y-75983410D01*
X135759787Y-76155636D01*
X135759788Y-76155639D01*
X135842006Y-76316997D01*
X135948441Y-76463494D01*
X135948445Y-76463499D01*
X136076500Y-76591554D01*
X136076505Y-76591558D01*
X136204287Y-76684396D01*
X136223006Y-76697996D01*
X136318840Y-76746826D01*
X136384360Y-76780211D01*
X136384363Y-76780212D01*
X136470476Y-76808191D01*
X136556591Y-76836171D01*
X136639429Y-76849291D01*
X136735449Y-76864500D01*
X136735454Y-76864500D01*
X136916551Y-76864500D01*
X137003259Y-76850765D01*
X137095409Y-76836171D01*
X137267639Y-76780211D01*
X137428994Y-76697996D01*
X137575501Y-76591553D01*
X137703553Y-76463501D01*
X137781964Y-76355577D01*
X138195500Y-76355577D01*
X138195500Y-76552422D01*
X138226290Y-76746826D01*
X138287117Y-76934029D01*
X138376475Y-77109403D01*
X138376476Y-77109405D01*
X138492172Y-77268646D01*
X138631354Y-77407828D01*
X138790595Y-77523524D01*
X138873455Y-77565743D01*
X138965970Y-77612882D01*
X138965972Y-77612882D01*
X138965975Y-77612884D01*
X139066317Y-77645487D01*
X139153173Y-77673709D01*
X139347578Y-77704500D01*
X139347583Y-77704500D01*
X139544422Y-77704500D01*
X139738826Y-77673709D01*
X139926025Y-77612884D01*
X140101405Y-77523524D01*
X140260646Y-77407828D01*
X140399828Y-77268646D01*
X140515524Y-77109405D01*
X140604884Y-76934025D01*
X140605515Y-76932787D01*
X140653489Y-76881990D01*
X140721310Y-76865195D01*
X140787445Y-76887732D01*
X140826485Y-76932787D01*
X140916474Y-77109403D01*
X140951234Y-77157246D01*
X141032172Y-77268646D01*
X141171354Y-77407828D01*
X141330595Y-77523524D01*
X141413455Y-77565743D01*
X141505970Y-77612882D01*
X141505972Y-77612882D01*
X141505975Y-77612884D01*
X141606317Y-77645487D01*
X141693173Y-77673709D01*
X141887578Y-77704500D01*
X141887583Y-77704500D01*
X142084422Y-77704500D01*
X142278826Y-77673709D01*
X142466025Y-77612884D01*
X142641405Y-77523524D01*
X142800646Y-77407828D01*
X142939828Y-77268646D01*
X143055524Y-77109405D01*
X143144884Y-76934025D01*
X143145515Y-76932787D01*
X143193489Y-76881990D01*
X143261310Y-76865195D01*
X143327445Y-76887732D01*
X143366485Y-76932787D01*
X143456474Y-77109403D01*
X143491234Y-77157246D01*
X143572172Y-77268646D01*
X143711354Y-77407828D01*
X143870595Y-77523524D01*
X143953455Y-77565743D01*
X144045970Y-77612882D01*
X144045972Y-77612882D01*
X144045975Y-77612884D01*
X144146317Y-77645487D01*
X144233173Y-77673709D01*
X144427578Y-77704500D01*
X144427583Y-77704500D01*
X144624422Y-77704500D01*
X144818826Y-77673709D01*
X145006025Y-77612884D01*
X145181405Y-77523524D01*
X145340646Y-77407828D01*
X145479828Y-77268646D01*
X145595524Y-77109405D01*
X145684884Y-76934025D01*
X145685515Y-76932787D01*
X145733489Y-76881990D01*
X145801310Y-76865195D01*
X145867445Y-76887732D01*
X145906485Y-76932787D01*
X145996474Y-77109403D01*
X146031234Y-77157246D01*
X146112172Y-77268646D01*
X146251354Y-77407828D01*
X146410595Y-77523524D01*
X146493455Y-77565743D01*
X146585970Y-77612882D01*
X146585972Y-77612882D01*
X146585975Y-77612884D01*
X146686317Y-77645487D01*
X146773173Y-77673709D01*
X146967578Y-77704500D01*
X146967583Y-77704500D01*
X147164422Y-77704500D01*
X147358826Y-77673709D01*
X147546025Y-77612884D01*
X147721405Y-77523524D01*
X147880646Y-77407828D01*
X148019828Y-77268646D01*
X148135524Y-77109405D01*
X148224884Y-76934025D01*
X148285709Y-76746826D01*
X148310301Y-76591558D01*
X148316500Y-76552422D01*
X148316500Y-76355577D01*
X148285709Y-76161173D01*
X148239925Y-76020267D01*
X148224884Y-75973975D01*
X148224882Y-75973972D01*
X148224882Y-75973970D01*
X148177743Y-75881455D01*
X148135524Y-75798595D01*
X148019828Y-75639354D01*
X147880646Y-75500172D01*
X147721405Y-75384476D01*
X147681892Y-75364343D01*
X147546029Y-75295117D01*
X147358826Y-75234290D01*
X147164422Y-75203500D01*
X147164417Y-75203500D01*
X146967583Y-75203500D01*
X146967578Y-75203500D01*
X146773173Y-75234290D01*
X146585970Y-75295117D01*
X146410594Y-75384476D01*
X146327857Y-75444589D01*
X146251354Y-75500172D01*
X146251352Y-75500174D01*
X146251351Y-75500174D01*
X146112174Y-75639351D01*
X146112174Y-75639352D01*
X146112172Y-75639354D01*
X146062485Y-75707741D01*
X145996476Y-75798594D01*
X145906485Y-75975213D01*
X145858511Y-76026009D01*
X145790690Y-76042804D01*
X145724555Y-76020267D01*
X145685515Y-75975213D01*
X145658397Y-75921992D01*
X145595524Y-75798595D01*
X145479828Y-75639354D01*
X145340646Y-75500172D01*
X145181405Y-75384476D01*
X145141892Y-75364343D01*
X145006029Y-75295117D01*
X144818826Y-75234290D01*
X144624422Y-75203500D01*
X144624417Y-75203500D01*
X144427583Y-75203500D01*
X144427578Y-75203500D01*
X144233173Y-75234290D01*
X144045970Y-75295117D01*
X143870594Y-75384476D01*
X143787857Y-75444589D01*
X143711354Y-75500172D01*
X143711352Y-75500174D01*
X143711351Y-75500174D01*
X143572174Y-75639351D01*
X143572174Y-75639352D01*
X143572172Y-75639354D01*
X143522485Y-75707741D01*
X143456476Y-75798594D01*
X143366485Y-75975213D01*
X143318511Y-76026009D01*
X143250690Y-76042804D01*
X143184555Y-76020267D01*
X143145515Y-75975213D01*
X143118397Y-75921992D01*
X143055524Y-75798595D01*
X142939828Y-75639354D01*
X142800646Y-75500172D01*
X142641405Y-75384476D01*
X142601892Y-75364343D01*
X142466029Y-75295117D01*
X142278826Y-75234290D01*
X142084422Y-75203500D01*
X142084417Y-75203500D01*
X141887583Y-75203500D01*
X141887578Y-75203500D01*
X141693173Y-75234290D01*
X141505970Y-75295117D01*
X141330594Y-75384476D01*
X141247857Y-75444589D01*
X141171354Y-75500172D01*
X141171352Y-75500174D01*
X141171351Y-75500174D01*
X141032174Y-75639351D01*
X141032174Y-75639352D01*
X141032172Y-75639354D01*
X140982485Y-75707741D01*
X140916476Y-75798594D01*
X140826485Y-75975213D01*
X140778511Y-76026009D01*
X140710690Y-76042804D01*
X140644555Y-76020267D01*
X140605515Y-75975213D01*
X140578397Y-75921992D01*
X140515524Y-75798595D01*
X140399828Y-75639354D01*
X140260646Y-75500172D01*
X140101405Y-75384476D01*
X140061892Y-75364343D01*
X139926029Y-75295117D01*
X139738826Y-75234290D01*
X139544422Y-75203500D01*
X139544417Y-75203500D01*
X139347583Y-75203500D01*
X139347578Y-75203500D01*
X139153173Y-75234290D01*
X138965970Y-75295117D01*
X138790594Y-75384476D01*
X138707857Y-75444589D01*
X138631354Y-75500172D01*
X138631352Y-75500174D01*
X138631351Y-75500174D01*
X138492174Y-75639351D01*
X138492174Y-75639352D01*
X138492172Y-75639354D01*
X138442485Y-75707741D01*
X138376476Y-75798594D01*
X138287117Y-75973970D01*
X138226290Y-76161173D01*
X138195500Y-76355577D01*
X137781964Y-76355577D01*
X137809996Y-76316994D01*
X137892211Y-76155639D01*
X137948171Y-75983409D01*
X137962765Y-75891259D01*
X137976500Y-75804551D01*
X137976500Y-75623448D01*
X137948171Y-75444590D01*
X137907735Y-75320141D01*
X137905740Y-75250300D01*
X137941820Y-75190467D01*
X138004521Y-75159639D01*
X138045065Y-75159350D01*
X138077579Y-75164500D01*
X138077583Y-75164500D01*
X138274422Y-75164500D01*
X138468826Y-75133709D01*
X138656025Y-75072884D01*
X138831405Y-74983524D01*
X138990646Y-74867828D01*
X139129828Y-74728646D01*
X139245524Y-74569405D01*
X139312603Y-74437754D01*
X139335515Y-74392787D01*
X139383489Y-74341990D01*
X139451310Y-74325195D01*
X139517445Y-74347732D01*
X139556485Y-74392787D01*
X139646474Y-74569403D01*
X139662768Y-74591829D01*
X139762172Y-74728646D01*
X139901354Y-74867828D01*
X140060595Y-74983524D01*
X140143455Y-75025743D01*
X140235970Y-75072882D01*
X140235972Y-75072882D01*
X140235975Y-75072884D01*
X140275785Y-75085819D01*
X140423173Y-75133709D01*
X140617578Y-75164500D01*
X140617583Y-75164500D01*
X140814422Y-75164500D01*
X141008826Y-75133709D01*
X141196025Y-75072884D01*
X141371405Y-74983524D01*
X141530646Y-74867828D01*
X141669828Y-74728646D01*
X141785524Y-74569405D01*
X141852603Y-74437754D01*
X141875515Y-74392787D01*
X141923489Y-74341990D01*
X141991310Y-74325195D01*
X142057445Y-74347732D01*
X142096485Y-74392787D01*
X142186474Y-74569403D01*
X142202768Y-74591829D01*
X142302172Y-74728646D01*
X142441354Y-74867828D01*
X142600595Y-74983524D01*
X142683455Y-75025743D01*
X142775970Y-75072882D01*
X142775972Y-75072882D01*
X142775975Y-75072884D01*
X142815785Y-75085819D01*
X142963173Y-75133709D01*
X143157578Y-75164500D01*
X143157583Y-75164500D01*
X143354422Y-75164500D01*
X143548826Y-75133709D01*
X143736025Y-75072884D01*
X143911405Y-74983524D01*
X144070646Y-74867828D01*
X144209828Y-74728646D01*
X144325524Y-74569405D01*
X144392603Y-74437754D01*
X144415515Y-74392787D01*
X144463489Y-74341990D01*
X144531310Y-74325195D01*
X144597445Y-74347732D01*
X144636485Y-74392787D01*
X144726474Y-74569403D01*
X144742768Y-74591829D01*
X144842172Y-74728646D01*
X144981354Y-74867828D01*
X145140595Y-74983524D01*
X145223455Y-75025743D01*
X145315970Y-75072882D01*
X145315972Y-75072882D01*
X145315975Y-75072884D01*
X145355785Y-75085819D01*
X145503173Y-75133709D01*
X145697578Y-75164500D01*
X145697583Y-75164500D01*
X145894422Y-75164500D01*
X146088826Y-75133709D01*
X146276025Y-75072884D01*
X146451405Y-74983524D01*
X146610646Y-74867828D01*
X146749828Y-74728646D01*
X146865524Y-74569405D01*
X146932603Y-74437754D01*
X146955515Y-74392787D01*
X147003489Y-74341990D01*
X147071310Y-74325195D01*
X147137445Y-74347732D01*
X147176485Y-74392787D01*
X147266474Y-74569403D01*
X147282768Y-74591829D01*
X147382172Y-74728646D01*
X147521354Y-74867828D01*
X147680595Y-74983524D01*
X147763455Y-75025743D01*
X147855970Y-75072882D01*
X147855972Y-75072882D01*
X147855975Y-75072884D01*
X147895785Y-75085819D01*
X148043173Y-75133709D01*
X148237578Y-75164500D01*
X148237583Y-75164500D01*
X148434422Y-75164500D01*
X148628826Y-75133709D01*
X148816025Y-75072884D01*
X148835394Y-75063014D01*
X148891689Y-75049500D01*
X149714299Y-75049500D01*
X149781338Y-75069185D01*
X149801980Y-75085819D01*
X150019181Y-75303020D01*
X150052666Y-75364343D01*
X150055500Y-75390701D01*
X150055500Y-94667299D01*
X150035815Y-94734338D01*
X150019181Y-94754980D01*
X148487980Y-96286181D01*
X148426657Y-96319666D01*
X148400299Y-96322500D01*
X146214211Y-96322500D01*
X146193790Y-96316503D01*
X146172541Y-96315289D01*
X146151070Y-96303959D01*
X146147172Y-96302815D01*
X146141326Y-96298818D01*
X145968590Y-96173318D01*
X145925924Y-96117988D01*
X145919945Y-96048375D01*
X145952551Y-95986580D01*
X145968590Y-95972682D01*
X146022990Y-95933158D01*
X146161510Y-95832517D01*
X146328517Y-95665510D01*
X146467343Y-95474433D01*
X146574568Y-95263992D01*
X146647553Y-95039368D01*
X146665115Y-94928485D01*
X146684500Y-94806097D01*
X146684500Y-94569902D01*
X146647553Y-94336631D01*
X146574566Y-94112003D01*
X146480504Y-93927397D01*
X146467343Y-93901567D01*
X146328517Y-93710490D01*
X146161510Y-93543483D01*
X145970433Y-93404657D01*
X145970432Y-93404656D01*
X145968590Y-93403318D01*
X145925924Y-93347988D01*
X145919945Y-93278375D01*
X145952551Y-93216580D01*
X145968590Y-93202682D01*
X145993062Y-93184902D01*
X146161510Y-93062517D01*
X146328517Y-92895510D01*
X146467343Y-92704433D01*
X146574568Y-92493992D01*
X146647553Y-92269368D01*
X146665115Y-92158485D01*
X146684500Y-92036097D01*
X146684500Y-91799902D01*
X146647553Y-91566631D01*
X146574566Y-91342003D01*
X146479175Y-91154789D01*
X146467343Y-91131567D01*
X146328517Y-90940490D01*
X146161510Y-90773483D01*
X145970433Y-90634657D01*
X145970432Y-90634656D01*
X145968590Y-90633318D01*
X145925924Y-90577988D01*
X145919945Y-90508375D01*
X145952551Y-90446580D01*
X145968590Y-90432682D01*
X145993062Y-90414902D01*
X146161510Y-90292517D01*
X146328517Y-90125510D01*
X146467343Y-89934433D01*
X146574568Y-89723992D01*
X146647553Y-89499368D01*
X146665115Y-89388485D01*
X146684500Y-89266097D01*
X146684500Y-89029902D01*
X146647553Y-88796631D01*
X146574566Y-88572003D01*
X146467342Y-88361566D01*
X146328517Y-88170490D01*
X146161510Y-88003483D01*
X145970433Y-87864657D01*
X145759996Y-87757433D01*
X145535368Y-87684446D01*
X145302097Y-87647500D01*
X145302092Y-87647500D01*
X145065908Y-87647500D01*
X145065903Y-87647500D01*
X144832631Y-87684446D01*
X144608003Y-87757433D01*
X144397566Y-87864657D01*
X144288550Y-87943862D01*
X144206490Y-88003483D01*
X144206488Y-88003485D01*
X144206487Y-88003485D01*
X144039485Y-88170487D01*
X144039485Y-88170488D01*
X144039483Y-88170490D01*
X143979862Y-88252550D01*
X143900657Y-88361566D01*
X143793433Y-88572003D01*
X143720446Y-88796631D01*
X143683500Y-89029902D01*
X143683500Y-89266097D01*
X143715670Y-89469211D01*
X143706715Y-89538505D01*
X143661719Y-89591957D01*
X143594968Y-89612596D01*
X143527654Y-89593871D01*
X143492878Y-89561493D01*
X143488517Y-89555490D01*
X143321512Y-89388485D01*
X143321510Y-89388483D01*
X143130433Y-89249657D01*
X142919996Y-89142433D01*
X142695368Y-89069446D01*
X142462097Y-89032500D01*
X142462092Y-89032500D01*
X142225908Y-89032500D01*
X142225903Y-89032500D01*
X141992631Y-89069446D01*
X141768003Y-89142433D01*
X141557566Y-89249657D01*
X141534939Y-89266097D01*
X141366490Y-89388483D01*
X141366488Y-89388485D01*
X141366487Y-89388485D01*
X141199485Y-89555487D01*
X141199485Y-89555488D01*
X141199483Y-89555490D01*
X141157993Y-89612596D01*
X141074593Y-89727386D01*
X141019263Y-89770051D01*
X140974275Y-89778500D01*
X137970947Y-89778500D01*
X137923498Y-89769062D01*
X137909497Y-89763263D01*
X137909493Y-89763262D01*
X137909488Y-89763260D01*
X137754845Y-89732500D01*
X137754842Y-89732500D01*
X137597158Y-89732500D01*
X137597155Y-89732500D01*
X137442510Y-89763261D01*
X137442498Y-89763264D01*
X137296827Y-89823602D01*
X137296814Y-89823609D01*
X137165711Y-89911210D01*
X137165707Y-89911213D01*
X137054213Y-90022707D01*
X137054210Y-90022711D01*
X136966609Y-90153814D01*
X136966602Y-90153827D01*
X136906264Y-90299498D01*
X136906261Y-90299510D01*
X136875500Y-90454153D01*
X136875500Y-90611846D01*
X136906261Y-90766489D01*
X136906264Y-90766501D01*
X136966602Y-90912172D01*
X136966609Y-90912185D01*
X137054210Y-91043288D01*
X137054213Y-91043292D01*
X137165707Y-91154786D01*
X137165711Y-91154789D01*
X137296814Y-91242390D01*
X137296827Y-91242397D01*
X137405717Y-91287500D01*
X137442503Y-91302737D01*
X137597153Y-91333499D01*
X137597156Y-91333500D01*
X137597158Y-91333500D01*
X137754844Y-91333500D01*
X137754845Y-91333499D01*
X137887136Y-91307185D01*
X137909488Y-91302739D01*
X137909489Y-91302738D01*
X137909497Y-91302737D01*
X137923498Y-91296937D01*
X137970947Y-91287500D01*
X140974275Y-91287500D01*
X141041314Y-91307185D01*
X141074592Y-91338613D01*
X141199483Y-91510510D01*
X141366490Y-91677517D01*
X141534938Y-91799902D01*
X141559410Y-91817682D01*
X141602075Y-91873012D01*
X141608054Y-91942626D01*
X141575448Y-92004421D01*
X141559410Y-92018318D01*
X141557567Y-92019656D01*
X141557567Y-92019657D01*
X141366490Y-92158483D01*
X141366488Y-92158485D01*
X141366487Y-92158485D01*
X141199485Y-92325487D01*
X141199480Y-92325493D01*
X141136350Y-92412385D01*
X141081020Y-92455051D01*
X141036032Y-92463500D01*
X138724947Y-92463500D01*
X138677498Y-92454062D01*
X138663497Y-92448263D01*
X138663493Y-92448262D01*
X138663488Y-92448260D01*
X138508845Y-92417500D01*
X138508842Y-92417500D01*
X138351158Y-92417500D01*
X138351155Y-92417500D01*
X138196510Y-92448261D01*
X138196498Y-92448264D01*
X138050827Y-92508602D01*
X138050814Y-92508609D01*
X137919711Y-92596210D01*
X137919707Y-92596213D01*
X137808213Y-92707707D01*
X137808210Y-92707711D01*
X137720609Y-92838814D01*
X137720602Y-92838827D01*
X137660264Y-92984498D01*
X137660261Y-92984510D01*
X137629500Y-93139153D01*
X137629500Y-93296846D01*
X137660261Y-93451489D01*
X137660264Y-93451501D01*
X137720602Y-93597172D01*
X137720609Y-93597185D01*
X137808210Y-93728288D01*
X137808213Y-93728292D01*
X137919707Y-93839786D01*
X137919711Y-93839789D01*
X138050814Y-93927390D01*
X138050827Y-93927397D01*
X138159717Y-93972500D01*
X138196503Y-93987737D01*
X138351153Y-94018499D01*
X138351156Y-94018500D01*
X138351158Y-94018500D01*
X138508844Y-94018500D01*
X138508845Y-94018499D01*
X138641136Y-93992185D01*
X138663488Y-93987739D01*
X138663489Y-93987738D01*
X138663497Y-93987737D01*
X138677498Y-93981937D01*
X138724947Y-93972500D01*
X140925089Y-93972500D01*
X140992128Y-93992185D01*
X141035574Y-94040205D01*
X141060657Y-94089433D01*
X141199483Y-94280510D01*
X141366490Y-94447517D01*
X141534938Y-94569902D01*
X141559410Y-94587682D01*
X141602075Y-94643012D01*
X141608054Y-94712626D01*
X141575448Y-94774421D01*
X141559410Y-94788318D01*
X141557567Y-94789656D01*
X141557567Y-94789657D01*
X141366490Y-94928483D01*
X141366488Y-94928485D01*
X141366487Y-94928485D01*
X141199484Y-95095488D01*
X141118912Y-95206386D01*
X141063581Y-95249051D01*
X141018594Y-95257500D01*
X139486947Y-95257500D01*
X139439498Y-95248062D01*
X139425497Y-95242263D01*
X139425493Y-95242262D01*
X139425488Y-95242260D01*
X139270845Y-95211500D01*
X139270842Y-95211500D01*
X139113158Y-95211500D01*
X139113155Y-95211500D01*
X138958510Y-95242261D01*
X138958498Y-95242264D01*
X138812827Y-95302602D01*
X138812814Y-95302609D01*
X138681711Y-95390210D01*
X138681707Y-95390213D01*
X138570213Y-95501707D01*
X138570210Y-95501711D01*
X138482609Y-95632814D01*
X138482602Y-95632827D01*
X138422264Y-95778498D01*
X138422261Y-95778510D01*
X138391500Y-95933153D01*
X138391500Y-96090846D01*
X138422261Y-96245489D01*
X138422264Y-96245501D01*
X138482602Y-96391172D01*
X138482609Y-96391185D01*
X138570210Y-96522288D01*
X138570213Y-96522292D01*
X138681707Y-96633786D01*
X138681711Y-96633789D01*
X138812814Y-96721390D01*
X138812827Y-96721397D01*
X138921717Y-96766500D01*
X138958503Y-96781737D01*
X139113153Y-96812499D01*
X139113156Y-96812500D01*
X139113158Y-96812500D01*
X139270844Y-96812500D01*
X139270845Y-96812499D01*
X139403136Y-96786185D01*
X139425488Y-96781739D01*
X139425489Y-96781738D01*
X139425497Y-96781737D01*
X139439498Y-96775937D01*
X139486947Y-96766500D01*
X140937318Y-96766500D01*
X141004357Y-96786185D01*
X141047803Y-96834206D01*
X141060655Y-96859431D01*
X141102365Y-96916839D01*
X141199483Y-97050510D01*
X141366490Y-97217517D01*
X141534938Y-97339902D01*
X141559410Y-97357682D01*
X141602075Y-97413012D01*
X141608054Y-97482626D01*
X141575448Y-97544421D01*
X141559410Y-97558318D01*
X141557567Y-97559656D01*
X141557567Y-97559657D01*
X141366490Y-97698483D01*
X141366488Y-97698485D01*
X141366487Y-97698485D01*
X141199485Y-97865487D01*
X141199485Y-97865488D01*
X141199483Y-97865490D01*
X141157993Y-97922596D01*
X141060657Y-98056566D01*
X140953433Y-98267003D01*
X140880446Y-98491631D01*
X140843500Y-98724902D01*
X140843500Y-98961097D01*
X140880446Y-99194368D01*
X140953433Y-99418996D01*
X141060657Y-99629433D01*
X141199483Y-99820510D01*
X141366490Y-99987517D01*
X141557567Y-100126343D01*
X141656991Y-100177002D01*
X141768003Y-100233566D01*
X141768005Y-100233566D01*
X141768008Y-100233568D01*
X141888412Y-100272689D01*
X141992631Y-100306553D01*
X142225903Y-100343500D01*
X142225908Y-100343500D01*
X142462097Y-100343500D01*
X142695368Y-100306553D01*
X142919992Y-100233568D01*
X143130433Y-100126343D01*
X143321510Y-99987517D01*
X143488517Y-99820510D01*
X143627343Y-99629433D01*
X143734568Y-99418992D01*
X143807553Y-99194368D01*
X143844500Y-98961097D01*
X143844500Y-98724902D01*
X143812329Y-98521788D01*
X143821283Y-98452495D01*
X143866279Y-98399043D01*
X143933031Y-98378403D01*
X144000345Y-98397128D01*
X144035118Y-98429502D01*
X144039483Y-98435510D01*
X144206490Y-98602517D01*
X144397567Y-98741343D01*
X144496991Y-98792002D01*
X144608003Y-98848566D01*
X144608005Y-98848566D01*
X144608008Y-98848568D01*
X144728412Y-98887689D01*
X144832631Y-98921553D01*
X145065903Y-98958500D01*
X145065908Y-98958500D01*
X145302097Y-98958500D01*
X145535368Y-98921553D01*
X145759992Y-98848568D01*
X145970433Y-98741343D01*
X146141325Y-98617181D01*
X146207132Y-98593702D01*
X146214211Y-98593500D01*
X149011370Y-98593500D01*
X149089824Y-98581073D01*
X149187897Y-98565541D01*
X149316193Y-98523853D01*
X149357881Y-98510309D01*
X149517132Y-98429167D01*
X149661728Y-98324111D01*
X149788111Y-98197728D01*
X152057111Y-95928728D01*
X152112188Y-95852921D01*
X152162167Y-95784132D01*
X152228161Y-95654611D01*
X152243310Y-95624880D01*
X152298541Y-95454897D01*
X152315656Y-95346831D01*
X152326500Y-95278370D01*
X152326500Y-74779629D01*
X152298541Y-74603106D01*
X152298541Y-74603103D01*
X152244815Y-74437754D01*
X152243754Y-74433993D01*
X152225750Y-74398658D01*
X152162167Y-74273868D01*
X152057111Y-74129272D01*
X151930728Y-74002889D01*
X150975728Y-73047889D01*
X150928396Y-73013500D01*
X150831132Y-72942833D01*
X150671885Y-72861692D01*
X150646461Y-72853431D01*
X150618899Y-72844476D01*
X150618897Y-72844475D01*
X150618896Y-72844474D01*
X150528359Y-72815057D01*
X150501897Y-72806459D01*
X150501895Y-72806458D01*
X150501894Y-72806458D01*
X150325370Y-72778500D01*
X150325366Y-72778500D01*
X148891689Y-72778500D01*
X148835394Y-72764985D01*
X148816028Y-72755117D01*
X148628826Y-72694290D01*
X148434422Y-72663500D01*
X148434417Y-72663500D01*
X148237583Y-72663500D01*
X148237578Y-72663500D01*
X148043173Y-72694290D01*
X147855970Y-72755117D01*
X147680594Y-72844476D01*
X147656899Y-72861692D01*
X147521354Y-72960172D01*
X147521352Y-72960174D01*
X147521351Y-72960174D01*
X147382174Y-73099351D01*
X147382174Y-73099352D01*
X147382172Y-73099354D01*
X147332485Y-73167741D01*
X147266476Y-73258594D01*
X147176485Y-73435213D01*
X147128511Y-73486009D01*
X147060690Y-73502804D01*
X146994555Y-73480267D01*
X146955515Y-73435213D01*
X146865523Y-73258594D01*
X146749828Y-73099354D01*
X146610646Y-72960172D01*
X146451405Y-72844476D01*
X146451401Y-72844474D01*
X146276029Y-72755117D01*
X146088826Y-72694290D01*
X145894422Y-72663500D01*
X145894417Y-72663500D01*
X145697583Y-72663500D01*
X145697578Y-72663500D01*
X145503173Y-72694290D01*
X145315970Y-72755117D01*
X145140594Y-72844476D01*
X145116899Y-72861692D01*
X144981354Y-72960172D01*
X144981352Y-72960174D01*
X144981351Y-72960174D01*
X144842174Y-73099351D01*
X144842174Y-73099352D01*
X144842172Y-73099354D01*
X144792485Y-73167741D01*
X144726476Y-73258594D01*
X144636485Y-73435213D01*
X144588511Y-73486009D01*
X144520690Y-73502804D01*
X144454555Y-73480267D01*
X144415515Y-73435213D01*
X144325523Y-73258594D01*
X144209828Y-73099354D01*
X144070646Y-72960172D01*
X143911405Y-72844476D01*
X143911401Y-72844474D01*
X143736029Y-72755117D01*
X143548826Y-72694290D01*
X143354422Y-72663500D01*
X143354417Y-72663500D01*
X143157583Y-72663500D01*
X143157578Y-72663500D01*
X142963173Y-72694290D01*
X142775970Y-72755117D01*
X142600594Y-72844476D01*
X142576899Y-72861692D01*
X142441354Y-72960172D01*
X142441352Y-72960174D01*
X142441351Y-72960174D01*
X142302174Y-73099351D01*
X142302174Y-73099352D01*
X142302172Y-73099354D01*
X142252485Y-73167741D01*
X142186476Y-73258594D01*
X142096485Y-73435213D01*
X142048511Y-73486009D01*
X141980690Y-73502804D01*
X141914555Y-73480267D01*
X141875515Y-73435213D01*
X141785523Y-73258594D01*
X141669828Y-73099354D01*
X141530646Y-72960172D01*
X141371405Y-72844476D01*
X141371401Y-72844474D01*
X141196029Y-72755117D01*
X141008826Y-72694290D01*
X140814422Y-72663500D01*
X140814417Y-72663500D01*
X140617583Y-72663500D01*
X140617578Y-72663500D01*
X140423173Y-72694290D01*
X140235970Y-72755117D01*
X140060594Y-72844476D01*
X140036899Y-72861692D01*
X139901354Y-72960172D01*
X139901352Y-72960174D01*
X139901351Y-72960174D01*
X139762174Y-73099351D01*
X139762174Y-73099352D01*
X139762172Y-73099354D01*
X139712485Y-73167741D01*
X139646476Y-73258594D01*
X139556485Y-73435213D01*
X139508511Y-73486009D01*
X139440690Y-73502804D01*
X139374555Y-73480267D01*
X139335515Y-73435213D01*
X139245523Y-73258594D01*
X139129828Y-73099354D01*
X138990646Y-72960172D01*
X138831405Y-72844476D01*
X138831401Y-72844474D01*
X138656029Y-72755117D01*
X138468826Y-72694290D01*
X138274422Y-72663500D01*
X138274417Y-72663500D01*
X138077583Y-72663500D01*
X138077578Y-72663500D01*
X137883173Y-72694290D01*
X137695970Y-72755117D01*
X137520594Y-72844476D01*
X137496899Y-72861692D01*
X137361354Y-72960172D01*
X137361352Y-72960174D01*
X137361351Y-72960174D01*
X137222174Y-73099351D01*
X137222174Y-73099352D01*
X137222172Y-73099354D01*
X137172485Y-73167741D01*
X137106476Y-73258594D01*
X137017117Y-73433970D01*
X136956290Y-73621173D01*
X136925500Y-73815577D01*
X136925500Y-74012422D01*
X136956290Y-74206826D01*
X136978074Y-74273867D01*
X137017116Y-74394025D01*
X137017117Y-74394028D01*
X137018622Y-74398658D01*
X137017062Y-74399164D01*
X137023765Y-74461519D01*
X136992489Y-74523998D01*
X136932400Y-74559649D01*
X136901736Y-74563500D01*
X136735449Y-74563500D01*
X136556589Y-74591829D01*
X136384363Y-74647787D01*
X136384360Y-74647788D01*
X136223002Y-74730006D01*
X136076505Y-74836441D01*
X136076500Y-74836445D01*
X135948445Y-74964500D01*
X135948441Y-74964505D01*
X135842006Y-75111002D01*
X135759788Y-75272360D01*
X135759787Y-75272363D01*
X135703829Y-75444589D01*
X135675500Y-75623448D01*
X130548500Y-75623448D01*
X130548500Y-72252500D01*
X130568185Y-72185461D01*
X130620989Y-72139706D01*
X130672500Y-72128500D01*
X152537500Y-72128500D01*
X152604539Y-72148185D01*
G37*
%TD.AperFunction*%
%TD*%
M02*
