ISO-10303-21;
HEADER;
/* Generated by software containing ST-Developer
 * from STEP Tools, Inc. (www.steptools.com) 
 */

FILE_DESCRIPTION(
/* description */ (''),
/* implementation_level */ '2;1');

FILE_NAME(
/* name */ 'Solarpanel holder - Part B_V2.step',
/* time_stamp */ '2026-08-15T10:06:17+02:00',
/* author */ (''),
/* organization */ (''),
/* preprocessor_version */ 'ST-DEVELOPER v20.1',
/* originating_system */ 'Autodesk Translation Framework v15.8.0.0',
/* authorisation */ '');

FILE_SCHEMA (('AUTOMOTIVE_DESIGN { 1 0 10303 214 3 1 1 }'));
ENDSEC;

DATA;
#10=MECHANICAL_DESIGN_GEOMETRIC_PRESENTATION_REPRESENTATION('',(#13),#1246);
#11=SHAPE_REPRESENTATION_RELATIONSHIP('SRR','None',#1253,#12);
#12=ADVANCED_BREP_SHAPE_REPRESENTATION('',(#14),#1245);
#13=STYLED_ITEM('',(#1262),#14);
#14=MANIFOLD_SOLID_BREP('Body1',#758);
#15=FACE_BOUND('',#112,.T.);
#16=FACE_BOUND('',#113,.T.);
#17=FACE_BOUND('',#114,.T.);
#18=FACE_BOUND('',#116,.T.);
#19=FACE_BOUND('',#117,.T.);
#20=FACE_BOUND('',#118,.T.);
#21=B_SPLINE_CURVE_WITH_KNOTS('',3,(#1206,#1207,#1208,#1209,#1210,#1211,
#1212),.UNSPECIFIED.,.F.,.F.,(4,3,4),(0.,1.17745306715874,1.5707963267949),
 .UNSPECIFIED.);
#22=B_SPLINE_CURVE_WITH_KNOTS('',3,(#1213,#1214,#1215,#1216,#1217,#1218,
#1219),.UNSPECIFIED.,.F.,.F.,(4,3,4),(-1.5707963267949,-1.17745306715874,
0.),.UNSPECIFIED.);
#23=B_SPLINE_SURFACE_WITH_KNOTS('',3,1,((#1192,#1193),(#1194,#1195),(#1196,
#1197),(#1198,#1199),(#1200,#1201),(#1202,#1203),(#1204,#1205)),
 .UNSPECIFIED.,.F.,.F.,.F.,(4,3,4),(2,2),(-1.5707963267949,-1.17745306715874,
0.),(0.,0.2),.UNSPECIFIED.);
#24=CIRCLE('',#799,10.);
#25=CIRCLE('',#800,10.);
#26=CIRCLE('',#802,15.);
#27=CIRCLE('',#803,15.);
#28=CIRCLE('',#805,20.);
#29=CIRCLE('',#806,20.);
#30=CIRCLE('',#808,1.99999999999999);
#31=CIRCLE('',#809,1.99999999999999);
#32=CIRCLE('',#813,2.);
#33=CIRCLE('',#814,2.);
#34=CYLINDRICAL_SURFACE('',#798,10.);
#35=CYLINDRICAL_SURFACE('',#801,15.);
#36=CYLINDRICAL_SURFACE('',#804,20.);
#37=CYLINDRICAL_SURFACE('',#807,1.99999999999999);
#38=CYLINDRICAL_SURFACE('',#812,2.);
#39=FACE_OUTER_BOUND('',#76,.T.);
#40=FACE_OUTER_BOUND('',#77,.T.);
#41=FACE_OUTER_BOUND('',#78,.T.);
#42=FACE_OUTER_BOUND('',#79,.T.);
#43=FACE_OUTER_BOUND('',#80,.T.);
#44=FACE_OUTER_BOUND('',#81,.T.);
#45=FACE_OUTER_BOUND('',#82,.T.);
#46=FACE_OUTER_BOUND('',#83,.T.);
#47=FACE_OUTER_BOUND('',#84,.T.);
#48=FACE_OUTER_BOUND('',#85,.T.);
#49=FACE_OUTER_BOUND('',#86,.T.);
#50=FACE_OUTER_BOUND('',#87,.T.);
#51=FACE_OUTER_BOUND('',#88,.T.);
#52=FACE_OUTER_BOUND('',#89,.T.);
#53=FACE_OUTER_BOUND('',#90,.T.);
#54=FACE_OUTER_BOUND('',#91,.T.);
#55=FACE_OUTER_BOUND('',#92,.T.);
#56=FACE_OUTER_BOUND('',#93,.T.);
#57=FACE_OUTER_BOUND('',#94,.T.);
#58=FACE_OUTER_BOUND('',#95,.T.);
#59=FACE_OUTER_BOUND('',#96,.T.);
#60=FACE_OUTER_BOUND('',#97,.T.);
#61=FACE_OUTER_BOUND('',#98,.T.);
#62=FACE_OUTER_BOUND('',#99,.T.);
#63=FACE_OUTER_BOUND('',#100,.T.);
#64=FACE_OUTER_BOUND('',#101,.T.);
#65=FACE_OUTER_BOUND('',#102,.T.);
#66=FACE_OUTER_BOUND('',#103,.T.);
#67=FACE_OUTER_BOUND('',#104,.T.);
#68=FACE_OUTER_BOUND('',#105,.T.);
#69=FACE_OUTER_BOUND('',#106,.T.);
#70=FACE_OUTER_BOUND('',#107,.T.);
#71=FACE_OUTER_BOUND('',#108,.T.);
#72=FACE_OUTER_BOUND('',#109,.T.);
#73=FACE_OUTER_BOUND('',#110,.T.);
#74=FACE_OUTER_BOUND('',#111,.T.);
#75=FACE_OUTER_BOUND('',#115,.T.);
#76=EDGE_LOOP('',(#480,#481,#482,#483));
#77=EDGE_LOOP('',(#484,#485,#486,#487));
#78=EDGE_LOOP('',(#488,#489,#490,#491));
#79=EDGE_LOOP('',(#492,#493,#494,#495));
#80=EDGE_LOOP('',(#496,#497,#498,#499));
#81=EDGE_LOOP('',(#500,#501,#502,#503));
#82=EDGE_LOOP('',(#504,#505,#506,#507));
#83=EDGE_LOOP('',(#508,#509,#510,#511));
#84=EDGE_LOOP('',(#512,#513,#514,#515));
#85=EDGE_LOOP('',(#516,#517,#518,#519));
#86=EDGE_LOOP('',(#520,#521,#522,#523));
#87=EDGE_LOOP('',(#524,#525,#526,#527));
#88=EDGE_LOOP('',(#528,#529,#530,#531));
#89=EDGE_LOOP('',(#532,#533,#534,#535));
#90=EDGE_LOOP('',(#536,#537,#538,#539));
#91=EDGE_LOOP('',(#540,#541,#542,#543));
#92=EDGE_LOOP('',(#544,#545,#546,#547));
#93=EDGE_LOOP('',(#548,#549,#550,#551));
#94=EDGE_LOOP('',(#552,#553,#554,#555));
#95=EDGE_LOOP('',(#556,#557,#558,#559));
#96=EDGE_LOOP('',(#560,#561,#562,#563));
#97=EDGE_LOOP('',(#564,#565,#566,#567));
#98=EDGE_LOOP('',(#568,#569,#570,#571));
#99=EDGE_LOOP('',(#572,#573,#574,#575));
#100=EDGE_LOOP('',(#576,#577,#578,#579));
#101=EDGE_LOOP('',(#580,#581,#582,#583));
#102=EDGE_LOOP('',(#584,#585,#586,#587));
#103=EDGE_LOOP('',(#588,#589,#590,#591));
#104=EDGE_LOOP('',(#592,#593,#594,#595));
#105=EDGE_LOOP('',(#596,#597,#598,#599));
#106=EDGE_LOOP('',(#600,#601,#602,#603));
#107=EDGE_LOOP('',(#604,#605,#606,#607));
#108=EDGE_LOOP('',(#608,#609,#610,#611));
#109=EDGE_LOOP('',(#612,#613,#614,#615));
#110=EDGE_LOOP('',(#616,#617,#618,#619));
#111=EDGE_LOOP('',(#620,#621,#622,#623,#624,#625,#626,#627,#628,#629,#630,
#631,#632,#633,#634,#635,#636,#637,#638,#639,#640,#641,#642,#643,#644,#645,
#646,#647,#648,#649,#650,#651));
#112=EDGE_LOOP('',(#652));
#113=EDGE_LOOP('',(#653));
#114=EDGE_LOOP('',(#654));
#115=EDGE_LOOP('',(#655,#656,#657,#658,#659,#660,#661,#662,#663,#664,#665,
#666,#667,#668,#669,#670,#671,#672,#673,#674,#675,#676,#677,#678,#679,#680,
#681,#682,#683,#684,#685,#686));
#116=EDGE_LOOP('',(#687));
#117=EDGE_LOOP('',(#688));
#118=EDGE_LOOP('',(#689));
#119=LINE('',#1009,#212);
#120=LINE('',#1011,#213);
#121=LINE('',#1013,#214);
#122=LINE('',#1014,#215);
#123=LINE('',#1017,#216);
#124=LINE('',#1019,#217);
#125=LINE('',#1020,#218);
#126=LINE('',#1023,#219);
#127=LINE('',#1025,#220);
#128=LINE('',#1026,#221);
#129=LINE('',#1029,#222);
#130=LINE('',#1031,#223);
#131=LINE('',#1032,#224);
#132=LINE('',#1035,#225);
#133=LINE('',#1037,#226);
#134=LINE('',#1038,#227);
#135=LINE('',#1042,#228);
#136=LINE('',#1044,#229);
#137=LINE('',#1046,#230);
#138=LINE('',#1047,#231);
#139=LINE('',#1050,#232);
#140=LINE('',#1052,#233);
#141=LINE('',#1053,#234);
#142=LINE('',#1055,#235);
#143=LINE('',#1056,#236);
#144=LINE('',#1059,#237);
#145=LINE('',#1061,#238);
#146=LINE('',#1062,#239);
#147=LINE('',#1066,#240);
#148=LINE('',#1068,#241);
#149=LINE('',#1070,#242);
#150=LINE('',#1071,#243);
#151=LINE('',#1074,#244);
#152=LINE('',#1076,#245);
#153=LINE('',#1077,#246);
#154=LINE('',#1080,#247);
#155=LINE('',#1082,#248);
#156=LINE('',#1083,#249);
#157=LINE('',#1086,#250);
#158=LINE('',#1088,#251);
#159=LINE('',#1089,#252);
#160=LINE('',#1092,#253);
#161=LINE('',#1094,#254);
#162=LINE('',#1095,#255);
#163=LINE('',#1099,#256);
#164=LINE('',#1101,#257);
#165=LINE('',#1103,#258);
#166=LINE('',#1104,#259);
#167=LINE('',#1107,#260);
#168=LINE('',#1109,#261);
#169=LINE('',#1110,#262);
#170=LINE('',#1113,#263);
#171=LINE('',#1115,#264);
#172=LINE('',#1116,#265);
#173=LINE('',#1119,#266);
#174=LINE('',#1121,#267);
#175=LINE('',#1122,#268);
#176=LINE('',#1126,#269);
#177=LINE('',#1128,#270);
#178=LINE('',#1130,#271);
#179=LINE('',#1131,#272);
#180=LINE('',#1135,#273);
#181=LINE('',#1137,#274);
#182=LINE('',#1139,#275);
#183=LINE('',#1140,#276);
#184=LINE('',#1142,#277);
#185=LINE('',#1143,#278);
#186=LINE('',#1145,#279);
#187=LINE('',#1146,#280);
#188=LINE('',#1149,#281);
#189=LINE('',#1151,#282);
#190=LINE('',#1152,#283);
#191=LINE('',#1156,#284);
#192=LINE('',#1158,#285);
#193=LINE('',#1160,#286);
#194=LINE('',#1161,#287);
#195=LINE('',#1164,#288);
#196=LINE('',#1166,#289);
#197=LINE('',#1167,#290);
#198=LINE('',#1169,#291);
#199=LINE('',#1170,#292);
#200=LINE('',#1175,#293);
#201=LINE('',#1181,#294);
#202=LINE('',#1187,#295);
#203=LINE('',#1222,#296);
#204=LINE('',#1224,#297);
#205=LINE('',#1225,#298);
#206=LINE('',#1228,#299);
#207=LINE('',#1230,#300);
#208=LINE('',#1231,#301);
#209=LINE('',#1237,#302);
#210=LINE('',#1239,#303);
#211=LINE('',#1240,#304);
#212=VECTOR('',#822,10.);
#213=VECTOR('',#823,10.);
#214=VECTOR('',#824,10.);
#215=VECTOR('',#825,10.);
#216=VECTOR('',#828,10.);
#217=VECTOR('',#829,10.);
#218=VECTOR('',#830,10.);
#219=VECTOR('',#833,10.);
#220=VECTOR('',#834,10.);
#221=VECTOR('',#835,10.);
#222=VECTOR('',#838,10.);
#223=VECTOR('',#839,10.);
#224=VECTOR('',#840,10.);
#225=VECTOR('',#843,10.);
#226=VECTOR('',#844,10.);
#227=VECTOR('',#845,10.);
#228=VECTOR('',#848,10.);
#229=VECTOR('',#849,10.);
#230=VECTOR('',#850,10.);
#231=VECTOR('',#851,10.);
#232=VECTOR('',#854,10.);
#233=VECTOR('',#855,10.);
#234=VECTOR('',#856,10.);
#235=VECTOR('',#859,10.);
#236=VECTOR('',#860,10.);
#237=VECTOR('',#863,10.);
#238=VECTOR('',#864,10.);
#239=VECTOR('',#865,10.);
#240=VECTOR('',#868,10.);
#241=VECTOR('',#869,10.);
#242=VECTOR('',#870,10.);
#243=VECTOR('',#871,10.);
#244=VECTOR('',#874,10.);
#245=VECTOR('',#875,10.);
#246=VECTOR('',#876,10.);
#247=VECTOR('',#879,10.);
#248=VECTOR('',#880,10.);
#249=VECTOR('',#881,10.);
#250=VECTOR('',#884,10.);
#251=VECTOR('',#885,10.);
#252=VECTOR('',#886,10.);
#253=VECTOR('',#889,10.);
#254=VECTOR('',#890,10.);
#255=VECTOR('',#891,10.);
#256=VECTOR('',#894,10.);
#257=VECTOR('',#895,10.);
#258=VECTOR('',#896,10.);
#259=VECTOR('',#897,10.);
#260=VECTOR('',#900,10.);
#261=VECTOR('',#901,10.);
#262=VECTOR('',#902,10.);
#263=VECTOR('',#905,10.);
#264=VECTOR('',#906,10.);
#265=VECTOR('',#907,10.);
#266=VECTOR('',#910,10.);
#267=VECTOR('',#911,10.);
#268=VECTOR('',#912,10.);
#269=VECTOR('',#915,10.);
#270=VECTOR('',#916,10.);
#271=VECTOR('',#917,10.);
#272=VECTOR('',#918,10.);
#273=VECTOR('',#921,10.);
#274=VECTOR('',#922,10.);
#275=VECTOR('',#923,10.);
#276=VECTOR('',#924,10.);
#277=VECTOR('',#927,10.);
#278=VECTOR('',#928,10.);
#279=VECTOR('',#931,10.);
#280=VECTOR('',#932,10.);
#281=VECTOR('',#935,10.);
#282=VECTOR('',#936,10.);
#283=VECTOR('',#937,10.);
#284=VECTOR('',#940,10.);
#285=VECTOR('',#941,10.);
#286=VECTOR('',#942,10.);
#287=VECTOR('',#943,10.);
#288=VECTOR('',#946,10.);
#289=VECTOR('',#947,10.);
#290=VECTOR('',#948,10.);
#291=VECTOR('',#951,10.);
#292=VECTOR('',#952,10.);
#293=VECTOR('',#957,10.);
#294=VECTOR('',#964,15.);
#295=VECTOR('',#971,20.);
#296=VECTOR('',#982,10.);
#297=VECTOR('',#983,10.);
#298=VECTOR('',#984,10.);
#299=VECTOR('',#987,10.);
#300=VECTOR('',#988,10.);
#301=VECTOR('',#989,10.);
#302=VECTOR('',#996,10.);
#303=VECTOR('',#999,10.);
#304=VECTOR('',#1000,10.);
#305=VERTEX_POINT('',#1007);
#306=VERTEX_POINT('',#1008);
#307=VERTEX_POINT('',#1010);
#308=VERTEX_POINT('',#1012);
#309=VERTEX_POINT('',#1016);
#310=VERTEX_POINT('',#1018);
#311=VERTEX_POINT('',#1022);
#312=VERTEX_POINT('',#1024);
#313=VERTEX_POINT('',#1028);
#314=VERTEX_POINT('',#1030);
#315=VERTEX_POINT('',#1034);
#316=VERTEX_POINT('',#1036);
#317=VERTEX_POINT('',#1040);
#318=VERTEX_POINT('',#1041);
#319=VERTEX_POINT('',#1043);
#320=VERTEX_POINT('',#1045);
#321=VERTEX_POINT('',#1049);
#322=VERTEX_POINT('',#1051);
#323=VERTEX_POINT('',#1058);
#324=VERTEX_POINT('',#1060);
#325=VERTEX_POINT('',#1064);
#326=VERTEX_POINT('',#1065);
#327=VERTEX_POINT('',#1067);
#328=VERTEX_POINT('',#1069);
#329=VERTEX_POINT('',#1073);
#330=VERTEX_POINT('',#1075);
#331=VERTEX_POINT('',#1079);
#332=VERTEX_POINT('',#1081);
#333=VERTEX_POINT('',#1085);
#334=VERTEX_POINT('',#1087);
#335=VERTEX_POINT('',#1091);
#336=VERTEX_POINT('',#1093);
#337=VERTEX_POINT('',#1097);
#338=VERTEX_POINT('',#1098);
#339=VERTEX_POINT('',#1100);
#340=VERTEX_POINT('',#1102);
#341=VERTEX_POINT('',#1106);
#342=VERTEX_POINT('',#1108);
#343=VERTEX_POINT('',#1112);
#344=VERTEX_POINT('',#1114);
#345=VERTEX_POINT('',#1118);
#346=VERTEX_POINT('',#1120);
#347=VERTEX_POINT('',#1124);
#348=VERTEX_POINT('',#1125);
#349=VERTEX_POINT('',#1127);
#350=VERTEX_POINT('',#1129);
#351=VERTEX_POINT('',#1133);
#352=VERTEX_POINT('',#1134);
#353=VERTEX_POINT('',#1136);
#354=VERTEX_POINT('',#1138);
#355=VERTEX_POINT('',#1148);
#356=VERTEX_POINT('',#1150);
#357=VERTEX_POINT('',#1154);
#358=VERTEX_POINT('',#1155);
#359=VERTEX_POINT('',#1157);
#360=VERTEX_POINT('',#1159);
#361=VERTEX_POINT('',#1163);
#362=VERTEX_POINT('',#1165);
#363=VERTEX_POINT('',#1172);
#364=VERTEX_POINT('',#1174);
#365=VERTEX_POINT('',#1178);
#366=VERTEX_POINT('',#1180);
#367=VERTEX_POINT('',#1184);
#368=VERTEX_POINT('',#1186);
#369=VERTEX_POINT('',#1221);
#370=VERTEX_POINT('',#1223);
#371=VERTEX_POINT('',#1227);
#372=VERTEX_POINT('',#1229);
#373=VERTEX_POINT('',#1233);
#374=VERTEX_POINT('',#1235);
#375=EDGE_CURVE('',#305,#306,#119,.T.);
#376=EDGE_CURVE('',#307,#306,#120,.T.);
#377=EDGE_CURVE('',#308,#307,#121,.T.);
#378=EDGE_CURVE('',#305,#308,#122,.T.);
#379=EDGE_CURVE('',#309,#305,#123,.T.);
#380=EDGE_CURVE('',#310,#308,#124,.T.);
#381=EDGE_CURVE('',#309,#310,#125,.T.);
#382=EDGE_CURVE('',#309,#311,#126,.T.);
#383=EDGE_CURVE('',#312,#310,#127,.T.);
#384=EDGE_CURVE('',#311,#312,#128,.T.);
#385=EDGE_CURVE('',#313,#312,#129,.T.);
#386=EDGE_CURVE('',#314,#313,#130,.T.);
#387=EDGE_CURVE('',#314,#311,#131,.T.);
#388=EDGE_CURVE('',#306,#315,#132,.T.);
#389=EDGE_CURVE('',#315,#316,#133,.T.);
#390=EDGE_CURVE('',#307,#316,#134,.T.);
#391=EDGE_CURVE('',#317,#318,#135,.T.);
#392=EDGE_CURVE('',#319,#318,#136,.T.);
#393=EDGE_CURVE('',#320,#319,#137,.T.);
#394=EDGE_CURVE('',#317,#320,#138,.T.);
#395=EDGE_CURVE('',#317,#321,#139,.T.);
#396=EDGE_CURVE('',#322,#320,#140,.T.);
#397=EDGE_CURVE('',#321,#322,#141,.T.);
#398=EDGE_CURVE('',#321,#315,#142,.T.);
#399=EDGE_CURVE('',#316,#322,#143,.T.);
#400=EDGE_CURVE('',#318,#323,#144,.T.);
#401=EDGE_CURVE('',#323,#324,#145,.T.);
#402=EDGE_CURVE('',#319,#324,#146,.T.);
#403=EDGE_CURVE('',#325,#326,#147,.T.);
#404=EDGE_CURVE('',#326,#327,#148,.T.);
#405=EDGE_CURVE('',#328,#327,#149,.T.);
#406=EDGE_CURVE('',#325,#328,#150,.T.);
#407=EDGE_CURVE('',#325,#329,#151,.T.);
#408=EDGE_CURVE('',#330,#328,#152,.T.);
#409=EDGE_CURVE('',#329,#330,#153,.T.);
#410=EDGE_CURVE('',#326,#331,#154,.T.);
#411=EDGE_CURVE('',#332,#331,#155,.T.);
#412=EDGE_CURVE('',#327,#332,#156,.T.);
#413=EDGE_CURVE('',#333,#331,#157,.T.);
#414=EDGE_CURVE('',#333,#334,#158,.T.);
#415=EDGE_CURVE('',#332,#334,#159,.T.);
#416=EDGE_CURVE('',#335,#330,#160,.T.);
#417=EDGE_CURVE('',#336,#335,#161,.T.);
#418=EDGE_CURVE('',#329,#336,#162,.T.);
#419=EDGE_CURVE('',#337,#338,#163,.T.);
#420=EDGE_CURVE('',#339,#338,#164,.T.);
#421=EDGE_CURVE('',#340,#339,#165,.T.);
#422=EDGE_CURVE('',#337,#340,#166,.T.);
#423=EDGE_CURVE('',#337,#341,#167,.T.);
#424=EDGE_CURVE('',#342,#340,#168,.T.);
#425=EDGE_CURVE('',#341,#342,#169,.T.);
#426=EDGE_CURVE('',#341,#343,#170,.T.);
#427=EDGE_CURVE('',#344,#342,#171,.T.);
#428=EDGE_CURVE('',#343,#344,#172,.T.);
#429=EDGE_CURVE('',#345,#344,#173,.T.);
#430=EDGE_CURVE('',#346,#345,#174,.T.);
#431=EDGE_CURVE('',#343,#346,#175,.T.);
#432=EDGE_CURVE('',#347,#348,#176,.T.);
#433=EDGE_CURVE('',#347,#349,#177,.T.);
#434=EDGE_CURVE('',#350,#349,#178,.T.);
#435=EDGE_CURVE('',#348,#350,#179,.T.);
#436=EDGE_CURVE('',#351,#352,#180,.T.);
#437=EDGE_CURVE('',#353,#352,#181,.T.);
#438=EDGE_CURVE('',#354,#353,#182,.T.);
#439=EDGE_CURVE('',#351,#354,#183,.T.);
#440=EDGE_CURVE('',#351,#347,#184,.T.);
#441=EDGE_CURVE('',#349,#354,#185,.T.);
#442=EDGE_CURVE('',#348,#338,#186,.T.);
#443=EDGE_CURVE('',#339,#350,#187,.T.);
#444=EDGE_CURVE('',#355,#352,#188,.T.);
#445=EDGE_CURVE('',#355,#356,#189,.T.);
#446=EDGE_CURVE('',#353,#356,#190,.T.);
#447=EDGE_CURVE('',#357,#358,#191,.T.);
#448=EDGE_CURVE('',#359,#358,#192,.T.);
#449=EDGE_CURVE('',#360,#359,#193,.T.);
#450=EDGE_CURVE('',#357,#360,#194,.T.);
#451=EDGE_CURVE('',#357,#361,#195,.T.);
#452=EDGE_CURVE('',#362,#360,#196,.T.);
#453=EDGE_CURVE('',#361,#362,#197,.T.);
#454=EDGE_CURVE('',#361,#355,#198,.T.);
#455=EDGE_CURVE('',#356,#362,#199,.T.);
#456=EDGE_CURVE('',#363,#363,#24,.T.);
#457=EDGE_CURVE('',#363,#364,#200,.T.);
#458=EDGE_CURVE('',#364,#364,#25,.T.);
#459=EDGE_CURVE('',#365,#365,#26,.T.);
#460=EDGE_CURVE('',#365,#366,#201,.T.);
#461=EDGE_CURVE('',#366,#366,#27,.T.);
#462=EDGE_CURVE('',#367,#367,#28,.T.);
#463=EDGE_CURVE('',#367,#368,#202,.T.);
#464=EDGE_CURVE('',#368,#368,#29,.T.);
#465=EDGE_CURVE('',#333,#346,#30,.T.);
#466=EDGE_CURVE('',#334,#345,#31,.T.);
#467=EDGE_CURVE('',#336,#323,#21,.T.);
#468=EDGE_CURVE('',#324,#335,#22,.T.);
#469=EDGE_CURVE('',#314,#369,#203,.T.);
#470=EDGE_CURVE('',#370,#313,#204,.T.);
#471=EDGE_CURVE('',#369,#370,#205,.T.);
#472=EDGE_CURVE('',#369,#371,#206,.T.);
#473=EDGE_CURVE('',#372,#370,#207,.T.);
#474=EDGE_CURVE('',#371,#372,#208,.T.);
#475=EDGE_CURVE('',#373,#371,#32,.T.);
#476=EDGE_CURVE('',#374,#372,#33,.T.);
#477=EDGE_CURVE('',#373,#374,#209,.T.);
#478=EDGE_CURVE('',#373,#358,#210,.T.);
#479=EDGE_CURVE('',#359,#374,#211,.T.);
#480=ORIENTED_EDGE('',*,*,#375,.T.);
#481=ORIENTED_EDGE('',*,*,#376,.F.);
#482=ORIENTED_EDGE('',*,*,#377,.F.);
#483=ORIENTED_EDGE('',*,*,#378,.F.);
#484=ORIENTED_EDGE('',*,*,#379,.T.);
#485=ORIENTED_EDGE('',*,*,#378,.T.);
#486=ORIENTED_EDGE('',*,*,#380,.F.);
#487=ORIENTED_EDGE('',*,*,#381,.F.);
#488=ORIENTED_EDGE('',*,*,#382,.F.);
#489=ORIENTED_EDGE('',*,*,#381,.T.);
#490=ORIENTED_EDGE('',*,*,#383,.F.);
#491=ORIENTED_EDGE('',*,*,#384,.F.);
#492=ORIENTED_EDGE('',*,*,#384,.T.);
#493=ORIENTED_EDGE('',*,*,#385,.F.);
#494=ORIENTED_EDGE('',*,*,#386,.F.);
#495=ORIENTED_EDGE('',*,*,#387,.T.);
#496=ORIENTED_EDGE('',*,*,#376,.T.);
#497=ORIENTED_EDGE('',*,*,#388,.T.);
#498=ORIENTED_EDGE('',*,*,#389,.T.);
#499=ORIENTED_EDGE('',*,*,#390,.F.);
#500=ORIENTED_EDGE('',*,*,#391,.T.);
#501=ORIENTED_EDGE('',*,*,#392,.F.);
#502=ORIENTED_EDGE('',*,*,#393,.F.);
#503=ORIENTED_EDGE('',*,*,#394,.F.);
#504=ORIENTED_EDGE('',*,*,#395,.F.);
#505=ORIENTED_EDGE('',*,*,#394,.T.);
#506=ORIENTED_EDGE('',*,*,#396,.F.);
#507=ORIENTED_EDGE('',*,*,#397,.F.);
#508=ORIENTED_EDGE('',*,*,#398,.F.);
#509=ORIENTED_EDGE('',*,*,#397,.T.);
#510=ORIENTED_EDGE('',*,*,#399,.F.);
#511=ORIENTED_EDGE('',*,*,#389,.F.);
#512=ORIENTED_EDGE('',*,*,#392,.T.);
#513=ORIENTED_EDGE('',*,*,#400,.T.);
#514=ORIENTED_EDGE('',*,*,#401,.T.);
#515=ORIENTED_EDGE('',*,*,#402,.F.);
#516=ORIENTED_EDGE('',*,*,#403,.T.);
#517=ORIENTED_EDGE('',*,*,#404,.T.);
#518=ORIENTED_EDGE('',*,*,#405,.F.);
#519=ORIENTED_EDGE('',*,*,#406,.F.);
#520=ORIENTED_EDGE('',*,*,#407,.F.);
#521=ORIENTED_EDGE('',*,*,#406,.T.);
#522=ORIENTED_EDGE('',*,*,#408,.F.);
#523=ORIENTED_EDGE('',*,*,#409,.F.);
#524=ORIENTED_EDGE('',*,*,#410,.T.);
#525=ORIENTED_EDGE('',*,*,#411,.F.);
#526=ORIENTED_EDGE('',*,*,#412,.F.);
#527=ORIENTED_EDGE('',*,*,#404,.F.);
#528=ORIENTED_EDGE('',*,*,#411,.T.);
#529=ORIENTED_EDGE('',*,*,#413,.F.);
#530=ORIENTED_EDGE('',*,*,#414,.T.);
#531=ORIENTED_EDGE('',*,*,#415,.F.);
#532=ORIENTED_EDGE('',*,*,#409,.T.);
#533=ORIENTED_EDGE('',*,*,#416,.F.);
#534=ORIENTED_EDGE('',*,*,#417,.F.);
#535=ORIENTED_EDGE('',*,*,#418,.F.);
#536=ORIENTED_EDGE('',*,*,#419,.T.);
#537=ORIENTED_EDGE('',*,*,#420,.F.);
#538=ORIENTED_EDGE('',*,*,#421,.F.);
#539=ORIENTED_EDGE('',*,*,#422,.F.);
#540=ORIENTED_EDGE('',*,*,#423,.F.);
#541=ORIENTED_EDGE('',*,*,#422,.T.);
#542=ORIENTED_EDGE('',*,*,#424,.F.);
#543=ORIENTED_EDGE('',*,*,#425,.F.);
#544=ORIENTED_EDGE('',*,*,#426,.F.);
#545=ORIENTED_EDGE('',*,*,#425,.T.);
#546=ORIENTED_EDGE('',*,*,#427,.F.);
#547=ORIENTED_EDGE('',*,*,#428,.F.);
#548=ORIENTED_EDGE('',*,*,#428,.T.);
#549=ORIENTED_EDGE('',*,*,#429,.F.);
#550=ORIENTED_EDGE('',*,*,#430,.F.);
#551=ORIENTED_EDGE('',*,*,#431,.F.);
#552=ORIENTED_EDGE('',*,*,#432,.F.);
#553=ORIENTED_EDGE('',*,*,#433,.T.);
#554=ORIENTED_EDGE('',*,*,#434,.F.);
#555=ORIENTED_EDGE('',*,*,#435,.F.);
#556=ORIENTED_EDGE('',*,*,#436,.T.);
#557=ORIENTED_EDGE('',*,*,#437,.F.);
#558=ORIENTED_EDGE('',*,*,#438,.F.);
#559=ORIENTED_EDGE('',*,*,#439,.F.);
#560=ORIENTED_EDGE('',*,*,#440,.F.);
#561=ORIENTED_EDGE('',*,*,#439,.T.);
#562=ORIENTED_EDGE('',*,*,#441,.F.);
#563=ORIENTED_EDGE('',*,*,#433,.F.);
#564=ORIENTED_EDGE('',*,*,#420,.T.);
#565=ORIENTED_EDGE('',*,*,#442,.F.);
#566=ORIENTED_EDGE('',*,*,#435,.T.);
#567=ORIENTED_EDGE('',*,*,#443,.F.);
#568=ORIENTED_EDGE('',*,*,#437,.T.);
#569=ORIENTED_EDGE('',*,*,#444,.F.);
#570=ORIENTED_EDGE('',*,*,#445,.T.);
#571=ORIENTED_EDGE('',*,*,#446,.F.);
#572=ORIENTED_EDGE('',*,*,#447,.T.);
#573=ORIENTED_EDGE('',*,*,#448,.F.);
#574=ORIENTED_EDGE('',*,*,#449,.F.);
#575=ORIENTED_EDGE('',*,*,#450,.F.);
#576=ORIENTED_EDGE('',*,*,#451,.F.);
#577=ORIENTED_EDGE('',*,*,#450,.T.);
#578=ORIENTED_EDGE('',*,*,#452,.F.);
#579=ORIENTED_EDGE('',*,*,#453,.F.);
#580=ORIENTED_EDGE('',*,*,#454,.F.);
#581=ORIENTED_EDGE('',*,*,#453,.T.);
#582=ORIENTED_EDGE('',*,*,#455,.F.);
#583=ORIENTED_EDGE('',*,*,#445,.F.);
#584=ORIENTED_EDGE('',*,*,#456,.F.);
#585=ORIENTED_EDGE('',*,*,#457,.T.);
#586=ORIENTED_EDGE('',*,*,#458,.F.);
#587=ORIENTED_EDGE('',*,*,#457,.F.);
#588=ORIENTED_EDGE('',*,*,#459,.F.);
#589=ORIENTED_EDGE('',*,*,#460,.T.);
#590=ORIENTED_EDGE('',*,*,#461,.F.);
#591=ORIENTED_EDGE('',*,*,#460,.F.);
#592=ORIENTED_EDGE('',*,*,#462,.F.);
#593=ORIENTED_EDGE('',*,*,#463,.T.);
#594=ORIENTED_EDGE('',*,*,#464,.F.);
#595=ORIENTED_EDGE('',*,*,#463,.F.);
#596=ORIENTED_EDGE('',*,*,#465,.T.);
#597=ORIENTED_EDGE('',*,*,#430,.T.);
#598=ORIENTED_EDGE('',*,*,#466,.F.);
#599=ORIENTED_EDGE('',*,*,#414,.F.);
#600=ORIENTED_EDGE('',*,*,#467,.F.);
#601=ORIENTED_EDGE('',*,*,#417,.T.);
#602=ORIENTED_EDGE('',*,*,#468,.F.);
#603=ORIENTED_EDGE('',*,*,#401,.F.);
#604=ORIENTED_EDGE('',*,*,#469,.F.);
#605=ORIENTED_EDGE('',*,*,#386,.T.);
#606=ORIENTED_EDGE('',*,*,#470,.F.);
#607=ORIENTED_EDGE('',*,*,#471,.F.);
#608=ORIENTED_EDGE('',*,*,#472,.F.);
#609=ORIENTED_EDGE('',*,*,#471,.T.);
#610=ORIENTED_EDGE('',*,*,#473,.F.);
#611=ORIENTED_EDGE('',*,*,#474,.F.);
#612=ORIENTED_EDGE('',*,*,#475,.T.);
#613=ORIENTED_EDGE('',*,*,#474,.T.);
#614=ORIENTED_EDGE('',*,*,#476,.F.);
#615=ORIENTED_EDGE('',*,*,#477,.F.);
#616=ORIENTED_EDGE('',*,*,#448,.T.);
#617=ORIENTED_EDGE('',*,*,#478,.F.);
#618=ORIENTED_EDGE('',*,*,#477,.T.);
#619=ORIENTED_EDGE('',*,*,#479,.F.);
#620=ORIENTED_EDGE('',*,*,#429,.T.);
#621=ORIENTED_EDGE('',*,*,#427,.T.);
#622=ORIENTED_EDGE('',*,*,#424,.T.);
#623=ORIENTED_EDGE('',*,*,#421,.T.);
#624=ORIENTED_EDGE('',*,*,#443,.T.);
#625=ORIENTED_EDGE('',*,*,#434,.T.);
#626=ORIENTED_EDGE('',*,*,#441,.T.);
#627=ORIENTED_EDGE('',*,*,#438,.T.);
#628=ORIENTED_EDGE('',*,*,#446,.T.);
#629=ORIENTED_EDGE('',*,*,#455,.T.);
#630=ORIENTED_EDGE('',*,*,#452,.T.);
#631=ORIENTED_EDGE('',*,*,#449,.T.);
#632=ORIENTED_EDGE('',*,*,#479,.T.);
#633=ORIENTED_EDGE('',*,*,#476,.T.);
#634=ORIENTED_EDGE('',*,*,#473,.T.);
#635=ORIENTED_EDGE('',*,*,#470,.T.);
#636=ORIENTED_EDGE('',*,*,#385,.T.);
#637=ORIENTED_EDGE('',*,*,#383,.T.);
#638=ORIENTED_EDGE('',*,*,#380,.T.);
#639=ORIENTED_EDGE('',*,*,#377,.T.);
#640=ORIENTED_EDGE('',*,*,#390,.T.);
#641=ORIENTED_EDGE('',*,*,#399,.T.);
#642=ORIENTED_EDGE('',*,*,#396,.T.);
#643=ORIENTED_EDGE('',*,*,#393,.T.);
#644=ORIENTED_EDGE('',*,*,#402,.T.);
#645=ORIENTED_EDGE('',*,*,#468,.T.);
#646=ORIENTED_EDGE('',*,*,#416,.T.);
#647=ORIENTED_EDGE('',*,*,#408,.T.);
#648=ORIENTED_EDGE('',*,*,#405,.T.);
#649=ORIENTED_EDGE('',*,*,#412,.T.);
#650=ORIENTED_EDGE('',*,*,#415,.T.);
#651=ORIENTED_EDGE('',*,*,#466,.T.);
#652=ORIENTED_EDGE('',*,*,#462,.T.);
#653=ORIENTED_EDGE('',*,*,#459,.T.);
#654=ORIENTED_EDGE('',*,*,#456,.T.);
#655=ORIENTED_EDGE('',*,*,#478,.T.);
#656=ORIENTED_EDGE('',*,*,#447,.F.);
#657=ORIENTED_EDGE('',*,*,#451,.T.);
#658=ORIENTED_EDGE('',*,*,#454,.T.);
#659=ORIENTED_EDGE('',*,*,#444,.T.);
#660=ORIENTED_EDGE('',*,*,#436,.F.);
#661=ORIENTED_EDGE('',*,*,#440,.T.);
#662=ORIENTED_EDGE('',*,*,#432,.T.);
#663=ORIENTED_EDGE('',*,*,#442,.T.);
#664=ORIENTED_EDGE('',*,*,#419,.F.);
#665=ORIENTED_EDGE('',*,*,#423,.T.);
#666=ORIENTED_EDGE('',*,*,#426,.T.);
#667=ORIENTED_EDGE('',*,*,#431,.T.);
#668=ORIENTED_EDGE('',*,*,#465,.F.);
#669=ORIENTED_EDGE('',*,*,#413,.T.);
#670=ORIENTED_EDGE('',*,*,#410,.F.);
#671=ORIENTED_EDGE('',*,*,#403,.F.);
#672=ORIENTED_EDGE('',*,*,#407,.T.);
#673=ORIENTED_EDGE('',*,*,#418,.T.);
#674=ORIENTED_EDGE('',*,*,#467,.T.);
#675=ORIENTED_EDGE('',*,*,#400,.F.);
#676=ORIENTED_EDGE('',*,*,#391,.F.);
#677=ORIENTED_EDGE('',*,*,#395,.T.);
#678=ORIENTED_EDGE('',*,*,#398,.T.);
#679=ORIENTED_EDGE('',*,*,#388,.F.);
#680=ORIENTED_EDGE('',*,*,#375,.F.);
#681=ORIENTED_EDGE('',*,*,#379,.F.);
#682=ORIENTED_EDGE('',*,*,#382,.T.);
#683=ORIENTED_EDGE('',*,*,#387,.F.);
#684=ORIENTED_EDGE('',*,*,#469,.T.);
#685=ORIENTED_EDGE('',*,*,#472,.T.);
#686=ORIENTED_EDGE('',*,*,#475,.F.);
#687=ORIENTED_EDGE('',*,*,#464,.T.);
#688=ORIENTED_EDGE('',*,*,#461,.T.);
#689=ORIENTED_EDGE('',*,*,#458,.T.);
#690=PLANE('',#772);
#691=PLANE('',#773);
#692=PLANE('',#774);
#693=PLANE('',#775);
#694=PLANE('',#776);
#695=PLANE('',#777);
#696=PLANE('',#778);
#697=PLANE('',#779);
#698=PLANE('',#780);
#699=PLANE('',#781);
#700=PLANE('',#782);
#701=PLANE('',#783);
#702=PLANE('',#784);
#703=PLANE('',#785);
#704=PLANE('',#786);
#705=PLANE('',#787);
#706=PLANE('',#788);
#707=PLANE('',#789);
#708=PLANE('',#790);
#709=PLANE('',#791);
#710=PLANE('',#792);
#711=PLANE('',#793);
#712=PLANE('',#794);
#713=PLANE('',#795);
#714=PLANE('',#796);
#715=PLANE('',#797);
#716=PLANE('',#810);
#717=PLANE('',#811);
#718=PLANE('',#815);
#719=PLANE('',#816);
#720=PLANE('',#817);
#721=ADVANCED_FACE('',(#39),#690,.T.);
#722=ADVANCED_FACE('',(#40),#691,.T.);
#723=ADVANCED_FACE('',(#41),#692,.T.);
#724=ADVANCED_FACE('',(#42),#693,.T.);
#725=ADVANCED_FACE('',(#43),#694,.T.);
#726=ADVANCED_FACE('',(#44),#695,.T.);
#727=ADVANCED_FACE('',(#45),#696,.T.);
#728=ADVANCED_FACE('',(#46),#697,.T.);
#729=ADVANCED_FACE('',(#47),#698,.T.);
#730=ADVANCED_FACE('',(#48),#699,.T.);
#731=ADVANCED_FACE('',(#49),#700,.T.);
#732=ADVANCED_FACE('',(#50),#701,.T.);
#733=ADVANCED_FACE('',(#51),#702,.T.);
#734=ADVANCED_FACE('',(#52),#703,.T.);
#735=ADVANCED_FACE('',(#53),#704,.T.);
#736=ADVANCED_FACE('',(#54),#705,.T.);
#737=ADVANCED_FACE('',(#55),#706,.T.);
#738=ADVANCED_FACE('',(#56),#707,.T.);
#739=ADVANCED_FACE('',(#57),#708,.T.);
#740=ADVANCED_FACE('',(#58),#709,.T.);
#741=ADVANCED_FACE('',(#59),#710,.T.);
#742=ADVANCED_FACE('',(#60),#711,.T.);
#743=ADVANCED_FACE('',(#61),#712,.T.);
#744=ADVANCED_FACE('',(#62),#713,.T.);
#745=ADVANCED_FACE('',(#63),#714,.T.);
#746=ADVANCED_FACE('',(#64),#715,.T.);
#747=ADVANCED_FACE('',(#65),#34,.F.);
#748=ADVANCED_FACE('',(#66),#35,.F.);
#749=ADVANCED_FACE('',(#67),#36,.F.);
#750=ADVANCED_FACE('',(#68),#37,.T.);
#751=ADVANCED_FACE('',(#69),#23,.T.);
#752=ADVANCED_FACE('',(#70),#716,.T.);
#753=ADVANCED_FACE('',(#71),#717,.T.);
#754=ADVANCED_FACE('',(#72),#38,.T.);
#755=ADVANCED_FACE('',(#73),#718,.T.);
#756=ADVANCED_FACE('',(#74,#15,#16,#17),#719,.T.);
#757=ADVANCED_FACE('',(#75,#18,#19,#20),#720,.F.);
#758=CLOSED_SHELL('',(#721,#722,#723,#724,#725,#726,#727,#728,#729,#730,
#731,#732,#733,#734,#735,#736,#737,#738,#739,#740,#741,#742,#743,#744,#745,
#746,#747,#748,#749,#750,#751,#752,#753,#754,#755,#756,#757));
#759=DERIVED_UNIT_ELEMENT(#761,1.);
#760=DERIVED_UNIT_ELEMENT(#1248,-3.);
#761=(
MASS_UNIT()
NAMED_UNIT(*)
SI_UNIT(.KILO.,.GRAM.)
);
#762=DERIVED_UNIT((#759,#760));
#763=MEASURE_REPRESENTATION_ITEM('density measure',
POSITIVE_RATIO_MEASURE(7850.),#762);
#764=PROPERTY_DEFINITION_REPRESENTATION(#769,#766);
#765=PROPERTY_DEFINITION_REPRESENTATION(#770,#767);
#766=REPRESENTATION('material name',(#768),#1245);
#767=REPRESENTATION('density',(#763),#1245);
#768=DESCRIPTIVE_REPRESENTATION_ITEM('Steel','Steel');
#769=PROPERTY_DEFINITION('material property','material name',#1255);
#770=PROPERTY_DEFINITION('material property','density of part',#1255);
#771=AXIS2_PLACEMENT_3D('',#1005,#818,#819);
#772=AXIS2_PLACEMENT_3D('',#1006,#820,#821);
#773=AXIS2_PLACEMENT_3D('',#1015,#826,#827);
#774=AXIS2_PLACEMENT_3D('',#1021,#831,#832);
#775=AXIS2_PLACEMENT_3D('',#1027,#836,#837);
#776=AXIS2_PLACEMENT_3D('',#1033,#841,#842);
#777=AXIS2_PLACEMENT_3D('',#1039,#846,#847);
#778=AXIS2_PLACEMENT_3D('',#1048,#852,#853);
#779=AXIS2_PLACEMENT_3D('',#1054,#857,#858);
#780=AXIS2_PLACEMENT_3D('',#1057,#861,#862);
#781=AXIS2_PLACEMENT_3D('',#1063,#866,#867);
#782=AXIS2_PLACEMENT_3D('',#1072,#872,#873);
#783=AXIS2_PLACEMENT_3D('',#1078,#877,#878);
#784=AXIS2_PLACEMENT_3D('',#1084,#882,#883);
#785=AXIS2_PLACEMENT_3D('',#1090,#887,#888);
#786=AXIS2_PLACEMENT_3D('',#1096,#892,#893);
#787=AXIS2_PLACEMENT_3D('',#1105,#898,#899);
#788=AXIS2_PLACEMENT_3D('',#1111,#903,#904);
#789=AXIS2_PLACEMENT_3D('',#1117,#908,#909);
#790=AXIS2_PLACEMENT_3D('',#1123,#913,#914);
#791=AXIS2_PLACEMENT_3D('',#1132,#919,#920);
#792=AXIS2_PLACEMENT_3D('',#1141,#925,#926);
#793=AXIS2_PLACEMENT_3D('',#1144,#929,#930);
#794=AXIS2_PLACEMENT_3D('',#1147,#933,#934);
#795=AXIS2_PLACEMENT_3D('',#1153,#938,#939);
#796=AXIS2_PLACEMENT_3D('',#1162,#944,#945);
#797=AXIS2_PLACEMENT_3D('',#1168,#949,#950);
#798=AXIS2_PLACEMENT_3D('',#1171,#953,#954);
#799=AXIS2_PLACEMENT_3D('',#1173,#955,#956);
#800=AXIS2_PLACEMENT_3D('',#1176,#958,#959);
#801=AXIS2_PLACEMENT_3D('',#1177,#960,#961);
#802=AXIS2_PLACEMENT_3D('',#1179,#962,#963);
#803=AXIS2_PLACEMENT_3D('',#1182,#965,#966);
#804=AXIS2_PLACEMENT_3D('',#1183,#967,#968);
#805=AXIS2_PLACEMENT_3D('',#1185,#969,#970);
#806=AXIS2_PLACEMENT_3D('',#1188,#972,#973);
#807=AXIS2_PLACEMENT_3D('',#1189,#974,#975);
#808=AXIS2_PLACEMENT_3D('',#1190,#976,#977);
#809=AXIS2_PLACEMENT_3D('',#1191,#978,#979);
#810=AXIS2_PLACEMENT_3D('',#1220,#980,#981);
#811=AXIS2_PLACEMENT_3D('',#1226,#985,#986);
#812=AXIS2_PLACEMENT_3D('',#1232,#990,#991);
#813=AXIS2_PLACEMENT_3D('',#1234,#992,#993);
#814=AXIS2_PLACEMENT_3D('',#1236,#994,#995);
#815=AXIS2_PLACEMENT_3D('',#1238,#997,#998);
#816=AXIS2_PLACEMENT_3D('',#1241,#1001,#1002);
#817=AXIS2_PLACEMENT_3D('',#1242,#1003,#1004);
#818=DIRECTION('axis',(0.,0.,1.));
#819=DIRECTION('refdir',(1.,0.,0.));
#820=DIRECTION('center_axis',(0.,0.,1.));
#821=DIRECTION('ref_axis',(0.,-1.,0.));
#822=DIRECTION('',(0.,-1.,0.));
#823=DIRECTION('',(-1.,0.,0.));
#824=DIRECTION('',(0.,-1.,0.));
#825=DIRECTION('',(1.,0.,0.));
#826=DIRECTION('center_axis',(0.,1.,-4.70558103152383E-15));
#827=DIRECTION('ref_axis',(0.,4.70558103152383E-15,1.));
#828=DIRECTION('',(0.,4.70558103152383E-15,1.));
#829=DIRECTION('',(0.,4.70558103152383E-15,1.));
#830=DIRECTION('',(1.,0.,0.));
#831=DIRECTION('center_axis',(0.,0.,-1.));
#832=DIRECTION('ref_axis',(0.,1.,0.));
#833=DIRECTION('',(0.,-1.,0.));
#834=DIRECTION('',(0.,1.,0.));
#835=DIRECTION('',(1.,0.,0.));
#836=DIRECTION('center_axis',(0.,1.,-1.4210854715202E-14));
#837=DIRECTION('ref_axis',(0.,1.4210854715202E-14,1.));
#838=DIRECTION('',(0.,1.4210854715202E-14,1.));
#839=DIRECTION('',(1.,0.,0.));
#840=DIRECTION('',(0.,1.4210854715202E-14,1.));
#841=DIRECTION('center_axis',(0.,1.,-1.4210854715202E-14));
#842=DIRECTION('ref_axis',(0.,1.4210854715202E-14,1.));
#843=DIRECTION('',(0.,1.4210854715202E-14,1.));
#844=DIRECTION('',(1.,0.,0.));
#845=DIRECTION('',(0.,1.4210854715202E-14,1.));
#846=DIRECTION('center_axis',(0.,0.,1.));
#847=DIRECTION('ref_axis',(0.,-1.,0.));
#848=DIRECTION('',(0.,-1.,0.));
#849=DIRECTION('',(-1.,0.,0.));
#850=DIRECTION('',(0.,-1.,0.));
#851=DIRECTION('',(1.,0.,0.));
#852=DIRECTION('center_axis',(0.,1.,-3.52918577364288E-15));
#853=DIRECTION('ref_axis',(0.,3.52918577364288E-15,1.));
#854=DIRECTION('',(0.,-3.52918577364288E-15,-1.));
#855=DIRECTION('',(0.,3.52918577364288E-15,1.));
#856=DIRECTION('',(1.,0.,0.));
#857=DIRECTION('center_axis',(0.,-8.88178419700578E-15,-1.));
#858=DIRECTION('ref_axis',(0.,1.,-8.88178419700578E-15));
#859=DIRECTION('',(0.,-1.,8.88178419700578E-15));
#860=DIRECTION('',(0.,1.,-8.88178419700578E-15));
#861=DIRECTION('center_axis',(0.,1.,-1.4210854715202E-14));
#862=DIRECTION('ref_axis',(0.,1.4210854715202E-14,1.));
#863=DIRECTION('',(0.,1.4210854715202E-14,1.));
#864=DIRECTION('',(1.,0.,0.));
#865=DIRECTION('',(0.,1.4210854715202E-14,1.));
#866=DIRECTION('center_axis',(0.,1.76751924318433E-15,1.));
#867=DIRECTION('ref_axis',(0.,-1.,1.76751924318433E-15));
#868=DIRECTION('',(0.,-1.,1.76751924318433E-15));
#869=DIRECTION('',(1.,0.,0.));
#870=DIRECTION('',(0.,-1.,1.76751924318433E-15));
#871=DIRECTION('',(1.,0.,0.));
#872=DIRECTION('center_axis',(0.,1.,0.));
#873=DIRECTION('ref_axis',(0.,0.,1.));
#874=DIRECTION('',(0.,0.,-1.));
#875=DIRECTION('',(0.,0.,1.));
#876=DIRECTION('',(1.,0.,0.));
#877=DIRECTION('center_axis',(0.,-1.,0.));
#878=DIRECTION('ref_axis',(0.,0.,-1.));
#879=DIRECTION('',(0.,0.,-1.));
#880=DIRECTION('',(-1.,0.,0.));
#881=DIRECTION('',(0.,0.,-1.));
#882=DIRECTION('center_axis',(0.,2.06038600205111E-15,1.));
#883=DIRECTION('ref_axis',(0.,-1.,2.06038600205111E-15));
#884=DIRECTION('',(0.,1.,-2.06038600205111E-15));
#885=DIRECTION('',(1.,0.,0.));
#886=DIRECTION('',(0.,-1.,2.06038600205111E-15));
#887=DIRECTION('center_axis',(0.,2.06038600205111E-15,1.));
#888=DIRECTION('ref_axis',(0.,-1.,2.06038600205111E-15));
#889=DIRECTION('',(0.,-1.,2.06038600205111E-15));
#890=DIRECTION('',(1.,0.,0.));
#891=DIRECTION('',(0.,1.,-2.06038600205111E-15));
#892=DIRECTION('center_axis',(0.,-0.342020143325666,-0.939692620785909));
#893=DIRECTION('ref_axis',(0.,0.939692620785909,-0.342020143325666));
#894=DIRECTION('',(0.,0.939692620785909,-0.342020143325666));
#895=DIRECTION('',(-1.,0.,0.));
#896=DIRECTION('',(0.,0.939692620785909,-0.342020143325666));
#897=DIRECTION('',(1.,0.,0.));
#898=DIRECTION('center_axis',(0.,-0.939692620785909,0.342020143325668));
#899=DIRECTION('ref_axis',(0.,-0.342020143325668,-0.939692620785909));
#900=DIRECTION('',(0.,0.342020143325668,0.939692620785909));
#901=DIRECTION('',(0.,-0.342020143325668,-0.939692620785909));
#902=DIRECTION('',(1.,0.,0.));
#903=DIRECTION('center_axis',(0.,0.342020143325666,0.939692620785909));
#904=DIRECTION('ref_axis',(0.,-0.939692620785909,0.342020143325666));
#905=DIRECTION('',(0.,0.939692620785909,-0.342020143325666));
#906=DIRECTION('',(0.,-0.939692620785909,0.342020143325666));
#907=DIRECTION('',(1.,0.,0.));
#908=DIRECTION('center_axis',(0.,-0.939692620785908,0.342020143325669));
#909=DIRECTION('ref_axis',(0.,-0.342020143325669,-0.939692620785908));
#910=DIRECTION('',(0.,-0.342020143325669,-0.939692620785908));
#911=DIRECTION('',(1.,0.,0.));
#912=DIRECTION('',(0.,0.342020143325669,0.939692620785908));
#913=DIRECTION('center_axis',(0.,0.342020143325667,0.939692620785909));
#914=DIRECTION('ref_axis',(0.,-0.939692620785909,0.342020143325667));
#915=DIRECTION('',(0.,0.939692620785909,-0.342020143325667));
#916=DIRECTION('',(1.,0.,0.));
#917=DIRECTION('',(0.,-0.939692620785909,0.342020143325667));
#918=DIRECTION('',(1.,0.,0.));
#919=DIRECTION('center_axis',(0.,-0.342020143325668,-0.939692620785909));
#920=DIRECTION('ref_axis',(0.,0.939692620785909,-0.342020143325668));
#921=DIRECTION('',(0.,0.939692620785909,-0.342020143325668));
#922=DIRECTION('',(-1.,0.,0.));
#923=DIRECTION('',(0.,0.939692620785909,-0.342020143325668));
#924=DIRECTION('',(1.,0.,0.));
#925=DIRECTION('center_axis',(0.,-0.939692620785909,0.342020143325668));
#926=DIRECTION('ref_axis',(0.,-0.342020143325668,-0.939692620785909));
#927=DIRECTION('',(0.,0.342020143325668,0.939692620785909));
#928=DIRECTION('',(0.,-0.342020143325668,-0.939692620785909));
#929=DIRECTION('center_axis',(0.,-0.939692620785908,0.342020143325669));
#930=DIRECTION('ref_axis',(0.,-0.342020143325669,-0.939692620785908));
#931=DIRECTION('',(0.,0.342020143325669,0.939692620785908));
#932=DIRECTION('',(0.,-0.342020143325669,-0.939692620785908));
#933=DIRECTION('center_axis',(0.,-0.939692620785908,0.342020143325669));
#934=DIRECTION('ref_axis',(0.,-0.342020143325669,-0.939692620785908));
#935=DIRECTION('',(0.,0.342020143325669,0.939692620785908));
#936=DIRECTION('',(1.,0.,0.));
#937=DIRECTION('',(0.,-0.342020143325669,-0.939692620785908));
#938=DIRECTION('center_axis',(0.,0.290199457811011,-0.956966182624128));
#939=DIRECTION('ref_axis',(0.,0.956966182624127,0.290199457811011));
#940=DIRECTION('',(0.,0.956966182624127,0.290199457811011));
#941=DIRECTION('',(-1.,0.,0.));
#942=DIRECTION('',(0.,0.956966182624127,0.290199457811011));
#943=DIRECTION('',(1.,0.,0.));
#944=DIRECTION('center_axis',(0.,-0.939692620785909,0.342020143325668));
#945=DIRECTION('ref_axis',(0.,-0.342020143325668,-0.939692620785909));
#946=DIRECTION('',(0.,0.342020143325668,0.939692620785909));
#947=DIRECTION('',(0.,-0.342020143325668,-0.939692620785909));
#948=DIRECTION('',(1.,0.,0.));
#949=DIRECTION('center_axis',(0.,0.342020143325668,0.939692620785909));
#950=DIRECTION('ref_axis',(0.,-0.939692620785909,0.342020143325668));
#951=DIRECTION('',(0.,0.939692620785909,-0.342020143325668));
#952=DIRECTION('',(0.,-0.939692620785909,0.342020143325668));
#953=DIRECTION('center_axis',(1.,0.,0.));
#954=DIRECTION('ref_axis',(0.,1.,0.));
#955=DIRECTION('center_axis',(-1.,0.,0.));
#956=DIRECTION('ref_axis',(0.,1.,0.));
#957=DIRECTION('',(-1.,0.,0.));
#958=DIRECTION('center_axis',(1.,0.,0.));
#959=DIRECTION('ref_axis',(0.,1.,0.));
#960=DIRECTION('center_axis',(1.,0.,0.));
#961=DIRECTION('ref_axis',(0.,1.,0.));
#962=DIRECTION('center_axis',(-1.,0.,0.));
#963=DIRECTION('ref_axis',(0.,1.,0.));
#964=DIRECTION('',(-1.,0.,0.));
#965=DIRECTION('center_axis',(1.,0.,0.));
#966=DIRECTION('ref_axis',(0.,1.,0.));
#967=DIRECTION('center_axis',(1.,0.,0.));
#968=DIRECTION('ref_axis',(0.,1.,0.));
#969=DIRECTION('center_axis',(-1.,0.,0.));
#970=DIRECTION('ref_axis',(0.,1.,0.));
#971=DIRECTION('',(-1.,0.,0.));
#972=DIRECTION('center_axis',(1.,0.,0.));
#973=DIRECTION('ref_axis',(0.,1.,0.));
#974=DIRECTION('center_axis',(1.,0.,0.));
#975=DIRECTION('ref_axis',(0.,-1.33226762955019E-14,1.));
#976=DIRECTION('center_axis',(1.,0.,0.));
#977=DIRECTION('ref_axis',(0.,-1.33226762955019E-14,1.));
#978=DIRECTION('center_axis',(1.,0.,0.));
#979=DIRECTION('ref_axis',(0.,-1.33226762955019E-14,1.));
#980=DIRECTION('center_axis',(0.,0.648205032540123,-0.761465846765078));
#981=DIRECTION('ref_axis',(0.,0.761465846765078,0.648205032540123));
#982=DIRECTION('',(0.,-0.761465846765078,-0.648205032540123));
#983=DIRECTION('',(0.,0.761465846765078,0.648205032540123));
#984=DIRECTION('',(1.,0.,0.));
#985=DIRECTION('center_axis',(0.,-0.342020143325669,-0.939692620785908));
#986=DIRECTION('ref_axis',(0.,0.939692620785908,-0.342020143325669));
#987=DIRECTION('',(0.,-0.939692620785908,0.342020143325669));
#988=DIRECTION('',(0.,0.939692620785908,-0.342020143325669));
#989=DIRECTION('',(1.,0.,0.));
#990=DIRECTION('center_axis',(1.,0.,0.));
#991=DIRECTION('ref_axis',(0.,-0.939692620785909,0.342020143325668));
#992=DIRECTION('center_axis',(1.,0.,0.));
#993=DIRECTION('ref_axis',(0.,-0.939692620785909,0.342020143325668));
#994=DIRECTION('center_axis',(1.,0.,0.));
#995=DIRECTION('ref_axis',(0.,-0.939692620785909,0.342020143325668));
#996=DIRECTION('',(1.,0.,0.));
#997=DIRECTION('center_axis',(0.,-0.939692620785908,0.342020143325669));
#998=DIRECTION('ref_axis',(0.,-0.342020143325669,-0.939692620785908));
#999=DIRECTION('',(0.,0.342020143325669,0.939692620785908));
#1000=DIRECTION('',(0.,-0.342020143325669,-0.939692620785908));
#1001=DIRECTION('center_axis',(1.,0.,0.));
#1002=DIRECTION('ref_axis',(0.,1.,0.));
#1003=DIRECTION('center_axis',(1.,0.,0.));
#1004=DIRECTION('ref_axis',(0.,1.,0.));
#1005=CARTESIAN_POINT('',(0.,0.,0.));
#1006=CARTESIAN_POINT('Origin',(0.,134.128776873561,121.292366397358));
#1007=CARTESIAN_POINT('',(0.,134.128776873561,121.292366397358));
#1008=CARTESIAN_POINT('',(0.,132.128776873562,121.292366397358));
#1009=CARTESIAN_POINT('',(0.,134.128776873561,121.292366397358));
#1010=CARTESIAN_POINT('',(2.,132.128776873562,121.292366397358));
#1011=CARTESIAN_POINT('',(0.,132.128776873562,121.292366397358));
#1012=CARTESIAN_POINT('',(2.,134.128776873561,121.292366397358));
#1013=CARTESIAN_POINT('',(2.,134.128776873561,121.292366397358));
#1014=CARTESIAN_POINT('',(0.,134.128776873561,121.292366397358));
#1015=CARTESIAN_POINT('Origin',(0.,134.128776873561,106.192366397358));
#1016=CARTESIAN_POINT('',(0.,134.128776873561,106.192366397358));
#1017=CARTESIAN_POINT('',(0.,134.128776873561,106.192366397358));
#1018=CARTESIAN_POINT('',(2.,134.128776873561,106.192366397358));
#1019=CARTESIAN_POINT('',(2.,134.128776873561,106.192366397358));
#1020=CARTESIAN_POINT('',(0.,134.128776873561,106.192366397358));
#1021=CARTESIAN_POINT('Origin',(0.,132.128776873562,106.192366397358));
#1022=CARTESIAN_POINT('',(0.,132.128776873562,106.192366397358));
#1023=CARTESIAN_POINT('',(0.,134.128776873561,106.192366397358));
#1024=CARTESIAN_POINT('',(2.,132.128776873562,106.192366397358));
#1025=CARTESIAN_POINT('',(2.,134.128776873561,106.192366397358));
#1026=CARTESIAN_POINT('',(0.,132.128776873562,106.192366397358));
#1027=CARTESIAN_POINT('Origin',(0.,132.128776873562,96.1923663973578));
#1028=CARTESIAN_POINT('',(2.,132.128776873562,96.1923663973578));
#1029=CARTESIAN_POINT('',(2.,132.128776873562,96.1923663973578));
#1030=CARTESIAN_POINT('',(0.,132.128776873562,96.1923663973578));
#1031=CARTESIAN_POINT('',(0.,132.128776873562,96.1923663973578));
#1032=CARTESIAN_POINT('',(0.,132.128776873562,96.1923663973578));
#1033=CARTESIAN_POINT('Origin',(0.,132.128776873562,96.1923663973578));
#1034=CARTESIAN_POINT('',(0.,132.128776873563,147.092366397358));
#1035=CARTESIAN_POINT('',(0.,132.128776873562,96.1923663973578));
#1036=CARTESIAN_POINT('',(2.,132.128776873563,147.092366397358));
#1037=CARTESIAN_POINT('',(0.,132.128776873563,147.092366397358));
#1038=CARTESIAN_POINT('',(2.,132.128776873562,96.1923663973578));
#1039=CARTESIAN_POINT('Origin',(0.,134.128776873562,162.192366397358));
#1040=CARTESIAN_POINT('',(0.,134.128776873562,162.192366397358));
#1041=CARTESIAN_POINT('',(0.,132.128776873563,162.192366397358));
#1042=CARTESIAN_POINT('',(0.,134.128776873562,162.192366397358));
#1043=CARTESIAN_POINT('',(2.,132.128776873563,162.192366397358));
#1044=CARTESIAN_POINT('',(0.,132.128776873563,162.192366397358));
#1045=CARTESIAN_POINT('',(2.,134.128776873562,162.192366397358));
#1046=CARTESIAN_POINT('',(2.,134.128776873562,162.192366397358));
#1047=CARTESIAN_POINT('',(0.,134.128776873562,162.192366397358));
#1048=CARTESIAN_POINT('Origin',(0.,134.128776873562,147.092366397358));
#1049=CARTESIAN_POINT('',(0.,134.128776873562,147.092366397358));
#1050=CARTESIAN_POINT('',(0.,134.128776873562,162.192366397358));
#1051=CARTESIAN_POINT('',(2.,134.128776873562,147.092366397358));
#1052=CARTESIAN_POINT('',(2.,134.128776873562,162.192366397358));
#1053=CARTESIAN_POINT('',(0.,134.128776873562,147.092366397358));
#1054=CARTESIAN_POINT('Origin',(0.,132.128776873563,147.092366397358));
#1055=CARTESIAN_POINT('',(0.,134.128776873562,147.092366397358));
#1056=CARTESIAN_POINT('',(2.,134.128776873562,147.092366397358));
#1057=CARTESIAN_POINT('Origin',(0.,132.128776873562,96.1923663973578));
#1058=CARTESIAN_POINT('',(0.,132.128776873563,172.192366397358));
#1059=CARTESIAN_POINT('',(0.,132.128776873562,96.1923663973578));
#1060=CARTESIAN_POINT('',(2.,132.128776873563,172.192366397358));
#1061=CARTESIAN_POINT('',(0.,132.128776873563,172.192366397358));
#1062=CARTESIAN_POINT('',(2.,132.128776873562,96.1923663973578));
#1063=CARTESIAN_POINT('Origin',(0.,110.579191949982,176.192366397358));
#1064=CARTESIAN_POINT('',(0.,110.579191949982,176.192366397358));
#1065=CARTESIAN_POINT('',(0.,90.4791919499823,176.192366397358));
#1066=CARTESIAN_POINT('',(0.,110.579191949982,176.192366397358));
#1067=CARTESIAN_POINT('',(2.,90.4791919499823,176.192366397358));
#1068=CARTESIAN_POINT('',(0.,90.4791919499823,176.192366397358));
#1069=CARTESIAN_POINT('',(2.,110.579191949982,176.192366397358));
#1070=CARTESIAN_POINT('',(2.,110.579191949982,176.192366397358));
#1071=CARTESIAN_POINT('',(0.,110.579191949982,176.192366397358));
#1072=CARTESIAN_POINT('Origin',(0.,110.579191949982,174.192366397358));
#1073=CARTESIAN_POINT('',(0.,110.579191949982,174.192366397358));
#1074=CARTESIAN_POINT('',(0.,110.579191949982,176.192366397358));
#1075=CARTESIAN_POINT('',(2.,110.579191949982,174.192366397358));
#1076=CARTESIAN_POINT('',(2.,110.579191949982,176.192366397358));
#1077=CARTESIAN_POINT('',(0.,110.579191949982,174.192366397358));
#1078=CARTESIAN_POINT('Origin',(0.,90.4791919499823,176.192366397358));
#1079=CARTESIAN_POINT('',(0.,90.4791919499823,174.192366397358));
#1080=CARTESIAN_POINT('',(0.,90.4791919499823,176.192366397358));
#1081=CARTESIAN_POINT('',(2.,90.4791919499823,174.192366397358));
#1082=CARTESIAN_POINT('',(0.,90.4791919499823,174.192366397358));
#1083=CARTESIAN_POINT('',(2.,90.4791919499823,176.192366397358));
#1084=CARTESIAN_POINT('Origin',(0.,130.128776873563,174.192366397358));
#1085=CARTESIAN_POINT('',(0.,66.9296070264016,174.192366397358));
#1086=CARTESIAN_POINT('',(0.,78.399921087359,174.192366397358));
#1087=CARTESIAN_POINT('',(2.,66.9296070264016,174.192366397358));
#1088=CARTESIAN_POINT('',(0.,66.9296070264016,174.192366397358));
#1089=CARTESIAN_POINT('',(2.,78.399921087359,174.192366397358));
#1090=CARTESIAN_POINT('Origin',(0.,130.128776873563,174.192366397358));
#1091=CARTESIAN_POINT('',(2.,130.128776873563,174.192366397358));
#1092=CARTESIAN_POINT('',(2.,78.399921087359,174.192366397358));
#1093=CARTESIAN_POINT('',(0.,130.128776873563,174.192366397358));
#1094=CARTESIAN_POINT('',(0.,130.128776873563,174.192366397358));
#1095=CARTESIAN_POINT('',(0.,78.399921087359,174.192366397358));
#1096=CARTESIAN_POINT('Origin',(0.,48.7036684095752,133.812229199913));
#1097=CARTESIAN_POINT('',(0.,48.7036684095752,133.812229199913));
#1098=CARTESIAN_POINT('',(0.,50.583053651147,133.128188913262));
#1099=CARTESIAN_POINT('',(0.,48.7036684095752,133.812229199913));
#1100=CARTESIAN_POINT('',(2.,50.583053651147,133.128188913262));
#1101=CARTESIAN_POINT('',(0.,50.583053651147,133.128188913262));
#1102=CARTESIAN_POINT('',(2.,48.7036684095752,133.812229199913));
#1103=CARTESIAN_POINT('',(2.,48.7036684095752,133.812229199913));
#1104=CARTESIAN_POINT('',(0.,48.7036684095752,133.812229199913));
#1105=CARTESIAN_POINT('Origin',(0.,57.2883740070495,157.39851398164));
#1106=CARTESIAN_POINT('',(0.,57.2883740070495,157.39851398164));
#1107=CARTESIAN_POINT('',(0.,48.7036684095752,133.812229199913));
#1108=CARTESIAN_POINT('',(2.,57.2883740070495,157.39851398164));
#1109=CARTESIAN_POINT('',(2.,48.7036684095752,133.812229199913));
#1110=CARTESIAN_POINT('',(0.,57.2883740070495,157.39851398164));
#1111=CARTESIAN_POINT('Origin',(0.,59.1677592486213,156.714473694988));
#1112=CARTESIAN_POINT('',(0.,59.1677592486213,156.714473694988));
#1113=CARTESIAN_POINT('',(0.,57.2883740070495,157.39851398164));
#1114=CARTESIAN_POINT('',(2.,59.1677592486213,156.714473694988));
#1115=CARTESIAN_POINT('',(2.,57.2883740070495,157.39851398164));
#1116=CARTESIAN_POINT('',(0.,59.1677592486213,156.714473694988));
#1117=CARTESIAN_POINT('Origin',(0.,65.0502217848299,172.876406684009));
#1118=CARTESIAN_POINT('',(2.,65.0502217848299,172.876406684009));
#1119=CARTESIAN_POINT('',(2.,62.5396141414917,165.978568874827));
#1120=CARTESIAN_POINT('',(0.,65.0502217848299,172.876406684009));
#1121=CARTESIAN_POINT('',(0.,65.0502217848299,172.876406684009));
#1122=CARTESIAN_POINT('',(0.,62.5396141414917,165.978568874827));
#1123=CARTESIAN_POINT('Origin',(0.,36.6115307962934,94.7417453541577));
#1124=CARTESIAN_POINT('',(0.,34.7321455547216,95.425785640809));
#1125=CARTESIAN_POINT('',(0.,36.6115307962934,94.7417453541577));
#1126=CARTESIAN_POINT('',(0.,34.7321455547216,95.425785640809));
#1127=CARTESIAN_POINT('',(2.,34.7321455547216,95.425785640809));
#1128=CARTESIAN_POINT('',(0.,34.7321455547216,95.425785640809));
#1129=CARTESIAN_POINT('',(2.,36.6115307962934,94.7417453541577));
#1130=CARTESIAN_POINT('',(2.,34.7321455547216,95.425785640809));
#1131=CARTESIAN_POINT('',(0.,36.6115307962934,94.7417453541577));
#1132=CARTESIAN_POINT('Origin',(0.,26.1474399572474,71.8395008590827));
#1133=CARTESIAN_POINT('',(0.,26.1474399572474,71.8395008590827));
#1134=CARTESIAN_POINT('',(0.,28.0268251988192,71.1554605724314));
#1135=CARTESIAN_POINT('',(0.,26.1474399572474,71.8395008590827));
#1136=CARTESIAN_POINT('',(2.,28.0268251988192,71.1554605724314));
#1137=CARTESIAN_POINT('',(0.,28.0268251988191,71.1554605724314));
#1138=CARTESIAN_POINT('',(2.,26.1474399572474,71.8395008590827));
#1139=CARTESIAN_POINT('',(2.,26.1474399572474,71.8395008590827));
#1140=CARTESIAN_POINT('',(0.,26.1474399572474,71.8395008590827));
#1141=CARTESIAN_POINT('Origin',(0.,34.7321455547216,95.425785640809));
#1142=CARTESIAN_POINT('',(0.,26.1474399572474,71.8395008590827));
#1143=CARTESIAN_POINT('',(2.,26.1474399572474,71.8395008590827));
#1144=CARTESIAN_POINT('Origin',(0.,65.0502217848299,172.876406684009));
#1145=CARTESIAN_POINT('',(0.,62.5396141414917,165.978568874827));
#1146=CARTESIAN_POINT('',(2.,62.5396141414917,165.978568874827));
#1147=CARTESIAN_POINT('Origin',(0.,65.0502217848299,172.876406684009));
#1148=CARTESIAN_POINT('',(0.,10.6351009107089,23.3720908054679));
#1149=CARTESIAN_POINT('',(0.,62.5396141414917,165.978568874827));
#1150=CARTESIAN_POINT('',(2.,10.6351009107089,23.3720908054679));
#1151=CARTESIAN_POINT('',(0.,10.6351009107088,23.372090805468));
#1152=CARTESIAN_POINT('',(2.,62.5396141414917,165.978568874827));
#1153=CARTESIAN_POINT('Origin',(0.,0.171010071662831,0.469846310392944));
#1154=CARTESIAN_POINT('',(0.,0.171010071662831,0.469846310392944));
#1155=CARTESIAN_POINT('',(0.,2.56342552822315,1.19534495492047));
#1156=CARTESIAN_POINT('',(0.,0.171010071662831,0.469846310392944));
#1157=CARTESIAN_POINT('',(2.,2.56342552822315,1.19534495492047));
#1158=CARTESIAN_POINT('',(0.,2.56342552822293,1.19534495492039));
#1159=CARTESIAN_POINT('',(2.,0.171010071662832,0.469846310392943));
#1160=CARTESIAN_POINT('',(2.,0.171010071662831,0.469846310392944));
#1161=CARTESIAN_POINT('',(0.,0.171010071662831,0.469846310392944));
#1162=CARTESIAN_POINT('Origin',(0.,8.75571566913711,24.0561310921193));
#1163=CARTESIAN_POINT('',(0.,8.75571566913711,24.0561310921193));
#1164=CARTESIAN_POINT('',(0.,0.171010071662831,0.469846310392944));
#1165=CARTESIAN_POINT('',(2.,8.75571566913711,24.0561310921193));
#1166=CARTESIAN_POINT('',(2.,0.171010071662831,0.469846310392944));
#1167=CARTESIAN_POINT('',(0.,8.75571566913711,24.0561310921193));
#1168=CARTESIAN_POINT('Origin',(0.,10.6351009107089,23.3720908054679));
#1169=CARTESIAN_POINT('',(0.,8.75571566913711,24.0561310921193));
#1170=CARTESIAN_POINT('',(2.,8.75571566913711,24.0561310921193));
#1171=CARTESIAN_POINT('Origin',(0.,42.331736575823,50.4935119296347));
#1172=CARTESIAN_POINT('',(2.,32.331736575823,50.4935119296347));
#1173=CARTESIAN_POINT('Origin',(2.,42.331736575823,50.4935119296347));
#1174=CARTESIAN_POINT('',(0.,32.331736575823,50.4935119296347));
#1175=CARTESIAN_POINT('',(0.,32.331736575823,50.4935119296347));
#1176=CARTESIAN_POINT('Origin',(0.,42.331736575823,50.4935119296347));
#1177=CARTESIAN_POINT('Origin',(0.,65.4515647165936,83.1351042122001));
#1178=CARTESIAN_POINT('',(2.,50.4515647165936,83.1351042122001));
#1179=CARTESIAN_POINT('Origin',(2.,65.4515647165936,83.1351042122001));
#1180=CARTESIAN_POINT('',(0.,50.4515647165936,83.1351042122001));
#1181=CARTESIAN_POINT('',(0.,50.4515647165936,83.1351042122001));
#1182=CARTESIAN_POINT('Origin',(0.,65.4515647165936,83.1351042122001));
#1183=CARTESIAN_POINT('Origin',(0.,94.3513498925568,123.937094565407));
#1184=CARTESIAN_POINT('',(2.,74.3513498925568,123.937094565407));
#1185=CARTESIAN_POINT('Origin',(2.,94.3513498925568,123.937094565407));
#1186=CARTESIAN_POINT('',(0.,74.3513498925568,123.937094565407));
#1187=CARTESIAN_POINT('',(0.,74.3513498925568,123.937094565407));
#1188=CARTESIAN_POINT('Origin',(0.,94.3513498925568,123.937094565407));
#1189=CARTESIAN_POINT('Origin',(0.,66.9296070264017,172.192366397358));
#1190=CARTESIAN_POINT('Origin',(0.,66.9296070264017,172.192366397358));
#1191=CARTESIAN_POINT('Origin',(2.,66.9296070264017,172.192366397358));
#1192=CARTESIAN_POINT('Ctrl Pts',(0.,132.128776873563,172.192366397358));
#1193=CARTESIAN_POINT('Ctrl Pts',(2.,132.128776873563,172.192366397358));
#1194=CARTESIAN_POINT('Ctrl Pts',(0.,132.128776873563,172.454595237115));
#1195=CARTESIAN_POINT('Ctrl Pts',(2.,132.128776873563,172.454595237115));
#1196=CARTESIAN_POINT('Ctrl Pts',(0.,132.076549198034,172.716720224868));
#1197=CARTESIAN_POINT('Ctrl Pts',(2.,132.076549198034,172.716720224868));
#1198=CARTESIAN_POINT('Ctrl Pts',(0.,131.976042522793,172.958923388829));
#1199=CARTESIAN_POINT('Ctrl Pts',(2.,131.976042522793,172.958923388829));
#1200=CARTESIAN_POINT('Ctrl Pts',(0.,131.675180895874,173.68394625701));
#1201=CARTESIAN_POINT('Ctrl Pts',(2.,131.675180895874,173.68394625701));
#1202=CARTESIAN_POINT('Ctrl Pts',(0.,130.913745585002,174.192366397358));
#1203=CARTESIAN_POINT('Ctrl Pts',(2.,130.913745585002,174.192366397358));
#1204=CARTESIAN_POINT('Ctrl Pts',(0.,130.128776873563,174.192366397358));
#1205=CARTESIAN_POINT('Ctrl Pts',(2.,130.128776873563,174.192366397358));
#1206=CARTESIAN_POINT('Ctrl Pts',(0.,130.128776873563,174.192366397358));
#1207=CARTESIAN_POINT('Ctrl Pts',(0.,130.913745585002,174.192366397358));
#1208=CARTESIAN_POINT('Ctrl Pts',(0.,131.675180895874,173.68394625701));
#1209=CARTESIAN_POINT('Ctrl Pts',(0.,131.976042522793,172.958923388829));
#1210=CARTESIAN_POINT('Ctrl Pts',(0.,132.076549198034,172.716720224868));
#1211=CARTESIAN_POINT('Ctrl Pts',(0.,132.128776873563,172.454595237115));
#1212=CARTESIAN_POINT('Ctrl Pts',(0.,132.128776873563,172.192366397358));
#1213=CARTESIAN_POINT('Ctrl Pts',(2.,132.128776873563,172.192366397358));
#1214=CARTESIAN_POINT('Ctrl Pts',(2.,132.128776873563,172.454595237115));
#1215=CARTESIAN_POINT('Ctrl Pts',(2.,132.076549198034,172.716720224868));
#1216=CARTESIAN_POINT('Ctrl Pts',(2.,131.976042522793,172.958923388829));
#1217=CARTESIAN_POINT('Ctrl Pts',(2.,131.675180895874,173.68394625701));
#1218=CARTESIAN_POINT('Ctrl Pts',(2.,130.913745585002,174.192366397358));
#1219=CARTESIAN_POINT('Ctrl Pts',(2.,130.128776873563,174.192366397358));
#1220=CARTESIAN_POINT('Origin',(0.,6.83177513291657,-10.467896089151));
#1221=CARTESIAN_POINT('',(0.,6.83177513291657,-10.467896089151));
#1222=CARTESIAN_POINT('',(0.,132.128776873562,96.1923663973578));
#1223=CARTESIAN_POINT('',(2.,6.83177513291657,-10.467896089151));
#1224=CARTESIAN_POINT('',(2.,132.128776873562,96.1923663973578));
#1225=CARTESIAN_POINT('',(0.,6.83177513291657,-10.467896089151));
#1226=CARTESIAN_POINT('Origin',(0.,1.19361940820111,-8.41577522919702));
#1227=CARTESIAN_POINT('',(0.,1.19361940820111,-8.41577522919702));
#1228=CARTESIAN_POINT('',(0.,2.13331202898702,-8.75779537252269));
#1229=CARTESIAN_POINT('',(2.,1.19361940820111,-8.41577522919702));
#1230=CARTESIAN_POINT('',(2.,2.13331202898702,-8.75779537252269));
#1231=CARTESIAN_POINT('',(0.,1.19361940820111,-8.41577522919702));
#1232=CARTESIAN_POINT('Origin',(0.,1.87765969485245,-6.5363899876252));
#1233=CARTESIAN_POINT('',(0.,-0.00172554671936859,-5.85234970097386));
#1234=CARTESIAN_POINT('Origin',(0.,1.87765969485245,-6.5363899876252));
#1235=CARTESIAN_POINT('',(2.,-0.00172554671936859,-5.85234970097386));
#1236=CARTESIAN_POINT('Origin',(2.,1.87765969485245,-6.5363899876252));
#1237=CARTESIAN_POINT('',(0.,-0.00172554671936859,-5.85234970097386));
#1238=CARTESIAN_POINT('Origin',(0.,65.0502217848299,172.876406684009));
#1239=CARTESIAN_POINT('',(0.,62.5396141414917,165.978568874827));
#1240=CARTESIAN_POINT('',(2.,62.5396141414917,165.978568874827));
#1241=CARTESIAN_POINT('Origin',(2.,67.003218284207,82.8622351541034));
#1242=CARTESIAN_POINT('Origin',(0.,67.003218284207,82.8622351541034));
#1243=UNCERTAINTY_MEASURE_WITH_UNIT(LENGTH_MEASURE(0.01),#1247,
'DISTANCE_ACCURACY_VALUE',
'Maximum model space distance between geometric entities at asserted c
onnectivities');
#1244=UNCERTAINTY_MEASURE_WITH_UNIT(LENGTH_MEASURE(0.01),#1247,
'DISTANCE_ACCURACY_VALUE',
'Maximum model space distance between geometric entities at asserted c
onnectivities');
#1245=(
GEOMETRIC_REPRESENTATION_CONTEXT(3)
GLOBAL_UNCERTAINTY_ASSIGNED_CONTEXT((#1243))
GLOBAL_UNIT_ASSIGNED_CONTEXT((#1247,#1249,#1250))
REPRESENTATION_CONTEXT('','3D')
);
#1246=(
GEOMETRIC_REPRESENTATION_CONTEXT(3)
GLOBAL_UNCERTAINTY_ASSIGNED_CONTEXT((#1244))
GLOBAL_UNIT_ASSIGNED_CONTEXT((#1247,#1249,#1250))
REPRESENTATION_CONTEXT('','3D')
);
#1247=(
LENGTH_UNIT()
NAMED_UNIT(*)
SI_UNIT(.MILLI.,.METRE.)
);
#1248=(
LENGTH_UNIT()
NAMED_UNIT(*)
SI_UNIT($,.METRE.)
);
#1249=(
NAMED_UNIT(*)
PLANE_ANGLE_UNIT()
SI_UNIT($,.RADIAN.)
);
#1250=(
NAMED_UNIT(*)
SI_UNIT($,.STERADIAN.)
SOLID_ANGLE_UNIT()
);
#1251=SHAPE_DEFINITION_REPRESENTATION(#1252,#1253);
#1252=PRODUCT_DEFINITION_SHAPE('',$,#1255);
#1253=SHAPE_REPRESENTATION('',(#771),#1245);
#1254=PRODUCT_DEFINITION_CONTEXT('part definition',#1259,'design');
#1255=PRODUCT_DEFINITION('2026-08-15-10-06-17-537',
'Solarpanel holder - Part B',#1256,#1254);
#1256=PRODUCT_DEFINITION_FORMATION('',$,#1261);
#1257=PRODUCT_RELATED_PRODUCT_CATEGORY('Solarpanel holder - Part B',
'Solarpanel holder - Part B',(#1261));
#1258=APPLICATION_PROTOCOL_DEFINITION('international standard',
'automotive_design',2009,#1259);
#1259=APPLICATION_CONTEXT(
'Core Data for Automotive Mechanical Design Process');
#1260=PRODUCT_CONTEXT('part definition',#1259,'mechanical');
#1261=PRODUCT('2026-08-15-10-06-17-537','Solarpanel holder - Part B',$,
(#1260));
#1262=PRESENTATION_STYLE_ASSIGNMENT((#1263));
#1263=SURFACE_STYLE_USAGE(.BOTH.,#1264);
#1264=SURFACE_SIDE_STYLE('',(#1265));
#1265=SURFACE_STYLE_FILL_AREA(#1266);
#1266=FILL_AREA_STYLE('Steel - Satin',(#1267));
#1267=FILL_AREA_STYLE_COLOUR('Steel - Satin',#1268);
#1268=COLOUR_RGB('Steel - Satin',0.627450980392157,0.627450980392157,0.627450980392157);
ENDSEC;
END-ISO-10303-21;
