0
SECTION
2
HEADER
9
$INSUNITS
70
4
9
$ACADVER
1
AC1014
9
$HANDSEED
5
FFFF
0
ENDSEC
0
SECTION
2
TABLES
0
TABLE
2
VPORT
5
8
100
AcDbSymbolTable
0
ENDTAB
0
TABLE
2
LTYPE
5
5
100
AcDbSymbolTable
0
LTYPE
5
14
100
AcDbSymbolTableRecord
100
AcDbLinetypeTableRecord
2
BYBLOCK
70
0
0
LTYPE
5
15
100
AcDbSymbolTableRecord
100
AcDbLinetypeTableRecord
2
BYLAYER
70
0
0
LTYPE
5
16
100
AcDbSymbolTableRecord
100
AcDbLinetypeTableRecord
2
DASHED
70
0
3
Dashed __ __ __ __ __ __ __ __ __ __ __ __ __ _
72
65
73
2
40
0.75
49
0.5
74
0
49
-0.25
74
0
0
ENDTAB
0
TABLE
2
LAYER
5
2
100
AcDbSymbolTable
70
2
0
LAYER
5
50
100
AcDbSymbolTableRecord
100
AcDbLayerTableRecord
2
0
70
0
62
7
6
CONTINUOUS
0
ENDTAB
0
TABLE
2
STYLE
5
3
100
AcDbSymbolTable
70
1
0
STYLE
5
11
100
AcDbSymbolTableRecord
100
AcDbTextStyleTableRecord
2
STANDARD
70
0
0
ENDTAB
0
TABLE
2
VIEW
5
6
100
AcDbSymbolTable
70
0
0
ENDTAB
0
TABLE
2
UCS
5
7
100
AcDbSymbolTable
70
0
0
ENDTAB
0
TABLE
2
APPID
5
9
100
AcDbSymbolTable
70
2
0
APPID
5
12
100
AcDbSymbolTableRecord
100
AcDbRegAppTableRecord
2
ACAD
70
0
0
ENDTAB
0
TABLE
2
DIMSTYLE
5
A
100
AcDbSymbolTable
70
1
0
ENDTAB
0
TABLE
2
BLOCK_RECORD
5
1
100
AcDbSymbolTable
70
1
0
BLOCK_RECORD
5
1F
100
AcDbSymbolTableRecord
100
AcDbBlockTableRecord
2
*MODEL_SPACE
0
BLOCK_RECORD
5
1B
100
AcDbSymbolTableRecord
100
AcDbBlockTableRecord
2
*PAPER_SPACE
0
ENDTAB
0
ENDSEC
0
SECTION
2
BLOCKS
0
BLOCK
5
20
100
AcDbEntity
100
AcDbBlockBegin
2
*MODEL_SPACE
0
ENDBLK
5
21
100
AcDbEntity
100
AcDbBlockEnd
0
BLOCK
5
1C
100
AcDbEntity
100
AcDbBlockBegin
2
*PAPER_SPACE
0
ENDBLK
5
1D
100
AcDbEntity
100
AcDbBlockEnd
0
ENDSEC
0
SECTION
2
ENTITIES
0
LWPOLYLINE
5
100
100
AcDbEntity
8
OUTER_PROFILES
100
AcDbPolyline
90
24
70
1
43
0.0
10
-5
20
5
10
-5
20
16.303966093520476
42
-0.39775236833892097
10
-0.28248587570614769
20
21.295979888576117
42
0.94501223713888771
10
-0.28248587570623879
20
188.02924064343682
42
-0.39775236833892125
10
-5.0000000000000009
20
193.02125443849249
10
-5
20
210.83647979121565
42
-0.25791049199601368
10
-2.660830045180286
20
215.06967993657446
10
79.636271278540804
20
266.7985357227783
10
85.999999999999972
20
270.96114598878466
10
85.999999999999972
20
341.96114598878478
42
-0.41421356237309709
10
91.000000000000014
20
346.96114598878478
10
145.99999999999997
20
346.96114598878478
42
-0.41421356237309503
10
150.99999999999997
20
341.96114598878478
10
150.99999999999994
20
270.96114598878466
10
157.3637287214591
20
266.7985357227783
10
239.66083004518021
20
215.0696799365744
42
-0.25791049199601002
10
241.99999999999989
20
210.83647979121562
10
242.00000000000003
20
193.02125443849249
42
-0.39775236833892608
10
237.28248587570616
20
188.02924064343676
42
0.94501223713888738
10
237.28248587570621
20
21.295979888576149
42
-0.39775236833892424
10
242.00000000000003
20
16.303966093520454
10
242
20
4.9999999999999956
42
-0.41421356237309476
10
237
20
5.5511151231257827e-16
10
0
20
5.5511151231257827e-16
42
-0.41421356237309503
0
LWPOLYLINE
5
101
100
AcDbEntity
8
INTERIOR_PROFILES
100
AcDbPolyline
90
4
70
1
43
0.0
10
119.54999999999998
20
296.06114598878469
10
117.44999999999997
20
296.06114598878469
10
117.44999999999997
20
280.96114598878472
10
119.54999999999998
20
280.96114598878472
0
CIRCLE
5
102
100
AcDbEntity
8
INTERIOR_PROFILES
100
AcDbCircle
10
-95.999999999999957
20
286.96114598878484
30
0
40
4.2500000000000071
210
0
220
0
230
-1
0
CIRCLE
5
103
100
AcDbEntity
8
INTERIOR_PROFILES
100
AcDbCircle
10
-140.99999999999997
20
286.96114598878478
30
0
40
4.2500000000000071
210
0
220
0
230
-1
0
LWPOLYLINE
5
104
100
AcDbEntity
8
INTERIOR_PROFILES
100
AcDbPolyline
90
4
70
1
43
0.0
10
119.54999999999998
20
321.86114598878481
10
119.54999999999998
20
336.96114598878478
10
117.44999999999997
20
336.96114598878478
10
117.44999999999997
20
321.86114598878481
0
CIRCLE
5
105
100
AcDbEntity
8
INTERIOR_PROFILES
100
AcDbCircle
10
-95.999999999999943
20
336.96114598878478
30
0
40
4.2500000000000071
210
0
220
0
230
-1
0
CIRCLE
5
106
100
AcDbEntity
8
INTERIOR_PROFILES
100
AcDbCircle
10
-140.99999999999997
20
336.96114598878478
30
0
40
4.2500000000000071
210
0
220
0
230
-1
0
LWPOLYLINE
5
107
100
AcDbEntity
8
INTERIOR_PROFILES
100
AcDbPolyline
90
4
70
1
43
0.0
10
119.55000000000001
20
158.06261026600649
10
119.55000000000001
20
183.16261026600648
10
117.45000000000002
20
183.16261026600648
10
117.45000000000002
20
158.06261026600646
0
CIRCLE
5
108
100
AcDbEntity
8
INTERIOR_PROFILES
100
AcDbCircle
10
4.4999999999999929
20
15.662610266006499
30
0
40
2.2500000000000142
210
0
220
0
230
1
0
CIRCLE
5
109
100
AcDbEntity
8
INTERIOR_PROFILES
100
AcDbCircle
10
232.5
20
193.66261026600648
30
0
40
2.2500000000000142
210
0
220
0
230
1
0
LWPOLYLINE
5
110
100
AcDbEntity
8
INTERIOR_PROFILES
100
AcDbPolyline
90
4
70
1
43
0.0
10
119.55000000000001
20
41.262610266006483
10
117.45000000000002
20
41.262610266006483
10
117.45000000000002
20
16.162610266006489
10
119.55000000000001
20
16.162610266006489
0
LWPOLYLINE
5
111
100
AcDbEntity
8
INTERIOR_PROFILES
100
AcDbPolyline
90
4
70
1
43
0.0
10
117.45000000000005
20
92.112610266006499
10
119.55000000000001
20
92.112610266006499
10
119.55000000000001
20
117.21261026600646
10
117.45000000000002
20
117.21261026600651
0
CIRCLE
5
112
100
AcDbEntity
8
INTERIOR_PROFILES
100
AcDbCircle
10
4.4999999999999929
20
193.66261026600648
30
0
40
2.2500000000000142
210
0
220
0
230
1
0
CIRCLE
5
113
100
AcDbEntity
8
INTERIOR_PROFILES
100
AcDbCircle
10
232.5
20
15.662610266006499
30
0
40
2.2500000000000142
210
0
220
0
230
1
0
LWPOLYLINE
5
114
100
AcDbEntity
8
INTERIOR_PROFILES
100
AcDbPolyline
90
4
70
1
43
0.0
10
117.44999999999999
20
247.24895079919773
10
117.44999999999999
20
227.14895079919771
10
119.55
20
227.14895079919771
10
119.55
20
247.24895079919773
0
CIRCLE
5
115
100
AcDbEntity
8
INTERIOR_PROFILES
100
AcDbCircle
10
-158.5
20
230.79853572277827
30
0
40
15
210
0
220
0
230
-1
0
CIRCLE
5
116
100
AcDbEntity
8
INTERIOR_PROFILES
100
AcDbCircle
10
-78.5
20
230.79853572277827
30
0
40
15
210
0
220
0
230
-1
0
LINE
5
117
100
AcDbEntity
8
BEND
100
AcDbLine
10
-5
20
8.081305133003239
30
-9.8682740942196294e-15
11
242
21
8.081305133003239
31
-1.0670851861345773e-14
0
LINE
5
118
100
AcDbEntity
8
BEND
100
AcDbLine
10
154.18186436072946
20
268.87984085578148
30
9.6267634002352736e-14
11
82.818135639270395
21
268.87984085578148
31
1.1165479367167222e-14
0
LINE
5
119
100
AcDbEntity
8
BEND
100
AcDbLine
10
241.99999999999989
20
201.98057299439242
30
-3.8857805861880479e-15
11
-5
21
201.98057299439242
31
3.8302694349567901e-14
0
LINE
5
120
100
AcDbEntity
8
BEND_EXTENT
100
AcDbLine
10
-5
20
10.162610266006471
30
-1.2212453270876722e-14
11
242
21
10.162610266006471
31
-1.2212453270876722e-14
0
LINE
5
121
100
AcDbEntity
8
BEND_EXTENT
100
AcDbLine
10
242
20
200.36178011316764
30
-1.2212453270876722e-14
11
-5
21
200.36178011316764
31
-1.2212453270876722e-14
0
LINE
5
122
100
AcDbEntity
8
BEND_EXTENT
100
AcDbLine
10
242
20
6.0000000000000009
30
-7.7715611723760958e-15
11
-5
21
6.0000000000000009
31
-7.7715611723760958e-15
0
LINE
5
123
100
AcDbEntity
8
BEND_EXTENT
100
AcDbLine
10
85.999999999999972
20
270.96114598878466
30
5.8841820305133297e-14
11
150.99999999999994
21
270.96114598878466
31
5.8841820305133297e-14
0
LINE
5
124
100
AcDbEntity
8
BEND_EXTENT
100
AcDbLine
10
157.3637287214591
20
266.7985357227783
30
2.3314683517128287e-14
11
79.636271278540804
21
266.7985357227783
31
2.3314683517128287e-14
0
LINE
5
125
100
AcDbEntity
8
BEND_EXTENT
100
AcDbLine
10
-5
20
203.59936587561717
30
2.3314683517128287e-14
11
241.99999999999989
21
203.59936587561714
31
-1.2212453270876722e-14
0
ENDSEC
0
SECTION
2
OBJECTS
0
DICTIONARY
5
C
100
AcDbDictionary
3
ACAD_GROUP
350
D
3
ACAD_MLINESTYLE
350
17
0
DICTIONARY
5
D
100
AcDbDictionary
0
DICTIONARY
5
1A
330
C
100
AcDbDictionary
0
DICTIONARY
5
17
100
AcDbDictionary
0
ENDSEC
0
EOF
