0
SECTION
2
HEADER
9
$INSUNITS
70
4
9
$ACADVER
1
AC1014
9
$HANDSEED
5
FFFF
0
ENDSEC
0
SECTION
2
TABLES
0
TABLE
2
VPORT
5
8
100
AcDbSymbolTable
0
ENDTAB
0
TABLE
2
LTYPE
5
5
100
AcDbSymbolTable
0
LTYPE
5
14
100
AcDbSymbolTableRecord
100
AcDbLinetypeTableRecord
2
BYBLOCK
70
0
0
LTYPE
5
15
100
AcDbSymbolTableRecord
100
AcDbLinetypeTableRecord
2
BYLAYER
70
0
0
LTYPE
5
16
100
AcDbSymbolTableRecord
100
AcDbLinetypeTableRecord
2
DASHED
70
0
3
Dashed __ __ __ __ __ __ __ __ __ __ __ __ __ _
72
65
73
2
40
0.75
49
0.5
74
0
49
-0.25
74
0
0
ENDTAB
0
TABLE
2
LAYER
5
2
100
AcDbSymbolTable
70
2
0
LAYER
5
50
100
AcDbSymbolTableRecord
100
AcDbLayerTableRecord
2
0
70
0
62
7
6
CONTINUOUS
0
ENDTAB
0
TABLE
2
STYLE
5
3
100
AcDbSymbolTable
70
1
0
STYLE
5
11
100
AcDbSymbolTableRecord
100
AcDbTextStyleTableRecord
2
STANDARD
70
0
0
ENDTAB
0
TABLE
2
VIEW
5
6
100
AcDbSymbolTable
70
0
0
ENDTAB
0
TABLE
2
UCS
5
7
100
AcDbSymbolTable
70
0
0
ENDTAB
0
TABLE
2
APPID
5
9
100
AcDbSymbolTable
70
2
0
APPID
5
12
100
AcDbSymbolTableRecord
100
AcDbRegAppTableRecord
2
ACAD
70
0
0
ENDTAB
0
TABLE
2
DIMSTYLE
5
A
100
AcDbSymbolTable
70
1
0
ENDTAB
0
TABLE
2
BLOCK_RECORD
5
1
100
AcDbSymbolTable
70
1
0
BLOCK_RECORD
5
1F
100
AcDbSymbolTableRecord
100
AcDbBlockTableRecord
2
*MODEL_SPACE
0
BLOCK_RECORD
5
1B
100
AcDbSymbolTableRecord
100
AcDbBlockTableRecord
2
*PAPER_SPACE
0
ENDTAB
0
ENDSEC
0
SECTION
2
BLOCKS
0
BLOCK
5
20
100
AcDbEntity
100
AcDbBlockBegin
2
*MODEL_SPACE
0
ENDBLK
5
21
100
AcDbEntity
100
AcDbBlockEnd
0
BLOCK
5
1C
100
AcDbEntity
100
AcDbBlockBegin
2
*PAPER_SPACE
0
ENDBLK
5
1D
100
AcDbEntity
100
AcDbBlockEnd
0
ENDSEC
0
SECTION
2
ENTITIES
0
CIRCLE
5
100
100
AcDbEntity
8
0
100
AcDbCircle
10
42.331736575822958
20
50.493511929634749
30
0
40
10
210
0
220
0
230
1
0
CIRCLE
5
101
100
AcDbEntity
8
0
100
AcDbCircle
10
94.35134989255684
20
123.93709456540684
30
0
40
20
210
0
220
0
230
1
0
CIRCLE
5
102
100
AcDbEntity
8
0
100
AcDbCircle
10
65.451564716593552
20
83.135104212200133
30
0
40
15
210
0
220
0
230
1
0
LINE
5
103
100
AcDbEntity
8
0
100
AcDbLine
10
130.12877687356283
20
174.19236639735783
30
0
11
110.57919194998226
21
174.19236639735789
31
0
0
LINE
5
104
100
AcDbEntity
8
0
100
AcDbLine
10
110.57919194998226
20
174.19236639735789
30
0
11
110.57919194998226
21
176.19236639735786
31
0
0
LINE
5
105
100
AcDbEntity
8
0
100
AcDbLine
10
110.57919194998226
20
176.19236639735786
30
0
11
90.479191949982265
21
176.19236639735789
31
0
0
LINE
5
106
100
AcDbEntity
8
0
100
AcDbLine
10
90.479191949982265
20
176.19236639735789
30
0
11
90.479191949982265
21
174.19236639735794
31
0
0
LINE
5
107
100
AcDbEntity
8
0
100
AcDbLine
10
90.479191949982265
20
174.19236639735794
30
0
11
66.929607026401641
21
174.19236639735789
31
0
0
ARC
5
108
100
AcDbEntity
8
0
100
AcDbCircle
10
66.929607026401669
20
172.19236639735789
30
0
40
1.9999999999999929
210
0
220
0
230
1
100
AcDbArc
50
90.00000000000081
51
159.99999999999991
0
LINE
5
109
100
AcDbEntity
8
0
100
AcDbLine
10
65.050221784829859
20
172.87640668400923
30
0
11
59.167759248621287
21
156.71447369498844
31
0
0
LINE
5
110
100
AcDbEntity
8
0
100
AcDbLine
10
59.167759248621287
20
156.71447369498844
30
0
11
57.288374007049462
21
157.39851398163975
31
0
0
LINE
5
111
100
AcDbEntity
8
0
100
AcDbLine
10
57.288374007049462
20
157.39851398163975
30
0
11
48.703668409575172
21
133.81222919991342
31
0
0
LINE
5
112
100
AcDbEntity
8
0
100
AcDbLine
10
48.703668409575172
20
133.81222919991342
30
0
11
50.583053651146997
21
133.12818891326208
31
0
0
LINE
5
113
100
AcDbEntity
8
0
100
AcDbLine
10
50.583053651146997
20
133.12818891326208
30
0
11
36.611530796293444
21
94.741745354157686
31
0
0
LINE
5
114
100
AcDbEntity
8
0
100
AcDbLine
10
36.611530796293444
20
94.741745354157686
30
0
11
34.732145554721619
21
95.425785640809011
31
0
0
LINE
5
115
100
AcDbEntity
8
0
100
AcDbLine
10
34.732145554721619
20
95.425785640809011
30
0
11
26.14743995724735
21
71.839500859082733
31
0
0
LINE
5
116
100
AcDbEntity
8
0
100
AcDbLine
10
26.14743995724735
20
71.839500859082733
30
0
11
28.026825198819164
21
71.155460572431394
31
0
0
LINE
5
117
100
AcDbEntity
8
0
100
AcDbLine
10
28.026825198819164
20
71.155460572431394
30
0
11
10.635100910708932
21
23.372090805467913
31
0
0
LINE
5
118
100
AcDbEntity
8
0
100
AcDbLine
10
10.635100910708932
20
23.372090805467913
30
0
11
8.755715669137107
21
24.056131092119255
31
0
0
LINE
5
119
100
AcDbEntity
8
0
100
AcDbLine
10
8.755715669137107
20
24.056131092119255
30
0
11
0.17101007166283155
21
0.46984631039294289
31
0
0
LINE
5
120
100
AcDbEntity
8
0
100
AcDbLine
10
0.17101007166283155
20
0.46984631039294289
30
0
11
2.5634255282231511
21
1.195344954920472
31
0
0
LINE
5
121
100
AcDbEntity
8
0
100
AcDbLine
10
2.5634255282231511
20
1.195344954920472
30
0
11
-0.0017255467193688645
21
-5.8523497009738632
31
0
0
ARC
5
122
100
AcDbEntity
8
0
100
AcDbCircle
10
1.8776596948524495
20
-6.5363899876251992
30
0
40
2.0000000000000013
210
0
220
0
230
1
100
AcDbArc
50
160.00000000000009
51
250.00000000000003
0
LINE
5
123
100
AcDbEntity
8
0
100
AcDbLine
10
1.1936194082011131
20
-8.4157752291970169
30
0
11
6.8317751329165688
21
-10.467896089151036
31
0
0
LINE
5
124
100
AcDbEntity
8
0
100
AcDbLine
10
6.8317751329165688
20
-10.467896089151036
30
0
11
132.12877687356203
21
96.192366397357773
31
0
0
LINE
5
125
100
AcDbEntity
8
0
100
AcDbLine
10
132.12877687356203
20
96.192366397357773
30
0
11
132.12877687356215
21
106.19236639735776
31
0
0
LINE
5
126
100
AcDbEntity
8
0
100
AcDbLine
10
132.12877687356215
20
106.19236639735776
30
0
11
134.12877687356141
21
106.19236639735776
31
0
0
LINE
5
127
100
AcDbEntity
8
0
100
AcDbLine
10
134.12877687356141
20
106.19236639735776
30
0
11
134.12877687356146
21
121.29236639735781
31
0
0
LINE
5
128
100
AcDbEntity
8
0
100
AcDbLine
10
134.12877687356146
20
121.29236639735781
30
0
11
132.12877687356229
21
121.29236639735781
31
0
0
LINE
5
129
100
AcDbEntity
8
0
100
AcDbLine
10
132.12877687356229
20
121.29236639735781
30
0
11
132.12877687356257
21
147.09236639735789
31
0
0
LINE
5
130
100
AcDbEntity
8
0
100
AcDbLine
10
132.12877687356257
20
147.09236639735789
30
0
11
134.12877687356155
21
147.09236639735789
31
0
0
LINE
5
131
100
AcDbEntity
8
0
100
AcDbLine
10
134.12877687356155
20
147.09236639735789
30
0
11
134.12877687356161
21
162.19236639735789
31
0
0
LINE
5
132
100
AcDbEntity
8
0
100
AcDbLine
10
134.12877687356161
20
162.19236639735789
30
0
11
132.12877687356271
21
162.19236639735789
31
0
0
LINE
5
133
100
AcDbEntity
8
0
100
AcDbLine
10
132.12877687356271
20
162.19236639735789
30
0
11
132.1287768735628
21
172.19236639735786
31
0
0
SPLINE
5
134
100
AcDbEntity
8
0
100
AcDbSpline
70
0
71
3
72
11
73
7
74
0
42
0.000000001
43
0.0000000001
44
0.0000000001
40
-1.5707963267948961
40
-1.5707963267948961
40
-1.5707963267948961
40
-1.5707963267948961
40
-1.1774530671587427
40
-1.1774530671587427
40
-1.1774530671587427
40
0
40
0
40
0
40
0
10
132.1287768735628
20
172.19236639735786
30
0
10
132.1287768735628
20
172.45459523711531
30
0
10
132.076549198034
20
172.716720224868
30
0
10
131.97604252279331
20
172.95892338882877
30
0
10
131.67518089587352
20
173.68394625700989
30
0
10
130.913745585002
20
174.19236639735783
30
0
10
130.12877687356283
20
174.19236639735783
30
0
0
ENDSEC
0
SECTION
2
OBJECTS
0
DICTIONARY
5
C
100
AcDbDictionary
3
ACAD_GROUP
350
D
3
ACAD_MLINESTYLE
350
17
0
DICTIONARY
5
D
100
AcDbDictionary
0
DICTIONARY
5
1A
330
C
100
AcDbDictionary
0
DICTIONARY
5
17
100
AcDbDictionary
0
ENDSEC
0
EOF
