M48
; DRILL file KiCad 10.0.4 date 2026-07-20T13:27:29
; FORMAT={-:-/ absolute / metric / decimal}
; #@! TF.CreationDate,2026-07-20T13:27:29+02:00
; #@! TF.GenerationSoftware,Kicad,Pcbnew,10.0.4
; #@! TF.FileFunction,Plated,1,2,PTH
FMAT,2
METRIC
; #@! TA.AperFunction,Plated,PTH,ViaDrill
T1C0.300
; #@! TA.AperFunction,Plated,PTH,ComponentDrill
T2C0.800
; #@! TA.AperFunction,Plated,PTH,ComponentDrill
T3C1.020
; #@! TA.AperFunction,Plated,PTH,ComponentDrill
T4C3.500
%
G90
G05
T1
X143.51Y-68.326
X149.86Y-88.646
X161.823Y-101.6
X163.017Y-97.688
X164.287Y-94.742
T2
X123.02Y-72.18
X123.02Y-107.74
X125.56Y-72.18
X125.56Y-107.74
X128.1Y-72.18
X128.1Y-107.74
X130.64Y-72.18
X130.64Y-107.74
X133.18Y-72.18
X133.18Y-107.74
X154.0Y-72.5
X154.0Y-75.0
X163.66Y-72.18
X163.66Y-107.74
X166.2Y-72.18
X166.2Y-107.74
X168.5Y-78.0
X168.5Y-81.5
X168.74Y-72.18
X168.74Y-107.74
X171.28Y-72.18
X171.28Y-107.74
X173.82Y-72.18
X173.82Y-107.74
T3
X139.72Y-72.3
X139.72Y-74.84
X139.72Y-77.38
X139.72Y-79.92
X139.72Y-82.46
X139.72Y-85.0
X139.72Y-87.54
X139.72Y-90.08
X139.72Y-92.62
X139.72Y-95.16
X139.72Y-97.7
X139.72Y-100.24
X139.72Y-102.78
X139.72Y-105.32
X157.5Y-72.3
X157.5Y-74.84
X157.5Y-77.38
X157.5Y-79.92
X157.5Y-82.46
X157.5Y-85.0
X157.5Y-87.54
X157.5Y-90.08
X157.5Y-92.62
X157.5Y-95.16
X157.5Y-97.7
X157.5Y-100.24
X157.5Y-102.78
X157.5Y-105.32
T4
X128.1Y-64.56
X128.1Y-115.36
X168.74Y-64.56
X168.74Y-115.36
M30
