%TF.GenerationSoftware,KiCad,Pcbnew,10.0.4*%
%TF.CreationDate,2026-07-20T13:27:26+02:00*%
%TF.ProjectId,adapter-walter,61646170-7465-4722-9d77-616c7465722e,rev?*%
%TF.SameCoordinates,Original*%
%TF.FileFunction,Soldermask,Bot*%
%TF.FilePolarity,Negative*%
%FSLAX46Y46*%
G04 Gerber Fmt 4.6, Leading zero omitted, Abs format (unit mm)*
G04 Created by KiCad (PCBNEW 10.0.4) date 2026-07-20 13:27:26*
%MOMM*%
%LPD*%
G01*
G04 APERTURE LIST*
G04 Aperture macros list*
%AMRoundRect*
0 Rectangle with rounded corners*
0 $1 Rounding radius*
0 $2 $3 $4 $5 $6 $7 $8 $9 X,Y pos of 4 corners*
0 Add a 4 corners polygon primitive as box body*
4,1,4,$2,$3,$4,$5,$6,$7,$8,$9,$2,$3,0*
0 Add four circle primitives for the rounded corners*
1,1,$1+$1,$2,$3*
1,1,$1+$1,$4,$5*
1,1,$1+$1,$6,$7*
1,1,$1+$1,$8,$9*
0 Add four rect primitives between the rounded corners*
20,1,$1+$1,$2,$3,$4,$5,0*
20,1,$1+$1,$4,$5,$6,$7,0*
20,1,$1+$1,$6,$7,$8,$9,0*
20,1,$1+$1,$8,$9,$2,$3,0*%
G04 Aperture macros list end*
%ADD10R,2.000000X2.000000*%
%ADD11C,2.000000*%
%ADD12C,7.000000*%
%ADD13RoundRect,0.250000X-0.550000X0.550000X-0.550000X-0.550000X0.550000X-0.550000X0.550000X0.550000X0*%
%ADD14C,1.600000*%
G04 APERTURE END LIST*
D10*
%TO.C,U2*%
X123020000Y-72180000D03*
D11*
X125560000Y-72180000D03*
X128100000Y-72180000D03*
X130640000Y-72180000D03*
X133180000Y-72180000D03*
D10*
X163660000Y-72180000D03*
D11*
X166200000Y-72180000D03*
X168740000Y-72180000D03*
X171280000Y-72180000D03*
X173820000Y-72180000D03*
D10*
X123020000Y-107740000D03*
D11*
X125560000Y-107740000D03*
X128100000Y-107740000D03*
X130640000Y-107740000D03*
X133180000Y-107740000D03*
D10*
X163660000Y-107740000D03*
D11*
X166200000Y-107740000D03*
X168740000Y-107740000D03*
X171280000Y-107740000D03*
X173820000Y-107740000D03*
D12*
X168740000Y-64560000D03*
X128100000Y-64560000D03*
X128100000Y-115360000D03*
X168740000Y-115360000D03*
%TD*%
D11*
%TO.C,U1*%
X139720000Y-72300000D03*
X139720000Y-74840000D03*
X139720000Y-77380000D03*
X139720000Y-79920000D03*
X139720000Y-82460000D03*
X139720000Y-85000000D03*
X139720000Y-87540000D03*
X139720000Y-90080000D03*
X139720000Y-92620000D03*
X139720000Y-95160000D03*
X139720000Y-97700000D03*
X139720000Y-100240000D03*
X139720000Y-102780000D03*
X139720000Y-105320000D03*
X157500000Y-105320000D03*
X157500000Y-102780000D03*
X157500000Y-100240000D03*
X157500000Y-97700000D03*
X157500000Y-95160000D03*
X157500000Y-92620000D03*
X157500000Y-90080000D03*
X157500000Y-87540000D03*
X157500000Y-85000000D03*
X157500000Y-82460000D03*
X157500000Y-79920000D03*
X157500000Y-77380000D03*
X157500000Y-74840000D03*
D10*
X157500000Y-72300000D03*
%TD*%
D13*
%TO.C,C1*%
X168500000Y-78000000D03*
D14*
X168500000Y-81500000D03*
%TD*%
%TO.C,C2*%
X154000000Y-72500000D03*
X154000000Y-75000000D03*
%TD*%
M02*
