%TF.GenerationSoftware,KiCad,Pcbnew,10.0.4*%
%TF.CreationDate,2026-07-20T13:26:21+02:00*%
%TF.ProjectId,Heltec v3 adapter,48656c74-6563-4207-9633-206164617074,rev?*%
%TF.SameCoordinates,Original*%
%TF.FileFunction,Legend,Top*%
%TF.FilePolarity,Positive*%
%FSLAX46Y46*%
G04 Gerber Fmt 4.6, Leading zero omitted, Abs format (unit mm)*
G04 Created by KiCad (PCBNEW 10.0.4) date 2026-07-20 13:26:21*
%MOMM*%
%LPD*%
G01*
G04 APERTURE LIST*
%ADD10C,0.300000*%
%ADD11C,0.150000*%
%ADD12C,0.100000*%
%ADD13C,0.120000*%
%ADD14C,0.127000*%
%ADD15C,0.200000*%
G04 APERTURE END LIST*
D10*
X128874858Y-123877912D02*
X128874858Y-122377912D01*
X128874858Y-123092198D02*
X129732001Y-123092198D01*
X129732001Y-123877912D02*
X129732001Y-122377912D01*
X131017716Y-123806484D02*
X130874859Y-123877912D01*
X130874859Y-123877912D02*
X130589145Y-123877912D01*
X130589145Y-123877912D02*
X130446287Y-123806484D01*
X130446287Y-123806484D02*
X130374859Y-123663626D01*
X130374859Y-123663626D02*
X130374859Y-123092198D01*
X130374859Y-123092198D02*
X130446287Y-122949341D01*
X130446287Y-122949341D02*
X130589145Y-122877912D01*
X130589145Y-122877912D02*
X130874859Y-122877912D01*
X130874859Y-122877912D02*
X131017716Y-122949341D01*
X131017716Y-122949341D02*
X131089145Y-123092198D01*
X131089145Y-123092198D02*
X131089145Y-123235055D01*
X131089145Y-123235055D02*
X130374859Y-123377912D01*
X131946287Y-123877912D02*
X131803430Y-123806484D01*
X131803430Y-123806484D02*
X131732001Y-123663626D01*
X131732001Y-123663626D02*
X131732001Y-122377912D01*
X132303430Y-122877912D02*
X132874858Y-122877912D01*
X132517715Y-122377912D02*
X132517715Y-123663626D01*
X132517715Y-123663626D02*
X132589144Y-123806484D01*
X132589144Y-123806484D02*
X132732001Y-123877912D01*
X132732001Y-123877912D02*
X132874858Y-123877912D01*
X133946287Y-123806484D02*
X133803430Y-123877912D01*
X133803430Y-123877912D02*
X133517716Y-123877912D01*
X133517716Y-123877912D02*
X133374858Y-123806484D01*
X133374858Y-123806484D02*
X133303430Y-123663626D01*
X133303430Y-123663626D02*
X133303430Y-123092198D01*
X133303430Y-123092198D02*
X133374858Y-122949341D01*
X133374858Y-122949341D02*
X133517716Y-122877912D01*
X133517716Y-122877912D02*
X133803430Y-122877912D01*
X133803430Y-122877912D02*
X133946287Y-122949341D01*
X133946287Y-122949341D02*
X134017716Y-123092198D01*
X134017716Y-123092198D02*
X134017716Y-123235055D01*
X134017716Y-123235055D02*
X133303430Y-123377912D01*
X135303430Y-123806484D02*
X135160572Y-123877912D01*
X135160572Y-123877912D02*
X134874858Y-123877912D01*
X134874858Y-123877912D02*
X134732001Y-123806484D01*
X134732001Y-123806484D02*
X134660572Y-123735055D01*
X134660572Y-123735055D02*
X134589144Y-123592198D01*
X134589144Y-123592198D02*
X134589144Y-123163626D01*
X134589144Y-123163626D02*
X134660572Y-123020769D01*
X134660572Y-123020769D02*
X134732001Y-122949341D01*
X134732001Y-122949341D02*
X134874858Y-122877912D01*
X134874858Y-122877912D02*
X135160572Y-122877912D01*
X135160572Y-122877912D02*
X135303430Y-122949341D01*
X136874858Y-122377912D02*
X137374858Y-123877912D01*
X137374858Y-123877912D02*
X137874858Y-122377912D01*
X138232000Y-122377912D02*
X139160572Y-122377912D01*
X139160572Y-122377912D02*
X138660572Y-122949341D01*
X138660572Y-122949341D02*
X138874857Y-122949341D01*
X138874857Y-122949341D02*
X139017715Y-123020769D01*
X139017715Y-123020769D02*
X139089143Y-123092198D01*
X139089143Y-123092198D02*
X139160572Y-123235055D01*
X139160572Y-123235055D02*
X139160572Y-123592198D01*
X139160572Y-123592198D02*
X139089143Y-123735055D01*
X139089143Y-123735055D02*
X139017715Y-123806484D01*
X139017715Y-123806484D02*
X138874857Y-123877912D01*
X138874857Y-123877912D02*
X138446286Y-123877912D01*
X138446286Y-123877912D02*
X138303429Y-123806484D01*
X138303429Y-123806484D02*
X138232000Y-123735055D01*
X141589143Y-123877912D02*
X141589143Y-123092198D01*
X141589143Y-123092198D02*
X141517714Y-122949341D01*
X141517714Y-122949341D02*
X141374857Y-122877912D01*
X141374857Y-122877912D02*
X141089143Y-122877912D01*
X141089143Y-122877912D02*
X140946285Y-122949341D01*
X141589143Y-123806484D02*
X141446285Y-123877912D01*
X141446285Y-123877912D02*
X141089143Y-123877912D01*
X141089143Y-123877912D02*
X140946285Y-123806484D01*
X140946285Y-123806484D02*
X140874857Y-123663626D01*
X140874857Y-123663626D02*
X140874857Y-123520769D01*
X140874857Y-123520769D02*
X140946285Y-123377912D01*
X140946285Y-123377912D02*
X141089143Y-123306484D01*
X141089143Y-123306484D02*
X141446285Y-123306484D01*
X141446285Y-123306484D02*
X141589143Y-123235055D01*
X142946286Y-123877912D02*
X142946286Y-122377912D01*
X142946286Y-123806484D02*
X142803428Y-123877912D01*
X142803428Y-123877912D02*
X142517714Y-123877912D01*
X142517714Y-123877912D02*
X142374857Y-123806484D01*
X142374857Y-123806484D02*
X142303428Y-123735055D01*
X142303428Y-123735055D02*
X142232000Y-123592198D01*
X142232000Y-123592198D02*
X142232000Y-123163626D01*
X142232000Y-123163626D02*
X142303428Y-123020769D01*
X142303428Y-123020769D02*
X142374857Y-122949341D01*
X142374857Y-122949341D02*
X142517714Y-122877912D01*
X142517714Y-122877912D02*
X142803428Y-122877912D01*
X142803428Y-122877912D02*
X142946286Y-122949341D01*
X144303429Y-123877912D02*
X144303429Y-123092198D01*
X144303429Y-123092198D02*
X144232000Y-122949341D01*
X144232000Y-122949341D02*
X144089143Y-122877912D01*
X144089143Y-122877912D02*
X143803429Y-122877912D01*
X143803429Y-122877912D02*
X143660571Y-122949341D01*
X144303429Y-123806484D02*
X144160571Y-123877912D01*
X144160571Y-123877912D02*
X143803429Y-123877912D01*
X143803429Y-123877912D02*
X143660571Y-123806484D01*
X143660571Y-123806484D02*
X143589143Y-123663626D01*
X143589143Y-123663626D02*
X143589143Y-123520769D01*
X143589143Y-123520769D02*
X143660571Y-123377912D01*
X143660571Y-123377912D02*
X143803429Y-123306484D01*
X143803429Y-123306484D02*
X144160571Y-123306484D01*
X144160571Y-123306484D02*
X144303429Y-123235055D01*
X145017714Y-122877912D02*
X145017714Y-124377912D01*
X145017714Y-122949341D02*
X145160572Y-122877912D01*
X145160572Y-122877912D02*
X145446286Y-122877912D01*
X145446286Y-122877912D02*
X145589143Y-122949341D01*
X145589143Y-122949341D02*
X145660572Y-123020769D01*
X145660572Y-123020769D02*
X145732000Y-123163626D01*
X145732000Y-123163626D02*
X145732000Y-123592198D01*
X145732000Y-123592198D02*
X145660572Y-123735055D01*
X145660572Y-123735055D02*
X145589143Y-123806484D01*
X145589143Y-123806484D02*
X145446286Y-123877912D01*
X145446286Y-123877912D02*
X145160572Y-123877912D01*
X145160572Y-123877912D02*
X145017714Y-123806484D01*
X146160572Y-122877912D02*
X146732000Y-122877912D01*
X146374857Y-122377912D02*
X146374857Y-123663626D01*
X146374857Y-123663626D02*
X146446286Y-123806484D01*
X146446286Y-123806484D02*
X146589143Y-123877912D01*
X146589143Y-123877912D02*
X146732000Y-123877912D01*
X147803429Y-123806484D02*
X147660572Y-123877912D01*
X147660572Y-123877912D02*
X147374858Y-123877912D01*
X147374858Y-123877912D02*
X147232000Y-123806484D01*
X147232000Y-123806484D02*
X147160572Y-123663626D01*
X147160572Y-123663626D02*
X147160572Y-123092198D01*
X147160572Y-123092198D02*
X147232000Y-122949341D01*
X147232000Y-122949341D02*
X147374858Y-122877912D01*
X147374858Y-122877912D02*
X147660572Y-122877912D01*
X147660572Y-122877912D02*
X147803429Y-122949341D01*
X147803429Y-122949341D02*
X147874858Y-123092198D01*
X147874858Y-123092198D02*
X147874858Y-123235055D01*
X147874858Y-123235055D02*
X147160572Y-123377912D01*
X148517714Y-123877912D02*
X148517714Y-122877912D01*
X148517714Y-123163626D02*
X148589143Y-123020769D01*
X148589143Y-123020769D02*
X148660572Y-122949341D01*
X148660572Y-122949341D02*
X148803429Y-122877912D01*
X148803429Y-122877912D02*
X148946286Y-122877912D01*
X150446285Y-122877912D02*
X150803428Y-123877912D01*
X150803428Y-123877912D02*
X151160571Y-122877912D01*
X152517714Y-123877912D02*
X151660571Y-123877912D01*
X152089142Y-123877912D02*
X152089142Y-122377912D01*
X152089142Y-122377912D02*
X151946285Y-122592198D01*
X151946285Y-122592198D02*
X151803428Y-122735055D01*
X151803428Y-122735055D02*
X151660571Y-122806484D01*
X153160570Y-123735055D02*
X153231999Y-123806484D01*
X153231999Y-123806484D02*
X153160570Y-123877912D01*
X153160570Y-123877912D02*
X153089142Y-123806484D01*
X153089142Y-123806484D02*
X153160570Y-123735055D01*
X153160570Y-123735055D02*
X153160570Y-123877912D01*
X154160571Y-122377912D02*
X154303428Y-122377912D01*
X154303428Y-122377912D02*
X154446285Y-122449341D01*
X154446285Y-122449341D02*
X154517714Y-122520769D01*
X154517714Y-122520769D02*
X154589142Y-122663626D01*
X154589142Y-122663626D02*
X154660571Y-122949341D01*
X154660571Y-122949341D02*
X154660571Y-123306484D01*
X154660571Y-123306484D02*
X154589142Y-123592198D01*
X154589142Y-123592198D02*
X154517714Y-123735055D01*
X154517714Y-123735055D02*
X154446285Y-123806484D01*
X154446285Y-123806484D02*
X154303428Y-123877912D01*
X154303428Y-123877912D02*
X154160571Y-123877912D01*
X154160571Y-123877912D02*
X154017714Y-123806484D01*
X154017714Y-123806484D02*
X153946285Y-123735055D01*
X153946285Y-123735055D02*
X153874856Y-123592198D01*
X153874856Y-123592198D02*
X153803428Y-123306484D01*
X153803428Y-123306484D02*
X153803428Y-122949341D01*
X153803428Y-122949341D02*
X153874856Y-122663626D01*
X153874856Y-122663626D02*
X153946285Y-122520769D01*
X153946285Y-122520769D02*
X154017714Y-122449341D01*
X154017714Y-122449341D02*
X154160571Y-122377912D01*
X126339143Y-124792828D02*
X127196286Y-124792828D01*
X126767714Y-126292828D02*
X126767714Y-124792828D01*
X127553428Y-125292828D02*
X127839143Y-126292828D01*
X127839143Y-126292828D02*
X128124857Y-125578542D01*
X128124857Y-125578542D02*
X128410571Y-126292828D01*
X128410571Y-126292828D02*
X128696285Y-125292828D01*
X129267714Y-126292828D02*
X129267714Y-125292828D01*
X129267714Y-124792828D02*
X129196286Y-124864257D01*
X129196286Y-124864257D02*
X129267714Y-124935685D01*
X129267714Y-124935685D02*
X129339143Y-124864257D01*
X129339143Y-124864257D02*
X129267714Y-124792828D01*
X129267714Y-124792828D02*
X129267714Y-124935685D01*
X129982000Y-125292828D02*
X129982000Y-126292828D01*
X129982000Y-125435685D02*
X130053429Y-125364257D01*
X130053429Y-125364257D02*
X130196286Y-125292828D01*
X130196286Y-125292828D02*
X130410572Y-125292828D01*
X130410572Y-125292828D02*
X130553429Y-125364257D01*
X130553429Y-125364257D02*
X130624858Y-125507114D01*
X130624858Y-125507114D02*
X130624858Y-126292828D01*
X131624858Y-124792828D02*
X131910572Y-124792828D01*
X131910572Y-124792828D02*
X132053429Y-124864257D01*
X132053429Y-124864257D02*
X132196286Y-125007114D01*
X132196286Y-125007114D02*
X132267715Y-125292828D01*
X132267715Y-125292828D02*
X132267715Y-125792828D01*
X132267715Y-125792828D02*
X132196286Y-126078542D01*
X132196286Y-126078542D02*
X132053429Y-126221400D01*
X132053429Y-126221400D02*
X131910572Y-126292828D01*
X131910572Y-126292828D02*
X131624858Y-126292828D01*
X131624858Y-126292828D02*
X131482001Y-126221400D01*
X131482001Y-126221400D02*
X131339143Y-126078542D01*
X131339143Y-126078542D02*
X131267715Y-125792828D01*
X131267715Y-125792828D02*
X131267715Y-125292828D01*
X131267715Y-125292828D02*
X131339143Y-125007114D01*
X131339143Y-125007114D02*
X131482001Y-124864257D01*
X131482001Y-124864257D02*
X131624858Y-124792828D01*
X133553430Y-126292828D02*
X133553430Y-125507114D01*
X133553430Y-125507114D02*
X133482001Y-125364257D01*
X133482001Y-125364257D02*
X133339144Y-125292828D01*
X133339144Y-125292828D02*
X133053430Y-125292828D01*
X133053430Y-125292828D02*
X132910572Y-125364257D01*
X133553430Y-126221400D02*
X133410572Y-126292828D01*
X133410572Y-126292828D02*
X133053430Y-126292828D01*
X133053430Y-126292828D02*
X132910572Y-126221400D01*
X132910572Y-126221400D02*
X132839144Y-126078542D01*
X132839144Y-126078542D02*
X132839144Y-125935685D01*
X132839144Y-125935685D02*
X132910572Y-125792828D01*
X132910572Y-125792828D02*
X133053430Y-125721400D01*
X133053430Y-125721400D02*
X133410572Y-125721400D01*
X133410572Y-125721400D02*
X133553430Y-125649971D01*
X134267715Y-126292828D02*
X134267715Y-124792828D01*
X134410573Y-125721400D02*
X134839144Y-126292828D01*
X134839144Y-125292828D02*
X134267715Y-125864257D01*
X136553430Y-126221400D02*
X136767716Y-126292828D01*
X136767716Y-126292828D02*
X137124858Y-126292828D01*
X137124858Y-126292828D02*
X137267716Y-126221400D01*
X137267716Y-126221400D02*
X137339144Y-126149971D01*
X137339144Y-126149971D02*
X137410573Y-126007114D01*
X137410573Y-126007114D02*
X137410573Y-125864257D01*
X137410573Y-125864257D02*
X137339144Y-125721400D01*
X137339144Y-125721400D02*
X137267716Y-125649971D01*
X137267716Y-125649971D02*
X137124858Y-125578542D01*
X137124858Y-125578542D02*
X136839144Y-125507114D01*
X136839144Y-125507114D02*
X136696287Y-125435685D01*
X136696287Y-125435685D02*
X136624858Y-125364257D01*
X136624858Y-125364257D02*
X136553430Y-125221400D01*
X136553430Y-125221400D02*
X136553430Y-125078542D01*
X136553430Y-125078542D02*
X136624858Y-124935685D01*
X136624858Y-124935685D02*
X136696287Y-124864257D01*
X136696287Y-124864257D02*
X136839144Y-124792828D01*
X136839144Y-124792828D02*
X137196287Y-124792828D01*
X137196287Y-124792828D02*
X137410573Y-124864257D01*
X137839144Y-125292828D02*
X138410572Y-125292828D01*
X138053429Y-124792828D02*
X138053429Y-126078542D01*
X138053429Y-126078542D02*
X138124858Y-126221400D01*
X138124858Y-126221400D02*
X138267715Y-126292828D01*
X138267715Y-126292828D02*
X138410572Y-126292828D01*
X139553430Y-126292828D02*
X139553430Y-125507114D01*
X139553430Y-125507114D02*
X139482001Y-125364257D01*
X139482001Y-125364257D02*
X139339144Y-125292828D01*
X139339144Y-125292828D02*
X139053430Y-125292828D01*
X139053430Y-125292828D02*
X138910572Y-125364257D01*
X139553430Y-126221400D02*
X139410572Y-126292828D01*
X139410572Y-126292828D02*
X139053430Y-126292828D01*
X139053430Y-126292828D02*
X138910572Y-126221400D01*
X138910572Y-126221400D02*
X138839144Y-126078542D01*
X138839144Y-126078542D02*
X138839144Y-125935685D01*
X138839144Y-125935685D02*
X138910572Y-125792828D01*
X138910572Y-125792828D02*
X139053430Y-125721400D01*
X139053430Y-125721400D02*
X139410572Y-125721400D01*
X139410572Y-125721400D02*
X139553430Y-125649971D01*
X140267715Y-125292828D02*
X140267715Y-126292828D01*
X140267715Y-125435685D02*
X140339144Y-125364257D01*
X140339144Y-125364257D02*
X140482001Y-125292828D01*
X140482001Y-125292828D02*
X140696287Y-125292828D01*
X140696287Y-125292828D02*
X140839144Y-125364257D01*
X140839144Y-125364257D02*
X140910573Y-125507114D01*
X140910573Y-125507114D02*
X140910573Y-126292828D01*
X142267716Y-126292828D02*
X142267716Y-124792828D01*
X142267716Y-126221400D02*
X142124858Y-126292828D01*
X142124858Y-126292828D02*
X141839144Y-126292828D01*
X141839144Y-126292828D02*
X141696287Y-126221400D01*
X141696287Y-126221400D02*
X141624858Y-126149971D01*
X141624858Y-126149971D02*
X141553430Y-126007114D01*
X141553430Y-126007114D02*
X141553430Y-125578542D01*
X141553430Y-125578542D02*
X141624858Y-125435685D01*
X141624858Y-125435685D02*
X141696287Y-125364257D01*
X141696287Y-125364257D02*
X141839144Y-125292828D01*
X141839144Y-125292828D02*
X142124858Y-125292828D01*
X142124858Y-125292828D02*
X142267716Y-125364257D01*
X143624859Y-126292828D02*
X143624859Y-125507114D01*
X143624859Y-125507114D02*
X143553430Y-125364257D01*
X143553430Y-125364257D02*
X143410573Y-125292828D01*
X143410573Y-125292828D02*
X143124859Y-125292828D01*
X143124859Y-125292828D02*
X142982001Y-125364257D01*
X143624859Y-126221400D02*
X143482001Y-126292828D01*
X143482001Y-126292828D02*
X143124859Y-126292828D01*
X143124859Y-126292828D02*
X142982001Y-126221400D01*
X142982001Y-126221400D02*
X142910573Y-126078542D01*
X142910573Y-126078542D02*
X142910573Y-125935685D01*
X142910573Y-125935685D02*
X142982001Y-125792828D01*
X142982001Y-125792828D02*
X143124859Y-125721400D01*
X143124859Y-125721400D02*
X143482001Y-125721400D01*
X143482001Y-125721400D02*
X143624859Y-125649971D01*
X144339144Y-126292828D02*
X144339144Y-125292828D01*
X144339144Y-125578542D02*
X144410573Y-125435685D01*
X144410573Y-125435685D02*
X144482002Y-125364257D01*
X144482002Y-125364257D02*
X144624859Y-125292828D01*
X144624859Y-125292828D02*
X144767716Y-125292828D01*
X145910573Y-126292828D02*
X145910573Y-124792828D01*
X145910573Y-126221400D02*
X145767715Y-126292828D01*
X145767715Y-126292828D02*
X145482001Y-126292828D01*
X145482001Y-126292828D02*
X145339144Y-126221400D01*
X145339144Y-126221400D02*
X145267715Y-126149971D01*
X145267715Y-126149971D02*
X145196287Y-126007114D01*
X145196287Y-126007114D02*
X145196287Y-125578542D01*
X145196287Y-125578542D02*
X145267715Y-125435685D01*
X145267715Y-125435685D02*
X145339144Y-125364257D01*
X145339144Y-125364257D02*
X145482001Y-125292828D01*
X145482001Y-125292828D02*
X145767715Y-125292828D01*
X145767715Y-125292828D02*
X145910573Y-125364257D01*
X148624858Y-126292828D02*
X148124858Y-125578542D01*
X147767715Y-126292828D02*
X147767715Y-124792828D01*
X147767715Y-124792828D02*
X148339144Y-124792828D01*
X148339144Y-124792828D02*
X148482001Y-124864257D01*
X148482001Y-124864257D02*
X148553430Y-124935685D01*
X148553430Y-124935685D02*
X148624858Y-125078542D01*
X148624858Y-125078542D02*
X148624858Y-125292828D01*
X148624858Y-125292828D02*
X148553430Y-125435685D01*
X148553430Y-125435685D02*
X148482001Y-125507114D01*
X148482001Y-125507114D02*
X148339144Y-125578542D01*
X148339144Y-125578542D02*
X147767715Y-125578542D01*
X149839144Y-126221400D02*
X149696287Y-126292828D01*
X149696287Y-126292828D02*
X149410573Y-126292828D01*
X149410573Y-126292828D02*
X149267715Y-126221400D01*
X149267715Y-126221400D02*
X149196287Y-126078542D01*
X149196287Y-126078542D02*
X149196287Y-125507114D01*
X149196287Y-125507114D02*
X149267715Y-125364257D01*
X149267715Y-125364257D02*
X149410573Y-125292828D01*
X149410573Y-125292828D02*
X149696287Y-125292828D01*
X149696287Y-125292828D02*
X149839144Y-125364257D01*
X149839144Y-125364257D02*
X149910573Y-125507114D01*
X149910573Y-125507114D02*
X149910573Y-125649971D01*
X149910573Y-125649971D02*
X149196287Y-125792828D01*
X150553429Y-125292828D02*
X150553429Y-126792828D01*
X150553429Y-125364257D02*
X150696287Y-125292828D01*
X150696287Y-125292828D02*
X150982001Y-125292828D01*
X150982001Y-125292828D02*
X151124858Y-125364257D01*
X151124858Y-125364257D02*
X151196287Y-125435685D01*
X151196287Y-125435685D02*
X151267715Y-125578542D01*
X151267715Y-125578542D02*
X151267715Y-126007114D01*
X151267715Y-126007114D02*
X151196287Y-126149971D01*
X151196287Y-126149971D02*
X151124858Y-126221400D01*
X151124858Y-126221400D02*
X150982001Y-126292828D01*
X150982001Y-126292828D02*
X150696287Y-126292828D01*
X150696287Y-126292828D02*
X150553429Y-126221400D01*
X152482001Y-126221400D02*
X152339144Y-126292828D01*
X152339144Y-126292828D02*
X152053430Y-126292828D01*
X152053430Y-126292828D02*
X151910572Y-126221400D01*
X151910572Y-126221400D02*
X151839144Y-126078542D01*
X151839144Y-126078542D02*
X151839144Y-125507114D01*
X151839144Y-125507114D02*
X151910572Y-125364257D01*
X151910572Y-125364257D02*
X152053430Y-125292828D01*
X152053430Y-125292828D02*
X152339144Y-125292828D01*
X152339144Y-125292828D02*
X152482001Y-125364257D01*
X152482001Y-125364257D02*
X152553430Y-125507114D01*
X152553430Y-125507114D02*
X152553430Y-125649971D01*
X152553430Y-125649971D02*
X151839144Y-125792828D01*
X153839144Y-126292828D02*
X153839144Y-125507114D01*
X153839144Y-125507114D02*
X153767715Y-125364257D01*
X153767715Y-125364257D02*
X153624858Y-125292828D01*
X153624858Y-125292828D02*
X153339144Y-125292828D01*
X153339144Y-125292828D02*
X153196286Y-125364257D01*
X153839144Y-126221400D02*
X153696286Y-126292828D01*
X153696286Y-126292828D02*
X153339144Y-126292828D01*
X153339144Y-126292828D02*
X153196286Y-126221400D01*
X153196286Y-126221400D02*
X153124858Y-126078542D01*
X153124858Y-126078542D02*
X153124858Y-125935685D01*
X153124858Y-125935685D02*
X153196286Y-125792828D01*
X153196286Y-125792828D02*
X153339144Y-125721400D01*
X153339144Y-125721400D02*
X153696286Y-125721400D01*
X153696286Y-125721400D02*
X153839144Y-125649971D01*
X154339144Y-125292828D02*
X154910572Y-125292828D01*
X154553429Y-124792828D02*
X154553429Y-126078542D01*
X154553429Y-126078542D02*
X154624858Y-126221400D01*
X154624858Y-126221400D02*
X154767715Y-126292828D01*
X154767715Y-126292828D02*
X154910572Y-126292828D01*
X155982001Y-126221400D02*
X155839144Y-126292828D01*
X155839144Y-126292828D02*
X155553430Y-126292828D01*
X155553430Y-126292828D02*
X155410572Y-126221400D01*
X155410572Y-126221400D02*
X155339144Y-126078542D01*
X155339144Y-126078542D02*
X155339144Y-125507114D01*
X155339144Y-125507114D02*
X155410572Y-125364257D01*
X155410572Y-125364257D02*
X155553430Y-125292828D01*
X155553430Y-125292828D02*
X155839144Y-125292828D01*
X155839144Y-125292828D02*
X155982001Y-125364257D01*
X155982001Y-125364257D02*
X156053430Y-125507114D01*
X156053430Y-125507114D02*
X156053430Y-125649971D01*
X156053430Y-125649971D02*
X155339144Y-125792828D01*
X156696286Y-126292828D02*
X156696286Y-125292828D01*
X156696286Y-125578542D02*
X156767715Y-125435685D01*
X156767715Y-125435685D02*
X156839144Y-125364257D01*
X156839144Y-125364257D02*
X156982001Y-125292828D01*
X156982001Y-125292828D02*
X157124858Y-125292828D01*
D11*
X137282819Y-79327333D02*
X137997104Y-79327333D01*
X137997104Y-79327333D02*
X138139961Y-79374952D01*
X138139961Y-79374952D02*
X138235200Y-79470190D01*
X138235200Y-79470190D02*
X138282819Y-79613047D01*
X138282819Y-79613047D02*
X138282819Y-79708285D01*
X138282819Y-78327333D02*
X138282819Y-78898761D01*
X138282819Y-78613047D02*
X137282819Y-78613047D01*
X137282819Y-78613047D02*
X137425676Y-78708285D01*
X137425676Y-78708285D02*
X137520914Y-78803523D01*
X137520914Y-78803523D02*
X137568533Y-78898761D01*
X138451580Y-77100666D02*
X138499200Y-77148285D01*
X138499200Y-77148285D02*
X138546819Y-77291142D01*
X138546819Y-77291142D02*
X138546819Y-77386380D01*
X138546819Y-77386380D02*
X138499200Y-77529237D01*
X138499200Y-77529237D02*
X138403961Y-77624475D01*
X138403961Y-77624475D02*
X138308723Y-77672094D01*
X138308723Y-77672094D02*
X138118247Y-77719713D01*
X138118247Y-77719713D02*
X137975390Y-77719713D01*
X137975390Y-77719713D02*
X137784914Y-77672094D01*
X137784914Y-77672094D02*
X137689676Y-77624475D01*
X137689676Y-77624475D02*
X137594438Y-77529237D01*
X137594438Y-77529237D02*
X137546819Y-77386380D01*
X137546819Y-77386380D02*
X137546819Y-77291142D01*
X137546819Y-77291142D02*
X137594438Y-77148285D01*
X137594438Y-77148285D02*
X137642057Y-77100666D01*
X138546819Y-76148285D02*
X138546819Y-76719713D01*
X138546819Y-76433999D02*
X137546819Y-76433999D01*
X137546819Y-76433999D02*
X137689676Y-76529237D01*
X137689676Y-76529237D02*
X137784914Y-76624475D01*
X137784914Y-76624475D02*
X137832533Y-76719713D01*
X141291333Y-73043580D02*
X141243714Y-73091200D01*
X141243714Y-73091200D02*
X141100857Y-73138819D01*
X141100857Y-73138819D02*
X141005619Y-73138819D01*
X141005619Y-73138819D02*
X140862762Y-73091200D01*
X140862762Y-73091200D02*
X140767524Y-72995961D01*
X140767524Y-72995961D02*
X140719905Y-72900723D01*
X140719905Y-72900723D02*
X140672286Y-72710247D01*
X140672286Y-72710247D02*
X140672286Y-72567390D01*
X140672286Y-72567390D02*
X140719905Y-72376914D01*
X140719905Y-72376914D02*
X140767524Y-72281676D01*
X140767524Y-72281676D02*
X140862762Y-72186438D01*
X140862762Y-72186438D02*
X141005619Y-72138819D01*
X141005619Y-72138819D02*
X141100857Y-72138819D01*
X141100857Y-72138819D02*
X141243714Y-72186438D01*
X141243714Y-72186438D02*
X141291333Y-72234057D01*
X141672286Y-72234057D02*
X141719905Y-72186438D01*
X141719905Y-72186438D02*
X141815143Y-72138819D01*
X141815143Y-72138819D02*
X142053238Y-72138819D01*
X142053238Y-72138819D02*
X142148476Y-72186438D01*
X142148476Y-72186438D02*
X142196095Y-72234057D01*
X142196095Y-72234057D02*
X142243714Y-72329295D01*
X142243714Y-72329295D02*
X142243714Y-72424533D01*
X142243714Y-72424533D02*
X142196095Y-72567390D01*
X142196095Y-72567390D02*
X141624667Y-73138819D01*
X141624667Y-73138819D02*
X142243714Y-73138819D01*
X119553095Y-82862319D02*
X119553095Y-83671842D01*
X119553095Y-83671842D02*
X119600714Y-83767080D01*
X119600714Y-83767080D02*
X119648333Y-83814700D01*
X119648333Y-83814700D02*
X119743571Y-83862319D01*
X119743571Y-83862319D02*
X119934047Y-83862319D01*
X119934047Y-83862319D02*
X120029285Y-83814700D01*
X120029285Y-83814700D02*
X120076904Y-83767080D01*
X120076904Y-83767080D02*
X120124523Y-83671842D01*
X120124523Y-83671842D02*
X120124523Y-82862319D01*
X121124523Y-83862319D02*
X120553095Y-83862319D01*
X120838809Y-83862319D02*
X120838809Y-82862319D01*
X120838809Y-82862319D02*
X120743571Y-83005176D01*
X120743571Y-83005176D02*
X120648333Y-83100414D01*
X120648333Y-83100414D02*
X120553095Y-83148033D01*
D12*
X116828095Y-67067419D02*
X116828095Y-67876942D01*
X116828095Y-67876942D02*
X116875714Y-67972180D01*
X116875714Y-67972180D02*
X116923333Y-68019800D01*
X116923333Y-68019800D02*
X117018571Y-68067419D01*
X117018571Y-68067419D02*
X117209047Y-68067419D01*
X117209047Y-68067419D02*
X117304285Y-68019800D01*
X117304285Y-68019800D02*
X117351904Y-67972180D01*
X117351904Y-67972180D02*
X117399523Y-67876942D01*
X117399523Y-67876942D02*
X117399523Y-67067419D01*
X117828095Y-67162657D02*
X117875714Y-67115038D01*
X117875714Y-67115038D02*
X117970952Y-67067419D01*
X117970952Y-67067419D02*
X118209047Y-67067419D01*
X118209047Y-67067419D02*
X118304285Y-67115038D01*
X118304285Y-67115038D02*
X118351904Y-67162657D01*
X118351904Y-67162657D02*
X118399523Y-67257895D01*
X118399523Y-67257895D02*
X118399523Y-67353133D01*
X118399523Y-67353133D02*
X118351904Y-67495990D01*
X118351904Y-67495990D02*
X117780476Y-68067419D01*
X117780476Y-68067419D02*
X118399523Y-68067419D01*
X116576265Y-78626704D02*
X117052455Y-78626704D01*
X116481027Y-78912419D02*
X116814360Y-77912419D01*
X116814360Y-77912419D02*
X117147693Y-78912419D01*
X117195312Y-118187180D02*
X117147693Y-118234800D01*
X117147693Y-118234800D02*
X117004836Y-118282419D01*
X117004836Y-118282419D02*
X116909598Y-118282419D01*
X116909598Y-118282419D02*
X116766741Y-118234800D01*
X116766741Y-118234800D02*
X116671503Y-118139561D01*
X116671503Y-118139561D02*
X116623884Y-118044323D01*
X116623884Y-118044323D02*
X116576265Y-117853847D01*
X116576265Y-117853847D02*
X116576265Y-117710990D01*
X116576265Y-117710990D02*
X116623884Y-117520514D01*
X116623884Y-117520514D02*
X116671503Y-117425276D01*
X116671503Y-117425276D02*
X116766741Y-117330038D01*
X116766741Y-117330038D02*
X116909598Y-117282419D01*
X116909598Y-117282419D02*
X117004836Y-117282419D01*
X117004836Y-117282419D02*
X117147693Y-117330038D01*
X117147693Y-117330038D02*
X117195312Y-117377657D01*
X157597217Y-78388609D02*
X157740074Y-78436228D01*
X157740074Y-78436228D02*
X157787693Y-78483847D01*
X157787693Y-78483847D02*
X157835312Y-78579085D01*
X157835312Y-78579085D02*
X157835312Y-78721942D01*
X157835312Y-78721942D02*
X157787693Y-78817180D01*
X157787693Y-78817180D02*
X157740074Y-78864800D01*
X157740074Y-78864800D02*
X157644836Y-78912419D01*
X157644836Y-78912419D02*
X157263884Y-78912419D01*
X157263884Y-78912419D02*
X157263884Y-77912419D01*
X157263884Y-77912419D02*
X157597217Y-77912419D01*
X157597217Y-77912419D02*
X157692455Y-77960038D01*
X157692455Y-77960038D02*
X157740074Y-78007657D01*
X157740074Y-78007657D02*
X157787693Y-78102895D01*
X157787693Y-78102895D02*
X157787693Y-78198133D01*
X157787693Y-78198133D02*
X157740074Y-78293371D01*
X157740074Y-78293371D02*
X157692455Y-78340990D01*
X157692455Y-78340990D02*
X157597217Y-78388609D01*
X157597217Y-78388609D02*
X157263884Y-78388609D01*
X157263884Y-118282419D02*
X157263884Y-117282419D01*
X157263884Y-117282419D02*
X157501979Y-117282419D01*
X157501979Y-117282419D02*
X157644836Y-117330038D01*
X157644836Y-117330038D02*
X157740074Y-117425276D01*
X157740074Y-117425276D02*
X157787693Y-117520514D01*
X157787693Y-117520514D02*
X157835312Y-117710990D01*
X157835312Y-117710990D02*
X157835312Y-117853847D01*
X157835312Y-117853847D02*
X157787693Y-118044323D01*
X157787693Y-118044323D02*
X157740074Y-118139561D01*
X157740074Y-118139561D02*
X157644836Y-118234800D01*
X157644836Y-118234800D02*
X157501979Y-118282419D01*
X157501979Y-118282419D02*
X157263884Y-118282419D01*
%TO.C,J1*%
D13*
X138828000Y-80374000D02*
X138828000Y-78994000D01*
X140208000Y-80374000D02*
X138828000Y-80374000D01*
X141478000Y-77614000D02*
X144128000Y-77614000D01*
X141478000Y-80374000D02*
X141478000Y-77614000D01*
X141478000Y-80374000D02*
X144128000Y-80374000D01*
X144128000Y-80374000D02*
X144128000Y-77614000D01*
%TO.C,C1*%
X131802000Y-77654000D02*
X128825000Y-77654000D01*
X131802000Y-77694000D02*
X128833000Y-77694000D01*
X131802000Y-77734000D02*
X128840000Y-77734000D01*
X131802000Y-77774000D02*
X128849000Y-77774000D01*
X131802000Y-77814000D02*
X128857000Y-77814000D01*
X131802000Y-77854000D02*
X128866000Y-77854000D01*
X131802000Y-77894000D02*
X128875000Y-77894000D01*
X131802000Y-77934000D02*
X128885000Y-77934000D01*
X131802000Y-77974000D02*
X128895000Y-77974000D01*
X131802000Y-78014000D02*
X128906000Y-78014000D01*
X131802000Y-78054000D02*
X128917000Y-78054000D01*
X131802000Y-78094000D02*
X128929000Y-78094000D01*
X131802000Y-78134000D02*
X128941000Y-78134000D01*
X131802000Y-78174000D02*
X128953000Y-78174000D01*
X131802000Y-78214000D02*
X128966000Y-78214000D01*
X131802000Y-78254000D02*
X128979000Y-78254000D01*
X131802000Y-78294000D02*
X128993000Y-78294000D01*
X131802000Y-78334000D02*
X129007000Y-78334000D01*
X131802000Y-78374000D02*
X129022000Y-78374000D01*
X131802000Y-78414000D02*
X129037000Y-78414000D01*
X131802000Y-78454000D02*
X129053000Y-78454000D01*
X131802000Y-78494000D02*
X129069000Y-78494000D01*
X131802000Y-78534000D02*
X129085000Y-78534000D01*
X131802000Y-78574000D02*
X129102000Y-78574000D01*
X131802000Y-78614000D02*
X129120000Y-78614000D01*
X131802000Y-78654000D02*
X129138000Y-78654000D01*
X131802000Y-78694000D02*
X129157000Y-78694000D01*
X131802000Y-78734000D02*
X129176000Y-78734000D01*
X131802000Y-78774000D02*
X129196000Y-78774000D01*
X131802000Y-78814000D02*
X129216000Y-78814000D01*
X131802000Y-78854000D02*
X129237000Y-78854000D01*
X131802000Y-78894000D02*
X129258000Y-78894000D01*
X131802000Y-78934000D02*
X129280000Y-78934000D01*
X131802000Y-78974000D02*
X129303000Y-78974000D01*
X131802000Y-79014000D02*
X129326000Y-79014000D01*
X131802000Y-79054000D02*
X129349000Y-79054000D01*
X131802000Y-79094000D02*
X129374000Y-79094000D01*
X131802000Y-79134000D02*
X129399000Y-79134000D01*
X131802000Y-79174000D02*
X129424000Y-79174000D01*
X131802000Y-79214000D02*
X129450000Y-79214000D01*
X131802000Y-79254000D02*
X129477000Y-79254000D01*
X131802000Y-79294000D02*
X129505000Y-79294000D01*
X131802000Y-79334000D02*
X129533000Y-79334000D01*
X131802000Y-79374000D02*
X129562000Y-79374000D01*
X131802000Y-79414000D02*
X129592000Y-79414000D01*
X131802000Y-79454000D02*
X129623000Y-79454000D01*
X131802000Y-79494000D02*
X129654000Y-79494000D01*
X131802000Y-79534000D02*
X129686000Y-79534000D01*
X131802000Y-79574000D02*
X129719000Y-79574000D01*
X131802000Y-79614000D02*
X129753000Y-79614000D01*
X131802000Y-79654000D02*
X129787000Y-79654000D01*
X131802000Y-79694000D02*
X129823000Y-79694000D01*
X133375000Y-81014000D02*
X132309000Y-81014000D01*
X133610000Y-80974000D02*
X132074000Y-80974000D01*
X133789000Y-80934000D02*
X131895000Y-80934000D01*
X133939000Y-80894000D02*
X131745000Y-80894000D01*
X134070000Y-80854000D02*
X131614000Y-80854000D01*
X134188000Y-80814000D02*
X131496000Y-80814000D01*
X134295000Y-80774000D02*
X131389000Y-80774000D01*
X134394000Y-80734000D02*
X131290000Y-80734000D01*
X134486000Y-80694000D02*
X131198000Y-80694000D01*
X134573000Y-80654000D02*
X131111000Y-80654000D01*
X134655000Y-80614000D02*
X131029000Y-80614000D01*
X134732000Y-80574000D02*
X130952000Y-80574000D01*
X134806000Y-80534000D02*
X130878000Y-80534000D01*
X134876000Y-80494000D02*
X130808000Y-80494000D01*
X134943000Y-80454000D02*
X130741000Y-80454000D01*
X135007000Y-80414000D02*
X130677000Y-80414000D01*
X135069000Y-80374000D02*
X130615000Y-80374000D01*
X135129000Y-80334000D02*
X130555000Y-80334000D01*
X135157000Y-72524302D02*
X135157000Y-73324302D01*
X135186000Y-80294000D02*
X130498000Y-80294000D01*
X135242000Y-80254000D02*
X130442000Y-80254000D01*
X135295000Y-80214000D02*
X130389000Y-80214000D01*
X135347000Y-80174000D02*
X130337000Y-80174000D01*
X135397000Y-80134000D02*
X130287000Y-80134000D01*
X135446000Y-80094000D02*
X130238000Y-80094000D01*
X135493000Y-80054000D02*
X130191000Y-80054000D01*
X135538000Y-80014000D02*
X130146000Y-80014000D01*
X135557000Y-72924302D02*
X134757000Y-72924302D01*
X135583000Y-79974000D02*
X130101000Y-79974000D01*
X135626000Y-79934000D02*
X130058000Y-79934000D01*
X135668000Y-79894000D02*
X130016000Y-79894000D01*
X135709000Y-79854000D02*
X129975000Y-79854000D01*
X135748000Y-79814000D02*
X129936000Y-79814000D01*
X135787000Y-79774000D02*
X129897000Y-79774000D01*
X135824000Y-79734000D02*
X129860000Y-79734000D01*
X135861000Y-79694000D02*
X133882000Y-79694000D01*
X135897000Y-79654000D02*
X133882000Y-79654000D01*
X135931000Y-79614000D02*
X133882000Y-79614000D01*
X135965000Y-79574000D02*
X133882000Y-79574000D01*
X135998000Y-79534000D02*
X133882000Y-79534000D01*
X136030000Y-79494000D02*
X133882000Y-79494000D01*
X136061000Y-79454000D02*
X133882000Y-79454000D01*
X136092000Y-79414000D02*
X133882000Y-79414000D01*
X136122000Y-79374000D02*
X133882000Y-79374000D01*
X136151000Y-79334000D02*
X133882000Y-79334000D01*
X136179000Y-79294000D02*
X133882000Y-79294000D01*
X136207000Y-79254000D02*
X133882000Y-79254000D01*
X136234000Y-79214000D02*
X133882000Y-79214000D01*
X136260000Y-79174000D02*
X133882000Y-79174000D01*
X136285000Y-79134000D02*
X133882000Y-79134000D01*
X136310000Y-79094000D02*
X133882000Y-79094000D01*
X136335000Y-79054000D02*
X133882000Y-79054000D01*
X136358000Y-79014000D02*
X133882000Y-79014000D01*
X136381000Y-78974000D02*
X133882000Y-78974000D01*
X136404000Y-78934000D02*
X133882000Y-78934000D01*
X136426000Y-78894000D02*
X133882000Y-78894000D01*
X136447000Y-78854000D02*
X133882000Y-78854000D01*
X136468000Y-78814000D02*
X133882000Y-78814000D01*
X136488000Y-78774000D02*
X133882000Y-78774000D01*
X136508000Y-78734000D02*
X133882000Y-78734000D01*
X136527000Y-78694000D02*
X133882000Y-78694000D01*
X136546000Y-78654000D02*
X133882000Y-78654000D01*
X136564000Y-78614000D02*
X133882000Y-78614000D01*
X136582000Y-78574000D02*
X133882000Y-78574000D01*
X136599000Y-78534000D02*
X133882000Y-78534000D01*
X136615000Y-78494000D02*
X133882000Y-78494000D01*
X136631000Y-78454000D02*
X133882000Y-78454000D01*
X136647000Y-78414000D02*
X133882000Y-78414000D01*
X136662000Y-78374000D02*
X133882000Y-78374000D01*
X136677000Y-78334000D02*
X133882000Y-78334000D01*
X136691000Y-78294000D02*
X133882000Y-78294000D01*
X136705000Y-78254000D02*
X133882000Y-78254000D01*
X136718000Y-78214000D02*
X133882000Y-78214000D01*
X136731000Y-78174000D02*
X133882000Y-78174000D01*
X136743000Y-78134000D02*
X133882000Y-78134000D01*
X136755000Y-78094000D02*
X133882000Y-78094000D01*
X136767000Y-78054000D02*
X133882000Y-78054000D01*
X136778000Y-78014000D02*
X133882000Y-78014000D01*
X136789000Y-77974000D02*
X133882000Y-77974000D01*
X136799000Y-77934000D02*
X133882000Y-77934000D01*
X136809000Y-77894000D02*
X133882000Y-77894000D01*
X136818000Y-77854000D02*
X133882000Y-77854000D01*
X136827000Y-77814000D02*
X133882000Y-77814000D01*
X136835000Y-77774000D02*
X133882000Y-77774000D01*
X136844000Y-77734000D02*
X133882000Y-77734000D01*
X136851000Y-77694000D02*
X133882000Y-77694000D01*
X136859000Y-77654000D02*
X133882000Y-77654000D01*
X136865000Y-77614000D02*
X128819000Y-77614000D01*
X136872000Y-77574000D02*
X128812000Y-77574000D01*
X136878000Y-77534000D02*
X128806000Y-77534000D01*
X136884000Y-77494000D02*
X128800000Y-77494000D01*
X136889000Y-77454000D02*
X128795000Y-77454000D01*
X136894000Y-77414000D02*
X128790000Y-77414000D01*
X136898000Y-77374000D02*
X128786000Y-77374000D01*
X136903000Y-77334000D02*
X128781000Y-77334000D01*
X136906000Y-77294000D02*
X128778000Y-77294000D01*
X136910000Y-77254000D02*
X128774000Y-77254000D01*
X136912000Y-77214000D02*
X128772000Y-77214000D01*
X136915000Y-77174000D02*
X128769000Y-77174000D01*
X136917000Y-77134000D02*
X128767000Y-77134000D01*
X136919000Y-77094000D02*
X128765000Y-77094000D01*
X136920000Y-77054000D02*
X128764000Y-77054000D01*
X136921000Y-77014000D02*
X128763000Y-77014000D01*
X136922000Y-76934000D02*
X128762000Y-76934000D01*
X136922000Y-76974000D02*
X128762000Y-76974000D01*
X136962000Y-76934000D02*
G75*
G02*
X128722000Y-76934000I-4120000J0D01*
G01*
X128722000Y-76934000D02*
G75*
G02*
X136962000Y-76934000I4120000J0D01*
G01*
%TO.C,C2*%
X139338000Y-73814000D02*
X143578000Y-73814000D01*
X139338000Y-74614000D02*
X139338000Y-73814000D01*
X139338000Y-76554000D02*
X139338000Y-75754000D01*
X143578000Y-73814000D02*
X143578000Y-74614000D01*
X143578000Y-75754000D02*
X143578000Y-76554000D01*
X143578000Y-76554000D02*
X139338000Y-76554000D01*
%TO.C,U1*%
D14*
X116960000Y-87137500D02*
X116960000Y-92137500D01*
X116960000Y-87137500D02*
X118260000Y-85262500D01*
X116960000Y-92137500D02*
X118260000Y-94012500D01*
X116960000Y-103887500D02*
X118260000Y-102012500D01*
X116960000Y-108887500D02*
X116960000Y-103887500D01*
X116960000Y-108887500D02*
X118260000Y-110762500D01*
X118260000Y-85262500D02*
X164860000Y-85262500D01*
X118260000Y-102012500D02*
X118260000Y-94012500D01*
X164860000Y-85262500D02*
X164860000Y-90262500D01*
X164860000Y-90262500D02*
X167160000Y-93012500D01*
X164860000Y-105762500D02*
X164860000Y-110762500D01*
X164860000Y-105762500D02*
X167160000Y-103012500D01*
X164860000Y-110762500D02*
X118260000Y-110762500D01*
X167160000Y-93012500D02*
X167160000Y-103012500D01*
D15*
X115380000Y-109442500D02*
G75*
G02*
X115180000Y-109442500I-100000J0D01*
G01*
X115180000Y-109442500D02*
G75*
G02*
X115380000Y-109442500I100000J0D01*
G01*
%TO.C,U2*%
D12*
X115050000Y-79040000D02*
X127750000Y-79040000D01*
X127750000Y-81580000D01*
X115050000Y-81580000D01*
X115050000Y-79040000D01*
X115050000Y-114600000D02*
X127750000Y-114600000D01*
X127750000Y-117140000D01*
X115050000Y-117140000D01*
X115050000Y-114600000D01*
X155690000Y-79040000D02*
X168390000Y-79040000D01*
X168390000Y-81580000D01*
X155690000Y-81580000D01*
X155690000Y-79040000D01*
X155690000Y-114600000D02*
X168390000Y-114600000D01*
X168390000Y-117140000D01*
X155690000Y-117140000D01*
X155690000Y-114600000D01*
%TD*%
M02*
