%TF.GenerationSoftware,KiCad,Pcbnew,10.0.4*%
%TF.CreationDate,2026-07-20T13:26:21+02:00*%
%TF.ProjectId,Heltec v3 adapter,48656c74-6563-4207-9633-206164617074,rev?*%
%TF.SameCoordinates,Original*%
%TF.FileFunction,Soldermask,Top*%
%TF.FilePolarity,Negative*%
%FSLAX46Y46*%
G04 Gerber Fmt 4.6, Leading zero omitted, Abs format (unit mm)*
G04 Created by KiCad (PCBNEW 10.0.4) date 2026-07-20 13:26:21*
%MOMM*%
%LPD*%
G01*
G04 APERTURE LIST*
G04 Aperture macros list*
%AMRoundRect*
0 Rectangle with rounded corners*
0 $1 Rounding radius*
0 $2 $3 $4 $5 $6 $7 $8 $9 X,Y pos of 4 corners*
0 Add a 4 corners polygon primitive as box body*
4,1,4,$2,$3,$4,$5,$6,$7,$8,$9,$2,$3,0*
0 Add four circle primitives for the rounded corners*
1,1,$1+$1,$2,$3*
1,1,$1+$1,$4,$5*
1,1,$1+$1,$6,$7*
1,1,$1+$1,$8,$9*
0 Add four rect primitives between the rounded corners*
20,1,$1+$1,$2,$3,$4,$5,0*
20,1,$1+$1,$4,$5,$6,$7,0*
20,1,$1+$1,$6,$7,$8,$9,0*
20,1,$1+$1,$8,$9,$2,$3,0*%
G04 Aperture macros list end*
%ADD10R,1.700000X1.700000*%
%ADD11C,1.700000*%
%ADD12RoundRect,0.250000X-0.550000X0.550000X-0.550000X-0.550000X0.550000X-0.550000X0.550000X0.550000X0*%
%ADD13C,1.600000*%
%ADD14RoundRect,0.102000X-0.704000X-0.704000X0.704000X-0.704000X0.704000X0.704000X-0.704000X0.704000X0*%
%ADD15C,1.612000*%
%ADD16R,2.000000X2.000000*%
%ADD17C,2.000000*%
%ADD18C,7.000000*%
G04 APERTURE END LIST*
D10*
%TO.C,J1*%
X140208000Y-78994000D03*
D11*
X142748000Y-78994000D03*
%TD*%
D12*
%TO.C,C1*%
X132842000Y-75184000D03*
D13*
X132842000Y-78684000D03*
%TD*%
%TO.C,C2*%
X140208000Y-75184000D03*
X142708000Y-75184000D03*
%TD*%
D14*
%TO.C,U1*%
X119680000Y-109525000D03*
D15*
X122220000Y-109525000D03*
X124760000Y-109525000D03*
X127300000Y-109525000D03*
X129840000Y-109525000D03*
X132380000Y-109525000D03*
X134920000Y-109525000D03*
X137460000Y-109525000D03*
X140000000Y-109525000D03*
X142540000Y-109525000D03*
X145080000Y-109525000D03*
X147620000Y-109525000D03*
X150160000Y-109525000D03*
X152700000Y-109525000D03*
X155240000Y-109525000D03*
X157780000Y-109525000D03*
X160320000Y-109525000D03*
X162860000Y-109525000D03*
X119680000Y-86500000D03*
X122220000Y-86500000D03*
X124760000Y-86500000D03*
X127300000Y-86500000D03*
X129840000Y-86500000D03*
X132380000Y-86500000D03*
X134920000Y-86500000D03*
X137460000Y-86500000D03*
X140000000Y-86500000D03*
X142540000Y-86500000D03*
X145080000Y-86500000D03*
X147620000Y-86500000D03*
X150160000Y-86500000D03*
X152700000Y-86500000D03*
X155240000Y-86500000D03*
X157780000Y-86500000D03*
X160320000Y-86500000D03*
X162860000Y-86500000D03*
%TD*%
D16*
%TO.C,U2*%
X116320000Y-80310000D03*
D17*
X118860000Y-80310000D03*
X121400000Y-80310000D03*
X123940000Y-80310000D03*
X126480000Y-80310000D03*
D16*
X156960000Y-80310000D03*
D17*
X159500000Y-80310000D03*
X162040000Y-80310000D03*
X164580000Y-80310000D03*
X167120000Y-80310000D03*
D16*
X116320000Y-115870000D03*
D17*
X118860000Y-115870000D03*
X121400000Y-115870000D03*
X123940000Y-115870000D03*
X126480000Y-115870000D03*
D16*
X156960000Y-115870000D03*
D17*
X159500000Y-115870000D03*
X162040000Y-115870000D03*
X164580000Y-115870000D03*
X167120000Y-115870000D03*
D18*
X162040000Y-72690000D03*
X121400000Y-72690000D03*
X121400000Y-123490000D03*
X162040000Y-123490000D03*
%TD*%
M02*
