M48
; DRILL file KiCad 10.0.4 date 2026-07-20T13:26:23
; FORMAT={-:-/ absolute / metric / decimal}
; #@! TF.CreationDate,2026-07-20T13:26:23+02:00
; #@! TF.GenerationSoftware,Kicad,Pcbnew,10.0.4
; #@! TF.FileFunction,Plated,1,2,PTH
FMAT,2
METRIC
; #@! TA.AperFunction,Plated,PTH,ComponentDrill
T1C0.800
; #@! TA.AperFunction,Plated,PTH,ComponentDrill
T2C0.900
; #@! TA.AperFunction,Plated,PTH,ComponentDrill
T3C1.000
; #@! TA.AperFunction,Plated,PTH,ComponentDrill
T4C3.500
%
G90
G05
T1
X116.32Y-80.31
X116.32Y-115.87
X118.86Y-80.31
X118.86Y-115.87
X121.4Y-80.31
X121.4Y-115.87
X123.94Y-80.31
X123.94Y-115.87
X126.48Y-80.31
X126.48Y-115.87
X132.842Y-75.184
X132.842Y-78.684
X140.208Y-75.184
X142.708Y-75.184
X156.96Y-80.31
X156.96Y-115.87
X159.5Y-80.31
X159.5Y-115.87
X162.04Y-80.31
X162.04Y-115.87
X164.58Y-80.31
X164.58Y-115.87
X167.12Y-80.31
X167.12Y-115.87
T2
X119.68Y-86.5
X119.68Y-109.525
X122.22Y-86.5
X122.22Y-109.525
X124.76Y-86.5
X124.76Y-109.525
X127.3Y-86.5
X127.3Y-109.525
X129.84Y-86.5
X129.84Y-109.525
X132.38Y-86.5
X132.38Y-109.525
X134.92Y-86.5
X134.92Y-109.525
X137.46Y-86.5
X137.46Y-109.525
X140.0Y-86.5
X140.0Y-109.525
X142.54Y-86.5
X142.54Y-109.525
X145.08Y-86.5
X145.08Y-109.525
X147.62Y-86.5
X147.62Y-109.525
X150.16Y-86.5
X150.16Y-109.525
X152.7Y-86.5
X152.7Y-109.525
X155.24Y-86.5
X155.24Y-109.525
X157.78Y-86.5
X157.78Y-109.525
X160.32Y-86.5
X160.32Y-109.525
X162.86Y-86.5
X162.86Y-109.525
T3
X140.208Y-78.994
X142.748Y-78.994
T4
X121.4Y-72.69
X121.4Y-123.49
X162.04Y-72.69
X162.04Y-123.49
M30
