ISO-10303-21;
HEADER;
/* Generated by software containing ST-Developer
 * from STEP Tools, Inc. (www.steptools.com) 
 */

FILE_DESCRIPTION(
/* description */ (''),
/* implementation_level */ '2;1');

FILE_NAME(
/* name */ 'Enclosure bracket.step',
/* time_stamp */ '2026-08-15T09:16:21+02:00',
/* author */ (''),
/* organization */ (''),
/* preprocessor_version */ 'ST-DEVELOPER v20.1',
/* originating_system */ 'Autodesk Translation Framework v15.8.0.0',
/* authorisation */ '');

FILE_SCHEMA (('AUTOMOTIVE_DESIGN { 1 0 10303 214 3 1 1 }'));
ENDSEC;

DATA;
#10=MECHANICAL_DESIGN_GEOMETRIC_PRESENTATION_REPRESENTATION('',(#17),#1223);
#11=ITEM_DEFINED_TRANSFORMATION($,$,#727,#800);
#12=(
REPRESENTATION_RELATIONSHIP($,$,#1234,#1233)
REPRESENTATION_RELATIONSHIP_WITH_TRANSFORMATION(#11)
SHAPE_REPRESENTATION_RELATIONSHIP()
);
#13=CONTEXT_DEPENDENT_SHAPE_REPRESENTATION(#12,#1232);
#14=NEXT_ASSEMBLY_USAGE_OCCURRENCE('Bracket:1','Bracket:1','Bracket:1',
#1236,#1237,'Bracket:1');
#15=SHAPE_REPRESENTATION_RELATIONSHIP('SRR','None',#1234,#16);
#16=ADVANCED_BREP_SHAPE_REPRESENTATION('',(#18),#1222);
#17=STYLED_ITEM('',(#1247),#18);
#18=MANIFOLD_SOLID_BREP('Body1',#713);
#19=FACE_BOUND('',#94,.T.);
#20=FACE_BOUND('',#95,.T.);
#21=FACE_BOUND('',#104,.T.);
#22=FACE_BOUND('',#105,.T.);
#23=FACE_BOUND('',#119,.T.);
#24=FACE_BOUND('',#120,.T.);
#25=FACE_BOUND('',#137,.T.);
#26=FACE_BOUND('',#138,.T.);
#27=PLANE('',#731);
#28=PLANE('',#732);
#29=PLANE('',#744);
#30=PLANE('',#747);
#31=PLANE('',#751);
#32=PLANE('',#752);
#33=PLANE('',#758);
#34=PLANE('',#763);
#35=PLANE('',#771);
#36=PLANE('',#772);
#37=PLANE('',#774);
#38=PLANE('',#777);
#39=PLANE('',#778);
#40=PLANE('',#779);
#41=PLANE('',#783);
#42=PLANE('',#784);
#43=PLANE('',#786);
#44=PLANE('',#789);
#45=PLANE('',#790);
#46=PLANE('',#791);
#47=PLANE('',#792);
#48=PLANE('',#793);
#49=PLANE('',#798);
#50=PLANE('',#799);
#51=FACE_OUTER_BOUND('',#91,.T.);
#52=FACE_OUTER_BOUND('',#92,.T.);
#53=FACE_OUTER_BOUND('',#93,.T.);
#54=FACE_OUTER_BOUND('',#96,.T.);
#55=FACE_OUTER_BOUND('',#97,.T.);
#56=FACE_OUTER_BOUND('',#98,.T.);
#57=FACE_OUTER_BOUND('',#99,.T.);
#58=FACE_OUTER_BOUND('',#100,.T.);
#59=FACE_OUTER_BOUND('',#101,.T.);
#60=FACE_OUTER_BOUND('',#102,.T.);
#61=FACE_OUTER_BOUND('',#103,.T.);
#62=FACE_OUTER_BOUND('',#106,.T.);
#63=FACE_OUTER_BOUND('',#107,.T.);
#64=FACE_OUTER_BOUND('',#108,.T.);
#65=FACE_OUTER_BOUND('',#109,.T.);
#66=FACE_OUTER_BOUND('',#110,.T.);
#67=FACE_OUTER_BOUND('',#111,.T.);
#68=FACE_OUTER_BOUND('',#112,.T.);
#69=FACE_OUTER_BOUND('',#113,.T.);
#70=FACE_OUTER_BOUND('',#114,.T.);
#71=FACE_OUTER_BOUND('',#115,.T.);
#72=FACE_OUTER_BOUND('',#116,.T.);
#73=FACE_OUTER_BOUND('',#117,.T.);
#74=FACE_OUTER_BOUND('',#118,.T.);
#75=FACE_OUTER_BOUND('',#121,.T.);
#76=FACE_OUTER_BOUND('',#122,.T.);
#77=FACE_OUTER_BOUND('',#123,.T.);
#78=FACE_OUTER_BOUND('',#124,.T.);
#79=FACE_OUTER_BOUND('',#125,.T.);
#80=FACE_OUTER_BOUND('',#126,.T.);
#81=FACE_OUTER_BOUND('',#127,.T.);
#82=FACE_OUTER_BOUND('',#128,.T.);
#83=FACE_OUTER_BOUND('',#129,.T.);
#84=FACE_OUTER_BOUND('',#130,.T.);
#85=FACE_OUTER_BOUND('',#131,.T.);
#86=FACE_OUTER_BOUND('',#132,.T.);
#87=FACE_OUTER_BOUND('',#133,.T.);
#88=FACE_OUTER_BOUND('',#134,.T.);
#89=FACE_OUTER_BOUND('',#135,.T.);
#90=FACE_OUTER_BOUND('',#136,.T.);
#91=EDGE_LOOP('',(#461,#462,#463,#464));
#92=EDGE_LOOP('',(#465,#466,#467,#468));
#93=EDGE_LOOP('',(#469,#470,#471,#472,#473,#474,#475,#476,#477,#478,#479,
#480,#481,#482,#483,#484));
#94=EDGE_LOOP('',(#485));
#95=EDGE_LOOP('',(#486));
#96=EDGE_LOOP('',(#487,#488,#489,#490));
#97=EDGE_LOOP('',(#491,#492,#493,#494));
#98=EDGE_LOOP('',(#495,#496,#497,#498));
#99=EDGE_LOOP('',(#499,#500,#501,#502));
#100=EDGE_LOOP('',(#503,#504,#505,#506));
#101=EDGE_LOOP('',(#507,#508,#509,#510));
#102=EDGE_LOOP('',(#511,#512,#513,#514));
#103=EDGE_LOOP('',(#515,#516,#517,#518,#519,#520));
#104=EDGE_LOOP('',(#521));
#105=EDGE_LOOP('',(#522));
#106=EDGE_LOOP('',(#523,#524,#525,#526));
#107=EDGE_LOOP('',(#527,#528,#529,#530));
#108=EDGE_LOOP('',(#531,#532,#533,#534));
#109=EDGE_LOOP('',(#535,#536,#537,#538));
#110=EDGE_LOOP('',(#539,#540,#541,#542));
#111=EDGE_LOOP('',(#543,#544,#545,#546));
#112=EDGE_LOOP('',(#547,#548,#549,#550));
#113=EDGE_LOOP('',(#551,#552,#553,#554));
#114=EDGE_LOOP('',(#555,#556,#557,#558));
#115=EDGE_LOOP('',(#559,#560,#561,#562));
#116=EDGE_LOOP('',(#563,#564,#565,#566));
#117=EDGE_LOOP('',(#567,#568,#569,#570));
#118=EDGE_LOOP('',(#571,#572,#573,#574,#575,#576));
#119=EDGE_LOOP('',(#577));
#120=EDGE_LOOP('',(#578));
#121=EDGE_LOOP('',(#579,#580,#581,#582));
#122=EDGE_LOOP('',(#583,#584,#585,#586));
#123=EDGE_LOOP('',(#587,#588,#589,#590));
#124=EDGE_LOOP('',(#591,#592,#593,#594));
#125=EDGE_LOOP('',(#595,#596,#597,#598));
#126=EDGE_LOOP('',(#599,#600,#601,#602));
#127=EDGE_LOOP('',(#603,#604,#605,#606));
#128=EDGE_LOOP('',(#607,#608,#609,#610));
#129=EDGE_LOOP('',(#611,#612,#613,#614));
#130=EDGE_LOOP('',(#615,#616,#617,#618));
#131=EDGE_LOOP('',(#619,#620,#621,#622));
#132=EDGE_LOOP('',(#623,#624,#625,#626));
#133=EDGE_LOOP('',(#627,#628,#629,#630));
#134=EDGE_LOOP('',(#631,#632,#633,#634));
#135=EDGE_LOOP('',(#635,#636,#637,#638));
#136=EDGE_LOOP('',(#639,#640,#641,#642,#643,#644,#645,#646,#647,#648,#649,
#650,#651,#652,#653,#654));
#137=EDGE_LOOP('',(#655));
#138=EDGE_LOOP('',(#656));
#139=LINE('',#1024,#205);
#140=LINE('',#1027,#206);
#141=LINE('',#1030,#207);
#142=LINE('',#1032,#208);
#143=LINE('',#1033,#209);
#144=LINE('',#1036,#210);
#145=LINE('',#1038,#211);
#146=LINE('',#1040,#212);
#147=LINE('',#1042,#213);
#148=LINE('',#1044,#214);
#149=LINE('',#1048,#215);
#150=LINE('',#1052,#216);
#151=LINE('',#1056,#217);
#152=LINE('',#1060,#218);
#153=LINE('',#1070,#219);
#154=LINE('',#1071,#220);
#155=LINE('',#1076,#221);
#156=LINE('',#1077,#222);
#157=LINE('',#1080,#223);
#158=LINE('',#1081,#224);
#159=LINE('',#1085,#225);
#160=LINE('',#1087,#226);
#161=LINE('',#1093,#227);
#162=LINE('',#1096,#228);
#163=LINE('',#1099,#229);
#164=LINE('',#1101,#230);
#165=LINE('',#1102,#231);
#166=LINE('',#1105,#232);
#167=LINE('',#1107,#233);
#168=LINE('',#1109,#234);
#169=LINE('',#1119,#235);
#170=LINE('',#1120,#236);
#171=LINE('',#1122,#237);
#172=LINE('',#1126,#238);
#173=LINE('',#1130,#239);
#174=LINE('',#1133,#240);
#175=LINE('',#1134,#241);
#176=LINE('',#1138,#242);
#177=LINE('',#1142,#243);
#178=LINE('',#1145,#244);
#179=LINE('',#1149,#245);
#180=LINE('',#1152,#246);
#181=LINE('',#1153,#247);
#182=LINE('',#1157,#248);
#183=LINE('',#1160,#249);
#184=LINE('',#1163,#250);
#185=LINE('',#1167,#251);
#186=LINE('',#1169,#252);
#187=LINE('',#1170,#253);
#188=LINE('',#1173,#254);
#189=LINE('',#1174,#255);
#190=LINE('',#1177,#256);
#191=LINE('',#1181,#257);
#192=LINE('',#1182,#258);
#193=LINE('',#1186,#259);
#194=LINE('',#1189,#260);
#195=LINE('',#1192,#261);
#196=LINE('',#1196,#262);
#197=LINE('',#1197,#263);
#198=LINE('',#1199,#264);
#199=LINE('',#1202,#265);
#200=LINE('',#1203,#266);
#201=LINE('',#1205,#267);
#202=LINE('',#1209,#268);
#203=LINE('',#1213,#269);
#204=LINE('',#1215,#270);
#205=VECTOR('',#809,10.);
#206=VECTOR('',#812,10.);
#207=VECTOR('',#815,10.);
#208=VECTOR('',#816,10.);
#209=VECTOR('',#817,10.);
#210=VECTOR('',#820,10.);
#211=VECTOR('',#821,10.);
#212=VECTOR('',#822,10.);
#213=VECTOR('',#823,10.);
#214=VECTOR('',#824,10.);
#215=VECTOR('',#827,10.);
#216=VECTOR('',#830,10.);
#217=VECTOR('',#833,10.);
#218=VECTOR('',#836,10.);
#219=VECTOR('',#847,10.);
#220=VECTOR('',#848,10.);
#221=VECTOR('',#853,10.);
#222=VECTOR('',#854,10.);
#223=VECTOR('',#857,10.);
#224=VECTOR('',#858,10.);
#225=VECTOR('',#863,10.);
#226=VECTOR('',#866,10.);
#227=VECTOR('',#871,10.);
#228=VECTOR('',#874,10.);
#229=VECTOR('',#877,10.);
#230=VECTOR('',#878,10.);
#231=VECTOR('',#879,10.);
#232=VECTOR('',#882,2.65);
#233=VECTOR('',#883,10.);
#234=VECTOR('',#884,2.65);
#235=VECTOR('',#895,10.);
#236=VECTOR('',#896,10.);
#237=VECTOR('',#899,10.);
#238=VECTOR('',#904,10.);
#239=VECTOR('',#909,10.);
#240=VECTOR('',#912,10.);
#241=VECTOR('',#913,10.);
#242=VECTOR('',#918,4.25);
#243=VECTOR('',#923,4.25);
#244=VECTOR('',#926,10.);
#245=VECTOR('',#929,10.);
#246=VECTOR('',#934,2.65);
#247=VECTOR('',#935,10.);
#248=VECTOR('',#940,10.);
#249=VECTOR('',#943,10.);
#250=VECTOR('',#948,10.);
#251=VECTOR('',#953,2.65);
#252=VECTOR('',#954,10.);
#253=VECTOR('',#955,10.);
#254=VECTOR('',#958,2.65);
#255=VECTOR('',#959,10.);
#256=VECTOR('',#962,10.);
#257=VECTOR('',#969,2.65);
#258=VECTOR('',#970,10.);
#259=VECTOR('',#975,10.);
#260=VECTOR('',#978,10.);
#261=VECTOR('',#983,10.);
#262=VECTOR('',#988,10.);
#263=VECTOR('',#989,10.);
#264=VECTOR('',#992,10.);
#265=VECTOR('',#995,10.);
#266=VECTOR('',#996,10.);
#267=VECTOR('',#999,10.);
#268=VECTOR('',#1004,3.5);
#269=VECTOR('',#1009,3.5);
#270=VECTOR('',#1012,10.);
#271=CIRCLE('',#729,1.);
#272=CIRCLE('',#730,1.);
#273=CIRCLE('',#733,1.);
#274=CIRCLE('',#734,5.);
#275=CIRCLE('',#735,5.);
#276=CIRCLE('',#736,5.);
#277=CIRCLE('',#737,5.);
#278=CIRCLE('',#738,3.5);
#279=CIRCLE('',#739,3.5);
#280=CIRCLE('',#741,1.);
#281=CIRCLE('',#743,5.);
#282=CIRCLE('',#746,5.);
#283=CIRCLE('',#749,5.);
#284=CIRCLE('',#750,5.);
#285=CIRCLE('',#753,5.);
#286=CIRCLE('',#754,4.25);
#287=CIRCLE('',#755,4.25);
#288=CIRCLE('',#757,5.);
#289=CIRCLE('',#760,5.);
#290=CIRCLE('',#762,5.);
#291=CIRCLE('',#765,4.25);
#292=CIRCLE('',#767,4.25);
#293=CIRCLE('',#769,4.);
#294=CIRCLE('',#770,4.);
#295=CIRCLE('',#773,2.);
#296=CIRCLE('',#775,2.);
#297=CIRCLE('',#781,4.);
#298=CIRCLE('',#782,4.);
#299=CIRCLE('',#785,2.);
#300=CIRCLE('',#787,2.);
#301=CIRCLE('',#795,3.5);
#302=CIRCLE('',#797,3.5);
#303=VERTEX_POINT('',#1020);
#304=VERTEX_POINT('',#1021);
#305=VERTEX_POINT('',#1023);
#306=VERTEX_POINT('',#1025);
#307=VERTEX_POINT('',#1029);
#308=VERTEX_POINT('',#1031);
#309=VERTEX_POINT('',#1035);
#310=VERTEX_POINT('',#1037);
#311=VERTEX_POINT('',#1039);
#312=VERTEX_POINT('',#1041);
#313=VERTEX_POINT('',#1043);
#314=VERTEX_POINT('',#1045);
#315=VERTEX_POINT('',#1047);
#316=VERTEX_POINT('',#1049);
#317=VERTEX_POINT('',#1051);
#318=VERTEX_POINT('',#1053);
#319=VERTEX_POINT('',#1055);
#320=VERTEX_POINT('',#1057);
#321=VERTEX_POINT('',#1059);
#322=VERTEX_POINT('',#1062);
#323=VERTEX_POINT('',#1064);
#324=VERTEX_POINT('',#1067);
#325=VERTEX_POINT('',#1068);
#326=VERTEX_POINT('',#1073);
#327=VERTEX_POINT('',#1074);
#328=VERTEX_POINT('',#1079);
#329=VERTEX_POINT('',#1083);
#330=VERTEX_POINT('',#1089);
#331=VERTEX_POINT('',#1090);
#332=VERTEX_POINT('',#1092);
#333=VERTEX_POINT('',#1094);
#334=VERTEX_POINT('',#1098);
#335=VERTEX_POINT('',#1100);
#336=VERTEX_POINT('',#1104);
#337=VERTEX_POINT('',#1106);
#338=VERTEX_POINT('',#1108);
#339=VERTEX_POINT('',#1111);
#340=VERTEX_POINT('',#1113);
#341=VERTEX_POINT('',#1116);
#342=VERTEX_POINT('',#1117);
#343=VERTEX_POINT('',#1124);
#344=VERTEX_POINT('',#1128);
#345=VERTEX_POINT('',#1132);
#346=VERTEX_POINT('',#1136);
#347=VERTEX_POINT('',#1140);
#348=VERTEX_POINT('',#1144);
#349=VERTEX_POINT('',#1146);
#350=VERTEX_POINT('',#1148);
#351=VERTEX_POINT('',#1155);
#352=VERTEX_POINT('',#1159);
#353=VERTEX_POINT('',#1166);
#354=VERTEX_POINT('',#1168);
#355=VERTEX_POINT('',#1172);
#356=VERTEX_POINT('',#1176);
#357=VERTEX_POINT('',#1184);
#358=VERTEX_POINT('',#1188);
#359=VERTEX_POINT('',#1195);
#360=VERTEX_POINT('',#1201);
#361=VERTEX_POINT('',#1207);
#362=VERTEX_POINT('',#1211);
#363=EDGE_CURVE('',#303,#304,#271,.T.);
#364=EDGE_CURVE('',#304,#305,#139,.T.);
#365=EDGE_CURVE('',#305,#306,#272,.T.);
#366=EDGE_CURVE('',#306,#303,#140,.T.);
#367=EDGE_CURVE('',#304,#307,#141,.T.);
#368=EDGE_CURVE('',#308,#307,#142,.T.);
#369=EDGE_CURVE('',#305,#308,#143,.T.);
#370=EDGE_CURVE('',#303,#309,#144,.T.);
#371=EDGE_CURVE('',#309,#310,#145,.T.);
#372=EDGE_CURVE('',#311,#310,#146,.T.);
#373=EDGE_CURVE('',#311,#312,#147,.T.);
#374=EDGE_CURVE('',#312,#313,#148,.T.);
#375=EDGE_CURVE('',#314,#313,#273,.T.);
#376=EDGE_CURVE('',#315,#314,#149,.T.);
#377=EDGE_CURVE('',#316,#315,#274,.T.);
#378=EDGE_CURVE('',#317,#316,#150,.T.);
#379=EDGE_CURVE('',#318,#317,#275,.T.);
#380=EDGE_CURVE('',#319,#318,#151,.T.);
#381=EDGE_CURVE('',#320,#319,#276,.T.);
#382=EDGE_CURVE('',#321,#320,#152,.T.);
#383=EDGE_CURVE('',#307,#321,#277,.T.);
#384=EDGE_CURVE('',#322,#322,#278,.T.);
#385=EDGE_CURVE('',#323,#323,#279,.T.);
#386=EDGE_CURVE('',#324,#325,#280,.T.);
#387=EDGE_CURVE('',#325,#314,#153,.T.);
#388=EDGE_CURVE('',#324,#313,#154,.T.);
#389=EDGE_CURVE('',#326,#327,#281,.T.);
#390=EDGE_CURVE('',#327,#318,#155,.T.);
#391=EDGE_CURVE('',#317,#326,#156,.T.);
#392=EDGE_CURVE('',#328,#316,#157,.T.);
#393=EDGE_CURVE('',#326,#328,#158,.T.);
#394=EDGE_CURVE('',#329,#328,#282,.T.);
#395=EDGE_CURVE('',#315,#329,#159,.T.);
#396=EDGE_CURVE('',#329,#325,#160,.T.);
#397=EDGE_CURVE('',#330,#331,#283,.T.);
#398=EDGE_CURVE('',#331,#332,#161,.T.);
#399=EDGE_CURVE('',#332,#333,#284,.T.);
#400=EDGE_CURVE('',#333,#330,#162,.T.);
#401=EDGE_CURVE('',#334,#333,#163,.T.);
#402=EDGE_CURVE('',#335,#334,#164,.T.);
#403=EDGE_CURVE('',#330,#335,#165,.T.);
#404=EDGE_CURVE('',#332,#336,#166,.T.);
#405=EDGE_CURVE('',#336,#337,#167,.T.);
#406=EDGE_CURVE('',#338,#337,#168,.T.);
#407=EDGE_CURVE('',#334,#338,#285,.T.);
#408=EDGE_CURVE('',#339,#339,#286,.T.);
#409=EDGE_CURVE('',#340,#340,#287,.T.);
#410=EDGE_CURVE('',#341,#342,#288,.T.);
#411=EDGE_CURVE('',#342,#320,#169,.T.);
#412=EDGE_CURVE('',#319,#341,#170,.T.);
#413=EDGE_CURVE('',#341,#327,#171,.T.);
#414=EDGE_CURVE('',#343,#308,#289,.T.);
#415=EDGE_CURVE('',#321,#343,#172,.T.);
#416=EDGE_CURVE('',#344,#335,#290,.T.);
#417=EDGE_CURVE('',#338,#344,#173,.T.);
#418=EDGE_CURVE('',#337,#345,#174,.T.);
#419=EDGE_CURVE('',#344,#345,#175,.T.);
#420=EDGE_CURVE('',#346,#346,#291,.T.);
#421=EDGE_CURVE('',#346,#339,#176,.T.);
#422=EDGE_CURVE('',#347,#347,#292,.T.);
#423=EDGE_CURVE('',#347,#340,#177,.T.);
#424=EDGE_CURVE('',#345,#348,#178,.T.);
#425=EDGE_CURVE('',#345,#349,#293,.T.);
#426=EDGE_CURVE('',#350,#349,#179,.T.);
#427=EDGE_CURVE('',#350,#348,#294,.T.);
#428=EDGE_CURVE('',#348,#331,#180,.T.);
#429=EDGE_CURVE('',#348,#336,#181,.T.);
#430=EDGE_CURVE('',#337,#351,#295,.T.);
#431=EDGE_CURVE('',#349,#351,#182,.T.);
#432=EDGE_CURVE('',#352,#350,#183,.T.);
#433=EDGE_CURVE('',#336,#352,#296,.T.);
#434=EDGE_CURVE('',#351,#352,#184,.T.);
#435=EDGE_CURVE('',#350,#353,#185,.T.);
#436=EDGE_CURVE('',#353,#354,#186,.T.);
#437=EDGE_CURVE('',#352,#354,#187,.T.);
#438=EDGE_CURVE('',#349,#355,#188,.T.);
#439=EDGE_CURVE('',#355,#353,#189,.T.);
#440=EDGE_CURVE('',#354,#356,#190,.T.);
#441=EDGE_CURVE('',#354,#311,#297,.T.);
#442=EDGE_CURVE('',#310,#356,#298,.T.);
#443=EDGE_CURVE('',#356,#351,#191,.T.);
#444=EDGE_CURVE('',#356,#355,#192,.T.);
#445=EDGE_CURVE('',#353,#357,#299,.T.);
#446=EDGE_CURVE('',#357,#311,#193,.T.);
#447=EDGE_CURVE('',#310,#358,#194,.T.);
#448=EDGE_CURVE('',#355,#358,#300,.T.);
#449=EDGE_CURVE('',#357,#358,#195,.T.);
#450=EDGE_CURVE('',#358,#359,#196,.T.);
#451=EDGE_CURVE('',#359,#309,#197,.T.);
#452=EDGE_CURVE('',#359,#306,#198,.T.);
#453=EDGE_CURVE('',#360,#357,#199,.T.);
#454=EDGE_CURVE('',#360,#312,#200,.T.);
#455=EDGE_CURVE('',#324,#360,#201,.T.);
#456=EDGE_CURVE('',#361,#361,#301,.T.);
#457=EDGE_CURVE('',#361,#323,#202,.T.);
#458=EDGE_CURVE('',#362,#362,#302,.T.);
#459=EDGE_CURVE('',#362,#322,#203,.T.);
#460=EDGE_CURVE('',#343,#342,#204,.T.);
#461=ORIENTED_EDGE('',*,*,#363,.T.);
#462=ORIENTED_EDGE('',*,*,#364,.T.);
#463=ORIENTED_EDGE('',*,*,#365,.T.);
#464=ORIENTED_EDGE('',*,*,#366,.T.);
#465=ORIENTED_EDGE('',*,*,#364,.F.);
#466=ORIENTED_EDGE('',*,*,#367,.T.);
#467=ORIENTED_EDGE('',*,*,#368,.F.);
#468=ORIENTED_EDGE('',*,*,#369,.F.);
#469=ORIENTED_EDGE('',*,*,#363,.F.);
#470=ORIENTED_EDGE('',*,*,#370,.T.);
#471=ORIENTED_EDGE('',*,*,#371,.T.);
#472=ORIENTED_EDGE('',*,*,#372,.F.);
#473=ORIENTED_EDGE('',*,*,#373,.T.);
#474=ORIENTED_EDGE('',*,*,#374,.T.);
#475=ORIENTED_EDGE('',*,*,#375,.F.);
#476=ORIENTED_EDGE('',*,*,#376,.F.);
#477=ORIENTED_EDGE('',*,*,#377,.F.);
#478=ORIENTED_EDGE('',*,*,#378,.F.);
#479=ORIENTED_EDGE('',*,*,#379,.F.);
#480=ORIENTED_EDGE('',*,*,#380,.F.);
#481=ORIENTED_EDGE('',*,*,#381,.F.);
#482=ORIENTED_EDGE('',*,*,#382,.F.);
#483=ORIENTED_EDGE('',*,*,#383,.F.);
#484=ORIENTED_EDGE('',*,*,#367,.F.);
#485=ORIENTED_EDGE('',*,*,#384,.F.);
#486=ORIENTED_EDGE('',*,*,#385,.F.);
#487=ORIENTED_EDGE('',*,*,#386,.T.);
#488=ORIENTED_EDGE('',*,*,#387,.T.);
#489=ORIENTED_EDGE('',*,*,#375,.T.);
#490=ORIENTED_EDGE('',*,*,#388,.F.);
#491=ORIENTED_EDGE('',*,*,#389,.T.);
#492=ORIENTED_EDGE('',*,*,#390,.T.);
#493=ORIENTED_EDGE('',*,*,#379,.T.);
#494=ORIENTED_EDGE('',*,*,#391,.T.);
#495=ORIENTED_EDGE('',*,*,#391,.F.);
#496=ORIENTED_EDGE('',*,*,#378,.T.);
#497=ORIENTED_EDGE('',*,*,#392,.F.);
#498=ORIENTED_EDGE('',*,*,#393,.F.);
#499=ORIENTED_EDGE('',*,*,#394,.T.);
#500=ORIENTED_EDGE('',*,*,#392,.T.);
#501=ORIENTED_EDGE('',*,*,#377,.T.);
#502=ORIENTED_EDGE('',*,*,#395,.T.);
#503=ORIENTED_EDGE('',*,*,#387,.F.);
#504=ORIENTED_EDGE('',*,*,#396,.F.);
#505=ORIENTED_EDGE('',*,*,#395,.F.);
#506=ORIENTED_EDGE('',*,*,#376,.T.);
#507=ORIENTED_EDGE('',*,*,#397,.T.);
#508=ORIENTED_EDGE('',*,*,#398,.T.);
#509=ORIENTED_EDGE('',*,*,#399,.T.);
#510=ORIENTED_EDGE('',*,*,#400,.T.);
#511=ORIENTED_EDGE('',*,*,#400,.F.);
#512=ORIENTED_EDGE('',*,*,#401,.F.);
#513=ORIENTED_EDGE('',*,*,#402,.F.);
#514=ORIENTED_EDGE('',*,*,#403,.F.);
#515=ORIENTED_EDGE('',*,*,#399,.F.);
#516=ORIENTED_EDGE('',*,*,#404,.T.);
#517=ORIENTED_EDGE('',*,*,#405,.T.);
#518=ORIENTED_EDGE('',*,*,#406,.F.);
#519=ORIENTED_EDGE('',*,*,#407,.F.);
#520=ORIENTED_EDGE('',*,*,#401,.T.);
#521=ORIENTED_EDGE('',*,*,#408,.T.);
#522=ORIENTED_EDGE('',*,*,#409,.T.);
#523=ORIENTED_EDGE('',*,*,#410,.T.);
#524=ORIENTED_EDGE('',*,*,#411,.T.);
#525=ORIENTED_EDGE('',*,*,#381,.T.);
#526=ORIENTED_EDGE('',*,*,#412,.T.);
#527=ORIENTED_EDGE('',*,*,#390,.F.);
#528=ORIENTED_EDGE('',*,*,#413,.F.);
#529=ORIENTED_EDGE('',*,*,#412,.F.);
#530=ORIENTED_EDGE('',*,*,#380,.T.);
#531=ORIENTED_EDGE('',*,*,#414,.T.);
#532=ORIENTED_EDGE('',*,*,#368,.T.);
#533=ORIENTED_EDGE('',*,*,#383,.T.);
#534=ORIENTED_EDGE('',*,*,#415,.T.);
#535=ORIENTED_EDGE('',*,*,#416,.T.);
#536=ORIENTED_EDGE('',*,*,#402,.T.);
#537=ORIENTED_EDGE('',*,*,#407,.T.);
#538=ORIENTED_EDGE('',*,*,#417,.T.);
#539=ORIENTED_EDGE('',*,*,#417,.F.);
#540=ORIENTED_EDGE('',*,*,#406,.T.);
#541=ORIENTED_EDGE('',*,*,#418,.T.);
#542=ORIENTED_EDGE('',*,*,#419,.F.);
#543=ORIENTED_EDGE('',*,*,#420,.F.);
#544=ORIENTED_EDGE('',*,*,#421,.T.);
#545=ORIENTED_EDGE('',*,*,#408,.F.);
#546=ORIENTED_EDGE('',*,*,#421,.F.);
#547=ORIENTED_EDGE('',*,*,#422,.F.);
#548=ORIENTED_EDGE('',*,*,#423,.T.);
#549=ORIENTED_EDGE('',*,*,#409,.F.);
#550=ORIENTED_EDGE('',*,*,#423,.F.);
#551=ORIENTED_EDGE('',*,*,#424,.F.);
#552=ORIENTED_EDGE('',*,*,#425,.T.);
#553=ORIENTED_EDGE('',*,*,#426,.F.);
#554=ORIENTED_EDGE('',*,*,#427,.T.);
#555=ORIENTED_EDGE('',*,*,#398,.F.);
#556=ORIENTED_EDGE('',*,*,#428,.F.);
#557=ORIENTED_EDGE('',*,*,#429,.T.);
#558=ORIENTED_EDGE('',*,*,#404,.F.);
#559=ORIENTED_EDGE('',*,*,#418,.F.);
#560=ORIENTED_EDGE('',*,*,#430,.T.);
#561=ORIENTED_EDGE('',*,*,#431,.F.);
#562=ORIENTED_EDGE('',*,*,#425,.F.);
#563=ORIENTED_EDGE('',*,*,#429,.F.);
#564=ORIENTED_EDGE('',*,*,#427,.F.);
#565=ORIENTED_EDGE('',*,*,#432,.F.);
#566=ORIENTED_EDGE('',*,*,#433,.F.);
#567=ORIENTED_EDGE('',*,*,#405,.F.);
#568=ORIENTED_EDGE('',*,*,#433,.T.);
#569=ORIENTED_EDGE('',*,*,#434,.F.);
#570=ORIENTED_EDGE('',*,*,#430,.F.);
#571=ORIENTED_EDGE('',*,*,#397,.F.);
#572=ORIENTED_EDGE('',*,*,#403,.T.);
#573=ORIENTED_EDGE('',*,*,#416,.F.);
#574=ORIENTED_EDGE('',*,*,#419,.T.);
#575=ORIENTED_EDGE('',*,*,#424,.T.);
#576=ORIENTED_EDGE('',*,*,#428,.T.);
#577=ORIENTED_EDGE('',*,*,#420,.T.);
#578=ORIENTED_EDGE('',*,*,#422,.T.);
#579=ORIENTED_EDGE('',*,*,#432,.T.);
#580=ORIENTED_EDGE('',*,*,#435,.T.);
#581=ORIENTED_EDGE('',*,*,#436,.T.);
#582=ORIENTED_EDGE('',*,*,#437,.F.);
#583=ORIENTED_EDGE('',*,*,#426,.T.);
#584=ORIENTED_EDGE('',*,*,#438,.T.);
#585=ORIENTED_EDGE('',*,*,#439,.T.);
#586=ORIENTED_EDGE('',*,*,#435,.F.);
#587=ORIENTED_EDGE('',*,*,#440,.F.);
#588=ORIENTED_EDGE('',*,*,#441,.T.);
#589=ORIENTED_EDGE('',*,*,#372,.T.);
#590=ORIENTED_EDGE('',*,*,#442,.T.);
#591=ORIENTED_EDGE('',*,*,#431,.T.);
#592=ORIENTED_EDGE('',*,*,#443,.F.);
#593=ORIENTED_EDGE('',*,*,#444,.T.);
#594=ORIENTED_EDGE('',*,*,#438,.F.);
#595=ORIENTED_EDGE('',*,*,#436,.F.);
#596=ORIENTED_EDGE('',*,*,#445,.T.);
#597=ORIENTED_EDGE('',*,*,#446,.T.);
#598=ORIENTED_EDGE('',*,*,#441,.F.);
#599=ORIENTED_EDGE('',*,*,#444,.F.);
#600=ORIENTED_EDGE('',*,*,#442,.F.);
#601=ORIENTED_EDGE('',*,*,#447,.T.);
#602=ORIENTED_EDGE('',*,*,#448,.F.);
#603=ORIENTED_EDGE('',*,*,#439,.F.);
#604=ORIENTED_EDGE('',*,*,#448,.T.);
#605=ORIENTED_EDGE('',*,*,#449,.F.);
#606=ORIENTED_EDGE('',*,*,#445,.F.);
#607=ORIENTED_EDGE('',*,*,#434,.T.);
#608=ORIENTED_EDGE('',*,*,#437,.T.);
#609=ORIENTED_EDGE('',*,*,#440,.T.);
#610=ORIENTED_EDGE('',*,*,#443,.T.);
#611=ORIENTED_EDGE('',*,*,#450,.F.);
#612=ORIENTED_EDGE('',*,*,#447,.F.);
#613=ORIENTED_EDGE('',*,*,#371,.F.);
#614=ORIENTED_EDGE('',*,*,#451,.F.);
#615=ORIENTED_EDGE('',*,*,#452,.F.);
#616=ORIENTED_EDGE('',*,*,#451,.T.);
#617=ORIENTED_EDGE('',*,*,#370,.F.);
#618=ORIENTED_EDGE('',*,*,#366,.F.);
#619=ORIENTED_EDGE('',*,*,#453,.F.);
#620=ORIENTED_EDGE('',*,*,#454,.T.);
#621=ORIENTED_EDGE('',*,*,#373,.F.);
#622=ORIENTED_EDGE('',*,*,#446,.F.);
#623=ORIENTED_EDGE('',*,*,#455,.F.);
#624=ORIENTED_EDGE('',*,*,#388,.T.);
#625=ORIENTED_EDGE('',*,*,#374,.F.);
#626=ORIENTED_EDGE('',*,*,#454,.F.);
#627=ORIENTED_EDGE('',*,*,#456,.F.);
#628=ORIENTED_EDGE('',*,*,#457,.T.);
#629=ORIENTED_EDGE('',*,*,#385,.T.);
#630=ORIENTED_EDGE('',*,*,#457,.F.);
#631=ORIENTED_EDGE('',*,*,#458,.F.);
#632=ORIENTED_EDGE('',*,*,#459,.T.);
#633=ORIENTED_EDGE('',*,*,#384,.T.);
#634=ORIENTED_EDGE('',*,*,#459,.F.);
#635=ORIENTED_EDGE('',*,*,#411,.F.);
#636=ORIENTED_EDGE('',*,*,#460,.F.);
#637=ORIENTED_EDGE('',*,*,#415,.F.);
#638=ORIENTED_EDGE('',*,*,#382,.T.);
#639=ORIENTED_EDGE('',*,*,#365,.F.);
#640=ORIENTED_EDGE('',*,*,#369,.T.);
#641=ORIENTED_EDGE('',*,*,#414,.F.);
#642=ORIENTED_EDGE('',*,*,#460,.T.);
#643=ORIENTED_EDGE('',*,*,#410,.F.);
#644=ORIENTED_EDGE('',*,*,#413,.T.);
#645=ORIENTED_EDGE('',*,*,#389,.F.);
#646=ORIENTED_EDGE('',*,*,#393,.T.);
#647=ORIENTED_EDGE('',*,*,#394,.F.);
#648=ORIENTED_EDGE('',*,*,#396,.T.);
#649=ORIENTED_EDGE('',*,*,#386,.F.);
#650=ORIENTED_EDGE('',*,*,#455,.T.);
#651=ORIENTED_EDGE('',*,*,#453,.T.);
#652=ORIENTED_EDGE('',*,*,#449,.T.);
#653=ORIENTED_EDGE('',*,*,#450,.T.);
#654=ORIENTED_EDGE('',*,*,#452,.T.);
#655=ORIENTED_EDGE('',*,*,#458,.T.);
#656=ORIENTED_EDGE('',*,*,#456,.T.);
#657=CYLINDRICAL_SURFACE('',#728,1.);
#658=CYLINDRICAL_SURFACE('',#740,1.);
#659=CYLINDRICAL_SURFACE('',#742,5.);
#660=CYLINDRICAL_SURFACE('',#745,5.);
#661=CYLINDRICAL_SURFACE('',#748,5.);
#662=CYLINDRICAL_SURFACE('',#756,5.);
#663=CYLINDRICAL_SURFACE('',#759,5.);
#664=CYLINDRICAL_SURFACE('',#761,5.);
#665=CYLINDRICAL_SURFACE('',#764,4.25);
#666=CYLINDRICAL_SURFACE('',#766,4.25);
#667=CYLINDRICAL_SURFACE('',#768,4.);
#668=CYLINDRICAL_SURFACE('',#776,2.);
#669=CYLINDRICAL_SURFACE('',#780,4.);
#670=CYLINDRICAL_SURFACE('',#788,2.);
#671=CYLINDRICAL_SURFACE('',#794,3.5);
#672=CYLINDRICAL_SURFACE('',#796,3.5);
#673=ADVANCED_FACE('',(#51),#657,.T.);
#674=ADVANCED_FACE('',(#52),#27,.T.);
#675=ADVANCED_FACE('',(#53,#19,#20),#28,.F.);
#676=ADVANCED_FACE('',(#54),#658,.T.);
#677=ADVANCED_FACE('',(#55),#659,.T.);
#678=ADVANCED_FACE('',(#56),#29,.T.);
#679=ADVANCED_FACE('',(#57),#660,.T.);
#680=ADVANCED_FACE('',(#58),#30,.T.);
#681=ADVANCED_FACE('',(#59),#661,.T.);
#682=ADVANCED_FACE('',(#60),#31,.T.);
#683=ADVANCED_FACE('',(#61,#21,#22),#32,.F.);
#684=ADVANCED_FACE('',(#62),#662,.T.);
#685=ADVANCED_FACE('',(#63),#33,.T.);
#686=ADVANCED_FACE('',(#64),#663,.T.);
#687=ADVANCED_FACE('',(#65),#664,.T.);
#688=ADVANCED_FACE('',(#66),#34,.T.);
#689=ADVANCED_FACE('',(#67),#665,.F.);
#690=ADVANCED_FACE('',(#68),#666,.F.);
#691=ADVANCED_FACE('',(#69),#667,.T.);
#692=ADVANCED_FACE('',(#70),#35,.T.);
#693=ADVANCED_FACE('',(#71),#36,.T.);
#694=ADVANCED_FACE('',(#72),#37,.T.);
#695=ADVANCED_FACE('',(#73),#668,.F.);
#696=ADVANCED_FACE('',(#74,#23,#24),#38,.T.);
#697=ADVANCED_FACE('',(#75),#39,.T.);
#698=ADVANCED_FACE('',(#76),#40,.F.);
#699=ADVANCED_FACE('',(#77),#669,.T.);
#700=ADVANCED_FACE('',(#78),#41,.T.);
#701=ADVANCED_FACE('',(#79),#42,.T.);
#702=ADVANCED_FACE('',(#80),#43,.T.);
#703=ADVANCED_FACE('',(#81),#670,.F.);
#704=ADVANCED_FACE('',(#82),#44,.T.);
#705=ADVANCED_FACE('',(#83),#45,.F.);
#706=ADVANCED_FACE('',(#84),#46,.F.);
#707=ADVANCED_FACE('',(#85),#47,.F.);
#708=ADVANCED_FACE('',(#86),#48,.F.);
#709=ADVANCED_FACE('',(#87),#671,.F.);
#710=ADVANCED_FACE('',(#88),#672,.F.);
#711=ADVANCED_FACE('',(#89),#49,.T.);
#712=ADVANCED_FACE('',(#90,#25,#26),#50,.T.);
#713=CLOSED_SHELL('',(#673,#674,#675,#676,#677,#678,#679,#680,#681,#682,
#683,#684,#685,#686,#687,#688,#689,#690,#691,#692,#693,#694,#695,#696,#697,
#698,#699,#700,#701,#702,#703,#704,#705,#706,#707,#708,#709,#710,#711,#712));
#714=DERIVED_UNIT_ELEMENT(#716,1.);
#715=DERIVED_UNIT_ELEMENT(#1225,-3.);
#716=(
MASS_UNIT()
NAMED_UNIT(*)
SI_UNIT(.KILO.,.GRAM.)
);
#717=DERIVED_UNIT((#714,#715));
#718=MEASURE_REPRESENTATION_ITEM('density measure',
POSITIVE_RATIO_MEASURE(7850.),#717);
#719=PROPERTY_DEFINITION_REPRESENTATION(#724,#721);
#720=PROPERTY_DEFINITION_REPRESENTATION(#725,#722);
#721=REPRESENTATION('material name',(#723),#1222);
#722=REPRESENTATION('density',(#718),#1222);
#723=DESCRIPTIVE_REPRESENTATION_ITEM('Steel','Steel');
#724=PROPERTY_DEFINITION('material property','material name',#1237);
#725=PROPERTY_DEFINITION('material property','density of part',#1237);
#726=AXIS2_PLACEMENT_3D('',#1017,#801,#802);
#727=AXIS2_PLACEMENT_3D('',#1018,#803,#804);
#728=AXIS2_PLACEMENT_3D('',#1019,#805,#806);
#729=AXIS2_PLACEMENT_3D('',#1022,#807,#808);
#730=AXIS2_PLACEMENT_3D('',#1026,#810,#811);
#731=AXIS2_PLACEMENT_3D('',#1028,#813,#814);
#732=AXIS2_PLACEMENT_3D('',#1034,#818,#819);
#733=AXIS2_PLACEMENT_3D('',#1046,#825,#826);
#734=AXIS2_PLACEMENT_3D('',#1050,#828,#829);
#735=AXIS2_PLACEMENT_3D('',#1054,#831,#832);
#736=AXIS2_PLACEMENT_3D('',#1058,#834,#835);
#737=AXIS2_PLACEMENT_3D('',#1061,#837,#838);
#738=AXIS2_PLACEMENT_3D('',#1063,#839,#840);
#739=AXIS2_PLACEMENT_3D('',#1065,#841,#842);
#740=AXIS2_PLACEMENT_3D('',#1066,#843,#844);
#741=AXIS2_PLACEMENT_3D('',#1069,#845,#846);
#742=AXIS2_PLACEMENT_3D('',#1072,#849,#850);
#743=AXIS2_PLACEMENT_3D('',#1075,#851,#852);
#744=AXIS2_PLACEMENT_3D('',#1078,#855,#856);
#745=AXIS2_PLACEMENT_3D('',#1082,#859,#860);
#746=AXIS2_PLACEMENT_3D('',#1084,#861,#862);
#747=AXIS2_PLACEMENT_3D('',#1086,#864,#865);
#748=AXIS2_PLACEMENT_3D('',#1088,#867,#868);
#749=AXIS2_PLACEMENT_3D('',#1091,#869,#870);
#750=AXIS2_PLACEMENT_3D('',#1095,#872,#873);
#751=AXIS2_PLACEMENT_3D('',#1097,#875,#876);
#752=AXIS2_PLACEMENT_3D('',#1103,#880,#881);
#753=AXIS2_PLACEMENT_3D('',#1110,#885,#886);
#754=AXIS2_PLACEMENT_3D('',#1112,#887,#888);
#755=AXIS2_PLACEMENT_3D('',#1114,#889,#890);
#756=AXIS2_PLACEMENT_3D('',#1115,#891,#892);
#757=AXIS2_PLACEMENT_3D('',#1118,#893,#894);
#758=AXIS2_PLACEMENT_3D('',#1121,#897,#898);
#759=AXIS2_PLACEMENT_3D('',#1123,#900,#901);
#760=AXIS2_PLACEMENT_3D('',#1125,#902,#903);
#761=AXIS2_PLACEMENT_3D('',#1127,#905,#906);
#762=AXIS2_PLACEMENT_3D('',#1129,#907,#908);
#763=AXIS2_PLACEMENT_3D('',#1131,#910,#911);
#764=AXIS2_PLACEMENT_3D('',#1135,#914,#915);
#765=AXIS2_PLACEMENT_3D('',#1137,#916,#917);
#766=AXIS2_PLACEMENT_3D('',#1139,#919,#920);
#767=AXIS2_PLACEMENT_3D('',#1141,#921,#922);
#768=AXIS2_PLACEMENT_3D('',#1143,#924,#925);
#769=AXIS2_PLACEMENT_3D('',#1147,#927,#928);
#770=AXIS2_PLACEMENT_3D('',#1150,#930,#931);
#771=AXIS2_PLACEMENT_3D('',#1151,#932,#933);
#772=AXIS2_PLACEMENT_3D('',#1154,#936,#937);
#773=AXIS2_PLACEMENT_3D('',#1156,#938,#939);
#774=AXIS2_PLACEMENT_3D('',#1158,#941,#942);
#775=AXIS2_PLACEMENT_3D('',#1161,#944,#945);
#776=AXIS2_PLACEMENT_3D('',#1162,#946,#947);
#777=AXIS2_PLACEMENT_3D('',#1164,#949,#950);
#778=AXIS2_PLACEMENT_3D('',#1165,#951,#952);
#779=AXIS2_PLACEMENT_3D('',#1171,#956,#957);
#780=AXIS2_PLACEMENT_3D('',#1175,#960,#961);
#781=AXIS2_PLACEMENT_3D('',#1178,#963,#964);
#782=AXIS2_PLACEMENT_3D('',#1179,#965,#966);
#783=AXIS2_PLACEMENT_3D('',#1180,#967,#968);
#784=AXIS2_PLACEMENT_3D('',#1183,#971,#972);
#785=AXIS2_PLACEMENT_3D('',#1185,#973,#974);
#786=AXIS2_PLACEMENT_3D('',#1187,#976,#977);
#787=AXIS2_PLACEMENT_3D('',#1190,#979,#980);
#788=AXIS2_PLACEMENT_3D('',#1191,#981,#982);
#789=AXIS2_PLACEMENT_3D('',#1193,#984,#985);
#790=AXIS2_PLACEMENT_3D('',#1194,#986,#987);
#791=AXIS2_PLACEMENT_3D('',#1198,#990,#991);
#792=AXIS2_PLACEMENT_3D('',#1200,#993,#994);
#793=AXIS2_PLACEMENT_3D('',#1204,#997,#998);
#794=AXIS2_PLACEMENT_3D('',#1206,#1000,#1001);
#795=AXIS2_PLACEMENT_3D('',#1208,#1002,#1003);
#796=AXIS2_PLACEMENT_3D('',#1210,#1005,#1006);
#797=AXIS2_PLACEMENT_3D('',#1212,#1007,#1008);
#798=AXIS2_PLACEMENT_3D('',#1214,#1010,#1011);
#799=AXIS2_PLACEMENT_3D('',#1216,#1013,#1014);
#800=AXIS2_PLACEMENT_3D('',#1217,#1015,#1016);
#801=DIRECTION('axis',(0.,0.,1.));
#802=DIRECTION('refdir',(1.,0.,0.));
#803=DIRECTION('axis',(0.,0.,1.));
#804=DIRECTION('refdir',(1.,0.,0.));
#805=DIRECTION('center_axis',(0.,-1.,0.));
#806=DIRECTION('ref_axis',(-0.707106781186547,0.,0.707106781186548));
#807=DIRECTION('center_axis',(0.,1.,0.));
#808=DIRECTION('ref_axis',(-0.707106781186547,0.,0.707106781186548));
#809=DIRECTION('',(0.,1.,0.));
#810=DIRECTION('center_axis',(0.,-1.,0.));
#811=DIRECTION('ref_axis',(-0.707106781186547,0.,0.707106781186548));
#812=DIRECTION('',(0.,-1.,0.));
#813=DIRECTION('center_axis',(0.,0.,1.));
#814=DIRECTION('ref_axis',(1.,0.,0.));
#815=DIRECTION('',(1.,0.,0.));
#816=DIRECTION('',(0.,-1.,0.));
#817=DIRECTION('',(1.,0.,0.));
#818=DIRECTION('center_axis',(0.,1.,0.));
#819=DIRECTION('ref_axis',(1.,0.,0.));
#820=DIRECTION('',(-1.,0.,0.));
#821=DIRECTION('',(0.,0.,1.));
#822=DIRECTION('',(1.,0.,0.));
#823=DIRECTION('',(0.,0.,-1.));
#824=DIRECTION('',(-1.,0.,0.));
#825=DIRECTION('center_axis',(0.,1.,0.));
#826=DIRECTION('ref_axis',(0.707106781186546,0.,0.707106781186549));
#827=DIRECTION('',(1.,0.,0.));
#828=DIRECTION('center_axis',(0.,1.,0.));
#829=DIRECTION('ref_axis',(-0.707106781186547,0.,0.707106781186547));
#830=DIRECTION('',(0.,0.,1.));
#831=DIRECTION('center_axis',(0.,1.,0.));
#832=DIRECTION('ref_axis',(-0.707106781186547,0.,-0.707106781186547));
#833=DIRECTION('',(-1.,0.,0.));
#834=DIRECTION('center_axis',(0.,1.,0.));
#835=DIRECTION('ref_axis',(0.707106781186547,0.,-0.707106781186547));
#836=DIRECTION('',(0.,0.,-1.));
#837=DIRECTION('center_axis',(0.,1.,0.));
#838=DIRECTION('ref_axis',(0.707106781186547,0.,0.707106781186547));
#839=DIRECTION('center_axis',(0.,-1.,0.));
#840=DIRECTION('ref_axis',(1.,0.,0.));
#841=DIRECTION('center_axis',(0.,-1.,0.));
#842=DIRECTION('ref_axis',(1.,0.,0.));
#843=DIRECTION('center_axis',(0.,1.,0.));
#844=DIRECTION('ref_axis',(0.707106781186546,0.,0.707106781186549));
#845=DIRECTION('center_axis',(0.,-1.,0.));
#846=DIRECTION('ref_axis',(0.707106781186546,0.,0.707106781186549));
#847=DIRECTION('',(0.,-1.,0.));
#848=DIRECTION('',(0.,-1.,0.));
#849=DIRECTION('center_axis',(0.,1.,0.));
#850=DIRECTION('ref_axis',(-0.707106781186547,0.,-0.707106781186547));
#851=DIRECTION('center_axis',(0.,-1.,0.));
#852=DIRECTION('ref_axis',(-0.707106781186547,0.,-0.707106781186547));
#853=DIRECTION('',(0.,-1.,0.));
#854=DIRECTION('',(0.,1.,0.));
#855=DIRECTION('center_axis',(-1.,0.,0.));
#856=DIRECTION('ref_axis',(0.,0.,1.));
#857=DIRECTION('',(0.,-1.,0.));
#858=DIRECTION('',(0.,0.,1.));
#859=DIRECTION('center_axis',(0.,1.,0.));
#860=DIRECTION('ref_axis',(-0.707106781186547,0.,0.707106781186547));
#861=DIRECTION('center_axis',(0.,-1.,0.));
#862=DIRECTION('ref_axis',(-0.707106781186547,0.,0.707106781186547));
#863=DIRECTION('',(0.,1.,0.));
#864=DIRECTION('center_axis',(0.,0.,1.));
#865=DIRECTION('ref_axis',(1.,0.,0.));
#866=DIRECTION('',(1.,0.,0.));
#867=DIRECTION('center_axis',(0.,1.,-1.83758917935762E-15));
#868=DIRECTION('ref_axis',(-0.707106781186547,1.25607396694702E-15,0.707106781186547));
#869=DIRECTION('center_axis',(0.,-1.,1.83758917935762E-15));
#870=DIRECTION('ref_axis',(-0.707106781186547,1.25607396694702E-15,0.707106781186547));
#871=DIRECTION('',(0.,-1.,1.83758917935762E-15));
#872=DIRECTION('center_axis',(0.,1.,-1.74574066942157E-15));
#873=DIRECTION('ref_axis',(-0.707106781186547,1.25607396694702E-15,0.707106781186547));
#874=DIRECTION('',(0.,1.,-1.83758917935762E-15));
#875=DIRECTION('center_axis',(0.,1.83758917935762E-15,1.));
#876=DIRECTION('ref_axis',(1.,0.,0.));
#877=DIRECTION('',(-1.,0.,0.));
#878=DIRECTION('',(0.,-1.,1.83758917935762E-15));
#879=DIRECTION('',(1.,0.,0.));
#880=DIRECTION('center_axis',(0.,1.,-1.74574066942157E-15));
#881=DIRECTION('ref_axis',(-1.,0.,0.));
#882=DIRECTION('',(0.,-1.71512449944288E-15,-1.));
#883=DIRECTION('',(1.,0.,0.));
#884=DIRECTION('',(0.,-1.71512449944288E-15,-1.));
#885=DIRECTION('center_axis',(0.,1.,-1.74574066942157E-15));
#886=DIRECTION('ref_axis',(0.707106781186547,1.25607396694702E-15,0.707106781186547));
#887=DIRECTION('center_axis',(0.,1.,-1.74574066942157E-15));
#888=DIRECTION('ref_axis',(-1.,0.,0.));
#889=DIRECTION('center_axis',(0.,1.,-1.74574066942157E-15));
#890=DIRECTION('ref_axis',(-1.,0.,0.));
#891=DIRECTION('center_axis',(0.,1.,0.));
#892=DIRECTION('ref_axis',(0.707106781186547,0.,-0.707106781186547));
#893=DIRECTION('center_axis',(0.,-1.,0.));
#894=DIRECTION('ref_axis',(0.707106781186547,0.,-0.707106781186547));
#895=DIRECTION('',(0.,-1.,0.));
#896=DIRECTION('',(0.,1.,0.));
#897=DIRECTION('center_axis',(0.,0.,-1.));
#898=DIRECTION('ref_axis',(-1.,0.,0.));
#899=DIRECTION('',(-1.,0.,0.));
#900=DIRECTION('center_axis',(0.,1.,0.));
#901=DIRECTION('ref_axis',(0.707106781186547,0.,0.707106781186547));
#902=DIRECTION('center_axis',(0.,-1.,0.));
#903=DIRECTION('ref_axis',(0.707106781186547,0.,0.707106781186547));
#904=DIRECTION('',(0.,1.,0.));
#905=DIRECTION('center_axis',(0.,1.,-1.83758917935762E-15));
#906=DIRECTION('ref_axis',(0.707106781186547,1.25607396694702E-15,0.707106781186547));
#907=DIRECTION('center_axis',(0.,-1.,1.83758917935762E-15));
#908=DIRECTION('ref_axis',(0.707106781186547,1.25607396694702E-15,0.707106781186547));
#909=DIRECTION('',(0.,1.,-1.83758917935762E-15));
#910=DIRECTION('center_axis',(1.,0.,0.));
#911=DIRECTION('ref_axis',(0.,-1.77635683940025E-15,-1.));
#912=DIRECTION('',(0.,1.,-1.77635683940025E-15));
#913=DIRECTION('',(0.,-1.77635683940025E-15,-1.));
#914=DIRECTION('center_axis',(0.,-1.,0.));
#915=DIRECTION('ref_axis',(-1.,0.,0.));
#916=DIRECTION('center_axis',(0.,-1.,1.83758917935762E-15));
#917=DIRECTION('ref_axis',(-1.,0.,0.));
#918=DIRECTION('',(0.,-1.,0.));
#919=DIRECTION('center_axis',(0.,-1.,0.));
#920=DIRECTION('ref_axis',(-1.,0.,0.));
#921=DIRECTION('center_axis',(0.,-1.,1.83758917935762E-15));
#922=DIRECTION('ref_axis',(-1.,0.,0.));
#923=DIRECTION('',(0.,-1.,0.));
#924=DIRECTION('center_axis',(1.,0.,0.));
#925=DIRECTION('ref_axis',(0.,6.12323399573677E-17,-1.));
#926=DIRECTION('',(-1.,0.,0.));
#927=DIRECTION('center_axis',(-1.,0.,0.));
#928=DIRECTION('ref_axis',(0.,1.,-2.22044604925031E-15));
#929=DIRECTION('',(1.,0.,0.));
#930=DIRECTION('center_axis',(1.,0.,0.));
#931=DIRECTION('ref_axis',(0.,-5.55111512312578E-16,-1.));
#932=DIRECTION('center_axis',(-1.,0.,0.));
#933=DIRECTION('ref_axis',(0.,1.71512449944288E-15,1.));
#934=DIRECTION('',(0.,1.71512449944288E-15,1.));
#935=DIRECTION('',(0.,-1.,1.77635683940025E-15));
#936=DIRECTION('center_axis',(1.,0.,0.));
#937=DIRECTION('ref_axis',(0.,0.,-1.));
#938=DIRECTION('center_axis',(-1.,0.,0.));
#939=DIRECTION('ref_axis',(0.,1.,-2.22044604925031E-15));
#940=DIRECTION('',(0.,0.,1.));
#941=DIRECTION('center_axis',(-1.,0.,0.));
#942=DIRECTION('ref_axis',(0.,0.,1.));
#943=DIRECTION('',(0.,0.,-1.));
#944=DIRECTION('center_axis',(-1.,0.,0.));
#945=DIRECTION('ref_axis',(0.,1.,-2.22044604925031E-15));
#946=DIRECTION('center_axis',(1.,0.,0.));
#947=DIRECTION('ref_axis',(0.,6.12323399573677E-17,-1.));
#948=DIRECTION('',(-1.,0.,0.));
#949=DIRECTION('center_axis',(0.,1.,-1.83758917935762E-15));
#950=DIRECTION('ref_axis',(-1.,0.,0.));
#951=DIRECTION('center_axis',(-1.,0.,0.));
#952=DIRECTION('ref_axis',(0.,-1.,-6.12323399573677E-17));
#953=DIRECTION('',(0.,-1.,0.));
#954=DIRECTION('',(0.,-6.12323399573677E-17,1.));
#955=DIRECTION('',(0.,-1.,-6.12323399573677E-17));
#956=DIRECTION('center_axis',(0.,-3.06161699786838E-17,1.));
#957=DIRECTION('ref_axis',(0.,-1.,-3.06161699786838E-17));
#958=DIRECTION('',(0.,-1.,0.));
#959=DIRECTION('',(-1.,0.,0.));
#960=DIRECTION('center_axis',(-1.,0.,0.));
#961=DIRECTION('ref_axis',(0.,-1.,0.));
#962=DIRECTION('',(1.,0.,0.));
#963=DIRECTION('center_axis',(1.,0.,0.));
#964=DIRECTION('ref_axis',(0.,0.,1.));
#965=DIRECTION('center_axis',(-1.,0.,0.));
#966=DIRECTION('ref_axis',(0.,-1.,0.));
#967=DIRECTION('center_axis',(1.,0.,0.));
#968=DIRECTION('ref_axis',(0.,1.,0.));
#969=DIRECTION('',(0.,1.,0.));
#970=DIRECTION('',(0.,6.12323399573677E-17,-1.));
#971=DIRECTION('center_axis',(-1.,0.,0.));
#972=DIRECTION('ref_axis',(0.,0.,1.));
#973=DIRECTION('center_axis',(1.,0.,0.));
#974=DIRECTION('ref_axis',(0.,0.,1.));
#975=DIRECTION('',(0.,-1.,0.));
#976=DIRECTION('center_axis',(1.,0.,0.));
#977=DIRECTION('ref_axis',(0.,0.,-1.));
#978=DIRECTION('',(0.,1.,0.));
#979=DIRECTION('center_axis',(1.,0.,0.));
#980=DIRECTION('ref_axis',(0.,0.,1.));
#981=DIRECTION('center_axis',(-1.,0.,0.));
#982=DIRECTION('ref_axis',(0.,-1.,0.));
#983=DIRECTION('',(1.,0.,0.));
#984=DIRECTION('center_axis',(0.,-6.12323399573677E-17,1.));
#985=DIRECTION('ref_axis',(0.,-1.,-6.12323399573677E-17));
#986=DIRECTION('center_axis',(-1.,0.,0.));
#987=DIRECTION('ref_axis',(0.,0.,-1.));
#988=DIRECTION('',(0.,0.,-1.));
#989=DIRECTION('',(0.,-1.,0.));
#990=DIRECTION('center_axis',(0.,0.,-1.));
#991=DIRECTION('ref_axis',(1.,0.,0.));
#992=DIRECTION('',(1.,0.,0.));
#993=DIRECTION('center_axis',(1.,0.,0.));
#994=DIRECTION('ref_axis',(0.,0.,1.));
#995=DIRECTION('',(0.,0.,1.));
#996=DIRECTION('',(0.,-1.,0.));
#997=DIRECTION('center_axis',(0.,0.,-1.));
#998=DIRECTION('ref_axis',(1.,0.,0.));
#999=DIRECTION('',(1.,0.,0.));
#1000=DIRECTION('center_axis',(0.,1.,0.));
#1001=DIRECTION('ref_axis',(1.,0.,0.));
#1002=DIRECTION('center_axis',(0.,-1.,0.));
#1003=DIRECTION('ref_axis',(1.,0.,0.));
#1004=DIRECTION('',(0.,-1.,0.));
#1005=DIRECTION('center_axis',(0.,1.,0.));
#1006=DIRECTION('ref_axis',(1.,0.,0.));
#1007=DIRECTION('center_axis',(0.,-1.,0.));
#1008=DIRECTION('ref_axis',(1.,0.,0.));
#1009=DIRECTION('',(0.,-1.,0.));
#1010=DIRECTION('center_axis',(1.,0.,0.));
#1011=DIRECTION('ref_axis',(0.,0.,-1.));
#1012=DIRECTION('',(0.,0.,-1.));
#1013=DIRECTION('center_axis',(0.,1.,0.));
#1014=DIRECTION('ref_axis',(1.,0.,0.));
#1015=DIRECTION('',(0.,0.,1.));
#1016=DIRECTION('',(1.,0.,0.));
#1017=CARTESIAN_POINT('',(0.,0.,0.));
#1018=CARTESIAN_POINT('',(0.,0.,0.));
#1019=CARTESIAN_POINT('Origin',(-5.,1.,14.));
#1020=CARTESIAN_POINT('',(-6.,0.,14.));
#1021=CARTESIAN_POINT('',(-5.,0.,15.));
#1022=CARTESIAN_POINT('Origin',(-5.,0.,14.));
#1023=CARTESIAN_POINT('',(-5.,2.,15.));
#1024=CARTESIAN_POINT('',(-5.,1.,15.));
#1025=CARTESIAN_POINT('',(-6.,2.,14.));
#1026=CARTESIAN_POINT('Origin',(-5.,2.,14.));
#1027=CARTESIAN_POINT('',(-6.,2.,14.));
#1028=CARTESIAN_POINT('Origin',(-90.,0.,15.));
#1029=CARTESIAN_POINT('',(5.,0.,15.));
#1030=CARTESIAN_POINT('',(-90.,0.,15.));
#1031=CARTESIAN_POINT('',(5.,2.,15.));
#1032=CARTESIAN_POINT('',(5.,0.,15.));
#1033=CARTESIAN_POINT('',(-90.,2.,15.));
#1034=CARTESIAN_POINT('Origin',(-40.,0.,2.5));
#1035=CARTESIAN_POINT('',(-8.,0.,14.));
#1036=CARTESIAN_POINT('',(-24.,0.,14.));
#1037=CARTESIAN_POINT('',(-8.,0.,15.));
#1038=CARTESIAN_POINT('',(-8.,0.,8.75));
#1039=CARTESIAN_POINT('',(-72.,0.,15.));
#1040=CARTESIAN_POINT('',(-90.,0.,15.));
#1041=CARTESIAN_POINT('',(-72.,0.,14.));
#1042=CARTESIAN_POINT('',(-72.,0.,8.25));
#1043=CARTESIAN_POINT('',(-74.,0.,14.));
#1044=CARTESIAN_POINT('',(-57.,0.,14.));
#1045=CARTESIAN_POINT('',(-75.,0.,15.));
#1046=CARTESIAN_POINT('Origin',(-75.,0.,14.));
#1047=CARTESIAN_POINT('',(-85.,0.,15.));
#1048=CARTESIAN_POINT('',(-90.,0.,15.));
#1049=CARTESIAN_POINT('',(-90.,0.,10.));
#1050=CARTESIAN_POINT('Origin',(-85.,0.,10.));
#1051=CARTESIAN_POINT('',(-90.,0.,-5.));
#1052=CARTESIAN_POINT('',(-90.,0.,-10.));
#1053=CARTESIAN_POINT('',(-85.,0.,-10.));
#1054=CARTESIAN_POINT('Origin',(-85.,0.,-5.));
#1055=CARTESIAN_POINT('',(5.,0.,-10.));
#1056=CARTESIAN_POINT('',(10.,0.,-10.));
#1057=CARTESIAN_POINT('',(10.,0.,-5.));
#1058=CARTESIAN_POINT('Origin',(5.,0.,-5.));
#1059=CARTESIAN_POINT('',(10.,0.,10.));
#1060=CARTESIAN_POINT('',(10.,0.,15.));
#1061=CARTESIAN_POINT('Origin',(5.,0.,10.));
#1062=CARTESIAN_POINT('',(-83.5,0.,4.28626379701573E-16));
#1063=CARTESIAN_POINT('Origin',(-80.,0.,0.));
#1064=CARTESIAN_POINT('',(-3.5,0.,4.28626379701574E-16));
#1065=CARTESIAN_POINT('Origin',(0.,0.,0.));
#1066=CARTESIAN_POINT('Origin',(-75.,1.,14.));
#1067=CARTESIAN_POINT('',(-74.,2.,14.));
#1068=CARTESIAN_POINT('',(-75.,2.,15.));
#1069=CARTESIAN_POINT('Origin',(-75.,2.,14.));
#1070=CARTESIAN_POINT('',(-75.,1.,15.));
#1071=CARTESIAN_POINT('',(-74.,2.,14.));
#1072=CARTESIAN_POINT('Origin',(-85.,0.,-5.));
#1073=CARTESIAN_POINT('',(-90.,2.,-5.));
#1074=CARTESIAN_POINT('',(-85.,2.,-10.));
#1075=CARTESIAN_POINT('Origin',(-85.,2.,-5.));
#1076=CARTESIAN_POINT('',(-85.,0.,-10.));
#1077=CARTESIAN_POINT('',(-90.,0.,-5.));
#1078=CARTESIAN_POINT('Origin',(-90.,0.,-10.));
#1079=CARTESIAN_POINT('',(-90.,2.,10.));
#1080=CARTESIAN_POINT('',(-90.,0.,10.));
#1081=CARTESIAN_POINT('',(-90.,2.,-10.));
#1082=CARTESIAN_POINT('Origin',(-85.,0.,10.));
#1083=CARTESIAN_POINT('',(-85.,2.,15.));
#1084=CARTESIAN_POINT('Origin',(-85.,2.,10.));
#1085=CARTESIAN_POINT('',(-85.,0.,15.));
#1086=CARTESIAN_POINT('Origin',(-90.,0.,15.));
#1087=CARTESIAN_POINT('',(-90.,2.,15.));
#1088=CARTESIAN_POINT('Origin',(-67.,16.,37.));
#1089=CARTESIAN_POINT('',(-67.,18.,42.));
#1090=CARTESIAN_POINT('',(-72.,18.,37.));
#1091=CARTESIAN_POINT('Origin',(-67.,18.,37.));
#1092=CARTESIAN_POINT('',(-72.,16.,37.));
#1093=CARTESIAN_POINT('',(-72.,16.,37.));
#1094=CARTESIAN_POINT('',(-67.,16.,42.));
#1095=CARTESIAN_POINT('Origin',(-67.,16.,37.));
#1096=CARTESIAN_POINT('',(-67.,16.,42.));
#1097=CARTESIAN_POINT('Origin',(-72.,16.,42.));
#1098=CARTESIAN_POINT('',(-13.,16.,42.));
#1099=CARTESIAN_POINT('',(-8.,16.,42.));
#1100=CARTESIAN_POINT('',(-13.,18.,42.));
#1101=CARTESIAN_POINT('',(-13.,16.,42.));
#1102=CARTESIAN_POINT('',(-8.,18.,42.));
#1103=CARTESIAN_POINT('Origin',(-40.,16.,29.4186948669968));
#1104=CARTESIAN_POINT('',(-72.,16.,21.));
#1105=CARTESIAN_POINT('',(-72.,16.,12.6747794679871));
#1106=CARTESIAN_POINT('',(-8.00000000000001,16.,21.));
#1107=CARTESIAN_POINT('',(-40.,16.,21.));
#1108=CARTESIAN_POINT('',(-8.00000000000001,16.,37.));
#1109=CARTESIAN_POINT('',(-8.00000000000001,16.,12.6747794679871));
#1110=CARTESIAN_POINT('Origin',(-13.,16.,37.));
#1111=CARTESIAN_POINT('',(-13.25,16.,33.5));
#1112=CARTESIAN_POINT('Origin',(-17.5,16.,33.5));
#1113=CARTESIAN_POINT('',(-58.25,16.,33.5));
#1114=CARTESIAN_POINT('Origin',(-62.5,16.,33.5));
#1115=CARTESIAN_POINT('Origin',(5.,0.,-5.));
#1116=CARTESIAN_POINT('',(5.,2.,-10.));
#1117=CARTESIAN_POINT('',(10.,2.,-5.));
#1118=CARTESIAN_POINT('Origin',(5.,2.,-5.));
#1119=CARTESIAN_POINT('',(10.,0.,-5.));
#1120=CARTESIAN_POINT('',(5.,0.,-10.));
#1121=CARTESIAN_POINT('Origin',(10.,0.,-10.));
#1122=CARTESIAN_POINT('',(10.,2.,-10.));
#1123=CARTESIAN_POINT('Origin',(5.,0.,10.));
#1124=CARTESIAN_POINT('',(10.,2.,10.));
#1125=CARTESIAN_POINT('Origin',(5.,2.,10.));
#1126=CARTESIAN_POINT('',(10.,0.,10.));
#1127=CARTESIAN_POINT('Origin',(-13.,16.,37.));
#1128=CARTESIAN_POINT('',(-8.,18.,37.));
#1129=CARTESIAN_POINT('Origin',(-13.,18.,37.));
#1130=CARTESIAN_POINT('',(-8.,16.,37.));
#1131=CARTESIAN_POINT('Origin',(-8.,16.,42.));
#1132=CARTESIAN_POINT('',(-8.,18.,21.));
#1133=CARTESIAN_POINT('',(-8.,16.325,21.));
#1134=CARTESIAN_POINT('',(-8.,18.,21.));
#1135=CARTESIAN_POINT('Origin',(-17.5,18.,33.5));
#1136=CARTESIAN_POINT('',(-13.25,18.,33.5));
#1137=CARTESIAN_POINT('Origin',(-17.5,18.,33.5));
#1138=CARTESIAN_POINT('',(-13.25,18.,33.5));
#1139=CARTESIAN_POINT('Origin',(-62.5,18.,33.5));
#1140=CARTESIAN_POINT('',(-58.25,18.,33.5));
#1141=CARTESIAN_POINT('Origin',(-62.5,18.,33.5));
#1142=CARTESIAN_POINT('',(-58.25,18.,33.5));
#1143=CARTESIAN_POINT('Origin',(-40.,14.,21.));
#1144=CARTESIAN_POINT('',(-72.,18.,21.));
#1145=CARTESIAN_POINT('',(-40.,18.,21.));
#1146=CARTESIAN_POINT('',(-8.,14.,17.));
#1147=CARTESIAN_POINT('Origin',(-8.,14.,21.));
#1148=CARTESIAN_POINT('',(-72.,14.,17.));
#1149=CARTESIAN_POINT('',(-24.,14.,17.));
#1150=CARTESIAN_POINT('Origin',(-72.,14.,21.));
#1151=CARTESIAN_POINT('Origin',(-72.,16.,16.8373897339935));
#1152=CARTESIAN_POINT('',(-72.,18.,12.674779467987));
#1153=CARTESIAN_POINT('',(-72.,16.325,21.));
#1154=CARTESIAN_POINT('Origin',(-8.,16.,21.));
#1155=CARTESIAN_POINT('',(-8.,14.,19.));
#1156=CARTESIAN_POINT('Origin',(-8.00000000000001,14.,21.));
#1157=CARTESIAN_POINT('',(-7.99999999999997,14.,18.));
#1158=CARTESIAN_POINT('Origin',(-72.,18.,21.));
#1159=CARTESIAN_POINT('',(-72.,14.,19.));
#1160=CARTESIAN_POINT('',(-72.,14.,18.));
#1161=CARTESIAN_POINT('Origin',(-72.,14.,21.));
#1162=CARTESIAN_POINT('Origin',(-40.,14.,21.));
#1163=CARTESIAN_POINT('',(-24.,14.,19.));
#1164=CARTESIAN_POINT('Origin',(-40.,18.,29.4186948669968));
#1165=CARTESIAN_POINT('Origin',(-72.,18.,17.));
#1166=CARTESIAN_POINT('',(-72.,4.,17.));
#1167=CARTESIAN_POINT('',(-72.,-4.32522053201295,17.));
#1168=CARTESIAN_POINT('',(-72.,4.,19.));
#1169=CARTESIAN_POINT('',(-72.,4.,17.325));
#1170=CARTESIAN_POINT('',(-72.,4.,19.));
#1171=CARTESIAN_POINT('Origin',(-40.,8.91869486699676,17.));
#1172=CARTESIAN_POINT('',(-7.99999999999997,4.,17.));
#1173=CARTESIAN_POINT('',(-7.99999999999997,-4.32522053201295,17.));
#1174=CARTESIAN_POINT('',(-40.,4.,17.));
#1175=CARTESIAN_POINT('Origin',(-40.,4.,15.));
#1176=CARTESIAN_POINT('',(-7.99999999999997,4.,19.));
#1177=CARTESIAN_POINT('',(-40.,4.,19.));
#1178=CARTESIAN_POINT('Origin',(-72.,4.,15.));
#1179=CARTESIAN_POINT('Origin',(-7.99999999999997,4.,15.));
#1180=CARTESIAN_POINT('Origin',(-7.99999999999997,-0.162610266006475,17.));
#1181=CARTESIAN_POINT('',(-7.99999999999997,-4.32522053201295,19.));
#1182=CARTESIAN_POINT('',(-7.99999999999997,4.,17.325));
#1183=CARTESIAN_POINT('Origin',(-72.,4.,17.));
#1184=CARTESIAN_POINT('',(-72.,2.,15.));
#1185=CARTESIAN_POINT('Origin',(-72.,4.,15.));
#1186=CARTESIAN_POINT('',(-72.,1.,15.));
#1187=CARTESIAN_POINT('Origin',(-7.99999999999997,4.,19.));
#1188=CARTESIAN_POINT('',(-8.,2.,15.));
#1189=CARTESIAN_POINT('',(-8.00000000000001,1.,15.));
#1190=CARTESIAN_POINT('Origin',(-7.99999999999997,4.,15.));
#1191=CARTESIAN_POINT('Origin',(-40.,4.,15.));
#1192=CARTESIAN_POINT('',(-90.,2.,15.));
#1193=CARTESIAN_POINT('Origin',(-40.,8.91869486699676,19.));
#1194=CARTESIAN_POINT('Origin',(-8.,2.,15.));
#1195=CARTESIAN_POINT('',(-8.,2.,14.));
#1196=CARTESIAN_POINT('',(-8.,2.,8.75));
#1197=CARTESIAN_POINT('',(-8.,2.,14.));
#1198=CARTESIAN_POINT('Origin',(-8.,2.,14.));
#1199=CARTESIAN_POINT('',(-24.,2.,14.));
#1200=CARTESIAN_POINT('Origin',(-72.,2.,14.));
#1201=CARTESIAN_POINT('',(-72.,2.,14.));
#1202=CARTESIAN_POINT('',(-72.,2.,8.25));
#1203=CARTESIAN_POINT('',(-72.,2.,14.));
#1204=CARTESIAN_POINT('Origin',(-74.,2.,14.));
#1205=CARTESIAN_POINT('',(-57.,2.,14.));
#1206=CARTESIAN_POINT('Origin',(0.,0.,0.));
#1207=CARTESIAN_POINT('',(-3.5,2.,4.28626379701574E-16));
#1208=CARTESIAN_POINT('Origin',(0.,2.,0.));
#1209=CARTESIAN_POINT('',(-3.5,0.,4.28626379701574E-16));
#1210=CARTESIAN_POINT('Origin',(-80.,0.,0.));
#1211=CARTESIAN_POINT('',(-83.5,2.,4.28626379701573E-16));
#1212=CARTESIAN_POINT('Origin',(-80.,2.,0.));
#1213=CARTESIAN_POINT('',(-83.5,0.,4.28626379701573E-16));
#1214=CARTESIAN_POINT('Origin',(10.,0.,15.));
#1215=CARTESIAN_POINT('',(10.,2.,15.));
#1216=CARTESIAN_POINT('Origin',(-40.,2.,2.5));
#1217=CARTESIAN_POINT('',(0.,0.,0.));
#1218=UNCERTAINTY_MEASURE_WITH_UNIT(LENGTH_MEASURE(0.01),#1224,
'DISTANCE_ACCURACY_VALUE',
'Maximum model space distance between geometric entities at asserted c
onnectivities');
#1219=UNCERTAINTY_MEASURE_WITH_UNIT(LENGTH_MEASURE(0.01),#1224,
'DISTANCE_ACCURACY_VALUE',
'Maximum model space distance between geometric entities at asserted c
onnectivities');
#1220=UNCERTAINTY_MEASURE_WITH_UNIT(LENGTH_MEASURE(0.01),#1224,
'DISTANCE_ACCURACY_VALUE',
'Maximum model space distance between geometric entities at asserted c
onnectivities');
#1221=(
GEOMETRIC_REPRESENTATION_CONTEXT(3)
GLOBAL_UNCERTAINTY_ASSIGNED_CONTEXT((#1218))
GLOBAL_UNIT_ASSIGNED_CONTEXT((#1224,#1226,#1227))
REPRESENTATION_CONTEXT('','3D')
);
#1222=(
GEOMETRIC_REPRESENTATION_CONTEXT(3)
GLOBAL_UNCERTAINTY_ASSIGNED_CONTEXT((#1219))
GLOBAL_UNIT_ASSIGNED_CONTEXT((#1224,#1226,#1227))
REPRESENTATION_CONTEXT('','3D')
);
#1223=(
GEOMETRIC_REPRESENTATION_CONTEXT(3)
GLOBAL_UNCERTAINTY_ASSIGNED_CONTEXT((#1220))
GLOBAL_UNIT_ASSIGNED_CONTEXT((#1224,#1226,#1227))
REPRESENTATION_CONTEXT('','3D')
);
#1224=(
LENGTH_UNIT()
NAMED_UNIT(*)
SI_UNIT(.MILLI.,.METRE.)
);
#1225=(
LENGTH_UNIT()
NAMED_UNIT(*)
SI_UNIT($,.METRE.)
);
#1226=(
NAMED_UNIT(*)
PLANE_ANGLE_UNIT()
SI_UNIT($,.RADIAN.)
);
#1227=(
NAMED_UNIT(*)
SI_UNIT($,.STERADIAN.)
SOLID_ANGLE_UNIT()
);
#1228=SHAPE_DEFINITION_REPRESENTATION(#1230,#1233);
#1229=SHAPE_DEFINITION_REPRESENTATION(#1231,#1234);
#1230=PRODUCT_DEFINITION_SHAPE('',$,#1236);
#1231=PRODUCT_DEFINITION_SHAPE('',$,#1237);
#1232=PRODUCT_DEFINITION_SHAPE($,$,#14);
#1233=SHAPE_REPRESENTATION('',(#726,#800),#1221);
#1234=SHAPE_REPRESENTATION('',(#727),#1222);
#1235=PRODUCT_DEFINITION_CONTEXT('part definition',#1243,'design');
#1236=PRODUCT_DEFINITION('2026-08-15-08-49-34-670','Enclosure bracket',
#1238,#1235);
#1237=PRODUCT_DEFINITION('2026-08-15-08-49-57-923','Bracket',#1239,#1235);
#1238=PRODUCT_DEFINITION_FORMATION('',$,#1245);
#1239=PRODUCT_DEFINITION_FORMATION('',$,#1246);
#1240=PRODUCT_RELATED_PRODUCT_CATEGORY('Enclosure bracket',
'Enclosure bracket',(#1245));
#1241=PRODUCT_RELATED_PRODUCT_CATEGORY('Bracket','Bracket',(#1246));
#1242=APPLICATION_PROTOCOL_DEFINITION('international standard',
'automotive_design',2009,#1243);
#1243=APPLICATION_CONTEXT(
'Core Data for Automotive Mechanical Design Process');
#1244=PRODUCT_CONTEXT('part definition',#1243,'mechanical');
#1245=PRODUCT('2026-08-15-08-49-34-670','Enclosure bracket',$,(#1244));
#1246=PRODUCT('2026-08-15-08-49-57-923','Bracket',$,(#1244));
#1247=PRESENTATION_STYLE_ASSIGNMENT((#1248));
#1248=SURFACE_STYLE_USAGE(.BOTH.,#1249);
#1249=SURFACE_SIDE_STYLE('',(#1250));
#1250=SURFACE_STYLE_FILL_AREA(#1251);
#1251=FILL_AREA_STYLE('Steel - Satin',(#1252));
#1252=FILL_AREA_STYLE_COLOUR('Steel - Satin',#1253);
#1253=COLOUR_RGB('Steel - Satin',0.627450980392157,0.627450980392157,0.627450980392157);
ENDSEC;
END-ISO-10303-21;
